mtllib G3_Object_Torch_01.mtl
o G3_Object_Torch_01_0
usemtl G3_Architecture_Prop_Torch_01_A
v 0.063320 1.497194 -0.069673
v 0.089194 1.497194 -0.007205
v 0.122974 1.483313 -0.007205
v 0.087207 1.483313 -0.093557
v 0.000854 1.497194 -0.095547
v 0.000854 1.483313 -0.129326
v -0.061616 1.497194 -0.069673
v -0.085503 1.483313 -0.093557
v -0.087490 1.497194 -0.007205
v -0.121270 1.483313 -0.007205
v -0.061616 1.497194 0.055264
v -0.085503 1.483313 0.079150
v 0.000854 1.497194 0.081140
v 0.000854 1.483313 0.114919
v 0.063320 1.497194 0.055264
v 0.087207 1.483313 0.079150
v 0.087520 1.464089 -0.007205
v 0.062134 1.464089 -0.068486
v 0.000854 1.397302 -0.007209
v 0.000854 1.464089 -0.093870
v -0.060430 1.464089 -0.068486
v -0.085815 1.464089 -0.007205
v -0.060430 1.464089 0.054080
v 0.000854 1.464089 0.079463
v 0.062134 1.464089 0.054080
v 0.100942 1.411632 -0.007209
v 0.071626 1.411632 -0.077981
v 0.079771 1.467151 -0.086121
v 0.112456 1.467151 -0.007207
v 0.000854 1.411632 -0.107295
v 0.000854 1.467151 -0.118809
v -0.069917 1.411632 -0.077981
v -0.078062 1.467151 -0.086121
v -0.099229 1.411632 -0.007209
v -0.110747 1.467151 -0.007207
v -0.069917 1.411632 0.063562
v -0.078062 1.467151 0.071709
v 0.000854 1.411632 0.092878
v 0.000854 1.467151 0.104395
v 0.071626 1.411632 0.063562
v 0.079771 1.467151 0.071709
v 0.062134 1.464089 -0.068486
v 0.087520 1.464089 -0.007205
v 0.000854 1.464089 -0.093870
v -0.060430 1.464089 -0.068486
v -0.085815 1.464089 -0.007205
v -0.060430 1.464089 0.054080
v 0.000854 1.464089 0.079463
v 0.062134 1.464089 0.054080
v 0.112456 1.467151 -0.007207
v 0.079771 1.467151 -0.086121
v 0.000854 1.467151 -0.118809
v -0.078062 1.467151 -0.086121
v -0.110747 1.467151 -0.007207
v -0.078062 1.467151 0.071709
v 0.000854 1.467151 0.104395
v 0.079771 1.467151 0.071709
v 0.114580 1.636093 0.001443
v 0.099268 1.480471 0.001289
v 0.107480 1.480471 -0.006924
v 0.122681 1.636843 -0.006978
v 0.114580 1.636093 -0.015400
v 0.122681 1.636843 -0.006978
v 0.107480 1.480471 -0.006924
v 0.099268 1.480471 -0.015139
v 0.114580 1.636093 0.001443
v 0.114580 1.636093 -0.015400
v 0.099268 1.480471 -0.015139
v 0.099268 1.480471 0.001289
v 0.142842 1.714510 0.001255
v 0.151968 1.717299 -0.006914
v 0.142842 1.714510 -0.015071
v 0.151968 1.717299 -0.006914
v 0.142842 1.714510 0.001255
v 0.142842 1.714510 -0.015071
v 0.009082 1.636093 -0.121116
v 0.008828 1.480471 -0.105786
v 0.000615 1.480471 -0.114001
v 0.000659 1.636843 -0.129216
v -0.007764 1.636093 -0.121116
v 0.000659 1.636843 -0.129216
v 0.000615 1.480471 -0.114001
v -0.007598 1.480471 -0.105786
v 0.009082 1.636093 -0.121116
v -0.007764 1.636093 -0.121116
v -0.007598 1.480471 -0.105786
v 0.008828 1.480471 -0.105786
v 0.009419 1.714433 -0.149282
v 0.000591 1.717453 -0.159045
v -0.008242 1.714433 -0.149282
v 0.000591 1.717453 -0.159045
v 0.009419 1.714433 -0.149282
v -0.008242 1.714433 -0.149282
v -0.111597 1.636093 -0.014868
v -0.096367 1.480471 -0.014602
v -0.106445 1.480471 -0.006389
v -0.121558 1.636843 -0.006448
v -0.111597 1.636093 0.001975
v -0.121558 1.636843 -0.006448
v -0.106445 1.480471 -0.006389
v -0.096367 1.480471 0.001826
v -0.111597 1.636093 -0.014868
v -0.111597 1.636093 0.001975
v -0.096367 1.480471 0.001826
v -0.096367 1.480471 -0.014602
v -0.141533 1.714352 -0.015696
v -0.151968 1.717619 -0.006145
v -0.141533 1.714352 0.003403
v -0.151968 1.717619 -0.006145
v -0.141533 1.714352 -0.015696
v -0.141533 1.714352 0.003403
v -0.007964 1.636093 0.105657
v -0.007793 1.480471 0.090439
v 0.000425 1.480471 0.100688
v 0.000459 1.636843 0.115791
v 0.008882 1.636093 0.105657
v 0.000459 1.636843 0.115791
v 0.000425 1.480471 0.100688
v 0.008638 1.480471 0.090439
v -0.007964 1.636093 0.105657
v 0.008882 1.636093 0.105657
v 0.008638 1.480471 0.090439
v -0.007793 1.480471 0.090439
v -0.009785 1.714292 0.135840
v 0.000283 1.717738 0.146770
v 0.010356 1.714292 0.135840
v 0.000283 1.717738 0.146770
v -0.009785 1.714292 0.135840
v 0.010356 1.714292 0.135840
v -0.110859 1.640749 -0.007803
v -0.077969 1.640749 0.071602
v -0.077969 1.640749 0.071602
v 0.001436 1.640749 0.104492
v 0.113730 1.640749 -0.007803
v 0.080840 1.640749 -0.087205
v 0.074165 1.635169 -0.080535
v 0.104292 1.635169 -0.007803
v 0.001436 1.640749 -0.120095
v 0.001436 1.635169 -0.110662
v -0.077969 1.640749 -0.087205
v -0.071299 1.635169 -0.080535
v -0.077969 1.640749 -0.087205
v -0.110859 1.640749 -0.007803
v -0.101421 1.635169 -0.007803
v -0.071299 1.635169 -0.080535
v -0.077969 1.640749 0.071602
v -0.071299 1.635169 0.064929
v 0.001436 1.640749 0.104492
v 0.001436 1.635169 0.095056
v 0.001436 1.640749 0.104492
v 0.080840 1.640749 0.071602
v 0.074165 1.635169 0.064929
v 0.001436 1.635169 0.095056
v 0.113730 1.629588 -0.007803
v 0.080840 1.629588 -0.087205
v 0.080840 1.640749 -0.087205
v 0.113730 1.640749 -0.007803
v 0.001436 1.629588 -0.120095
v 0.001436 1.640749 -0.120095
v 0.001436 1.629588 -0.120095
v -0.077969 1.629588 -0.087205
v -0.077969 1.640749 -0.087205
v 0.001436 1.640749 -0.120095
v -0.077969 1.629588 -0.087205
v -0.110859 1.629588 -0.007803
v -0.110859 1.640749 -0.007803
v -0.077969 1.640749 -0.087205
v -0.077969 1.629588 0.071602
v -0.077969 1.640749 0.071602
v -0.077969 1.629588 0.071602
v 0.001436 1.629588 0.104492
v 0.001436 1.640749 0.104492
v -0.077969 1.640749 0.071602
v 0.080840 1.629588 0.071602
v 0.080840 1.640749 0.071602
v 0.080840 1.629588 0.071602
v 0.080840 1.640749 0.071602
v 0.113730 1.629588 -0.007803
v 0.104292 1.635169 -0.007803
v 0.074165 1.635169 -0.080535
v 0.080840 1.629588 -0.087205
v 0.001436 1.635169 -0.110662
v 0.001436 1.629588 -0.120095
v -0.071299 1.635169 -0.080535
v -0.077969 1.629588 -0.087205
v -0.101421 1.635169 -0.007803
v -0.110859 1.629588 -0.007803
v -0.071299 1.635169 0.064929
v -0.077969 1.629588 0.071602
v 0.001436 1.635169 0.095056
v 0.001436 1.629588 0.104492
v 0.074165 1.635169 0.064929
v 0.080840 1.629588 0.071602
v 0.144277 1.715061 -0.007329
v 0.099966 1.715061 -0.105767
v 0.091450 1.709327 -0.097251
v 0.132231 1.709327 -0.007329
v 0.000928 1.715061 -0.150681
v 0.000928 1.709327 -0.138638
v -0.098193 1.715061 -0.106333
v -0.089678 1.709327 -0.097817
v -0.098193 1.715061 -0.106333
v -0.142427 1.715061 -0.007329
v -0.130381 1.709327 -0.007329
v -0.089678 1.709327 -0.097817
v -0.097710 1.715061 0.091899
v -0.089194 1.709327 0.083381
v 0.000928 1.715061 0.136023
v 0.000928 1.709327 0.123979
v 0.000928 1.715061 0.136023
v 0.099136 1.715061 0.091133
v 0.090620 1.709327 0.082615
v 0.000928 1.709327 0.123979
v 0.140234 1.701002 -0.007329
v 0.097109 1.701002 -0.102908
v 0.099966 1.715061 -0.105767
v 0.144277 1.715061 -0.007329
v 0.000928 1.701002 -0.146638
v 0.000928 1.715061 -0.150681
v 0.000928 1.701002 -0.146638
v -0.095337 1.701002 -0.103474
v -0.098193 1.715061 -0.106333
v 0.000928 1.715061 -0.150681
v -0.138384 1.701002 -0.007329
v -0.142427 1.715061 -0.007329
v -0.138384 1.701002 -0.007329
v -0.094854 1.701002 0.089041
v -0.097710 1.715061 0.091899
v -0.142427 1.715061 -0.007329
v 0.000928 1.701002 0.131980
v 0.000928 1.715061 0.136023
v 0.000928 1.701002 0.131980
v 0.096274 1.701002 0.088274
v 0.099136 1.715061 0.091133
v 0.000928 1.715061 0.136023
v 0.140234 1.701002 -0.007329
v 0.144277 1.715061 -0.007329
v 0.140234 1.701002 -0.007329
v 0.132231 1.709327 -0.007329
v 0.091450 1.709327 -0.097251
v 0.097109 1.701002 -0.102908
v 0.000928 1.709327 -0.138638
v 0.000928 1.701002 -0.146638
v 0.000928 1.701002 -0.146638
v 0.000928 1.709327 -0.138638
v -0.089678 1.709327 -0.097817
v -0.095337 1.701002 -0.103474
v -0.130381 1.709327 -0.007329
v -0.138384 1.701002 -0.007329
v -0.138384 1.701002 -0.007329
v -0.130381 1.709327 -0.007329
v -0.089194 1.709327 0.083381
v -0.094854 1.701002 0.089041
v 0.000928 1.709327 0.123979
v 0.000928 1.701002 0.131980
v 0.000928 1.701002 0.131980
v 0.000928 1.709327 0.123979
v 0.090620 1.709327 0.082615
v 0.096274 1.701002 0.088274
v 0.096274 1.701002 0.088274
v 0.090620 1.709327 0.082615
v 0.074683 1.636173 -0.072935
v 0.071201 1.480471 -0.069519
v 0.071201 1.480471 -0.077451
v 0.074531 1.636685 -0.080913
v 0.066553 1.636173 -0.081069
v 0.074531 1.636685 -0.080913
v 0.071201 1.480471 -0.077451
v 0.063271 1.480471 -0.077451
v 0.074683 1.636173 -0.072935
v 0.066553 1.636173 -0.081069
v 0.063271 1.480471 -0.077451
v 0.071201 1.480471 -0.069519
v 0.092153 1.714765 -0.089854
v 0.091904 1.716790 -0.097976
v 0.083779 1.714765 -0.098228
v 0.091904 1.716790 -0.097976
v 0.092153 1.714765 -0.089854
v 0.083779 1.714765 -0.098228
v -0.063379 1.636173 -0.081111
v -0.061865 1.480471 -0.076279
v -0.069800 1.480471 -0.076279
v -0.071357 1.636685 -0.080957
v -0.071509 1.636173 -0.072979
v -0.071357 1.636685 -0.080957
v -0.069800 1.480471 -0.076279
v -0.069800 1.480471 -0.068345
v -0.063379 1.636173 -0.081111
v -0.071509 1.636173 -0.072979
v -0.069800 1.480471 -0.068345
v -0.061865 1.480471 -0.076279
v -0.082153 1.714780 -0.098340
v -0.090098 1.716761 -0.098093
v -0.090347 1.714780 -0.090146
v -0.090098 1.716761 -0.098093
v -0.082153 1.714780 -0.098340
v -0.090347 1.714780 -0.090146
v -0.071519 1.636173 0.057017
v -0.068774 1.480471 0.053479
v -0.068774 1.480471 0.061411
v -0.071362 1.636685 0.064995
v -0.063384 1.636173 0.065149
v -0.071362 1.636685 0.064995
v -0.068774 1.480471 0.061411
v -0.060845 1.480471 0.061411
v -0.071519 1.636173 0.057017
v -0.063384 1.636173 0.065149
v -0.060845 1.480471 0.061411
v -0.068774 1.480471 0.053479
v -0.089175 1.714839 0.076201
v -0.088950 1.716643 0.083435
v -0.081719 1.714839 0.083660
v -0.088950 1.716643 0.083435
v -0.089175 1.714839 0.076201
v -0.081719 1.714839 0.083660
v 0.066235 1.636173 0.065693
v 0.062207 1.480471 0.064255
v 0.070142 1.480471 0.064255
v 0.074214 1.636685 0.065537
v 0.074370 1.636173 0.057559
v 0.074214 1.636685 0.065537
v 0.070142 1.480471 0.064255
v 0.070142 1.480471 0.056321
v 0.066235 1.636173 0.065693
v 0.074370 1.636173 0.057559
v 0.070142 1.480471 0.056321
v 0.062207 1.480471 0.064255
v 0.084116 1.714841 0.083191
v 0.091328 1.716639 0.082966
v 0.091553 1.714841 0.075754
v 0.091328 1.716639 0.082966
v 0.084116 1.714841 0.083191
v 0.091553 1.714841 0.075754
v -0.105869 1.568914 -0.007607
v -0.074497 1.568914 0.068132
v -0.074497 1.568914 0.068132
v 0.001240 1.568914 0.099504
v 0.108354 1.568914 -0.007607
v 0.076982 1.568914 -0.083347
v 0.070615 1.563591 -0.076982
v 0.099351 1.563591 -0.007607
v 0.001240 1.568914 -0.114719
v 0.001240 1.563591 -0.105720
v -0.074497 1.568914 -0.083347
v -0.068135 1.563591 -0.076982
v -0.074497 1.568914 -0.083347
v -0.105869 1.568914 -0.007607
v -0.096870 1.563591 -0.007607
v -0.068135 1.563591 -0.076982
v -0.074497 1.568914 0.068132
v -0.068135 1.563591 0.061768
v 0.001240 1.568914 0.099504
v 0.001240 1.563591 0.090505
v 0.001240 1.568914 0.099504
v 0.076982 1.568914 0.068132
v 0.070615 1.563591 0.061768
v 0.001240 1.563591 0.090505
v 0.108354 1.558268 -0.007607
v 0.076982 1.558268 -0.083347
v 0.076982 1.568914 -0.083347
v 0.108354 1.568914 -0.007607
v 0.076982 1.558268 -0.083347
v 0.001240 1.558268 -0.114719
v 0.001240 1.568914 -0.114719
v 0.076982 1.568914 -0.083347
v -0.074497 1.558268 -0.083347
v -0.074497 1.568914 -0.083347
v -0.074497 1.558268 -0.083347
v -0.105869 1.558268 -0.007607
v -0.105869 1.568914 -0.007607
v -0.074497 1.568914 -0.083347
v -0.074497 1.558268 0.068132
v -0.074497 1.568914 0.068132
v -0.074497 1.558268 0.068132
v 0.001240 1.558268 0.099504
v 0.001240 1.568914 0.099504
v -0.074497 1.568914 0.068132
v 0.076982 1.558268 0.068132
v 0.076982 1.568914 0.068132
v 0.076982 1.558268 0.068132
v 0.076982 1.568914 0.068132
v 0.108354 1.558268 -0.007607
v 0.099351 1.563591 -0.007607
v 0.070615 1.563591 -0.076982
v 0.076982 1.558268 -0.083347
v 0.001240 1.563591 -0.105720
v 0.001240 1.558268 -0.114719
v -0.068135 1.563591 -0.076982
v -0.074497 1.558268 -0.083347
v -0.096870 1.563591 -0.007607
v -0.105869 1.558268 -0.007607
v -0.068135 1.563591 0.061768
v -0.074497 1.558268 0.068132
v 0.001240 1.563591 0.090505
v 0.001240 1.558268 0.099504
v 0.070615 1.563591 0.061768
v 0.076982 1.558268 0.068132
v 0.010356 1.714292 0.135840
v -0.009785 1.714292 0.135840
v 0.000283 1.717738 0.146770
v 0.091553 1.714841 0.075754
v 0.084116 1.714841 0.083191
v 0.091328 1.716639 0.082966
v 0.151968 1.717299 -0.006914
v 0.142842 1.714510 -0.015071
v 0.142842 1.714510 0.001255
v 0.092153 1.714765 -0.089854
v 0.091904 1.716790 -0.097976
v 0.083779 1.714765 -0.098228
v 0.009419 1.714433 -0.149282
v 0.000591 1.717453 -0.159045
v -0.008242 1.714433 -0.149282
v -0.082153 1.714780 -0.098340
v -0.090098 1.716761 -0.098093
v -0.090347 1.714780 -0.090146
v -0.141533 1.714352 0.003403
v -0.141533 1.714352 -0.015696
v -0.151968 1.717619 -0.006145
v -0.081719 1.714839 0.083660
v -0.089175 1.714839 0.076201
v -0.088950 1.716643 0.083435
v 0.016260 0.622898 -0.018098
v 0.028960 -0.047978 -0.001912
v 0.017227 -0.047978 -0.017205
v 0.006323 0.622898 -0.042085
v -0.001880 -0.047978 -0.019719
v -0.017666 0.622898 -0.052021
v -0.017173 -0.047978 -0.007986
v -0.041655 0.622898 -0.042085
v -0.019692 -0.047978 0.011125
v -0.051592 0.622898 -0.018098
v -0.007954 -0.047978 0.026416
v -0.041655 0.622898 0.005891
v 0.011152 -0.047978 0.028933
v -0.017666 0.622898 0.015828
v 0.026445 -0.047978 0.017197
v 0.006323 0.622898 0.005891
v 0.006323 0.622898 0.005891
v 0.026445 -0.047978 0.017197
v 0.038794 1.371167 -0.045144
v 0.054507 1.371167 -0.007209
v 0.035576 1.293774 -0.007192
v 0.025405 1.293774 -0.031750
v 0.000854 1.371167 -0.060859
v 0.000845 1.293774 -0.041924
v -0.037080 1.371167 -0.045144
v -0.023716 1.293774 -0.031750
v -0.052793 1.371167 -0.007209
v -0.033887 1.293774 -0.007192
v -0.037080 1.371167 0.030728
v -0.023716 1.293774 0.017368
v 0.000854 1.371167 0.046440
v 0.000845 1.293774 0.027542
v 0.038794 1.371167 0.030728
v 0.025405 1.293774 0.017368
v 0.038794 1.371167 0.030728
v 0.025405 1.293774 0.017368
v 0.074839 1.409349 -0.007209
v 0.053174 1.409349 -0.059524
v 0.071626 1.411632 -0.077981
v 0.100942 1.411632 -0.007209
v 0.000854 1.409349 -0.081194
v 0.000854 1.411632 -0.107295
v -0.051460 1.409349 -0.059524
v -0.069917 1.411632 -0.077981
v -0.073125 1.409349 -0.007209
v -0.099229 1.411632 -0.007209
v -0.051460 1.409349 0.045105
v -0.069917 1.411632 0.063562
v 0.000854 1.409349 0.066775
v 0.000854 1.411632 0.092878
v 0.053174 1.409349 0.045105
v 0.071626 1.411632 0.063562
v 0.053174 1.409349 0.045105
v 0.071626 1.411632 0.063562
v 0.026030 1.040581 -0.022571
v 0.034116 1.043524 -0.001799
v 0.006509 1.033476 -0.031174
v -0.013013 1.026372 -0.022571
v -0.021094 1.023429 -0.001799
v -0.013013 1.026372 0.018975
v 0.006509 1.033476 0.027578
v 0.026030 1.040581 0.018975
v 0.026030 1.040581 0.018975
v -0.019917 1.526189 -0.001323
v 0.022563 1.477262 0.001484
v -0.050879 1.531910 -0.058025
v 0.022563 1.477262 0.001484
v 0.011514 1.444822 0.000828
v -0.023662 1.461444 -0.056162
v 0.022563 1.477262 0.001484
v -0.023662 1.461444 -0.056162
v -0.050879 1.531910 -0.058025
v -0.073291 1.507924 -0.067886
v -0.019917 1.526189 -0.001323
v -0.050879 1.531910 -0.058025
v -0.057871 1.532090 0.050937
v -0.073291 1.507924 -0.067886
v -0.104097 1.516272 -0.006709
v -0.081367 1.508132 0.057932
v -0.057871 1.532090 0.050937
v -0.057871 1.532090 0.050937
v -0.081367 1.508132 0.057932
v -0.030654 1.461624 0.052800
v 0.022563 1.477262 0.001484
v -0.030654 1.461624 0.052800
v 0.011514 1.444822 0.000828
v -0.030654 1.461624 0.052800
v -0.023662 1.461444 -0.056162
v -0.081367 1.508132 0.057932
v -0.104097 1.516272 -0.006709
v -0.073291 1.507924 -0.067886
v 0.022490 1.544443 0.052761
v -0.003467 1.578301 0.007363
v -0.012627 1.507767 0.085000
v -0.003467 1.578301 0.007363
v -0.013892 1.560674 -0.015996
v -0.044131 1.521824 0.025452
v -0.003467 1.578301 0.007363
v -0.044131 1.521824 0.025452
v -0.012627 1.507767 0.085000
v -0.024468 1.479228 0.073650
v 0.022490 1.544443 0.052761
v -0.012627 1.507767 0.085000
v 0.073945 1.512964 0.041418
v -0.024468 1.479228 0.073650
v 0.033281 1.456487 0.059507
v 0.075498 1.485230 0.023325
v 0.073945 1.512964 0.041418
v 0.073945 1.512964 0.041418
v 0.075498 1.485230 0.023325
v 0.042441 1.527021 -0.018130
v -0.003467 1.578301 0.007363
v 0.042441 1.527021 -0.018130
v -0.013892 1.560674 -0.015996
v 0.042441 1.527021 -0.018130
v -0.044131 1.521824 0.025452
v 0.075498 1.485230 0.023325
v 0.033281 1.456487 0.059507
v -0.024468 1.479228 0.073650
v 0.014814 1.529222 -0.035007
v 0.001533 1.508687 -0.092305
v -0.019932 1.511405 0.010740
v 0.001533 1.508687 -0.092305
v 0.005981 1.478076 -0.095181
v -0.027583 1.467112 -0.041372
v 0.001533 1.508687 -0.092305
v -0.027583 1.467112 -0.041372
v -0.019932 1.511405 0.010740
v -0.018809 1.481215 0.023806
v 0.014814 1.529222 -0.035007
v -0.019932 1.511405 0.010740
v 0.072593 1.526422 -0.014473
v -0.018809 1.481215 0.023806
v 0.043477 1.484847 0.036460
v 0.088032 1.498555 -0.005308
v 0.072593 1.526422 -0.014473
v 0.072593 1.526422 -0.014473
v 0.088032 1.498555 -0.005308
v 0.064941 1.482128 -0.066584
v 0.001533 1.508687 -0.092305
v 0.064941 1.482128 -0.066584
v 0.005981 1.478076 -0.095181
v 0.064941 1.482128 -0.066584
v -0.027583 1.467112 -0.041372
v 0.088032 1.498555 -0.005308
v 0.043477 1.484847 0.036460
v -0.018809 1.481215 0.023806
v -0.038530 1.598906 0.047529
v -0.029761 1.552037 0.087622
v 0.009082 1.631375 0.030325
v -0.029761 1.552037 0.087622
v -0.013027 1.528952 0.075288
v 0.031172 1.570793 0.054365
v -0.029761 1.552037 0.087622
v 0.031172 1.570793 0.054365
v 0.009082 1.631375 0.030325
v 0.031826 1.620564 0.009128
v -0.038530 1.598906 0.047529
v 0.009082 1.631375 0.030325
v -0.071855 1.589556 -0.003164
v 0.031826 1.620564 0.009128
v -0.010923 1.608312 -0.036421
v -0.061636 1.572275 -0.029541
v -0.071855 1.589556 -0.003164
v -0.071855 1.589556 -0.003164
v -0.061636 1.572275 -0.029541
v -0.049766 1.528973 0.020876
v -0.029761 1.552037 0.087622
v -0.049766 1.528973 0.020876
v -0.013027 1.528952 0.075288
v -0.049766 1.528973 0.020876
v 0.031172 1.570793 0.054365
v -0.061636 1.572275 -0.029541
v -0.010923 1.608312 -0.036421
v 0.031826 1.620564 0.009128
v 0.072100 1.645308 0.024070
v 0.028569 1.652747 0.068008
v 0.110127 1.598947 0.028772
v 0.028569 1.652747 0.068008
v 0.007544 1.629880 0.067759
v 0.054219 1.585586 0.066606
v 0.028569 1.652747 0.068008
v 0.054219 1.585586 0.066606
v 0.110127 1.598947 0.028772
v 0.101724 1.567756 0.022451
v 0.072100 1.645308 0.024070
v 0.110127 1.598947 0.028772
v 0.056172 1.648201 -0.035137
v 0.101724 1.567756 0.022451
v 0.081821 1.581039 -0.036538
v 0.039414 1.624630 -0.051343
v 0.056172 1.648201 -0.035137
v 0.056172 1.648201 -0.035137
v 0.039414 1.624630 -0.051343
v 0.000264 1.634840 0.002698
v 0.028569 1.652747 0.068008
v 0.000264 1.634840 0.002698
v 0.007544 1.629880 0.067759
v 0.000264 1.634840 0.002698
v 0.054219 1.585586 0.066606
v 0.039414 1.624630 -0.051343
v 0.081821 1.581039 -0.036538
v 0.101724 1.567756 0.022451
v -0.085020 1.647210 0.013770
v -0.113130 1.592611 0.043721
v -0.027529 1.669822 0.036899
v -0.113130 1.592611 0.043721
v -0.094687 1.564353 0.039001
v -0.035903 1.598065 0.058750
v -0.113130 1.592611 0.043721
v -0.035903 1.598065 0.058750
v -0.027529 1.669822 0.036899
v 0.004150 1.653508 0.031125
v -0.085020 1.647210 0.013770
v -0.027529 1.669822 0.036899
v -0.080220 1.649482 -0.053340
v 0.004150 1.653508 0.031125
v -0.002993 1.654936 -0.038311
v -0.056689 1.630023 -0.073076
v -0.080220 1.649482 -0.053340
v -0.080220 1.649482 -0.053340
v -0.056689 1.630023 -0.073076
v -0.088594 1.577725 -0.031489
v -0.113130 1.592611 0.043721
v -0.088594 1.577725 -0.031489
v -0.094687 1.564353 0.039001
v -0.088594 1.577725 -0.031489
v -0.035903 1.598065 0.058750
v -0.056689 1.630023 -0.073076
v -0.002993 1.654936 -0.038311
v 0.004150 1.653508 0.031125
v -0.012534 1.515237 -0.017859
v -0.043174 1.556896 0.016877
v -0.039360 1.493507 -0.067107
v -0.043174 1.556896 0.016877
v -0.047363 1.583844 0.002002
v -0.069526 1.552922 -0.049910
v -0.043174 1.556896 0.016877
v -0.069526 1.552922 -0.049910
v -0.039360 1.493507 -0.067107
v -0.042959 1.510648 -0.094978
v -0.012534 1.515237 -0.017859
v -0.039360 1.493507 -0.067107
v 0.045767 1.526064 -0.033718
v -0.042959 1.510648 -0.094978
v 0.019414 1.522090 -0.100505
v 0.055337 1.548242 -0.056421
v 0.045767 1.526064 -0.033718
v 0.045767 1.526064 -0.033718
v 0.055337 1.548242 -0.056421
v 0.015601 1.585479 -0.016521
v -0.043174 1.556896 0.016877
v 0.015601 1.585479 -0.016521
v -0.047363 1.583844 0.002002
v 0.015601 1.585479 -0.016521
v -0.069526 1.552922 -0.049910
v 0.055337 1.548242 -0.056421
v 0.019414 1.522090 -0.100505
v -0.042959 1.510648 -0.094978
v 0.022856 1.622399 -0.077378
v -0.012383 1.657711 -0.040066
v 0.073306 1.598405 -0.055098
v -0.012383 1.657711 -0.040066
v -0.025220 1.641326 -0.017002
v 0.031675 1.614796 -0.002812
v -0.012383 1.657711 -0.040066
v 0.031675 1.614796 -0.002812
v 0.073306 1.598405 -0.055098
v 0.073730 1.572846 -0.034360
v 0.022856 1.622399 -0.077378
v 0.073306 1.598405 -0.055098
v -0.003433 1.578311 -0.111035
v 0.073730 1.572846 -0.034360
v 0.040625 1.535397 -0.073782
v -0.014883 1.549643 -0.098953
v -0.003433 1.578311 -0.111035
v -0.003433 1.578311 -0.111035
v -0.014883 1.549643 -0.098953
v -0.045063 1.594702 -0.058750
v -0.012383 1.657711 -0.040066
v -0.045063 1.594702 -0.058750
v -0.025220 1.641326 -0.017002
v -0.045063 1.594702 -0.058750
v 0.031675 1.614796 -0.002812
v -0.014883 1.549643 -0.098953
v 0.040625 1.535397 -0.073782
v 0.073730 1.572846 -0.034360
v 0.069199 1.585312 0.019294
v 0.048574 1.567825 0.075420
v 0.106953 1.548902 -0.010137
v 0.048574 1.567825 0.075420
v 0.030195 1.542822 0.073958
v 0.073179 1.512104 0.037202
v 0.048574 1.567825 0.075420
v 0.073179 1.512104 0.037202
v 0.106953 1.548902 -0.010137
v 0.097607 1.520971 -0.024834
v 0.069199 1.585312 0.019294
v 0.106953 1.548902 -0.010137
v 0.029282 1.605762 -0.022612
v 0.097607 1.520971 -0.024834
v 0.053887 1.550042 -0.060830
v 0.007920 1.586629 -0.039238
v 0.029282 1.605762 -0.022612
v 0.029282 1.605762 -0.022612
v 0.007920 1.586629 -0.039238
v -0.004492 1.568965 0.024727
v 0.048574 1.567825 0.075420
v -0.004492 1.568965 0.024727
v 0.030195 1.542822 0.073958
v -0.004492 1.568965 0.024727
v 0.073179 1.512104 0.037202
v 0.007920 1.586629 -0.039238
v 0.053887 1.550042 -0.060830
v 0.097607 1.520971 -0.024834
v -0.141533 1.714352 -0.015696
v -0.130381 1.709327 -0.007329
v -0.121558 1.636843 -0.006448
v -0.121270 1.483313 -0.007205
v -0.113130 1.592611 0.043721
v -0.113130 1.592611 0.043721
v -0.113130 1.592611 0.043721
v -0.110859 1.629588 -0.007803
v -0.110859 1.640749 -0.007803
v -0.105869 1.568914 -0.007607
v -0.104097 1.516272 -0.006709
v -0.101421 1.635169 -0.007803
v -0.099229 1.411632 -0.007209
v -0.099229 1.411632 -0.007209
v -0.094687 1.564353 0.039001
v -0.090098 1.716761 -0.098093
v -0.089175 1.714839 0.076201
v -0.089175 1.714839 0.076201
v -0.087490 1.497194 -0.007205
v -0.087490 1.497194 -0.007205
v -0.085815 1.464089 -0.007205
v -0.085503 1.483313 -0.093557
v -0.085020 1.647210 0.013770
v -0.082153 1.714780 -0.098340
v -0.081719 1.714839 0.083660
v -0.077969 1.640749 0.071602
v -0.077969 1.640749 0.071602
v -0.077969 1.640749 0.071602
v -0.077969 1.640749 -0.087205
v -0.074497 1.558268 -0.083347
v -0.074497 1.568914 0.068132
v -0.074497 1.568914 0.068132
v -0.074497 1.568914 -0.083347
v -0.071362 1.636685 0.064995
v -0.071362 1.636685 0.064995
v -0.071357 1.636685 -0.080957
v -0.071357 1.636685 -0.080957
v -0.071299 1.635169 0.064929
v -0.071299 1.635169 -0.080535
v -0.069526 1.552922 -0.049910
v -0.068135 1.563591 0.061768
v -0.061616 1.497194 0.055264
v -0.061616 1.497194 -0.069673
v -0.060430 1.464089 0.054080
v -0.051592 0.622898 -0.018098
v -0.047363 1.583844 0.002002
v -0.044131 1.521824 0.025452
v -0.043174 1.556896 0.016877
v -0.043174 1.556896 0.016877
v -0.043174 1.556896 0.016877
v -0.041655 0.622898 0.005891
v -0.041655 0.622898 -0.042085
v -0.038530 1.598906 0.047529
v -0.035903 1.598065 0.058750
v -0.030654 1.461624 0.052800
v -0.029761 1.552037 0.087622
v -0.029761 1.552037 0.087622
v -0.029761 1.552037 0.087622
v -0.027583 1.467112 -0.041372
v -0.025220 1.641326 -0.017002
v -0.019917 1.526189 -0.001323
v -0.019692 -0.047978 0.011125
v -0.017666 0.622898 0.015828
v -0.017666 0.622898 -0.052021
v -0.017173 -0.047978 -0.007986
v -0.013892 1.560674 -0.015996
v -0.013027 1.528952 0.075288
v -0.012534 1.515237 -0.017859
v -0.012383 1.657711 -0.040066
v -0.012383 1.657711 -0.040066
v -0.012383 1.657711 -0.040066
v -0.010923 1.608312 -0.036421
v -0.009785 1.714292 0.135840
v -0.007954 -0.047978 0.026416
v -0.003467 1.578301 0.007363
v -0.003467 1.578301 0.007363
v -0.003467 1.578301 0.007363
v -0.002993 1.654936 -0.038311
v -0.001880 -0.047978 -0.019719
v 0.000459 1.636843 0.115791
v 0.000591 1.717453 -0.159045
v 0.000659 1.636843 -0.129216
v 0.000659 1.636843 -0.129216
v 0.000854 1.411632 0.092878
v 0.000854 1.411632 -0.107295
v 0.000854 1.464089 0.079463
v 0.000854 1.464089 -0.093870
v 0.000854 1.467151 0.104395
v 0.000854 1.467151 0.104395
v 0.000854 1.467151 -0.118809
v 0.000854 1.467151 -0.118809
v 0.000854 1.483313 0.114919
v 0.000854 1.483313 -0.129326
v 0.000854 1.497194 0.081140
v 0.000854 1.497194 0.081140
v 0.000854 1.497194 -0.095547
v 0.000854 1.497194 -0.095547
v 0.000928 1.709327 -0.138638
v 0.000928 1.715061 0.136023
v 0.000928 1.715061 -0.150681
v 0.001240 1.563591 -0.105720
v 0.001240 1.568914 0.099504
v 0.001240 1.568914 -0.114719
v 0.001240 1.568914 -0.114719
v 0.001436 1.635169 0.095056
v 0.001436 1.635169 -0.110662
v 0.001436 1.640749 0.104492
v 0.001436 1.640749 0.104492
v 0.001436 1.640749 -0.120095
v 0.001436 1.640749 -0.120095
v 0.001436 1.640749 -0.120095
v 0.001533 1.508687 -0.092305
v 0.001533 1.508687 -0.092305
v 0.001533 1.508687 -0.092305
v 0.005981 1.478076 -0.095181
v 0.006323 0.622898 0.005891
v 0.006323 0.622898 -0.042085
v 0.007544 1.629880 0.067759
v 0.011152 -0.047978 0.028933
v 0.011514 1.444822 0.000828
v 0.014814 1.529222 -0.035007
v 0.017227 -0.047978 -0.017205
v 0.019414 1.522090 -0.100505
v 0.022490 1.544443 0.052761
v 0.022563 1.477262 0.001484
v 0.022563 1.477262 0.001484
v 0.022563 1.477262 0.001484
v 0.022856 1.622399 -0.077378
v 0.028569 1.652747 0.068008
v 0.028569 1.652747 0.068008
v 0.028569 1.652747 0.068008
v 0.028960 -0.047978 -0.001912
v 0.030195 1.542822 0.073958
v 0.031172 1.570793 0.054365
v 0.031675 1.614796 -0.002812
v 0.033281 1.456487 0.059507
v 0.040625 1.535397 -0.073782
v 0.043477 1.484847 0.036460
v 0.048574 1.567825 0.075420
v 0.048574 1.567825 0.075420
v 0.048574 1.567825 0.075420
v 0.053174 1.409349 0.045105
v 0.053887 1.550042 -0.060830
v 0.054219 1.585586 0.066606
v 0.062134 1.464089 -0.068486
v 0.063320 1.497194 0.055264
v 0.063320 1.497194 -0.069673
v 0.069199 1.585312 0.019294
v 0.070615 1.563591 0.061768
v 0.072100 1.645308 0.024070
v 0.073179 1.512104 0.037202
v 0.074165 1.635169 0.064929
v 0.074214 1.636685 0.065537
v 0.074214 1.636685 0.065537
v 0.074531 1.636685 -0.080913
v 0.074531 1.636685 -0.080913
v 0.076982 1.568914 0.068132
v 0.076982 1.568914 0.068132
v 0.080840 1.629588 0.071602
v 0.081821 1.581039 -0.036538
v 0.084116 1.714841 0.083191
v 0.084116 1.714841 0.083191
v 0.087207 1.483313 0.079150
v 0.089194 1.497194 -0.007205
v 0.089194 1.497194 -0.007205
v 0.090620 1.709327 0.082615
v 0.091553 1.714841 0.075754
v 0.092153 1.714765 -0.089854
v 0.100942 1.411632 -0.007209
v 0.100942 1.411632 -0.007209
v 0.104292 1.635169 -0.007803
v 0.108354 1.558268 -0.007607
v 0.112456 1.467151 -0.007207
v 0.112456 1.467151 -0.007207
v 0.113730 1.629588 -0.007803
v 0.122681 1.636843 -0.006978
v 0.122681 1.636843 -0.006978
v 0.122974 1.483313 -0.007205
v 0.151968 1.717299 -0.006914
vt 0.355137 0.885231
vt 0.404919 0.765047
vt 0.469906 0.765047
vt 0.401090 0.931184
vt 0.234953 0.935012
vt 0.234953 1.000000
vt 0.114769 0.885231
vt 0.068816 0.931184
vt 0.064988 0.765047
vt 0.000000 0.765047
vt 0.114769 0.644863
vt 0.068816 0.598910
vt 0.234953 0.595081
vt 0.234953 0.530094
vt 0.355137 0.644863
vt 0.401090 0.598910
vt 0.401692 0.765047
vt 0.352855 0.882949
vt 0.234961 0.765057
vt 0.234953 0.931786
vt 0.117051 0.882949
vt 0.068214 0.765047
vt 0.117051 0.647145
vt 0.234953 0.598308
vt 0.352856 0.647145
vt 0.427518 0.765057
vt 0.371119 0.901216
vt 0.386782 0.916877
vt 0.449669 0.765052
vt 0.234961 0.957614
vt 0.234957 0.979765
vt 0.098802 0.901216
vt 0.083132 0.916877
vt 0.042404 0.765057
vt 0.020244 0.765052
vt 0.098802 0.628899
vt 0.083132 0.613227
vt 0.234961 0.572500
vt 0.234957 0.550339
vt 0.371119 0.628899
vt 0.386782 0.613227
vt 0.352855 0.882949
vt 0.401692 0.765047
vt 0.234953 0.931786
vt 0.117051 0.882949
vt 0.068214 0.765047
vt 0.117051 0.647145
vt 0.234953 0.598308
vt 0.352856 0.647145
vt 0.449669 0.765052
vt 0.386782 0.916877
vt 0.234957 0.979765
vt 0.083132 0.916877
vt 0.020244 0.765052
vt 0.083132 0.613227
vt 0.234957 0.550339
vt 0.386782 0.613227
vt 0.755975 0.635772
vt 0.692032 0.632698
vt 0.692585 0.627974
vt 0.756830 0.631055
vt 0.610924 0.662778
vt 0.610078 0.658060
vt 0.674326 0.655066
vt 0.674871 0.659790
vt 0.721895 0.686226
vt 0.721895 0.679330
vt 0.785605 0.679437
vt 0.785605 0.686162
vt 0.789297 0.631455
vt 0.791030 0.626620
vt 0.577605 0.658358
vt 0.575881 0.653524
vt 0.689792 0.686148
vt 0.689792 0.679464
vt 0.855093 0.265516
vt 0.791150 0.262417
vt 0.791704 0.257693
vt 0.855948 0.260799
vt 0.802934 0.539455
vt 0.802088 0.534737
vt 0.866339 0.531777
vt 0.866884 0.536501
vt 0.607953 0.710797
vt 0.607953 0.703901
vt 0.671662 0.703968
vt 0.671662 0.710694
vt 0.888375 0.261377
vt 0.890245 0.256180
vt 0.769664 0.535296
vt 0.767804 0.530094
vt 0.575881 0.710936
vt 0.575881 0.703704
vt 0.948717 0.137554
vt 0.884914 0.132362
vt 0.885739 0.127104
vt 0.949842 0.132324
vt 0.733997 0.594899
vt 0.735112 0.600131
vt 0.670997 0.605202
vt 0.670182 0.599942
vt 0.724502 0.661005
vt 0.724502 0.654109
vt 0.788517 0.654170
vt 0.788517 0.660896
vt 0.982233 0.133480
vt 0.984428 0.127968
vt 0.767489 0.598878
vt 0.769674 0.604393
vt 0.691423 0.661343
vt 0.691423 0.653524
vt 0.854957 0.239628
vt 0.791150 0.234490
vt 0.791984 0.229178
vt 0.856091 0.234345
vt 0.639696 0.626620
vt 0.640820 0.631905
vt 0.576705 0.636972
vt 0.575881 0.631659
vt 0.799818 0.563506
vt 0.799818 0.556610
vt 0.863528 0.556709
vt 0.863528 0.563435
vt 0.888443 0.235664
vt 0.890750 0.229877
vt 0.673184 0.630736
vt 0.675480 0.636528
vt 0.767804 0.564252
vt 0.767804 0.556007
vt 0.831205 0.021399
vt 0.863712 0.021399
vt 0.863712 0.021399
vt 0.877176 0.021399
vt 0.534109 0.682518
vt 0.498924 0.682518
vt 0.500402 0.678281
vt 0.532631 0.678281
vt 0.474044 0.661564
vt 0.477613 0.659087
vt 0.474044 0.631931
vt 0.477613 0.631944
vt 0.474044 0.721445
vt 0.501198 0.699070
vt 0.502752 0.703280
vt 0.477879 0.723775
vt 0.533724 0.699419
vt 0.532545 0.703600
vt 0.552569 0.722288
vt 0.549806 0.724548
vt 0.558988 0.631931
vt 0.558988 0.661564
vt 0.555420 0.659087
vt 0.555420 0.631944
vt 0.498924 0.768416
vt 0.534109 0.768416
vt 0.534109 0.772985
vt 0.498924 0.772985
vt 0.558988 0.768416
vt 0.558988 0.772985
vt 0.606540 0.539724
vt 0.641725 0.539724
vt 0.641725 0.544293
vt 0.606540 0.544293
vt 0.673457 0.561687
vt 0.708642 0.561687
vt 0.708642 0.566256
vt 0.673457 0.566256
vt 0.733522 0.561687
vt 0.733522 0.566256
vt 0.914828 0.040854
vt 0.950013 0.040854
vt 0.950013 0.045423
vt 0.914828 0.045423
vt 0.974892 0.040854
vt 0.974892 0.045423
vt 0.474044 0.768416
vt 0.474044 0.772985
vt 0.559329 0.555561
vt 0.555746 0.557004
vt 0.533182 0.533993
vt 0.534695 0.530439
vt 0.500955 0.533677
vt 0.499511 0.530094
vt 0.477943 0.556241
vt 0.474389 0.554728
vt 0.477627 0.588469
vt 0.474044 0.589912
vt 0.500192 0.611480
vt 0.498679 0.615034
vt 0.532419 0.611796
vt 0.533862 0.615379
vt 0.555430 0.589231
vt 0.558984 0.590744
vt 0.868955 0.069013
vt 0.824761 0.069066
vt 0.826503 0.063891
vt 0.866925 0.063944
vt 0.791311 0.042952
vt 0.795805 0.040072
vt 0.791150 0.003438
vt 0.795763 0.003911
vt 0.791150 0.210116
vt 0.823183 0.179382
vt 0.825247 0.184438
vt 0.796000 0.212627
vt 0.865035 0.180228
vt 0.863540 0.185321
vt 0.892264 0.208594
vt 0.888524 0.211195
vt 0.898276 0.000000
vt 0.898081 0.039293
vt 0.893468 0.036669
vt 0.893782 0.000729
vt 0.867976 0.291413
vt 0.825180 0.288055
vt 0.825062 0.282067
vt 0.869120 0.285535
vt 0.792205 0.292813
vt 0.791150 0.286975
vt 0.985581 0.188748
vt 0.942525 0.185369
vt 0.942404 0.179382
vt 0.986722 0.182869
vt 0.909873 0.190198
vt 0.908816 0.184361
vt 0.550881 0.750473
vt 0.507722 0.747087
vt 0.507606 0.741099
vt 0.552025 0.744595
vt 0.475099 0.751864
vt 0.474044 0.746026
vt 0.977104 0.604245
vt 0.934295 0.600886
vt 0.934187 0.594899
vt 0.978257 0.598368
vt 0.901178 0.605517
vt 0.900127 0.599677
vt 0.960381 0.085645
vt 0.959031 0.090175
vt 0.918609 0.090202
vt 0.917454 0.085618
vt 0.887898 0.107980
vt 0.884914 0.104534
vt 0.653630 0.604835
vt 0.651283 0.608938
vt 0.611681 0.599625
vt 0.611600 0.594899
vt 0.577999 0.610068
vt 0.575881 0.606034
vt 0.751253 0.540056
vt 0.748898 0.544155
vt 0.709195 0.534820
vt 0.709124 0.530094
vt 0.675571 0.545136
vt 0.673457 0.541097
vt 0.549054 0.642390
vt 0.547686 0.646915
vt 0.507251 0.646946
vt 0.506114 0.642358
vt 0.988624 0.107236
vt 0.985559 0.110552
vt 0.949327 0.289701
vt 0.885672 0.286102
vt 0.885926 0.282864
vt 0.949792 0.286461
vt 0.609582 0.687153
vt 0.609123 0.683912
vt 0.672992 0.680377
vt 0.673240 0.683615
vt 0.720685 0.708413
vt 0.720685 0.703704
vt 0.784458 0.703802
vt 0.784458 0.708395
vt 0.981946 0.285317
vt 0.983033 0.282067
vt 0.576962 0.682581
vt 0.575881 0.679330
vt 0.688214 0.708573
vt 0.688214 0.703725
vt 0.948509 0.162427
vt 0.884914 0.158050
vt 0.885168 0.154812
vt 0.948973 0.159187
vt 0.913761 0.563734
vt 0.913302 0.560493
vt 0.977213 0.557510
vt 0.977462 0.560749
vt 0.837536 0.659079
vt 0.837536 0.654370
vt 0.901305 0.653524
vt 0.901305 0.658117
vt 0.981193 0.157286
vt 0.982256 0.154106
vt 0.881137 0.559188
vt 0.880080 0.556007
vt 0.805068 0.658631
vt 0.805068 0.653887
vt 0.849885 0.603100
vt 0.786226 0.599550
vt 0.786480 0.596312
vt 0.850350 0.599860
vt 0.917083 0.538010
vt 0.916624 0.534769
vt 0.980470 0.530932
vt 0.980718 0.534171
vt 0.608377 0.732248
vt 0.608377 0.727539
vt 0.672145 0.727885
vt 0.672145 0.732478
vt 0.882607 0.597793
vt 0.883575 0.594899
vt 0.884399 0.532990
vt 0.883436 0.530094
vt 0.575881 0.731806
vt 0.575881 0.727488
vt 0.854826 0.317025
vt 0.791150 0.313675
vt 0.791405 0.310437
vt 0.855291 0.313785
vt 0.841393 0.634383
vt 0.840935 0.631142
vt 0.904760 0.626754
vt 0.905010 0.629992
vt 0.823600 0.338286
vt 0.823600 0.333577
vt 0.887362 0.334442
vt 0.887362 0.339036
vt 0.887506 0.312251
vt 0.888471 0.309365
vt 0.808540 0.629509
vt 0.807582 0.626620
vt 0.791150 0.338175
vt 0.791150 0.333869
vt 0.506114 0.638136
vt 0.537120 0.638136
vt 0.537120 0.638136
vt 0.549964 0.638136
vt 0.633174 0.578347
vt 0.599613 0.578347
vt 0.601022 0.574305
vt 0.631764 0.574305
vt 0.575881 0.558360
vt 0.579285 0.555998
vt 0.575881 0.530094
vt 0.579285 0.530106
vt 0.914828 0.021343
vt 0.940729 0.000000
vt 0.942211 0.004016
vt 0.918486 0.023565
vt 0.971754 0.000333
vt 0.970629 0.004321
vt 0.989729 0.022148
vt 0.987094 0.024303
vt 0.656906 0.530094
vt 0.656906 0.558360
vt 0.653502 0.555998
vt 0.653502 0.530106
vt 0.930528 0.256180
vt 0.964090 0.256180
vt 0.964090 0.260538
vt 0.930528 0.260538
vt 0.921561 0.626620
vt 0.955123 0.626620
vt 0.955123 0.630978
vt 0.921561 0.630978
vt 0.978854 0.626620
vt 0.978854 0.630978
vt 0.908816 0.206750
vt 0.942378 0.206750
vt 0.942378 0.211108
vt 0.908816 0.211108
vt 0.966109 0.206750
vt 0.966109 0.211108
vt 0.907302 0.229178
vt 0.940864 0.229178
vt 0.940864 0.233536
vt 0.907302 0.233536
vt 0.964595 0.229178
vt 0.964595 0.233536
vt 0.906797 0.256180
vt 0.906797 0.260538
vt 0.791150 0.142676
vt 0.794568 0.141299
vt 0.816091 0.163249
vt 0.814648 0.166639
vt 0.846831 0.163550
vt 0.848208 0.166968
vt 0.868781 0.142027
vt 0.872171 0.143470
vt 0.869082 0.111287
vt 0.872500 0.109910
vt 0.847559 0.089337
vt 0.849002 0.085947
vt 0.816819 0.089036
vt 0.815442 0.085618
vt 0.794869 0.110559
vt 0.791479 0.109116
vt 0.954689 0.023734
vt 0.946443 0.023734
vt 0.950566 0.019042
vt 0.934561 0.097934
vt 0.938866 0.097934
vt 0.936713 0.100086
vt 0.927078 0.100086
vt 0.923739 0.096351
vt 0.930423 0.096351
vt 0.961251 0.023734
vt 0.958827 0.021309
vt 0.961251 0.018885
vt 0.526298 0.719959
vt 0.522684 0.723955
vt 0.519066 0.719959
vt 0.928483 0.105855
vt 0.926111 0.108226
vt 0.923739 0.105855
vt 0.514928 0.723955
vt 0.507109 0.723955
vt 0.511020 0.719684
vt 0.932621 0.106067
vt 0.936939 0.106067
vt 0.934780 0.108226
vt 0.207009 0.231802
vt 0.114349 0.000000
vt 0.199233 0.000000
vt 0.299740 0.231802
vt 0.342615 0.000000
vt 0.363010 0.231802
vt 0.494552 0.000000
vt 0.420118 0.231802
vt 0.583735 0.000000
vt 0.475871 0.231802
vt 0.651460 0.000000
vt 0.534080 0.231802
vt 0.713169 0.000000
vt 0.602810 0.231802
vt 0.774599 0.000000
vt 0.726765 0.231802
vt 0.000000 0.231802
vt 0.047834 0.000000
vt 0.226659 0.490346
vt 0.135880 0.490346
vt 0.135821 0.463605
vt 0.226645 0.463605
vt 0.317705 0.490346
vt 0.317655 0.463605
vt 0.408483 0.490346
vt 0.408820 0.463605
vt 0.499529 0.490346
vt 0.499588 0.463605
vt 0.590308 0.490346
vt 0.590322 0.463605
vt 0.681087 0.490346
vt 0.681048 0.463605
vt 0.771866 0.490346
vt 0.771797 0.463605
vt 0.045101 0.490346
vt 0.045032 0.463605
vt 0.135880 0.505355
vt 0.226659 0.505355
vt 0.226659 0.513542
vt 0.135880 0.513542
vt 0.317705 0.505355
vt 0.317705 0.513542
vt 0.408483 0.505355
vt 0.408751 0.513542
vt 0.499529 0.505355
vt 0.499529 0.513542
vt 0.590308 0.505355
vt 0.590308 0.513542
vt 0.681087 0.505355
vt 0.681087 0.513542
vt 0.771866 0.505355
vt 0.771866 0.513542
vt 0.045101 0.505355
vt 0.045101 0.509908
vt 0.199479 0.376121
vt 0.117240 0.377138
vt 0.291065 0.373666
vt 0.402843 0.371211
vt 0.527460 0.370194
vt 0.624792 0.371211
vt 0.699707 0.373666
vt 0.769592 0.376121
vt 0.042827 0.376121
vt 0.221301 0.780769
vt 0.291619 0.780769
vt 0.186142 0.841666
vt 0.226740 0.812292
vt 0.226740 0.733861
vt 0.287638 0.712846
vt 0.161861 0.812292
vt 0.197020 0.712846
vt 0.267339 0.812292
vt 0.272778 0.733861
vt 0.226740 0.848691
vt 0.165843 0.812292
vt 0.287638 0.812292
vt 0.156422 0.733861
vt 0.226740 0.712846
vt 0.297059 0.733861
vt 0.186142 0.719871
vt 0.186142 0.812292
vt 0.180703 0.733861
vt 0.256460 0.712846
vt 0.291619 0.812292
vt 0.165843 0.712846
vt 0.150983 0.780769
vt 0.197020 0.719871
vt 0.197020 0.841666
vt 0.272778 0.710450
vt 0.302498 0.780769
vt 0.272778 0.851087
vt 0.221301 0.780769
vt 0.291619 0.780769
vt 0.186142 0.841666
vt 0.226740 0.812292
vt 0.226740 0.733861
vt 0.287638 0.712846
vt 0.161861 0.812292
vt 0.197020 0.712846
vt 0.267339 0.812292
vt 0.272778 0.733861
vt 0.226740 0.848691
vt 0.165843 0.812292
vt 0.287638 0.812292
vt 0.156422 0.733861
vt 0.226740 0.712846
vt 0.297059 0.733861
vt 0.186142 0.719871
vt 0.186142 0.812292
vt 0.180703 0.733861
vt 0.256460 0.712846
vt 0.291619 0.812292
vt 0.165843 0.712846
vt 0.150983 0.780769
vt 0.197020 0.719871
vt 0.197020 0.841666
vt 0.272778 0.710450
vt 0.302498 0.780769
vt 0.272778 0.851087
vt 0.221301 0.780769
vt 0.291619 0.780769
vt 0.186142 0.841666
vt 0.226740 0.812292
vt 0.226740 0.733861
vt 0.287638 0.712846
vt 0.161861 0.812292
vt 0.197020 0.712846
vt 0.267339 0.812292
vt 0.272778 0.733861
vt 0.226740 0.848691
vt 0.165843 0.812292
vt 0.287638 0.812292
vt 0.156422 0.733861
vt 0.226740 0.712846
vt 0.297059 0.733861
vt 0.186142 0.719871
vt 0.186142 0.812292
vt 0.180703 0.733861
vt 0.256460 0.712846
vt 0.291619 0.812292
vt 0.165843 0.712846
vt 0.150983 0.780769
vt 0.197020 0.719871
vt 0.197020 0.841666
vt 0.272778 0.710450
vt 0.302498 0.780769
vt 0.272778 0.851087
vt 0.221301 0.780769
vt 0.291619 0.780769
vt 0.186142 0.841666
vt 0.226740 0.812292
vt 0.226740 0.733861
vt 0.287638 0.712846
vt 0.161861 0.812292
vt 0.197020 0.712846
vt 0.267339 0.812292
vt 0.272778 0.733861
vt 0.226740 0.848691
vt 0.165843 0.812292
vt 0.287638 0.812292
vt 0.156422 0.733861
vt 0.226740 0.712846
vt 0.297059 0.733861
vt 0.186142 0.719871
vt 0.186142 0.812292
vt 0.180703 0.733861
vt 0.256460 0.712846
vt 0.291619 0.812292
vt 0.165843 0.712846
vt 0.150983 0.780769
vt 0.197020 0.719871
vt 0.197020 0.841666
vt 0.272778 0.710450
vt 0.302498 0.780769
vt 0.272778 0.851087
vt 0.221301 0.780769
vt 0.291619 0.780769
vt 0.186142 0.841666
vt 0.226740 0.812292
vt 0.226740 0.733861
vt 0.287638 0.712846
vt 0.161861 0.812292
vt 0.197020 0.712846
vt 0.267339 0.812292
vt 0.272778 0.733861
vt 0.226740 0.848691
vt 0.165843 0.812292
vt 0.287638 0.812292
vt 0.156422 0.733861
vt 0.226740 0.712846
vt 0.297059 0.733861
vt 0.186142 0.719871
vt 0.186142 0.812292
vt 0.180703 0.733861
vt 0.256460 0.712846
vt 0.291619 0.812292
vt 0.165843 0.712846
vt 0.150983 0.780769
vt 0.197020 0.719871
vt 0.197020 0.841666
vt 0.272778 0.710450
vt 0.302498 0.780769
vt 0.272778 0.851087
vt 0.221301 0.780769
vt 0.291619 0.780769
vt 0.186142 0.841666
vt 0.226740 0.812292
vt 0.226740 0.733861
vt 0.287638 0.712846
vt 0.161861 0.812292
vt 0.197020 0.712846
vt 0.267339 0.812292
vt 0.272778 0.733861
vt 0.226740 0.848691
vt 0.165843 0.812292
vt 0.287638 0.812292
vt 0.156422 0.733861
vt 0.226740 0.712846
vt 0.297059 0.733861
vt 0.186142 0.719871
vt 0.186142 0.812292
vt 0.180703 0.733861
vt 0.256460 0.712846
vt 0.291619 0.812292
vt 0.165843 0.712846
vt 0.150983 0.780769
vt 0.197020 0.719871
vt 0.197020 0.841666
vt 0.272778 0.710450
vt 0.302498 0.780769
vt 0.272778 0.851087
vt 0.221301 0.780769
vt 0.291619 0.780769
vt 0.186142 0.841666
vt 0.226740 0.812292
vt 0.226740 0.733861
vt 0.287638 0.712846
vt 0.161861 0.812292
vt 0.197020 0.712846
vt 0.267339 0.812292
vt 0.272778 0.733861
vt 0.226740 0.848691
vt 0.165843 0.812292
vt 0.287638 0.812292
vt 0.156422 0.733861
vt 0.226740 0.712846
vt 0.297059 0.733861
vt 0.186142 0.719871
vt 0.186142 0.812292
vt 0.180703 0.733861
vt 0.256460 0.712846
vt 0.291619 0.812292
vt 0.165843 0.712846
vt 0.150983 0.780769
vt 0.197020 0.719871
vt 0.197020 0.841666
vt 0.272778 0.710450
vt 0.302498 0.780769
vt 0.272778 0.851087
vt 0.221301 0.780769
vt 0.291619 0.780769
vt 0.186142 0.841666
vt 0.226740 0.812292
vt 0.226740 0.733861
vt 0.287638 0.712846
vt 0.161861 0.812292
vt 0.197020 0.712846
vt 0.267339 0.812292
vt 0.272778 0.733861
vt 0.226740 0.848691
vt 0.165843 0.812292
vt 0.287638 0.812292
vt 0.156422 0.733861
vt 0.226740 0.712846
vt 0.297059 0.733861
vt 0.186142 0.719871
vt 0.186142 0.812292
vt 0.180703 0.733861
vt 0.256460 0.712846
vt 0.291619 0.812292
vt 0.165843 0.712846
vt 0.150983 0.780769
vt 0.197020 0.719871
vt 0.197020 0.841666
vt 0.272778 0.710450
vt 0.302498 0.780769
vt 0.272778 0.851087
vt 0.221301 0.780769
vt 0.291619 0.780769
vt 0.186142 0.841666
vt 0.226740 0.812292
vt 0.226740 0.733861
vt 0.287638 0.712846
vt 0.161861 0.812292
vt 0.197020 0.712846
vt 0.267339 0.812292
vt 0.272778 0.733861
vt 0.226740 0.848691
vt 0.165843 0.812292
vt 0.287638 0.812292
vt 0.156422 0.733861
vt 0.226740 0.712846
vt 0.297059 0.733861
vt 0.186142 0.719871
vt 0.186142 0.812292
vt 0.180703 0.733861
vt 0.256460 0.712846
vt 0.291619 0.812292
vt 0.165843 0.712846
vt 0.150983 0.780769
vt 0.197020 0.719871
vt 0.197020 0.841666
vt 0.272778 0.710450
vt 0.302498 0.780769
vt 0.272778 0.851087
vt 0.691423 0.661343
vt 0.825247 0.184438
vt 0.949842 0.132324
vt 0.000000 0.765047
vt 0.226740 0.812292
vt 0.291619 0.780769
vt 0.291619 0.780769
vt 0.474044 0.589912
vt 0.708642 0.566256
vt 0.942378 0.211108
vt 0.302498 0.780769
vt 0.502752 0.703280
vt 0.042404 0.765057
vt 0.499529 0.513542
vt 0.226740 0.733861
vt 0.926111 0.108226
vt 0.882607 0.597793
vt 0.575881 0.731806
vt 0.064988 0.765047
vt 0.064988 0.765047
vt 0.068214 0.765047
vt 0.068816 0.931184
vt 0.221301 0.780769
vt 0.805068 0.658631
vt 0.884399 0.532990
vt 0.533724 0.699419
vt 0.533724 0.699419
vt 0.733522 0.566256
vt 0.641725 0.544293
vt 0.872171 0.143470
vt 0.971754 0.000333
vt 0.966109 0.211108
vt 0.978854 0.630978
vt 0.916624 0.534769
vt 0.850350 0.599860
vt 0.948973 0.159187
vt 0.948973 0.159187
vt 0.532545 0.703600
vt 0.477613 0.631944
vt 0.197020 0.841666
vt 0.970629 0.004321
vt 0.114769 0.644863
vt 0.114769 0.885231
vt 0.117051 0.647145
vt 0.475871 0.231802
vt 0.226740 0.733861
vt 0.197020 0.841666
vt 0.226740 0.812292
vt 0.291619 0.780769
vt 0.291619 0.780769
vt 0.534080 0.231802
vt 0.420118 0.231802
vt 0.221301 0.780769
vt 0.197020 0.841666
vt 0.197020 0.719871
vt 0.226740 0.812292
vt 0.291619 0.780769
vt 0.291619 0.780769
vt 0.197020 0.841666
vt 0.226740 0.733861
vt 0.221301 0.780769
vt 0.583735 0.000000
vt 0.602810 0.231802
vt 0.363010 0.231802
vt 0.494552 0.000000
vt 0.226740 0.733861
vt 0.226740 0.733861
vt 0.221301 0.780769
vt 0.226740 0.812292
vt 0.291619 0.780769
vt 0.291619 0.780769
vt 0.302498 0.780769
vt 0.767804 0.564252
vt 0.651460 0.000000
vt 0.226740 0.812292
vt 0.291619 0.780769
vt 0.291619 0.780769
vt 0.302498 0.780769
vt 0.342615 0.000000
vt 0.856091 0.234345
vt 0.522684 0.723955
vt 0.855948 0.260799
vt 0.855948 0.260799
vt 0.234961 0.572500
vt 0.234961 0.957614
vt 0.234953 0.598308
vt 0.234953 0.931786
vt 0.234957 0.550339
vt 0.234957 0.550339
vt 0.234957 0.979765
vt 0.234957 0.979765
vt 0.234953 0.530094
vt 0.234953 1.000000
vt 0.234953 0.595081
vt 0.234953 0.595081
vt 0.234953 0.935012
vt 0.234953 0.935012
vt 0.795805 0.040072
vt 0.474044 0.746026
vt 0.791150 0.286975
vt 0.579285 0.555998
vt 0.940864 0.233536
vt 0.575881 0.558360
vt 0.955123 0.630978
vt 0.549806 0.724548
vt 0.477613 0.659087
vt 0.558988 0.631931
vt 0.950013 0.045423
vt 0.474044 0.661564
vt 0.474044 0.661564
vt 0.558988 0.772985
vt 0.226740 0.812292
vt 0.291619 0.780769
vt 0.291619 0.780769
vt 0.226740 0.733861
vt 0.726765 0.231802
vt 0.299740 0.231802
vt 0.226740 0.733861
vt 0.713169 0.000000
vt 0.226740 0.733861
vt 0.221301 0.780769
vt 0.199233 0.000000
vt 0.302498 0.780769
vt 0.221301 0.780769
vt 0.226740 0.812292
vt 0.291619 0.780769
vt 0.291619 0.780769
vt 0.221301 0.780769
vt 0.226740 0.812292
vt 0.291619 0.780769
vt 0.291619 0.780769
vt 0.114349 0.000000
vt 0.226740 0.733861
vt 0.197020 0.841666
vt 0.197020 0.841666
vt 0.302498 0.780769
vt 0.302498 0.780769
vt 0.302498 0.780769
vt 0.226740 0.812292
vt 0.291619 0.780769
vt 0.291619 0.780769
vt 0.771866 0.505355
vt 0.302498 0.780769
vt 0.197020 0.841666
vt 0.352855 0.882949
vt 0.355137 0.644863
vt 0.355137 0.885231
vt 0.221301 0.780769
vt 0.653502 0.555998
vt 0.221301 0.780769
vt 0.197020 0.841666
vt 0.555420 0.659087
vt 0.840935 0.631142
vt 0.855291 0.313785
vt 0.949792 0.286461
vt 0.949792 0.286461
vt 0.656906 0.558360
vt 0.964595 0.233536
vt 0.558984 0.590744
vt 0.302498 0.780769
vt 0.887506 0.312251
vt 0.791150 0.338175
vt 0.401090 0.598910
vt 0.404919 0.765047
vt 0.404919 0.765047
vt 0.893468 0.036669
vt 0.808540 0.629509
vt 0.688214 0.708573
vt 0.427518 0.765057
vt 0.135880 0.513542
vt 0.555746 0.557004
vt 0.791150 0.142676
vt 0.449669 0.765052
vt 0.449669 0.765052
vt 0.559329 0.555561
vt 0.756830 0.631055
vt 0.756830 0.631055
vt 0.469906 0.765047
vt 0.927078 0.100086
vn -0.253548 0.933502 0.253548
vn -0.358571 0.933502 0.000000
vn 0.966978 0.254858 0.000019
vn 0.683755 0.254883 -0.683750
vn 0.000000 0.933502 0.358571
vn -0.000014 0.254871 -0.966975
vn 0.253548 0.933502 0.253548
vn -0.683779 0.254831 -0.683745
vn 0.358571 0.933502 -0.000000
vn -0.966998 0.254785 0.000019
vn 0.253548 0.933502 -0.253548
vn -0.683773 0.254761 0.683778
vn -0.000000 0.933502 -0.358571
vn -0.000014 0.254772 0.967001
vn -0.253548 0.933502 -0.253548
vn 0.683749 0.254812 0.683782
vn -0.610421 0.792077 -0.000006
vn -0.431642 0.792068 0.431641
vn -0.000024 1.000000 0.000032
vn 0.000004 0.792072 0.610427
vn 0.431629 0.792087 0.431619
vn 0.610386 0.792104 -0.000006
vn 0.431599 0.792113 -0.431601
vn 0.000004 0.792109 -0.610380
vn -0.431613 0.792094 -0.431622
vn 0.979166 -0.203064 -0.000012
vn 0.692376 -0.203042 -0.692380
vn 0.692379 -0.203042 -0.692377
vn 0.979166 -0.203064 0.000010
vn 0.000009 -0.203052 -0.979168
vn -0.000008 -0.203052 -0.979168
vn -0.692360 -0.203089 -0.692382
vn -0.692380 -0.203089 -0.692362
vn -0.979152 -0.203131 -0.000012
vn -0.979152 -0.203131 0.000011
vn -0.692363 -0.203153 0.692360
vn -0.692360 -0.203153 0.692363
vn 0.000009 -0.203142 0.979149
vn -0.000008 -0.203142 0.979149
vn 0.692379 -0.203106 0.692358
vn 0.692360 -0.203106 0.692377
vn -0.706201 0.050593 0.706201
vn -0.998719 0.050593 0.000000
vn 0.000000 0.050593 0.998719
vn 0.706201 0.050593 0.706201
vn 0.998719 0.050593 -0.000000
vn 0.706201 0.050593 -0.706201
vn -0.000000 0.050593 -0.998719
vn -0.706201 0.050593 -0.706201
vn 0.838115 -0.545493 -0.000036
vn 0.592655 -0.545445 -0.592664
vn 0.000026 -0.545467 -0.838132
vn -0.592582 -0.545547 -0.592643
vn -0.838022 -0.545636 -0.000035
vn -0.592553 -0.545685 0.592544
vn 0.000026 -0.545662 0.838005
vn 0.592626 -0.545583 0.592565
vn -0.410347 0.110097 0.905259
vn -0.429600 0.041376 0.902071
vn 0.995076 -0.099113 0.000164
vn 0.971686 -0.236275 -0.000325
vn -0.410044 0.110309 -0.905371
vn 0.971686 -0.236275 -0.000325
vn 0.995076 -0.099113 0.000164
vn -0.429770 0.040771 -0.902017
vn -0.410347 0.110097 0.905259
vn -0.410044 0.110309 -0.905371
vn -0.429770 0.040771 -0.902017
vn -0.429600 0.041376 0.902071
vn -0.195112 0.509249 0.838210
vn 0.804641 0.593761 -0.000012
vn -0.195516 0.509945 -0.837693
vn 0.804641 0.593761 -0.000012
vn -0.195112 0.509249 0.838210
vn -0.195516 0.509945 -0.837693
vn 0.905186 0.107410 0.411219
vn 0.901995 0.040871 0.429808
vn -0.000139 -0.099225 -0.995065
vn 0.000325 -0.240001 -0.970773
vn -0.905080 0.107126 0.411526
vn 0.000325 -0.240001 -0.970773
vn -0.000139 -0.099225 -0.995065
vn -0.902040 0.041383 0.429664
vn 0.905186 0.107410 0.411219
vn -0.905080 0.107126 0.411526
vn -0.902040 0.041383 0.429664
vn 0.901995 0.040871 0.429808
vn 0.840664 0.506016 0.192956
vn -0.000103 0.594014 -0.804455
vn -0.841160 0.505293 0.192688
vn -0.000103 0.594014 -0.804455
vn 0.840664 0.506016 0.192956
vn -0.841160 0.505293 0.192688
vn 0.458361 0.119193 -0.880737
vn 0.472585 0.044744 -0.880148
vn -0.995101 -0.098866 0.000199
vn -0.966209 -0.257755 -0.001410
vn 0.459590 0.117285 0.880353
vn -0.966209 -0.257755 -0.001410
vn -0.995101 -0.098866 0.000199
vn 0.472390 0.045389 0.880220
vn 0.458361 0.119193 -0.880737
vn 0.459590 0.117285 0.880353
vn 0.472390 0.045389 0.880220
vn 0.472585 0.044744 -0.880148
vn 0.180350 0.511068 -0.840407
vn -0.804256 0.594281 0.001184
vn 0.180175 0.507971 0.842320
vn -0.804256 0.594281 0.001184
vn 0.180350 0.511068 -0.840407
vn 0.180175 0.507971 0.842320
vn -0.877938 0.117328 -0.464175
vn -0.878360 0.045559 -0.475823
vn -0.000123 -0.098807 0.995107
vn 0.000834 -0.263540 0.964648
vn 0.878173 0.118421 -0.463454
vn 0.000834 -0.263540 0.964648
vn -0.000123 -0.098807 0.995107
vn 0.878315 0.045163 -0.475944
vn -0.877938 0.117328 -0.464175
vn 0.878173 0.118421 -0.463454
vn 0.878315 0.045163 -0.475944
vn -0.878360 0.045559 -0.475823
vn -0.843973 0.506353 -0.176965
vn -0.000614 0.593640 0.804730
vn 0.842855 0.508150 -0.177141
vn -0.000614 0.593640 0.804730
vn -0.843973 0.506353 -0.176965
vn 0.842855 0.508150 -0.177141
vn -0.626430 0.779477 0.000000
vn -0.707107 0.000000 0.707107
vn 0.359953 0.860737 -0.359953
vn 0.000000 0.779477 0.626431
vn 0.626431 0.779477 -0.000000
vn 0.442953 0.779477 -0.442953
vn -0.707106 0.000008 0.707107
vn -1.000000 0.000008 0.000000
vn 0.000000 0.779477 -0.626431
vn 0.000000 0.000008 1.000000
vn -0.442953 0.779477 -0.442953
vn 0.707107 0.000008 0.707107
vn -0.442953 0.779477 -0.442953
vn -0.626430 0.779477 0.000000
vn 1.000000 0.000008 -0.000000
vn 0.707107 0.000008 0.707107
vn 0.359953 0.860737 -0.359953
vn 0.707107 0.000008 -0.707107
vn 0.000000 0.779477 0.626431
vn -0.000000 0.000008 -1.000000
vn 0.000000 0.779477 0.626431
vn 0.442954 0.779477 0.442953
vn -0.707107 0.000008 -0.707107
vn -0.000000 0.000008 -1.000000
vn 0.626427 -0.779480 -0.000000
vn 0.442950 -0.779480 -0.442951
vn 0.442953 0.779477 -0.442953
vn 0.626431 0.779477 -0.000000
vn -0.000000 -0.779480 -0.626427
vn 0.000000 0.779477 -0.626431
vn -0.000000 -0.779480 -0.626427
vn -0.442951 -0.779480 -0.442951
vn -0.442953 0.779477 -0.442953
vn 0.000000 0.779477 -0.626431
vn -0.442951 -0.779480 -0.442951
vn -0.626427 -0.779480 0.000000
vn -0.626430 0.779477 0.000000
vn -0.442953 0.779477 -0.442953
vn -0.442951 -0.779481 0.442951
vn -0.707107 0.000000 0.707107
vn -0.442951 -0.779481 0.442951
vn 0.000000 -0.779480 0.626427
vn 0.000000 0.779477 0.626431
vn -0.707107 0.000000 0.707107
vn 0.442951 -0.779480 0.442951
vn 0.442954 0.779477 0.442953
vn 0.442951 -0.779480 0.442951
vn 0.442954 0.779477 0.442953
vn 0.626427 -0.779480 -0.000000
vn -1.000000 0.000008 0.000000
vn -0.707106 0.000008 0.707107
vn 0.442950 -0.779480 -0.442951
vn 0.000000 0.000008 1.000000
vn -0.000000 -0.779480 -0.626427
vn 0.707107 0.000008 0.707107
vn -0.442951 -0.779480 -0.442951
vn 1.000000 0.000008 -0.000000
vn -0.626427 -0.779480 0.000000
vn 0.707107 0.000008 -0.707107
vn -0.442951 -0.779481 0.442951
vn -0.000000 0.000008 -1.000000
vn 0.000000 -0.779480 0.626427
vn -0.707107 0.000008 -0.707107
vn 0.442951 -0.779480 0.442951
vn 0.752661 0.658398 0.003679
vn 0.523455 0.672315 -0.523438
vn -0.691545 0.222786 0.687119
vn -0.972117 0.234478 -0.003067
vn 0.002872 0.659055 -0.752089
vn -0.001981 0.233874 0.972265
vn -0.524779 0.671444 -0.523231
vn 0.688619 0.223459 0.689833
vn -0.524779 0.671444 -0.523231
vn -0.751848 0.659337 0.000303
vn 0.972324 0.233610 -0.003456
vn 0.688619 0.223459 0.689833
vn -0.522391 0.671787 0.525177
vn 0.688934 0.223191 -0.689606
vn 0.002049 0.658721 0.752384
vn -0.006860 0.234166 -0.972172
vn 0.002049 0.658721 0.752384
vn 0.523285 0.673404 0.522207
vn -0.687840 0.221952 -0.691096
vn -0.006860 0.234166 -0.972172
vn 0.432015 -0.901861 0.003099
vn 0.286892 -0.913892 -0.287219
vn 0.523455 0.672315 -0.523438
vn 0.752661 0.658398 0.003679
vn 0.002437 -0.902452 -0.430784
vn 0.002872 0.659055 -0.752089
vn 0.002437 -0.902452 -0.430784
vn -0.288923 -0.913166 -0.287493
vn -0.524779 0.671444 -0.523231
vn 0.002872 0.659055 -0.752089
vn -0.430255 -0.902708 0.000062
vn -0.751848 0.659337 0.000303
vn -0.430255 -0.902708 0.000062
vn -0.286575 -0.913453 0.288928
vn -0.522391 0.671787 0.525177
vn -0.751848 0.659337 0.000303
vn 0.001418 -0.902158 0.431403
vn 0.002049 0.658721 0.752384
vn 0.001418 -0.902158 0.431403
vn 0.286206 -0.914794 0.285022
vn 0.523285 0.673404 0.522207
vn 0.002049 0.658721 0.752384
vn 0.432015 -0.901861 0.003099
vn 0.752661 0.658398 0.003679
vn 0.432015 -0.901861 0.003099
vn -0.972117 0.234478 -0.003067
vn -0.691545 0.222786 0.687119
vn 0.286892 -0.913892 -0.287219
vn -0.001981 0.233874 0.972265
vn 0.002437 -0.902452 -0.430784
vn 0.002437 -0.902452 -0.430784
vn -0.001981 0.233874 0.972265
vn 0.688619 0.223459 0.689833
vn -0.288923 -0.913166 -0.287493
vn 0.972324 0.233610 -0.003456
vn -0.430255 -0.902708 0.000062
vn -0.430255 -0.902708 0.000062
vn 0.972324 0.233610 -0.003456
vn 0.688934 0.223191 -0.689606
vn -0.286575 -0.913453 0.288928
vn -0.006860 0.234166 -0.972172
vn 0.001418 -0.902158 0.431403
vn 0.001418 -0.902158 0.431403
vn -0.006860 0.234166 -0.972172
vn -0.687840 0.221952 -0.691096
vn 0.286206 -0.914794 0.285022
vn 0.286206 -0.914794 0.285022
vn -0.687840 0.221952 -0.691096
vn 0.336732 0.083529 0.937888
vn 0.366979 0.012209 0.930149
vn 0.706941 -0.032176 -0.706540
vn 0.694647 -0.181901 -0.695972
vn -0.937469 0.084800 -0.337581
vn 0.694647 -0.181901 -0.695972
vn 0.706941 -0.032176 -0.706540
vn -0.930269 0.011086 -0.366711
vn 0.336732 0.083529 0.937888
vn -0.937469 0.084800 -0.337581
vn -0.930269 0.011086 -0.366711
vn 0.366979 0.012209 0.930149
vn 0.471910 0.499798 0.726294
vn 0.543950 0.639895 -0.542819
vn -0.725491 0.502051 -0.470752
vn 0.543950 0.639895 -0.542819
vn 0.471910 0.499798 0.726294
vn -0.725491 0.502051 -0.470752
vn 0.937273 0.086379 -0.337724
vn 0.931013 -0.002296 -0.364978
vn -0.711382 -0.029567 -0.702184
vn -0.689697 -0.187685 -0.699352
vn -0.330970 0.090657 0.939276
vn -0.689697 -0.187685 -0.699352
vn -0.711382 -0.029567 -0.702184
vn -0.371083 0.023545 0.928301
vn 0.937273 0.086379 -0.337724
vn -0.330970 0.090657 0.939276
vn -0.371083 0.023545 0.928301
vn 0.931013 -0.002296 -0.364978
vn 0.719584 0.507048 -0.474449
vn -0.548362 0.636347 -0.542552
vn -0.480333 0.495389 0.723789
vn -0.548362 0.636347 -0.542552
vn 0.719584 0.507048 -0.474449
vn -0.480333 0.495389 0.723789
vn -0.334496 0.097425 -0.937348
vn -0.369212 0.014615 -0.929230
vn -0.708269 -0.029354 0.705332
vn -0.695499 -0.188222 0.693436
vn 0.938622 0.088039 0.333524
vn -0.695499 -0.188222 0.693436
vn -0.708269 -0.029354 0.705332
vn 0.930096 0.006359 0.367262
vn -0.334496 0.097425 -0.937348
vn 0.938622 0.088039 0.333524
vn 0.930096 0.006359 0.367262
vn -0.369212 0.014615 -0.929230
vn -0.477774 0.506732 -0.717604
vn -0.544198 0.635875 0.547277
vn 0.719851 0.500557 0.480891
vn -0.544198 0.635875 0.547277
vn -0.477774 0.506732 -0.717604
vn 0.719851 0.500557 0.480891
vn -0.938180 0.093651 0.333238
vn -0.927706 0.020559 0.372744
vn 0.702763 -0.025602 0.710964
vn 0.697838 -0.179405 0.693423
vn 0.336711 0.083226 -0.937923
vn 0.697838 -0.179405 0.693423
vn 0.702763 -0.025602 0.710964
vn 0.367310 -0.002583 -0.930095
vn -0.938180 0.093651 0.333238
vn 0.336711 0.083226 -0.937923
vn 0.367310 -0.002583 -0.930095
vn -0.927706 0.020559 0.372744
vn -0.722722 0.502977 0.474011
vn 0.543064 0.639465 0.544211
vn 0.472834 0.505259 -0.721901
vn 0.543064 0.639465 0.544211
vn -0.722722 0.502977 0.474011
vn 0.472834 0.505259 -0.721901
vn -0.626429 0.779479 0.000000
vn -0.707107 0.000000 0.707107
vn 0.359955 0.860735 -0.359956
vn 0.000000 0.779478 0.626429
vn 0.626429 0.779479 -0.000000
vn 0.442952 0.779479 -0.442952
vn -0.707106 0.000008 0.707107
vn -1.000000 0.000008 0.000000
vn -0.000000 0.779479 -0.626429
vn 0.000000 0.000008 1.000000
vn -0.442952 0.779478 -0.442952
vn 0.707107 0.000008 0.707107
vn -0.442952 0.779478 -0.442952
vn -0.626429 0.779479 0.000000
vn 1.000000 0.000008 -0.000000
vn 0.707107 0.000008 0.707107
vn 0.359955 0.860735 -0.359956
vn 0.707107 0.000008 -0.707107
vn 0.000000 0.779478 0.626429
vn 0.000000 0.000008 -1.000000
vn 0.000000 0.779478 0.626429
vn 0.442952 0.779478 0.442952
vn -0.707107 0.000008 -0.707107
vn 0.000000 0.000008 -1.000000
vn 0.626425 -0.779482 -0.000000
vn 0.442949 -0.779482 -0.442949
vn 0.442952 0.779479 -0.442952
vn 0.626429 0.779479 -0.000000
vn 0.442949 -0.779482 -0.442949
vn -0.000000 -0.779482 -0.626425
vn -0.000000 0.779479 -0.626429
vn 0.442952 0.779479 -0.442952
vn -0.442950 -0.779482 -0.442949
vn -0.442952 0.779478 -0.442952
vn -0.442950 -0.779482 -0.442949
vn -0.626425 -0.779482 0.000000
vn -0.626429 0.779479 0.000000
vn -0.442952 0.779478 -0.442952
vn -0.442949 -0.779482 0.442949
vn -0.707107 0.000000 0.707107
vn -0.442949 -0.779482 0.442949
vn 0.000000 -0.779482 0.626425
vn 0.000000 0.779478 0.626429
vn -0.707107 0.000000 0.707107
vn 0.442950 -0.779482 0.442949
vn 0.442952 0.779478 0.442952
vn 0.442950 -0.779482 0.442949
vn 0.442952 0.779478 0.442952
vn 0.626425 -0.779482 -0.000000
vn -1.000000 0.000008 0.000000
vn -0.707106 0.000008 0.707107
vn 0.442949 -0.779482 -0.442949
vn 0.000000 0.000008 1.000000
vn -0.000000 -0.779482 -0.626425
vn 0.707107 0.000008 0.707107
vn -0.442950 -0.779482 -0.442949
vn 1.000000 0.000008 -0.000000
vn -0.626425 -0.779482 0.000000
vn 0.707107 0.000008 -0.707107
vn -0.442949 -0.779482 0.442949
vn 0.000000 0.000008 -1.000000
vn 0.000000 -0.779482 0.626425
vn -0.707107 0.000008 -0.707107
vn 0.442950 -0.779482 0.442949
vn 0.842855 0.508150 -0.177141
vn -0.843973 0.506353 -0.176965
vn -0.000614 0.593640 0.804730
vn 0.472834 0.505259 -0.721901
vn -0.722722 0.502977 0.474011
vn 0.543064 0.639465 0.544211
vn 0.804641 0.593761 -0.000012
vn -0.195516 0.509945 -0.837693
vn -0.195112 0.509249 0.838210
vn 0.471910 0.499798 0.726294
vn 0.543950 0.639895 -0.542819
vn -0.725491 0.502051 -0.470752
vn 0.840664 0.506016 0.192956
vn -0.000103 0.594014 -0.804455
vn -0.841160 0.505293 0.192688
vn 0.719584 0.507048 -0.474449
vn -0.548362 0.636347 -0.542552
vn -0.480333 0.495389 0.723789
vn 0.180175 0.507971 0.842320
vn 0.180350 0.511068 -0.840407
vn -0.804256 0.594281 0.001184
vn 0.719851 0.500557 0.480891
vn -0.477774 0.506732 -0.717604
vn -0.544198 0.635875 0.547277
vn 0.999862 -0.014128 -0.008717
vn 0.968312 0.017713 -0.249115
vn 0.509587 -0.018216 -0.860226
vn 0.697321 -0.009414 -0.716697
vn -0.252950 -0.047151 -0.966330
vn -0.011368 0.000297 -0.999935
vn -0.866438 -0.051648 -0.496607
vn -0.708562 0.009643 -0.705583
vn -0.962841 -0.028966 0.268511
vn -0.999889 0.011761 -0.009093
vn -0.490335 0.007145 0.871505
vn -0.717425 0.004801 0.696620
vn 0.264079 0.035352 0.963853
vn -0.010991 -0.005765 0.999923
vn 0.863819 0.039669 0.502238
vn 0.706273 -0.012858 0.707822
vn 0.706273 -0.012858 0.707822
vn 0.863819 0.039669 0.502238
vn 0.657710 -0.367186 -0.657717
vn 0.930166 -0.367138 -0.000022
vn 0.992057 -0.125756 -0.002814
vn 0.698518 -0.135702 -0.702608
vn 0.000015 -0.367168 -0.930154
vn -0.002134 -0.144339 -0.989526
vn -0.657720 -0.367097 -0.657757
vn -0.699638 -0.148894 -0.698812
vn -0.930216 -0.367013 -0.000022
vn -0.989268 -0.146100 -0.002094
vn -0.657779 -0.366965 0.657772
vn -0.703640 -0.135041 0.697606
vn 0.000015 -0.366982 0.930228
vn -0.002352 -0.123472 0.992345
vn 0.657769 -0.367054 0.657732
vn 0.702197 -0.120074 0.701784
vn 0.657769 -0.367054 0.657732
vn 0.702197 -0.120074 0.701784
vn 0.458171 -0.888864 -0.000000
vn 0.323976 -0.888864 -0.323976
vn 0.061625 -0.996195 -0.061625
vn 0.087150 -0.996195 -0.000000
vn -0.000000 -0.888864 -0.458171
vn -0.000000 -0.996195 -0.087150
vn -0.323976 -0.888864 -0.323976
vn -0.061625 -0.996195 -0.061625
vn -0.458171 -0.888864 0.000000
vn -0.087150 -0.996195 0.000000
vn -0.323976 -0.888864 0.323976
vn -0.061625 -0.996195 0.061625
vn 0.000000 -0.888864 0.458171
vn 0.000000 -0.996195 0.087150
vn 0.323976 -0.888864 0.323976
vn 0.061625 -0.996195 0.061625
vn 0.323976 -0.888864 0.323976
vn 0.061625 -0.996195 0.061625
vn 0.731533 -0.014872 -0.681643
vn 0.999730 -0.022370 0.006305
vn 0.010054 0.001370 -0.999949
vn -0.723745 0.018747 -0.689813
vn -0.999783 0.019447 0.007472
vn -0.713059 0.000612 0.701104
vn 0.016439 -0.018794 0.999688
vn 0.725052 -0.023343 0.688298
vn 0.725052 -0.023343 0.688298
vn 0.577786 0.815405 0.035733
vn 0.988027 0.140758 0.063174
vn 0.142432 0.769962 -0.621990
vn 0.988027 0.140758 0.063174
vn 0.535154 -0.843998 0.035737
vn 0.152932 -0.626614 -0.764177
vn 0.988027 0.140758 0.063174
vn 0.152932 -0.626614 -0.764177
vn 0.142432 0.769962 -0.621990
vn -0.543584 -0.041312 -0.838337
vn 0.577786 0.815405 0.035733
vn 0.142432 0.769962 -0.621990
vn 0.061922 0.772033 0.632559
vn -0.543584 -0.041312 -0.838337
vn -0.986617 0.150155 -0.063564
vn -0.646292 -0.038670 0.762110
vn 0.061922 0.772033 0.632559
vn 0.061922 0.772033 0.632559
vn -0.646292 -0.038670 0.762110
vn 0.053866 -0.624065 0.779513
vn 0.988027 0.140758 0.063174
vn 0.053866 -0.624065 0.779513
vn 0.535154 -0.843998 0.035737
vn 0.053866 -0.624065 0.779513
vn 0.152932 -0.626614 -0.764177
vn -0.646292 -0.038670 0.762110
vn -0.986617 0.150155 -0.063564
vn -0.543584 -0.041312 -0.838337
vn 0.281738 0.709997 0.645389
vn -0.091592 0.995171 -0.035299
vn -0.250343 0.223128 0.942095
vn -0.091592 0.995171 -0.035299
vn -0.441622 0.351697 -0.825396
vn -0.975528 -0.085849 -0.202423
vn -0.091592 0.995171 -0.035299
vn -0.975528 -0.085849 -0.202423
vn -0.250343 0.223128 0.942095
vn -0.641448 -0.642909 0.418583
vn 0.281738 0.709997 0.645389
vn -0.250343 0.223128 0.942095
vn 0.875775 0.307653 0.371979
vn -0.641448 -0.642909 0.418583
vn 0.206848 -0.935160 0.287557
vn 0.785840 -0.537945 -0.305076
vn 0.875775 0.307653 0.371979
vn 0.875775 0.307653 0.371979
vn 0.785840 -0.537945 -0.305076
vn 0.409190 0.014328 -0.912337
vn -0.091592 0.995171 -0.035299
vn 0.409190 0.014328 -0.912337
vn -0.441622 0.351697 -0.825396
vn 0.409190 0.014328 -0.912337
vn -0.975528 -0.085849 -0.202423
vn 0.785840 -0.537945 -0.305076
vn 0.206848 -0.935160 0.287557
vn -0.641448 -0.642909 0.418583
vn -0.183608 0.978974 -0.088873
vn -0.313594 0.542554 -0.779290
vn -0.650935 0.627548 0.427162
vn -0.313594 0.542554 -0.779290
vn -0.149297 -0.520491 -0.840714
vn -0.760142 -0.632519 -0.148676
vn -0.313594 0.542554 -0.779290
vn -0.760142 -0.632519 -0.148676
vn -0.650935 0.627548 0.427162
vn -0.573713 -0.418609 0.704002
vn -0.183608 0.978974 -0.088873
vn -0.650935 0.627548 0.427162
vn 0.549633 0.831134 0.084373
vn -0.573713 -0.418609 0.704002
vn 0.300284 -0.290320 0.908595
vn 0.948900 -0.162588 0.270469
vn 0.549633 0.831134 0.084373
vn 0.549633 0.831134 0.084373
vn 0.948900 -0.162588 0.270469
vn 0.720584 -0.390191 -0.573158
vn -0.313594 0.542554 -0.779290
vn 0.720584 -0.390191 -0.573158
vn -0.149297 -0.520491 -0.840714
vn 0.720584 -0.390191 -0.573158
vn -0.760142 -0.632519 -0.148676
vn 0.948900 -0.162588 0.270469
vn 0.300284 -0.290320 0.908595
vn -0.573713 -0.418609 0.704002
vn -0.551304 0.631482 0.545248
vn -0.339701 -0.064772 0.938301
vn 0.139443 0.929911 0.340324
vn -0.339701 -0.064772 0.938301
vn 0.244057 -0.844194 0.477256
vn 0.918111 -0.221100 0.328918
vn -0.339701 -0.064772 0.938301
vn 0.918111 -0.221100 0.328918
vn 0.139443 0.929911 0.340324
vn 0.856963 0.422170 -0.295611
vn -0.551304 0.631482 0.545248
vn 0.139443 0.929911 0.340324
vn -0.920580 0.382255 -0.080080
vn 0.856963 0.422170 -0.295611
vn 0.211875 0.317718 -0.924210
vn -0.485643 -0.272962 -0.830447
vn -0.920580 0.382255 -0.080080
vn -0.920580 0.382255 -0.080080
vn -0.485643 -0.272962 -0.830447
vn -0.383811 -0.903287 -0.191733
vn -0.339701 -0.064772 0.938301
vn -0.383811 -0.903287 -0.191733
vn 0.244057 -0.844194 0.477256
vn -0.383811 -0.903287 -0.191733
vn 0.918111 -0.221100 0.328918
vn -0.485643 -0.272962 -0.830447
vn 0.211875 0.317718 -0.924210
vn 0.856963 0.422170 -0.295611
vn 0.570628 0.808791 0.142274
vn -0.073032 0.749278 0.658216
vn 0.953318 0.140846 0.267108
vn -0.073032 0.749278 0.658216
vn -0.782130 -0.061007 0.620122
vn -0.078193 -0.653917 0.752515
vn -0.073032 0.749278 0.658216
vn -0.078193 -0.653917 0.752515
vn 0.953318 0.140846 0.267108
vn 0.524481 -0.843818 0.113535
vn 0.570628 0.808791 0.142274
vn 0.953318 0.140846 0.267108
vn 0.247429 0.794865 -0.554047
vn 0.524481 -0.843818 0.113535
vn 0.306185 -0.606340 -0.733895
vn -0.371145 -0.016760 -0.928424
vn 0.247429 0.794865 -0.554047
vn 0.247429 0.794865 -0.554047
vn -0.371145 -0.016760 -0.928424
vn -0.954796 0.146265 -0.258788
vn -0.073032 0.749278 0.658216
vn -0.954796 0.146265 -0.258788
vn -0.782130 -0.061007 0.620122
vn -0.954796 0.146265 -0.258788
vn -0.078193 -0.653917 0.752515
vn -0.371145 -0.016760 -0.928424
vn 0.306185 -0.606340 -0.733895
vn 0.524481 -0.843818 0.113535
vn -0.660745 0.716112 0.224945
vn -0.853384 -0.032012 0.520300
vn 0.044404 0.845709 0.531794
vn -0.853384 -0.032012 0.520300
vn -0.243602 -0.904034 0.351256
vn 0.465473 -0.459479 0.756448
vn -0.853384 -0.032012 0.520300
vn 0.465473 -0.459479 0.756448
vn 0.044404 0.845709 0.531794
vn 0.908798 0.213365 0.358555
vn -0.660745 0.716112 0.224945
vn 0.044404 0.845709 0.531794
vn -0.596037 0.601836 -0.531539
vn 0.908798 0.213365 0.358555
vn 0.786901 0.307480 -0.535016
vn 0.098854 -0.096819 -0.990381
vn -0.596037 0.601836 -0.531539
vn -0.596037 0.601836 -0.531539
vn 0.098854 -0.096819 -0.990381
vn -0.319970 -0.768001 -0.554791
vn -0.853384 -0.032012 0.520300
vn -0.319970 -0.768001 -0.554791
vn -0.243602 -0.904034 0.351256
vn -0.319970 -0.768001 -0.554791
vn 0.465473 -0.459479 0.756448
vn 0.098854 -0.096819 -0.990381
vn 0.786901 0.307480 -0.535016
vn 0.908798 0.213365 0.358555
vn 0.054038 -0.780919 0.622290
vn -0.334601 -0.121008 0.934559
vn -0.357460 -0.933662 -0.022322
vn -0.334601 -0.121008 0.934559
vn -0.462031 0.798032 0.386874
vn -0.908339 0.317474 -0.272270
vn -0.334601 -0.121008 0.934559
vn -0.908339 0.317474 -0.272270
vn -0.357460 -0.933662 -0.022322
vn -0.485986 -0.234520 -0.841914
vn 0.054038 -0.780919 0.622290
vn -0.357460 -0.933662 -0.022322
vn 0.745822 -0.509835 0.428739
vn -0.485986 -0.234520 -0.841914
vn 0.414961 -0.148616 -0.897620
vn 0.912970 0.304063 -0.272088
vn 0.745822 -0.509835 0.428739
vn 0.745822 -0.509835 0.428739
vn 0.912970 0.304063 -0.272088
vn 0.449802 0.847953 0.280452
vn -0.334601 -0.121008 0.934559
vn 0.449802 0.847953 0.280452
vn -0.462031 0.798032 0.386874
vn 0.449802 0.847953 0.280452
vn -0.908339 0.317474 -0.272270
vn 0.912970 0.304063 -0.272088
vn 0.414961 -0.148616 -0.897620
vn -0.485986 -0.234520 -0.841914
vn 0.315522 0.669459 -0.672511
vn -0.178020 0.980251 -0.086116
vn 0.897790 0.356292 -0.258899
vn -0.178020 0.980251 -0.086116
vn -0.604339 0.379813 0.700369
vn 0.257530 0.142019 0.955777
vn -0.178020 0.980251 -0.086116
vn 0.257530 0.142019 0.955777
vn 0.897790 0.356292 -0.258899
vn 0.766188 -0.426454 0.480721
vn 0.315522 0.669459 -0.672511
vn 0.897790 0.356292 -0.258899
vn -0.106396 0.110983 -0.988111
vn 0.766188 -0.426454 0.480721
vn 0.339853 -0.929782 -0.141442
vn -0.507098 -0.739552 -0.442622
vn -0.106396 0.110983 -0.988111
vn -0.106396 0.110983 -0.988111
vn -0.507098 -0.739552 -0.442622
vn -0.984390 -0.163993 0.063898
vn -0.178020 0.980251 -0.086116
vn -0.984390 -0.163993 0.063898
vn -0.604339 0.379813 0.700369
vn -0.984390 -0.163993 0.063898
vn 0.257530 0.142019 0.955777
vn -0.507098 -0.739552 -0.442622
vn 0.339853 -0.929782 -0.141442
vn 0.766188 -0.426454 0.480721
vn 0.551288 0.802392 0.228577
vn 0.194073 0.436410 0.878568
vn 0.970753 0.224537 -0.084981
vn 0.194073 0.436410 0.878568
vn -0.437340 -0.431969 0.788757
vn 0.272959 -0.879743 0.389289
vn 0.194073 0.436410 0.878568
vn 0.272959 -0.879743 0.389289
vn 0.970753 0.224537 -0.084981
vn 0.547947 -0.706145 -0.448458
vn 0.551288 0.802392 0.228577
vn 0.970753 0.224537 -0.084981
vn -0.039250 0.971951 -0.231886
vn 0.547947 -0.706145 -0.448458
vn -0.020593 -0.232402 -0.972402
vn -0.733490 0.239680 -0.636039
vn -0.039250 0.971951 -0.231886
vn -0.039250 0.971951 -0.231886
vn -0.733490 0.239680 -0.636039
vn -0.977310 0.034465 0.208992
vn 0.194073 0.436410 0.878568
vn -0.977310 0.034465 0.208992
vn -0.437340 -0.431969 0.788757
vn -0.977310 0.034465 0.208992
vn 0.272959 -0.879743 0.389289
vn -0.733490 0.239680 -0.636039
vn -0.020593 -0.232402 -0.972402
vn 0.547947 -0.706145 -0.448458
vn 0.180350 0.511068 -0.840407
vn 0.972324 0.233610 -0.003456
vn -0.966209 -0.257755 -0.001410
vn -0.966998 0.254785 0.000019
vn -0.853384 -0.032012 0.520300
vn -0.853384 -0.032012 0.520300
vn -0.853384 -0.032012 0.520300
vn -0.626427 -0.779480 0.000000
vn -0.626430 0.779477 0.000000
vn -0.626429 0.779479 0.000000
vn -0.986617 0.150155 -0.063564
vn 1.000000 0.000008 -0.000000
vn -0.979152 -0.203131 -0.000012
vn -0.087150 -0.996195 0.000000
vn -0.243602 -0.904034 0.351256
vn -0.548362 0.636347 -0.542552
vn -0.477774 0.506732 -0.717604
vn -0.477774 0.506732 -0.717604
vn 0.358571 0.933502 -0.000000
vn 0.358571 0.933502 -0.000000
vn 0.998719 0.050593 -0.000000
vn -0.683779 0.254831 -0.683745
vn -0.660745 0.716112 0.224945
vn 0.719584 0.507048 -0.474449
vn 0.719851 0.500557 0.480891
vn 0.359953 0.860737 -0.359953
vn 0.359953 0.860737 -0.359953
vn -0.707107 0.000000 0.707107
vn -0.442953 0.779477 -0.442953
vn -0.442950 -0.779482 -0.442949
vn 0.359955 0.860735 -0.359956
vn -0.707107 0.000000 0.707107
vn -0.442952 0.779478 -0.442952
vn -0.695499 -0.188222 0.693436
vn -0.695499 -0.188222 0.693436
vn -0.689697 -0.187685 -0.699352
vn -0.689697 -0.187685 -0.699352
vn 0.707107 0.000008 -0.707107
vn 0.707107 0.000008 0.707107
vn -0.908339 0.317474 -0.272270
vn 0.707107 0.000008 -0.707107
vn 0.253548 0.933502 -0.253548
vn 0.253548 0.933502 0.253548
vn 0.706201 0.050593 -0.706201
vn -0.999889 0.011761 -0.009093
vn -0.462031 0.798032 0.386874
vn -0.975528 -0.085849 -0.202423
vn -0.334601 -0.121008 0.934559
vn -0.334601 -0.121008 0.934559
vn -0.334601 -0.121008 0.934559
vn -0.717425 0.004801 0.696620
vn -0.708562 0.009643 -0.705583
vn -0.551304 0.631482 0.545248
vn 0.465473 -0.459479 0.756448
vn 0.053866 -0.624065 0.779513
vn -0.339701 -0.064772 0.938301
vn -0.339701 -0.064772 0.938301
vn -0.339701 -0.064772 0.938301
vn -0.760142 -0.632519 -0.148676
vn -0.604339 0.379813 0.700369
vn 0.577786 0.815405 0.035733
vn -0.962841 -0.028966 0.268511
vn -0.010991 -0.005765 0.999923
vn -0.011368 0.000297 -0.999935
vn -0.866438 -0.051648 -0.496607
vn -0.441622 0.351697 -0.825396
vn 0.244057 -0.844194 0.477256
vn 0.054038 -0.780919 0.622290
vn -0.178020 0.980251 -0.086116
vn -0.178020 0.980251 -0.086116
vn -0.178020 0.980251 -0.086116
vn 0.211875 0.317718 -0.924210
vn -0.843973 0.506353 -0.176965
vn -0.490335 0.007145 0.871505
vn -0.091592 0.995171 -0.035299
vn -0.091592 0.995171 -0.035299
vn -0.091592 0.995171 -0.035299
vn 0.786901 0.307480 -0.535016
vn -0.252950 -0.047151 -0.966330
vn 0.000834 -0.263540 0.964648
vn -0.000103 0.594014 -0.804455
vn 0.000325 -0.240001 -0.970773
vn 0.000325 -0.240001 -0.970773
vn 0.000009 -0.203142 0.979149
vn 0.000009 -0.203052 -0.979168
vn -0.000000 0.050593 -0.998719
vn 0.000000 0.050593 0.998719
vn 0.000026 -0.545662 0.838005
vn -0.000008 -0.203142 0.979149
vn 0.000026 -0.545467 -0.838132
vn -0.000008 -0.203052 -0.979168
vn -0.000014 0.254772 0.967001
vn -0.000014 0.254871 -0.966975
vn -0.000000 0.933502 -0.358571
vn -0.000000 0.933502 -0.358571
vn 0.000000 0.933502 0.358571
vn 0.000000 0.933502 0.358571
vn -0.001981 0.233874 0.972265
vn 0.002049 0.658721 0.752384
vn 0.002872 0.659055 -0.752089
vn 0.000000 0.000008 1.000000
vn 0.000000 0.779478 0.626429
vn -0.000000 0.779479 -0.626429
vn -0.000000 0.779479 -0.626429
vn -0.000000 0.000008 -1.000000
vn 0.000000 0.000008 1.000000
vn 0.000000 0.779477 0.626431
vn 0.000000 0.779477 0.626431
vn 0.000000 0.779477 -0.626431
vn 0.000000 0.779477 -0.626431
vn 0.000000 0.779477 -0.626431
vn -0.313594 0.542554 -0.779290
vn -0.313594 0.542554 -0.779290
vn -0.313594 0.542554 -0.779290
vn -0.149297 -0.520491 -0.840714
vn 0.706273 -0.012858 0.707822
vn 0.697321 -0.009414 -0.716697
vn -0.782130 -0.061007 0.620122
vn 0.264079 0.035352 0.963853
vn 0.535154 -0.843998 0.035737
vn -0.183608 0.978974 -0.088873
vn 0.509587 -0.018216 -0.860226
vn 0.414961 -0.148616 -0.897620
vn 0.281738 0.709997 0.645389
vn 0.988027 0.140758 0.063174
vn 0.988027 0.140758 0.063174
vn 0.988027 0.140758 0.063174
vn 0.315522 0.669459 -0.672511
vn -0.073032 0.749278 0.658216
vn -0.073032 0.749278 0.658216
vn -0.073032 0.749278 0.658216
vn 0.968312 0.017713 -0.249115
vn -0.437340 -0.431969 0.788757
vn 0.918111 -0.221100 0.328918
vn 0.257530 0.142019 0.955777
vn 0.206848 -0.935160 0.287557
vn 0.339853 -0.929782 -0.141442
vn 0.300284 -0.290320 0.908595
vn 0.194073 0.436410 0.878568
vn 0.194073 0.436410 0.878568
vn 0.194073 0.436410 0.878568
vn 0.323976 -0.888864 0.323976
vn -0.020593 -0.232402 -0.972402
vn -0.078193 -0.653917 0.752515
vn -0.706201 0.050593 0.706201
vn -0.253548 0.933502 -0.253548
vn -0.253548 0.933502 0.253548
vn 0.551288 0.802392 0.228577
vn -0.707107 0.000008 -0.707107
vn 0.570628 0.808791 0.142274
vn 0.272959 -0.879743 0.389289
vn -0.707107 0.000008 -0.707107
vn 0.697838 -0.179405 0.693423
vn 0.697838 -0.179405 0.693423
vn 0.694647 -0.181901 -0.695972
vn 0.694647 -0.181901 -0.695972
vn 0.442952 0.779478 0.442952
vn 0.442952 0.779478 0.442952
vn 0.442951 -0.779480 0.442951
vn 0.306185 -0.606340 -0.733895
vn -0.722722 0.502977 0.474011
vn -0.722722 0.502977 0.474011
vn 0.683749 0.254812 0.683782
vn -0.358571 0.933502 0.000000
vn -0.358571 0.933502 0.000000
vn -0.687840 0.221952 -0.691096
vn 0.472834 0.505259 -0.721901
vn 0.471910 0.499798 0.726294
vn 0.979166 -0.203064 -0.000012
vn 0.087150 -0.996195 -0.000000
vn -1.000000 0.000008 0.000000
vn 0.626425 -0.779482 -0.000000
vn 0.979166 -0.203064 0.000010
vn 0.838115 -0.545493 -0.000036
vn 0.626427 -0.779480 -0.000000
vn 0.971686 -0.236275 -0.000325
vn 0.971686 -0.236275 -0.000325
vn 0.966978 0.254858 0.000019
vn 0.804641 0.593761 -0.000012
f 3/3/3 2/2/2 1/1/1
f 1/1/1 4/4/4 3/3/3
f 4/4/4 1/1/1 5/5/5
f 5/5/5 6/6/6 4/4/4
f 6/6/6 5/5/5 7/7/7
f 7/7/7 8/8/8 6/6/6
f 8/8/8 7/7/7 9/9/9
f 9/9/9 10/10/10 8/8/8
f 10/10/10 9/9/9 11/11/11
f 11/11/11 12/12/12 10/10/10
f 12/12/12 11/11/11 13/13/13
f 13/13/13 14/14/14 12/12/12
f 14/14/14 13/13/13 15/15/15
f 15/15/15 16/16/16 14/14/14
f 16/16/16 15/15/15 2/2/2
f 2/2/2 3/3/3 16/16/16
f 19/19/19 18/18/18 17/17/17
f 19/19/19 20/20/20 18/18/18
f 19/19/19 21/21/21 20/20/20
f 19/19/19 22/22/22 21/21/21
f 19/19/19 23/23/23 22/22/22
f 19/19/19 24/24/24 23/23/23
f 19/19/19 25/25/25 24/24/24
f 19/19/19 17/17/17 25/25/25
f 28/28/28 27/27/27 26/26/26
f 26/26/26 29/29/29 28/28/28
f 31/31/31 30/30/30 27/27/27
f 27/27/27 28/28/28 31/31/31
f 33/33/33 32/32/32 821/821/821
f 821/821/821 827/827/827 33/33/33
f 35/35/35 34/34/34 32/32/32
f 32/32/32 33/33/33 35/35/35
f 37/37/37 36/36/36 749/749/749
f 749/749/749 35/35/35 37/37/37
f 39/39/39 38/38/38 36/36/36
f 36/36/36 37/37/37 39/39/39
f 41/41/41 40/40/40 820/820/820
f 820/820/820 825/825/825 41/41/41
f 909/909/909 905/905/905 40/40/40
f 40/40/40 41/41/41 909/909/909
f 901/901/901 43/43/43 881/881/881
f 881/881/881 883/883/883 901/901/901
f 883/883/883 881/881/881 823/823/823
f 823/823/823 833/833/833 883/883/883
f 832/832/832 44/44/44 45/45/45
f 45/45/45 779/779/779 832/832/832
f 779/779/779 45/45/45 757/757/757
f 757/757/757 756/756/756 779/779/779
f 755/755/755 46/46/46 780/780/780
f 780/780/780 778/778/778 755/755/755
f 778/778/778 780/780/780 822/822/822
f 822/822/822 831/831/831 778/778/778
f 830/830/830 48/48/48 49/49/49
f 49/49/49 882/882/882 830/830/830
f 882/882/882 49/49/49 43/43/43
f 43/43/43 900/900/900 882/882/882
f 4/4/4 51/51/51 910/910/910
f 910/910/910 914/914/914 4/4/4
f 829/829/829 52/52/52 51/51/51
f 51/51/51 4/4/4 829/829/829
f 758/758/758 53/53/53 826/826/826
f 826/826/826 6/6/6 758/758/758
f 740/740/740 54/54/54 53/53/53
f 53/53/53 758/758/758 740/740/740
f 12/12/12 55/55/55 54/54/54
f 54/54/54 740/740/740 12/12/12
f 828/828/828 56/56/56 55/55/55
f 55/55/55 12/12/12 828/828/828
f 899/899/899 57/57/57 824/824/824
f 824/824/824 14/14/14 899/899/899
f 914/914/914 910/910/910 57/57/57
f 57/57/57 899/899/899 914/914/914
f 60/60/60 59/59/59 58/58/58
f 58/58/58 61/61/61 60/60/60
f 64/64/64 63/63/63 62/62/62
f 62/62/62 65/65/65 64/64/64
f 68/68/68 67/67/67 66/66/66
f 66/66/66 69/69/69 68/68/68
f 913/913/913 58/58/58 70/70/70
f 70/70/70 71/71/71 913/913/913
f 72/72/72 62/62/62 63/63/63
f 63/63/63 73/73/73 72/72/72
f 74/74/74 66/66/66 67/67/67
f 67/67/67 75/75/75 74/74/74
f 78/78/78 77/77/77 76/76/76
f 76/76/76 79/79/79 78/78/78
f 82/82/82 81/81/81 80/80/80
f 80/80/80 83/83/83 82/82/82
f 86/86/86 85/85/85 84/84/84
f 84/84/84 87/87/87 86/86/86
f 819/819/819 76/76/76 88/88/88
f 88/88/88 89/89/89 819/819/819
f 90/90/90 80/80/80 81/81/81
f 81/81/81 91/91/91 90/90/90
f 92/92/92 84/84/84 85/85/85
f 85/85/85 93/93/93 92/92/92
f 96/96/96 95/95/95 94/94/94
f 94/94/94 97/97/97 96/96/96
f 100/100/100 99/99/99 98/98/98
f 98/98/98 101/101/101 100/100/100
f 104/104/104 103/103/103 102/102/102
f 102/102/102 105/105/105 104/104/104
f 739/739/739 94/94/94 106/106/106
f 106/106/106 107/107/107 739/739/739
f 108/108/108 98/98/98 99/99/99
f 99/99/99 109/109/109 108/108/108
f 737/737/737 102/102/102 103/103/103
f 103/103/103 111/111/111 737/737/737
f 114/114/114 113/113/113 112/112/112
f 112/112/112 115/115/115 114/114/114
f 118/118/118 117/117/117 116/116/116
f 116/116/116 119/119/119 118/118/118
f 122/122/122 121/121/121 120/120/120
f 120/120/120 123/123/123 122/122/122
f 816/816/816 112/112/112 124/124/124
f 124/124/124 125/125/125 816/816/816
f 126/126/126 116/116/116 117/117/117
f 117/117/117 127/127/127 126/126/126
f 809/809/809 120/120/120 121/121/121
f 121/121/121 129/129/129 809/809/809
f 132/132/132 131/131/131 130/130/130
f 132/132/132 133/133/133 131/131/131
f 136/136/136 135/135/135 134/134/134
f 134/134/134 137/137/137 136/136/136
f 139/139/139 138/138/138 135/135/135
f 135/135/135 136/136/136 139/139/139
f 141/141/141 140/140/140 846/846/846
f 845/845/845 842/842/842 775/775/775
f 144/144/144 143/143/143 142/142/142
f 142/142/142 145/145/145 144/144/144
f 147/147/147 146/146/146 143/143/143
f 143/143/143 748/748/748 147/147/147
f 149/149/149 148/148/148 762/762/762
f 763/763/763 774/774/774 841/841/841
f 152/152/152 151/151/151 843/843/843
f 150/150/150 153/153/153 888/888/888
f 137/137/137 134/134/134 151/151/151
f 151/151/151 152/152/152 137/137/137
f 156/156/156 155/155/155 154/154/154
f 154/154/154 157/157/157 156/156/156
f 847/847/847 158/158/158 155/155/155
f 155/155/155 156/156/156 847/847/847
f 765/765/765 161/161/161 160/160/160
f 160/160/160 163/163/163 765/765/765
f 745/745/745 165/165/165 164/164/164
f 164/164/164 167/167/167 745/745/745
f 169/169/169 168/168/168 165/165/165
f 165/165/165 166/166/166 764/764/764
f 844/844/844 171/171/171 170/170/170
f 170/170/170 173/173/173 172/172/172
f 175/175/175 174/174/174 171/171/171
f 171/171/171 844/844/844 175/175/175
f 157/157/157 154/154/154 176/176/176
f 176/176/176 177/177/177 157/157/157
f 180/180/180 907/907/907 911/911/911
f 911/911/911 181/181/181 180/180/180
f 182/182/182 180/180/180 181/181/181
f 181/181/181 183/183/183 182/182/182
f 184/184/184 182/182/182 183/183/183
f 183/183/183 185/185/185 184/184/184
f 186/186/186 184/184/184 185/185/185
f 185/185/185 744/744/744 186/186/186
f 188/188/188 186/186/186 744/744/744
f 744/744/744 189/189/189 188/188/188
f 190/190/190 188/188/188 189/189/189
f 189/189/189 191/191/191 190/190/190
f 192/192/192 190/190/190 191/191/191
f 191/191/191 895/895/895 192/192/192
f 907/907/907 192/192/192 895/895/895
f 895/895/895 911/911/911 907/907/907
f 196/196/196 195/195/195 194/194/194
f 194/194/194 197/197/197 196/196/196
f 199/199/199 198/198/198 195/195/195
f 195/195/195 196/196/196 199/199/199
f 201/201/201 200/200/200 198/198/198
f 198/198/198 834/834/834 201/201/201
f 204/204/204 203/203/203 202/202/202
f 202/202/202 205/205/205 204/204/204
f 207/207/207 206/206/206 203/203/203
f 203/203/203 738/738/738 207/207/207
f 209/209/209 208/208/208 206/206/206
f 206/206/206 207/207/207 209/209/209
f 212/212/212 211/211/211 210/210/210
f 210/210/210 213/213/213 212/212/212
f 197/197/197 194/194/194 211/211/211
f 211/211/211 902/902/902 197/197/197
f 216/216/216 215/215/215 214/214/214
f 214/214/214 217/217/217 216/216/216
f 836/836/836 218/218/218 215/215/215
f 215/215/215 216/216/216 836/836/836
f 222/222/222 221/221/221 220/220/220
f 220/220/220 223/223/223 222/222/222
f 225/225/225 224/224/224 221/221/221
f 221/221/221 222/222/222 225/225/225
f 228/228/228 227/227/227 226/226/226
f 226/226/226 229/229/229 228/228/228
f 835/835/835 230/230/230 227/227/227
f 227/227/227 228/228/228 835/835/835
f 234/234/234 233/233/233 232/232/232
f 232/232/232 235/235/235 234/234/234
f 237/237/237 236/236/236 233/233/233
f 233/233/233 234/234/234 237/237/237
f 240/240/240 239/239/239 238/238/238
f 238/238/238 241/241/241 240/240/240
f 242/242/242 240/240/240 241/241/241
f 241/241/241 243/243/243 242/242/242
f 246/246/246 245/245/245 244/244/244
f 244/244/244 247/247/247 246/246/246
f 248/248/248 246/246/246 247/247/247
f 247/247/247 249/249/249 248/248/248
f 252/252/252 251/251/251 250/250/250
f 250/250/250 253/253/253 252/252/252
f 254/254/254 252/252/252 253/253/253
f 253/253/253 255/255/255 254/254/254
f 258/258/258 257/257/257 256/256/256
f 256/256/256 259/259/259 258/258/258
f 239/239/239 261/261/261 260/260/260
f 260/260/260 238/238/238 239/239/239
f 264/264/264 263/263/263 262/262/262
f 262/262/262 265/265/265 264/264/264
f 268/268/268 267/267/267 266/266/266
f 266/266/266 269/269/269 268/268/268
f 272/272/272 271/271/271 270/270/270
f 270/270/270 273/273/273 272/272/272
f 892/892/892 262/262/262 274/274/274
f 274/274/274 275/275/275 892/892/892
f 276/276/276 266/266/266 267/267/267
f 267/267/267 277/277/277 276/276/276
f 904/904/904 270/270/270 271/271/271
f 271/271/271 279/279/279 904/904/904
f 282/282/282 281/281/281 280/280/280
f 280/280/280 283/283/283 282/282/282
f 286/286/286 285/285/285 284/284/284
f 284/284/284 287/287/287 286/286/286
f 290/290/290 289/289/289 288/288/288
f 288/288/288 291/291/291 290/290/290
f 773/773/773 280/280/280 292/292/292
f 292/292/292 293/293/293 773/773/773
f 294/294/294 284/284/284 285/285/285
f 285/285/285 295/295/295 294/294/294
f 760/760/760 288/288/288 289/289/289
f 289/289/289 297/297/297 760/760/760
f 300/300/300 299/299/299 298/298/298
f 298/298/298 301/301/301 300/300/300
f 304/304/304 303/303/303 302/302/302
f 302/302/302 305/305/305 304/304/304
f 308/308/308 307/307/307 306/306/306
f 306/306/306 309/309/309 308/308/308
f 301/301/301 298/298/298 310/310/310
f 753/753/753 311/311/311 771/771/771
f 312/312/312 302/302/302 303/303/303
f 770/770/770 313/313/313 761/761/761
f 754/754/754 306/306/306 307/307/307
f 307/307/307 315/315/315 754/754/754
f 318/318/318 317/317/317 316/316/316
f 316/316/316 319/319/319 318/318/318
f 322/322/322 321/321/321 320/320/320
f 320/320/320 323/323/323 322/322/322
f 326/326/326 325/325/325 324/324/324
f 324/324/324 327/327/327 326/326/326
f 319/319/319 316/316/316 328/328/328
f 897/897/897 329/329/329 890/890/890
f 330/330/330 320/320/320 321/321/321
f 889/889/889 331/331/331 903/903/903
f 898/898/898 324/324/324 325/325/325
f 325/325/325 333/333/333 898/898/898
f 336/336/336 335/335/335 334/334/334
f 336/336/336 337/337/337 335/335/335
f 340/340/340 339/339/339 338/338/338
f 338/338/338 341/341/341 340/340/340
f 343/343/343 342/342/342 339/339/339
f 339/339/339 340/340/340 343/343/343
f 345/345/345 344/344/344 839/839/839
f 839/839/839 837/837/837 345/345/345
f 348/348/348 347/347/347 346/346/346
f 346/346/346 349/349/349 348/348/348
f 351/351/351 350/350/350 347/347/347
f 347/347/347 348/348/348 351/351/351
f 353/353/353 352/352/352 767/767/767
f 767/767/767 777/777/777 353/353/353
f 356/356/356 355/355/355 354/354/354
f 354/354/354 357/357/357 356/356/356
f 341/341/341 338/338/338 893/893/893
f 893/893/893 885/885/885 341/341/341
f 360/360/360 359/359/359 358/358/358
f 358/358/358 361/361/361 360/360/360
f 840/840/840 363/363/363 362/362/362
f 362/362/362 365/365/365 840/840/840
f 769/769/769 366/366/366 363/363/363
f 363/363/363 840/840/840 769/769/769
f 746/746/746 369/369/369 368/368/368
f 368/368/368 371/371/371 746/746/746
f 373/373/373 372/372/372 369/369/369
f 369/369/369 370/370/370 768/768/768
f 376/376/376 375/375/375 374/374/374
f 374/374/374 377/377/377 838/838/838
f 894/894/894 378/378/378 375/375/375
f 375/375/375 376/376/376 894/894/894
f 361/361/361 358/358/358 380/380/380
f 380/380/380 381/381/381 361/361/361
f 384/384/384 383/383/383 908/908/908
f 908/908/908 385/385/385 384/384/384
f 386/386/386 384/384/384 385/385/385
f 385/385/385 387/387/387 386/386/386
f 388/388/388 386/386/386 387/387/387
f 387/387/387 766/766/766 388/388/388
f 390/390/390 388/388/388 766/766/766
f 766/766/766 391/391/391 390/390/390
f 392/392/392 390/390/390 391/391/391
f 391/391/391 393/393/393 392/392/392
f 394/394/394 392/392/392 393/393/393
f 393/393/393 395/395/395 394/394/394
f 396/396/396 394/394/394 395/395/395
f 395/395/395 397/397/397 396/396/396
f 383/383/383 396/396/396 397/397/397
f 397/397/397 908/908/908 383/383/383
f 400/400/400 399/399/399 398/398/398
f 403/403/403 402/402/402 401/401/401
f 406/406/406 405/405/405 915/915/915
f 409/409/409 408/408/408 407/407/407
f 412/412/412 817/817/817 410/410/410
f 415/415/415 752/752/752 413/413/413
f 418/418/418 417/417/417 416/416/416
f 421/421/421 420/420/420 419/419/419
f 424/424/424 423/423/423 422/422/422
f 422/422/422 425/425/425 424/424/424
f 426/426/426 858/858/858 853/853/853
f 853/853/853 427/427/427 426/426/426
f 428/428/428 815/815/815 800/800/800
f 800/800/800 429/429/429 428/428/428
f 430/430/430 801/801/801 788/788/788
f 788/788/788 431/431/431 430/430/430
f 432/432/432 798/798/798 781/781/781
f 781/781/781 433/433/433 432/432/432
f 434/434/434 810/810/810 787/787/787
f 787/787/787 435/435/435 434/434/434
f 436/436/436 855/855/855 799/799/799
f 799/799/799 437/437/437 436/436/436
f 868/868/868 439/439/439 438/438/438
f 438/438/438 422/422/422 868/868/868
f 442/442/442 441/441/441 440/440/440
f 440/440/440 443/443/443 442/442/442
f 443/443/443 440/440/440 444/444/444
f 444/444/444 445/445/445 443/443/443
f 445/445/445 444/444/444 446/446/446
f 446/446/446 447/447/447 445/445/445
f 447/447/447 446/446/446 448/448/448
f 448/448/448 449/449/449 447/447/447
f 449/449/449 448/448/448 450/450/450
f 450/450/450 451/451/451 449/449/449
f 451/451/451 450/450/450 452/452/452
f 452/452/452 453/453/453 451/451/451
f 453/453/453 452/452/452 454/454/454
f 454/454/454 455/455/455 453/453/453
f 457/457/457 456/456/456 441/441/441
f 441/441/441 442/442/442 457/457/457
f 460/460/460 459/459/459 458/458/458
f 458/458/458 906/906/906 460/460/460
f 463/463/463 462/462/462 459/459/459
f 459/459/459 460/460/460 463/463/463
f 465/465/465 464/464/464 462/462/462
f 462/462/462 463/463/463 465/465/465
f 750/750/750 466/466/466 464/464/464
f 464/464/464 465/465/465 750/750/750
f 469/469/469 468/468/468 466/466/466
f 466/466/466 750/750/750 469/469/469
f 471/471/471 470/470/470 468/468/468
f 468/468/468 469/469/469 471/471/471
f 473/473/473 472/472/472 470/470/470
f 470/470/470 471/471/471 473/473/473
f 906/906/906 458/458/458 474/474/474
f 474/474/474 475/475/475 906/906/906
f 441/441/441 458/458/458 459/459/459
f 459/459/459 440/440/440 441/441/441
f 440/440/440 459/459/459 462/462/462
f 462/462/462 444/444/444 440/440/440
f 444/444/444 462/462/462 464/464/464
f 464/464/464 446/446/446 444/444/444
f 446/446/446 464/464/464 466/466/466
f 466/466/466 448/448/448 446/446/446
f 448/448/448 466/466/466 468/468/468
f 468/468/468 450/450/450 448/448/448
f 450/450/450 468/468/468 470/470/470
f 470/470/470 452/452/452 450/450/450
f 452/452/452 470/470/470 878/878/878
f 878/878/878 454/454/454 452/452/452
f 456/456/456 474/474/474 458/458/458
f 458/458/458 441/441/441 456/456/456
f 476/476/476 853/853/853 422/422/422
f 422/422/422 477/477/477 476/476/476
f 478/478/478 800/800/800 853/853/853
f 853/853/853 476/476/476 478/478/478
f 479/479/479 788/788/788 800/800/800
f 800/800/800 478/478/478 479/479/479
f 480/480/480 781/781/781 788/788/788
f 788/788/788 479/479/479 480/480/480
f 481/481/481 787/787/787 781/781/781
f 781/781/781 480/480/480 481/481/481
f 482/482/482 799/799/799 787/787/787
f 787/787/787 481/481/481 482/482/482
f 483/483/483 852/852/852 799/799/799
f 799/799/799 482/482/482 483/483/483
f 477/477/477 422/422/422 438/438/438
f 438/438/438 484/484/484 477/477/477
f 443/443/443 476/476/476 477/477/477
f 477/477/477 442/442/442 443/443/443
f 445/445/445 478/478/478 476/476/476
f 476/476/476 443/443/443 445/445/445
f 447/447/447 479/479/479 478/478/478
f 478/478/478 445/445/445 447/447/447
f 449/449/449 480/480/480 479/479/479
f 479/479/479 447/447/447 449/449/449
f 451/451/451 481/481/481 480/480/480
f 480/480/480 449/449/449 451/451/451
f 482/482/482 481/481/481 451/451/451
f 451/451/451 453/453/453 482/482/482
f 483/483/483 482/482/482 453/453/453
f 453/453/453 455/455/455 483/483/483
f 442/442/442 477/477/477 484/484/484
f 484/484/484 457/457/457 442/442/442
f 487/487/487 486/486/486 485/485/485
f 490/490/490 489/489/489 488/488/488
f 493/493/493 492/492/492 491/491/491
f 494/494/494 492/492/492 493/493/493
f 497/497/497 496/496/496 495/495/495
f 499/499/499 498/498/498 496/496/496
f 497/497/497 499/499/499 496/496/496
f 500/500/500 499/499/499 497/497/497
f 863/863/863 501/501/501 797/797/797
f 504/504/504 503/503/503 502/502/502
f 505/505/505 504/504/504 502/502/502
f 856/856/856 506/506/506 861/861/861
f 509/509/509 791/791/791 507/507/507
f 747/747/747 510/510/510 791/791/791
f 509/509/509 747/747/747 791/791/791
f 512/512/512 747/747/747 509/509/509
f 515/515/515 514/514/514 513/513/513
f 518/518/518 517/517/517 516/516/516
f 521/521/521 520/520/520 519/519/519
f 522/522/522 520/520/520 521/521/521
f 525/525/525 524/524/524 523/523/523
f 527/527/527 526/526/526 524/524/524
f 525/525/525 527/527/527 524/524/524
f 528/528/528 527/527/527 525/525/525
f 813/813/813 529/529/529 860/860/860
f 532/532/532 531/531/531 530/530/530
f 533/533/533 532/532/532 530/530/530
f 802/802/802 534/534/534 811/811/811
f 783/783/783 536/536/536 535/535/535
f 872/872/872 538/538/538 536/536/536
f 783/783/783 872/872/872 536/536/536
f 540/540/540 872/872/872 783/783/783
f 543/543/543 542/542/542 541/541/541
f 546/546/546 545/545/545 544/544/544
f 549/549/549 548/548/548 547/547/547
f 550/550/550 548/548/548 549/549/549
f 553/553/553 552/552/552 551/551/551
f 555/555/555 554/554/554 552/552/552
f 553/553/553 555/555/555 552/552/552
f 556/556/556 555/555/555 553/553/553
f 850/850/850 557/557/557 857/857/857
f 560/560/560 559/559/559 558/558/558
f 561/561/561 560/560/560 558/558/558
f 851/851/851 562/562/562 848/848/848
f 795/795/795 564/564/564 563/563/563
f 874/874/874 566/566/566 564/564/564
f 795/795/795 874/874/874 564/564/564
f 568/568/568 874/874/874 795/795/795
f 571/571/571 570/570/570 569/569/569
f 574/574/574 573/573/573 572/572/572
f 577/577/577 576/576/576 575/575/575
f 578/578/578 576/576/576 577/577/577
f 581/581/581 580/580/580 579/579/579
f 583/583/583 582/582/582 580/580/580
f 581/581/581 583/583/583 580/580/580
f 584/584/584 583/583/583 581/581/581
f 794/794/794 585/585/585 789/789/789
f 588/588/588 587/587/587 586/586/586
f 589/589/589 588/588/588 586/586/586
f 803/803/803 590/590/590 792/792/792
f 870/870/870 592/592/592 591/591/591
f 808/808/808 594/594/594 592/592/592
f 870/870/870 808/808/808 592/592/592
f 596/596/596 808/808/808 870/870/870
f 599/599/599 598/598/598 597/597/597
f 602/602/602 601/601/601 600/600/600
f 605/605/605 604/604/604 603/603/603
f 606/606/606 604/604/604 605/605/605
f 609/609/609 608/608/608 607/607/607
f 611/611/611 610/610/610 608/608/608
f 609/609/609 611/611/611 608/608/608
f 612/612/612 611/611/611 609/609/609
f 867/867/867 613/613/613 886/886/886
f 616/616/616 615/615/615 614/614/614
f 617/617/617 616/616/616 614/614/614
f 854/854/854 618/618/618 865/865/865
f 880/880/880 620/620/620 619/619/619
f 896/896/896 622/622/622 620/620/620
f 880/880/880 896/896/896 620/620/620
f 624/624/624 896/896/896 880/880/880
f 627/627/627 626/626/626 625/625/625
f 630/630/630 629/629/629 628/628/628
f 633/633/633 632/632/632 631/631/631
f 634/634/634 632/632/632 633/633/633
f 637/637/637 636/636/636 635/635/635
f 639/639/639 638/638/638 636/636/636
f 637/637/637 639/639/639 636/636/636
f 640/640/640 639/639/639 637/637/637
f 743/743/743 641/641/641 759/759/759
f 644/644/644 643/643/643 642/642/642
f 645/645/645 644/644/644 642/642/642
f 751/751/751 646/646/646 741/741/741
f 790/790/790 648/648/648 647/647/647
f 814/814/814 650/650/650 648/648/648
f 790/790/790 814/814/814 648/648/648
f 652/652/652 814/814/814 790/790/790
f 655/655/655 654/654/654 653/653/653
f 658/658/658 657/657/657 656/656/656
f 661/661/661 660/660/660 659/659/659
f 662/662/662 660/660/660 661/661/661
f 665/665/665 664/664/664 663/663/663
f 667/667/667 666/666/666 664/664/664
f 665/665/665 667/667/667 664/664/664
f 668/668/668 667/667/667 665/665/665
f 786/786/786 669/669/669 804/804/804
f 672/672/672 671/671/671 670/670/670
f 673/673/673 672/672/672 670/670/670
f 782/782/782 674/674/674 784/784/784
f 776/776/776 676/676/676 675/675/675
f 859/859/859 678/678/678 676/676/676
f 776/776/776 859/859/859 676/676/676
f 680/680/680 859/859/859 776/776/776
f 683/683/683 682/682/682 681/681/681
f 686/686/686 685/685/685 684/684/684
f 689/689/689 688/688/688 687/687/687
f 690/690/690 688/688/688 689/689/689
f 693/693/693 692/692/692 691/691/691
f 695/695/695 694/694/694 692/692/692
f 693/693/693 695/695/695 692/692/692
f 696/696/696 695/695/695 693/693/693
f 807/807/807 697/697/697 864/864/864
f 700/700/700 699/699/699 698/698/698
f 701/701/701 700/700/700 698/698/698
f 796/796/796 702/702/702 805/805/805
f 871/871/871 704/704/704 703/703/703
f 873/873/873 706/706/706 704/704/704
f 871/871/871 873/873/873 704/704/704
f 708/708/708 873/873/873 871/871/871
f 711/711/711 710/710/710 709/709/709
f 714/714/714 713/713/713 712/712/712
f 717/717/717 716/716/716 715/715/715
f 718/718/718 716/716/716 717/717/717
f 721/721/721 720/720/720 719/719/719
f 723/723/723 722/722/722 720/720/720
f 721/721/721 723/723/723 720/720/720
f 724/724/724 723/723/723 721/721/721
f 877/877/877 725/725/725 884/884/884
f 728/728/728 727/727/727 726/726/726
f 729/729/729 728/728/728 726/726/726
f 869/869/869 730/730/730 875/875/875
f 887/887/887 732/732/732 731/731/731
f 879/879/879 734/734/734 732/732/732
f 887/887/887 879/879/879 732/732/732
f 736/736/736 879/879/879 887/887/887
