mtllib G3_Object_Dunghill_02.mtl
o G3_Object_Dunghill_02_0
usemtl G3_Architecture_Prop_Dunghill_01_A
v 0.462866 1.534084 -0.504934
v 0.095493 1.364494 -1.099122
v 0.022974 1.928229 -0.416531
v 0.591562 0.879865 -1.014434
v 1.201758 0.850649 -0.505875
v 0.182529 0.802679 -1.533436
v 1.808965 0.826781 -0.472577
v 1.458154 0.783408 -0.891084
v 0.630073 0.786295 -1.403624
v 0.487646 0.825724 -2.114712
v 2.259810 0.652745 -0.865492
v 2.466743 0.517348 -0.386816
v 1.724165 0.520860 -1.400298
v 0.961045 0.368702 -1.938629
v 0.664292 0.428159 -2.443113
v -0.620117 1.563398 -0.949366
v -0.522515 1.202558 -1.367061
v -0.961030 1.182895 -1.105050
v -0.221826 0.719864 -1.944504
v -0.909082 1.016700 -1.506200
v -1.298813 0.959402 -1.261083
v -0.022896 0.560763 -2.466991
v -0.889868 0.456292 -2.415371
v -1.406216 0.620980 -2.069352
v -1.669658 0.582539 -1.694930
v -0.784868 1.399639 0.017826
v -1.116689 1.204970 -0.495077
v -1.294351 1.124773 0.354575
v -1.452158 1.301376 -0.734113
v -1.627417 0.998307 -0.258134
v -1.924146 0.907728 0.532285
v -1.863345 0.712235 -1.203329
v -2.275513 0.622132 -0.416765
v -2.323154 0.306453 0.276516
v -2.182915 0.462429 1.039049
v 0.148662 1.767887 0.149692
v -0.550151 1.310085 0.563351
v 0.443184 1.097658 0.879242
v -1.403750 0.835551 1.175558
v -0.277031 0.883141 1.419755
v 0.705166 0.973698 1.571525
v -1.654570 0.418388 1.222526
v -0.636528 0.557402 1.607594
v -0.123232 0.488028 2.013763
v 0.782002 0.311070 1.905332
v 0.744131 1.196238 0.136763
v 1.051494 1.265014 0.904247
v 1.550913 1.213166 0.321383
v 1.432646 0.445236 1.426007
v 1.986016 0.547762 0.991628
v 2.210674 0.368785 0.267312
v 2.522412 -0.015935 -0.753151
v 2.746929 -0.019247 -0.001714
v 0.534458 -0.029752 -2.634178
v 1.197466 -0.024027 -2.299883
v -2.000815 0.024517 -2.031586
v -2.281377 0.179005 -1.538623
v -2.199697 -0.016451 1.516927
v -2.405322 -0.007276 0.601700
v 1.801533 -0.022761 2.299302
v 0.435542 -0.025839 2.507379
v 1.838794 -0.018330 -2.054829
v 2.336489 -0.011776 -1.558593
v -1.197788 -0.016807 -2.519771
v -0.266152 -0.023218 -2.626854
v -2.619829 -0.024944 -0.197335
v -2.716763 -0.020571 -0.911499
v -0.578755 -0.019522 2.118525
v -1.414873 -0.002346 1.782408
v 2.489692 -0.021452 0.714758
v 2.398452 -0.013269 1.435559
v -2.199697 -0.016451 1.516927
v -2.182915 0.462429 1.039049
v -1.924146 0.907728 0.532285
v -1.654570 0.418388 1.222526
vt 0.116585 -0.019883
vt -0.167659 0.340512
vt -0.281892 -0.014923
vt 0.293783 0.372409
vt 0.603437 -0.042424
vt -0.037798 0.718171
vt 1.085299 -0.063245
vt 0.792018 0.354203
vt 0.448713 0.736346
vt 0.117787 1.057149
vt 1.266252 0.331287
vt 1.456955 -0.064995
vt 0.967941 0.745641
vt 0.600433 1.072515
vt 0.280784 1.302966
vt -0.586812 0.201031
vt -0.491878 0.616352
vt -0.911363 0.433235
vt -0.358531 1.001088
vt -0.815929 0.852082
vt -1.222509 0.654549
vt -0.150731 1.326990
vt -0.674883 1.245337
vt -1.165163 1.055018
vt -1.506114 0.835030
vt -0.613025 -0.253289
vt -0.992198 -0.022885
vt -1.017653 -0.519608
vt -1.320458 0.222699
vt -1.396655 -0.258205
vt -1.397390 -0.756606
vt -1.637014 0.479889
vt -1.744551 0.016684
vt -1.743369 -0.490920
vt -1.678695 -0.950315
vt -0.154720 -0.403270
vt -0.535594 -0.739765
vt 0.022139 -0.878082
vt -0.946546 -1.015334
vt -0.378774 -1.218917
vt 0.226615 -1.337400
vt -1.337544 -1.227949
vt -0.795786 -1.465235
vt -0.174972 -1.661006
vt 0.427900 -1.735931
vt 0.356487 -0.468486
vt 0.594092 -0.941744
vt 0.878018 -0.495018
vt 0.852488 -1.408567
vt 1.156340 -0.939753
vt 1.355003 -0.466398
vt 1.649867 0.216494
vt 1.814395 -0.334168
vt 0.193073 1.594932
vt 0.678934 1.349956
vt -1.664804 1.153346
vt -1.870403 0.792097
vt -1.810547 -1.447045
vt -1.961231 -0.776357
vt 1.121598 -2.020378
vt 0.120584 -2.172860
vt 1.148905 1.170378
vt 1.513621 0.806731
vt -1.076335 1.511093
vt -0.393623 1.589565
vt -2.118425 -0.190813
vt -2.189458 0.332533
vt -0.622705 -1.887903
vt -1.235418 -1.641593
vt 1.625892 -0.859207
vt 1.559028 -1.387418
vt -1.810547 -1.447045
vt -1.678695 -0.950315
vt -1.397390 -0.756606
vt -1.337544 -1.227949
vn 0.650311 0.711829 -0.265319
vn 0.362628 0.673705 -0.643912
vn 0.107538 0.987625 -0.114156
vn 0.404692 0.805659 -0.432595
vn 0.242884 0.928694 -0.280240
vn 0.190933 0.917763 -0.348219
vn 0.323774 0.938135 -0.122775
vn 0.145576 0.958267 -0.246032
vn 0.219915 0.949000 -0.225914
vn 0.278377 0.901637 -0.330994
vn 0.587591 0.757482 -0.284532
vn 0.740995 0.669796 0.047956
vn 0.299750 0.812474 -0.500036
vn 0.486829 0.760941 -0.428913
vn 0.432165 0.537885 -0.723819
vn -0.353958 0.848110 -0.394236
vn -0.055537 0.765496 -0.641040
vn -0.367254 0.833050 -0.413705
vn -0.025456 0.913292 -0.406510
vn -0.213757 0.854917 -0.472678
vn -0.362519 0.815309 -0.451499
vn -0.063093 0.657880 -0.750475
vn -0.164027 0.603352 -0.780424
vn -0.408264 0.710549 -0.573098
vn -0.552567 0.739785 -0.383910
vn -0.442067 0.882915 0.158232
vn -0.330125 0.939569 0.090705
vn -0.333900 0.930140 0.152810
vn -0.271049 0.961204 -0.051183
vn -0.470464 0.866708 0.165772
vn -0.586049 0.796377 0.149431
vn -0.570552 0.735500 -0.365390
vn -0.710205 0.701872 0.054628
vn -0.837579 0.532472 0.122206
vn -0.647896 0.625247 0.435084
vn 0.206723 0.903969 0.374306
vn -0.205085 0.882227 0.423811
vn -0.036301 0.941950 0.333785
vn -0.394183 0.667579 0.631631
vn -0.153779 0.837745 0.523962
vn 0.174697 0.770932 0.612490
vn -0.341079 0.631438 0.696384
vn -0.317812 0.631841 0.706945
vn -0.195607 0.653713 0.731025
vn 0.222588 0.715485 0.662221
vn 0.398625 0.917006 0.014080
vn 0.150173 0.940499 0.304812
vn 0.430978 0.901362 -0.042478
vn 0.384324 0.728464 0.567129
vn 0.614096 0.699617 0.365269
vn 0.695667 0.694040 0.185357
vn 0.916872 0.306966 -0.255181
vn 0.789456 0.595729 0.147871
vn 0.205698 0.292584 -0.933854
vn 0.420131 0.649571 -0.633677
vn -0.557892 0.572832 -0.600516
vn -0.624404 0.686028 -0.373478
vn -0.495152 0.637767 0.589981
vn -0.920495 0.354698 0.163945
vn 0.243026 0.885449 0.396129
vn 0.043790 0.763103 0.644792
vn 0.348072 0.744232 -0.570056
vn 0.626687 0.620891 -0.470912
vn -0.322374 0.378765 -0.867532
vn -0.062701 0.282798 -0.957128
vn -0.854907 0.493776 0.159121
vn -0.766238 0.630452 -0.124137
vn -0.349429 0.555075 0.754845
vn -0.291391 0.679239 0.673592
vn 0.730967 0.669341 0.132925
vn 0.551173 0.775905 0.306888
vn -0.495152 0.637767 0.589981
vn -0.647896 0.625247 0.435084
vn -0.586049 0.796377 0.149431
vn -0.341079 0.631438 0.696384
f 3/3/3 2/2/2 1/1/1
f 5/5/5 1/1/1 4/4/4
f 2/2/2 4/4/4 1/1/1
f 2/2/2 6/6/6 4/4/4
f 5/5/5 8/8/8 7/7/7
f 4/4/4 8/8/8 5/5/5
f 9/9/9 8/8/8 4/4/4
f 4/4/4 6/6/6 9/9/9
f 10/10/10 9/9/9 6/6/6
f 12/12/12 7/7/7 11/11/11
f 7/7/7 8/8/8 11/11/11
f 13/13/13 11/11/11 8/8/8
f 9/9/9 13/13/13 8/8/8
f 9/9/9 14/14/14 13/13/13
f 9/9/9 10/10/10 14/14/14
f 15/15/15 14/14/14 10/10/10
f 3/3/3 16/16/16 2/2/2
f 2/2/2 17/17/17 6/6/6
f 2/2/2 16/16/16 17/17/17
f 16/16/16 18/18/18 17/17/17
f 19/19/19 10/10/10 6/6/6
f 6/6/6 17/17/17 19/19/19
f 20/20/20 19/19/19 17/17/17
f 18/18/18 20/20/20 17/17/17
f 18/18/18 21/21/21 20/20/20
f 22/22/22 15/15/15 10/10/10
f 19/19/19 22/22/22 10/10/10
f 23/23/23 22/22/22 19/19/19
f 19/19/19 20/20/20 23/23/23
f 20/20/20 24/24/24 23/23/23
f 20/20/20 21/21/21 24/24/24
f 21/21/21 25/25/25 24/24/24
f 16/16/16 3/3/3 26/26/26
f 16/16/16 27/27/27 18/18/18
f 26/26/26 27/27/27 16/16/16
f 26/26/26 28/28/28 27/27/27
f 18/18/18 29/29/29 21/21/21
f 18/18/18 27/27/27 29/29/29
f 30/30/30 29/29/29 27/27/27
f 28/28/28 30/30/30 27/27/27
f 28/28/28 31/31/31 30/30/30
f 32/32/32 25/25/25 21/21/21
f 32/32/32 21/21/21 29/29/29
f 32/32/32 29/29/29 33/33/33
f 30/30/30 33/33/33 29/29/29
f 33/33/33 30/30/30 34/34/34
f 34/34/34 30/30/30 31/31/31
f 34/34/34 31/31/31 35/35/35
f 26/26/26 3/3/3 36/36/36
f 26/26/26 37/37/37 28/28/28
f 37/37/37 26/26/26 36/36/36
f 36/36/36 38/38/38 37/37/37
f 28/28/28 39/39/39 74/74/74
f 28/28/28 37/37/37 39/39/39
f 40/40/40 39/39/39 37/37/37
f 37/37/37 38/38/38 40/40/40
f 38/38/38 41/41/41 40/40/40
f 31/31/31 42/42/42 35/35/35
f 74/74/74 39/39/39 75/75/75
f 43/43/43 75/75/75 39/39/39
f 40/40/40 43/43/43 39/39/39
f 40/40/40 44/44/44 43/43/43
f 40/40/40 41/41/41 44/44/44
f 45/45/45 44/44/44 41/41/41
f 3/3/3 1/1/1 36/36/36
f 36/36/36 46/46/46 38/38/38
f 36/36/36 1/1/1 46/46/46
f 1/1/1 5/5/5 46/46/46
f 47/47/47 41/41/41 38/38/38
f 38/38/38 46/46/46 47/47/47
f 48/48/48 47/47/47 46/46/46
f 5/5/5 48/48/48 46/46/46
f 7/7/7 48/48/48 5/5/5
f 41/41/41 49/49/49 45/45/45
f 47/47/47 49/49/49 41/41/41
f 47/47/47 50/50/50 49/49/49
f 47/47/47 48/48/48 50/50/50
f 51/51/51 50/50/50 48/48/48
f 48/48/48 7/7/7 51/51/51
f 51/51/51 7/7/7 12/12/12
f 53/53/53 12/12/12 52/52/52
f 55/55/55 15/15/15 54/54/54
f 57/57/57 56/56/56 25/25/25
f 59/59/59 73/73/73 58/58/58
f 61/61/61 45/45/45 60/60/60
f 14/14/14 15/15/15 55/55/55
f 62/62/62 14/14/14 55/55/55
f 14/14/14 62/62/62 13/13/13
f 62/62/62 63/63/63 13/13/13
f 11/11/11 13/13/13 63/63/63
f 63/63/63 52/52/52 11/11/11
f 12/12/12 11/11/11 52/52/52
f 24/24/24 25/25/25 56/56/56
f 56/56/56 64/64/64 24/24/24
f 23/23/23 24/24/24 64/64/64
f 64/64/64 65/65/65 23/23/23
f 22/22/22 23/23/23 65/65/65
f 65/65/65 54/54/54 22/22/22
f 15/15/15 22/22/22 54/54/54
f 34/34/34 73/73/73 59/59/59
f 66/66/66 34/34/34 59/59/59
f 34/34/34 66/66/66 33/33/33
f 66/66/66 67/67/67 33/33/33
f 32/32/32 33/33/33 67/67/67
f 57/57/57 32/32/32 67/67/67
f 32/32/32 57/57/57 25/25/25
f 44/44/44 45/45/45 61/61/61
f 68/68/68 44/44/44 61/61/61
f 43/43/43 44/44/44 68/68/68
f 68/68/68 69/69/69 43/43/43
f 75/75/75 43/43/43 69/69/69
f 72/72/72 75/75/75 69/69/69
f 35/35/35 75/75/75 72/72/72
f 51/51/51 12/12/12 53/53/53
f 70/70/70 51/51/51 53/53/53
f 70/70/70 50/50/50 51/51/51
f 70/70/70 71/71/71 50/50/50
f 49/49/49 50/50/50 71/71/71
f 71/71/71 60/60/60 49/49/49
f 45/45/45 49/49/49 60/60/60
o G3_Object_Dunghill_02_1
usemtl G3_Architecture_Prop_Dunghill_02_A
v 2.611846 1.391162 -1.194021
v 2.259810 0.652745 -0.865492
v 1.808965 0.826781 -0.472577
v 1.808965 0.826781 -0.472577
v 2.312158 1.507984 -0.497145
v 2.611846 1.391162 -1.194021
v 1.548042 1.538269 0.174316
v 2.312158 1.507984 -0.497145
v 1.808965 0.826781 -0.472577
v 1.808965 0.826781 -0.472577
v 1.550913 1.213166 0.321383
v 1.548042 1.538269 0.174316
v 0.327168 1.715128 1.396616
v 0.443184 1.097658 0.879242
v -0.550151 1.310085 0.563351
v -0.550151 1.310085 0.563351
v -0.459976 1.973527 1.172275
v 0.327168 1.715128 1.396616
v 0.991094 1.952246 1.030145
v 1.051494 1.265014 0.904247
v 0.443184 1.097658 0.879242
v 0.443184 1.097658 0.879242
v 0.327168 1.715128 1.396616
v 0.991094 1.952246 1.030145
v -1.438784 1.511859 -0.177091
v -1.627417 0.998307 -0.258134
v -1.452158 1.301376 -0.734113
v -1.452158 1.301376 -0.734113
v -1.484165 1.789286 -0.391285
v -1.438784 1.511859 -0.177091
v -1.438784 1.511859 -0.177091
v -1.826118 1.584669 0.170767
v -1.294351 1.124773 0.354575
v -1.294351 1.124773 0.354575
v -1.627417 0.998307 -0.258134
v -1.438784 1.511859 -0.177091
v 0.401182 2.009180 -1.211832
v 0.095493 1.364494 -1.099122
v 0.462866 1.534084 -0.504934
v 0.462866 1.534084 -0.504934
v 0.528335 2.094720 -0.833517
v 0.401182 2.009180 -1.211832
v 0.159888 2.315814 -0.649452
v 0.528335 2.094720 -0.833517
v 0.462866 1.534084 -0.504934
v 0.462866 1.534084 -0.504934
v 0.022974 1.928229 -0.416531
v 0.159888 2.315814 -0.649452
v 0.952930 1.570159 -1.489371
v 0.866675 1.604812 -0.819900
v 1.201758 0.850649 -0.505875
v 1.201758 0.850649 -0.505875
v 0.591562 0.879865 -1.014434
v 0.952930 1.570159 -1.489371
v 0.831602 1.497623 -1.767169
v 0.952930 1.570159 -1.489371
v 0.591562 0.879865 -1.014434
v 0.591562 0.879865 -1.014434
v 0.630073 0.786295 -1.403624
v 0.831602 1.497623 -1.767169
v 2.411113 0.788634 1.608435
v 2.398452 -0.013269 1.435559
v 1.432646 0.445236 1.426007
v 1.432646 0.445236 1.426007
v 1.708188 1.002569 1.568640
v 2.411113 0.788634 1.608435
v -0.282192 0.903188 2.200042
v -0.123232 0.488028 2.013763
v -0.277031 0.883141 1.419755
v -0.277031 0.883141 1.419755
v -0.748291 1.401986 1.224929
v -0.282192 0.903188 2.200042
v 0.828516 0.639897 2.285291
v 0.782002 0.311070 1.905332
v -0.123232 0.488028 2.013763
v -0.123232 0.488028 2.013763
v -0.282192 0.903188 2.200042
v 0.828516 0.639897 2.285291
v -1.600444 0.762548 1.539323
v -1.654570 0.418388 1.222526
v -1.924146 0.907728 0.532285
v -1.924146 0.907728 0.532285
v -1.867231 1.429776 0.990911
v -1.600444 0.762548 1.539323
v -0.736099 0.801154 2.054320
v -0.636528 0.557402 1.607594
v -1.654570 0.418388 1.222526
v -1.654570 0.418388 1.222526
v -1.600444 0.762548 1.539323
v -0.736099 0.801154 2.054320
v -1.064185 1.641032 -1.839152
v -0.909082 1.016700 -1.506200
v -0.221826 0.719864 -1.944504
v -0.221826 0.719864 -1.944504
v -0.489243 1.414727 -2.643038
v -1.064185 1.641032 -1.839152
v -1.064185 1.641032 -1.839152
v -1.117339 1.847113 -1.463523
v -0.961030 1.182895 -1.105050
v -0.961030 1.182895 -1.105050
v -0.909082 1.016700 -1.506200
v -1.064185 1.641032 -1.839152
v -0.620117 1.563398 -0.949366
v -0.914175 1.813225 -0.759850
v -1.060039 2.149564 -0.011932
v -1.060039 2.149564 -0.011932
v -0.784868 1.399639 0.017826
v -0.620117 1.563398 -0.949366
v -0.784868 1.399639 0.017826
v -1.060039 2.149564 -0.011932
v -0.046245 2.340149 0.072927
v -0.046245 2.340149 0.072927
v 0.148662 1.767887 0.149692
v -0.784868 1.399639 0.017826
v -1.298813 0.959402 -1.261083
v -1.283262 1.639577 -1.726936
v -2.029404 1.138096 -1.311636
v -2.029404 1.138096 -1.311636
v -1.863345 0.712235 -1.203329
v -1.298813 0.959402 -1.261083
v -1.863345 0.712235 -1.203329
v -2.029404 1.138096 -1.311636
v -2.447676 0.908835 -0.416866
v -2.447676 0.908835 -0.416866
v -2.275513 0.622132 -0.416765
v -1.863345 0.712235 -1.203329
v 1.046035 0.661950 -2.522075
v 0.664292 0.428159 -2.443113
v 0.961045 0.368702 -1.938629
v 0.961045 0.368702 -1.938629
v 1.274263 0.797932 -2.041321
v 1.046035 0.661950 -2.522075
v 0.282334 1.124952 -2.708456
v -0.022896 0.560763 -2.466991
v 0.664292 0.428159 -2.443113
v 0.664292 0.428159 -2.443113
v 1.046035 0.661950 -2.522075
v 0.282334 1.124952 -2.708456
v 1.724165 0.520860 -1.400298
v 1.668940 1.043240 -1.574609
v 1.648716 0.522923 -2.097751
v 1.648716 0.522923 -2.097751
v 1.838794 -0.018330 -2.054829
v 1.724165 0.520860 -1.400298
v -1.113037 0.541456 -2.810835
v -1.197788 -0.016807 -2.519771
v -0.889868 0.456292 -2.415371
v -0.889868 0.456292 -2.415371
v -0.942109 0.796221 -2.608395
v -1.113037 0.541456 -2.810835
v -2.323154 0.306453 0.276516
v -2.730854 0.696225 0.312267
v -3.057378 0.772567 0.937740
v -3.057378 0.772567 0.937740
v -2.182915 0.462429 1.039049
v -2.323154 0.306453 0.276516
v -2.619829 -0.024944 -0.197335
v -3.035234 0.468164 -0.117100
v -2.730854 0.696225 0.312267
v -2.730854 0.696225 0.312267
v -2.323154 0.306453 0.276516
v -2.619829 -0.024944 -0.197335
v 2.210674 0.368785 0.267312
v 2.258428 0.888692 0.232794
v 2.644189 1.036356 -0.225662
v 2.644189 1.036356 -0.225662
v 2.466743 0.517348 -0.386816
v 2.210674 0.368785 0.267312
v 2.519663 0.706810 0.605134
v 2.258428 0.888692 0.232794
v 2.210674 0.368785 0.267312
v 2.210674 0.368785 0.267312
v 2.489692 -0.021452 0.714758
v 2.519663 0.706810 0.605134
v 2.611846 1.391162 -1.194021
v 2.312158 1.507984 -0.497145
v 1.808965 0.826781 -0.472577
v 1.808965 0.826781 -0.472577
v 2.259810 0.652745 -0.865492
v 2.611846 1.391162 -1.194021
v 1.548042 1.538269 0.174316
v 1.550913 1.213166 0.321383
v 1.808965 0.826781 -0.472577
v 1.808965 0.826781 -0.472577
v 2.312158 1.507984 -0.497145
v 1.548042 1.538269 0.174316
v 0.327168 1.715128 1.396616
v -0.459976 1.973527 1.172275
v -0.550151 1.310085 0.563351
v -0.550151 1.310085 0.563351
v 0.443184 1.097658 0.879242
v 0.327168 1.715128 1.396616
v 0.991094 1.952246 1.030145
v 0.327168 1.715128 1.396616
v 0.443184 1.097658 0.879242
v 0.443184 1.097658 0.879242
v 1.051494 1.265014 0.904247
v 0.991094 1.952246 1.030145
v -1.438784 1.511859 -0.177091
v -1.484165 1.789286 -0.391285
v -1.452158 1.301376 -0.734113
v -1.452158 1.301376 -0.734113
v -1.627417 0.998307 -0.258134
v -1.438784 1.511859 -0.177091
v -1.438784 1.511859 -0.177091
v -1.627417 0.998307 -0.258134
v -1.294351 1.124773 0.354575
v -1.294351 1.124773 0.354575
v -1.826118 1.584669 0.170767
v -1.438784 1.511859 -0.177091
v 0.401182 2.009180 -1.211832
v 0.528335 2.094720 -0.833517
v 0.462866 1.534084 -0.504934
v 0.462866 1.534084 -0.504934
v 0.095493 1.364494 -1.099122
v 0.401182 2.009180 -1.211832
v 0.159888 2.315814 -0.649452
v 0.022974 1.928229 -0.416531
v 0.462866 1.534084 -0.504934
v 0.462866 1.534084 -0.504934
v 0.528335 2.094720 -0.833517
v 0.159888 2.315814 -0.649452
v 0.952930 1.570159 -1.489371
v 0.591562 0.879865 -1.014434
v 1.201758 0.850649 -0.505875
v 1.201758 0.850649 -0.505875
v 0.866675 1.604812 -0.819900
v 0.952930 1.570159 -1.489371
v 0.831602 1.497623 -1.767169
v 0.630073 0.786295 -1.403624
v 0.591562 0.879865 -1.014434
v 0.591562 0.879865 -1.014434
v 0.952930 1.570159 -1.489371
v 0.831602 1.497623 -1.767169
v 2.411113 0.788634 1.608435
v 1.708188 1.002569 1.568640
v 1.432646 0.445236 1.426007
v 1.432646 0.445236 1.426007
v 2.398452 -0.013269 1.435559
v 2.411113 0.788634 1.608435
v -0.282192 0.903188 2.200042
v -0.748291 1.401986 1.224929
v -0.277031 0.883141 1.419755
v -0.277031 0.883141 1.419755
v -0.123232 0.488028 2.013763
v -0.282192 0.903188 2.200042
v 0.828516 0.639897 2.285291
v -0.282192 0.903188 2.200042
v -0.123232 0.488028 2.013763
v -0.123232 0.488028 2.013763
v 0.782002 0.311070 1.905332
v 0.828516 0.639897 2.285291
v -1.600444 0.762548 1.539323
v -1.867231 1.429776 0.990911
v -1.924146 0.907728 0.532285
v -1.924146 0.907728 0.532285
v -1.654570 0.418388 1.222526
v -1.600444 0.762548 1.539323
v -0.736099 0.801154 2.054320
v -1.600444 0.762548 1.539323
v -1.654570 0.418388 1.222526
v -1.654570 0.418388 1.222526
v -0.636528 0.557402 1.607594
v -0.736099 0.801154 2.054320
v -1.064185 1.641032 -1.839152
v -0.489243 1.414727 -2.643038
v -0.221826 0.719864 -1.944504
v -0.221826 0.719864 -1.944504
v -0.909082 1.016700 -1.506200
v -1.064185 1.641032 -1.839152
v -1.064185 1.641032 -1.839152
v -0.909082 1.016700 -1.506200
v -0.961030 1.182895 -1.105050
v -0.961030 1.182895 -1.105050
v -1.117339 1.847113 -1.463523
v -1.064185 1.641032 -1.839152
v -0.620117 1.563398 -0.949366
v -0.784868 1.399639 0.017826
v -1.060039 2.149564 -0.011932
v -1.060039 2.149564 -0.011932
v -0.914175 1.813225 -0.759850
v -0.620117 1.563398 -0.949366
v -0.784868 1.399639 0.017826
v 0.148662 1.767887 0.149692
v -0.046245 2.340149 0.072927
v -0.046245 2.340149 0.072927
v -1.060039 2.149564 -0.011932
v -0.784868 1.399639 0.017826
v -1.298813 0.959402 -1.261083
v -1.863345 0.712235 -1.203329
v -2.029404 1.138096 -1.311636
v -2.029404 1.138096 -1.311636
v -1.283262 1.639577 -1.726936
v -1.298813 0.959402 -1.261083
v -1.863345 0.712235 -1.203329
v -2.275513 0.622132 -0.416765
v -2.447676 0.908835 -0.416866
v -2.447676 0.908835 -0.416866
v -2.029404 1.138096 -1.311636
v -1.863345 0.712235 -1.203329
v 1.046035 0.661950 -2.522075
v 1.274263 0.797932 -2.041321
v 0.961045 0.368702 -1.938629
v 0.961045 0.368702 -1.938629
v 0.664292 0.428159 -2.443113
v 1.046035 0.661950 -2.522075
v 0.282334 1.124952 -2.708456
v 1.046035 0.661950 -2.522075
v 0.664292 0.428159 -2.443113
v 0.664292 0.428159 -2.443113
v -0.022896 0.560763 -2.466991
v 0.282334 1.124952 -2.708456
v 1.724165 0.520860 -1.400298
v 1.838794 -0.018330 -2.054829
v 1.648716 0.522923 -2.097751
v 1.648716 0.522923 -2.097751
v 1.668940 1.043240 -1.574609
v 1.724165 0.520860 -1.400298
v -1.113037 0.541456 -2.810835
v -0.942109 0.796221 -2.608395
v -0.889868 0.456292 -2.415371
v -0.889868 0.456292 -2.415371
v -1.197788 -0.016807 -2.519771
v -1.113037 0.541456 -2.810835
v -2.323154 0.306453 0.276516
v -2.182915 0.462429 1.039049
v -3.057378 0.772567 0.937740
v -3.057378 0.772567 0.937740
v -2.730854 0.696225 0.312267
v -2.323154 0.306453 0.276516
v -2.619829 -0.024944 -0.197335
v -2.323154 0.306453 0.276516
v -2.730854 0.696225 0.312267
v -2.730854 0.696225 0.312267
v -3.035234 0.468164 -0.117100
v -2.619829 -0.024944 -0.197335
v 2.210674 0.368785 0.267312
v 2.466743 0.517348 -0.386816
v 2.644189 1.036356 -0.225662
v 2.644189 1.036356 -0.225662
v 2.258428 0.888692 0.232794
v 2.210674 0.368785 0.267312
v 2.519663 0.706810 0.605134
v 2.489692 -0.021452 0.714758
v 2.210674 0.368785 0.267312
v 2.210674 0.368785 0.267312
v 2.258428 0.888692 0.232794
v 2.519663 0.706810 0.605134
vt -0.028636 0.942946
vt -0.063741 0.000000
vt 0.330717 0.000000
vt 0.330717 0.000000
vt 0.341657 0.942946
vt -0.028636 0.942946
vt 0.851463 0.942946
vt 0.341657 0.942946
vt 0.330717 0.000000
vt 0.330717 0.000000
vt 0.845804 0.000000
vt 0.851463 0.942946
vt -0.140556 0.942946
vt -0.163021 0.000000
vt 0.429625 0.000000
vt 0.429625 0.000000
vt 0.455084 0.942946
vt -0.140556 0.942946
vt -0.509832 0.942946
vt -0.508172 0.000000
vt -0.163021 0.000000
vt -0.163021 0.000000
vt -0.140556 0.942946
vt -0.509832 0.942946
vt 0.087007 0.942946
vt 0.086182 0.000000
vt 0.419877 0.000000
vt 0.419877 0.000000
vt 0.350606 0.942946
vt 0.087007 0.942946
vt 0.087007 0.942946
vt -0.245276 0.942946
vt -0.323889 0.000000
vt -0.323889 0.000000
vt 0.086182 0.000000
vt 0.087007 0.942946
vt -0.176226 0.942946
vt -0.161769 0.000000
vt 0.248963 0.000000
vt 0.248963 0.000000
vt 0.288761 0.942946
vt -0.176226 0.942946
vt 0.600885 0.942946
vt 0.288761 0.942946
vt 0.248963 0.000000
vt 0.248963 0.000000
vt 0.546611 0.000000
vt 0.600885 0.942946
vt 0.212829 0.942946
vt -0.314352 0.942946
vt -0.318568 0.000000
vt -0.318568 0.000000
vt 0.139444 0.000000
vt 0.212829 0.942946
vt 0.342202 0.942946
vt 0.212829 0.942946
vt 0.139444 0.000000
vt 0.139444 0.000000
vt 0.362041 0.000000
vt 0.342202 0.942946
vt 0.337807 0.942946
vt 0.350732 0.000000
vt 0.958732 0.000000
vt 0.958732 0.000000
vt 0.945808 0.942946
vt 0.337807 0.942946
vt 0.360246 0.942946
vt 0.249011 0.000000
vt 0.758775 0.000000
vt 0.758775 0.000000
vt 0.892692 0.942946
vt 0.360246 0.942946
vt -0.284290 0.942946
vt -0.279195 0.000000
vt 0.249011 0.000000
vt 0.249011 0.000000
vt 0.360246 0.942946
vt -0.284290 0.942946
vt 0.240515 0.942946
vt 0.240997 0.000000
vt 0.743326 0.000000
vt 0.743326 0.000000
vt 0.790744 0.942946
vt 0.240515 0.942946
vt -0.404455 0.942946
vt -0.382152 0.000000
vt 0.240997 0.000000
vt 0.240997 0.000000
vt 0.240515 0.942946
vt -0.404455 0.942946
vt -0.222321 0.942946
vt -0.169882 0.000000
vt 0.300554 0.000000
vt 0.300554 0.000000
vt 0.318019 0.942946
vt -0.222321 0.942946
vt -0.222321 0.942946
vt -0.456242 0.942946
vt -0.335248 0.000000
vt -0.335248 0.000000
vt -0.169882 0.000000
vt -0.222321 0.942946
vt 0.872025 0.000000
vt 0.949418 0.942946
vt 0.342495 0.942946
vt 0.342495 0.942946
vt 0.248879 0.000000
vt 0.872025 0.000000
vt 0.248879 0.000000
vt 0.342495 0.942946
vt -0.275303 0.942946
vt -0.275303 0.942946
vt -0.286355 0.000000
vt 0.248879 0.000000
vt 1.278760 0.000000
vt 1.285517 0.942946
vt 0.940989 0.942946
vt 0.940989 0.942946
vt 0.877482 0.000000
vt 1.278760 0.000000
vt 0.877482 0.000000
vt 0.940989 0.942946
vt 0.359155 0.942946
vt 0.359155 0.942946
vt 0.368769 0.000000
vt 0.877482 0.000000
vt 0.795066 0.942946
vt 0.772007 0.000000
vt 1.167770 0.000000
vt 1.167770 0.000000
vt 1.265543 0.942946
vt 0.795066 0.942946
vt 0.313787 0.942946
vt 0.343147 0.000000
vt 0.772007 0.000000
vt 0.772007 0.000000
vt 0.795066 0.942946
vt 0.313787 0.942946
vt 0.067223 0.000000
vt 0.093286 0.942946
vt -0.386322 0.942946
vt -0.386322 0.942946
vt -0.412385 0.000000
vt 0.067223 0.000000
vt -0.423690 0.942946
vt -0.413751 0.000000
vt -0.087248 0.000000
vt -0.087248 0.000000
vt -0.097188 0.942946
vt -0.423690 0.942946
vt 0.976203 0.000000
vt 0.983364 0.942946
vt 0.570920 0.942946
vt 0.570920 0.942946
vt 0.535362 0.000000
vt 0.976203 0.000000
vt 1.345287 0.000000
vt 1.324754 0.942946
vt 0.983364 0.942946
vt 0.983364 0.942946
vt 0.976203 0.000000
vt 1.345287 0.000000
vt -0.016716 0.000000
vt -0.055696 0.942946
vt -0.407410 0.942946
vt -0.407410 0.942946
vt -0.424785 0.000000
vt -0.016716 0.000000
vt 0.294645 0.942946
vt -0.055696 0.942946
vt -0.016716 0.000000
vt -0.016716 0.000000
vt 0.352100 0.000000
vt 0.294645 0.942946
vt -0.028636 0.942946
vt 0.341657 0.942946
vt 0.330717 0.000000
vt 0.330717 0.000000
vt -0.063741 0.000000
vt -0.028636 0.942946
vt 0.851463 0.942946
vt 0.845804 0.000000
vt 0.330717 0.000000
vt 0.330717 0.000000
vt 0.341657 0.942946
vt 0.851463 0.942946
vt -0.140556 0.942946
vt 0.455084 0.942946
vt 0.429625 0.000000
vt 0.429625 0.000000
vt -0.163021 0.000000
vt -0.140556 0.942946
vt -0.509832 0.942946
vt -0.140556 0.942946
vt -0.163021 0.000000
vt -0.163021 0.000000
vt -0.508172 0.000000
vt -0.509832 0.942946
vt 0.087007 0.942946
vt 0.350606 0.942946
vt 0.419877 0.000000
vt 0.419877 0.000000
vt 0.086182 0.000000
vt 0.087007 0.942946
vt 0.087007 0.942946
vt 0.086182 0.000000
vt -0.323889 0.000000
vt -0.323889 0.000000
vt -0.245276 0.942946
vt 0.087007 0.942946
vt -0.176226 0.942946
vt 0.288761 0.942946
vt 0.248963 0.000000
vt 0.248963 0.000000
vt -0.161769 0.000000
vt -0.176226 0.942946
vt 0.600885 0.942946
vt 0.546611 0.000000
vt 0.248963 0.000000
vt 0.248963 0.000000
vt 0.288761 0.942946
vt 0.600885 0.942946
vt 0.212829 0.942946
vt 0.139444 0.000000
vt -0.318568 0.000000
vt -0.318568 0.000000
vt -0.314352 0.942946
vt 0.212829 0.942946
vt 0.342202 0.942946
vt 0.362041 0.000000
vt 0.139444 0.000000
vt 0.139444 0.000000
vt 0.212829 0.942946
vt 0.342202 0.942946
vt 0.337807 0.942946
vt 0.945808 0.942946
vt 0.958732 0.000000
vt 0.958732 0.000000
vt 0.350732 0.000000
vt 0.337807 0.942946
vt 0.360246 0.942946
vt 0.892692 0.942946
vt 0.758775 0.000000
vt 0.758775 0.000000
vt 0.249011 0.000000
vt 0.360246 0.942946
vt -0.284290 0.942946
vt 0.360246 0.942946
vt 0.249011 0.000000
vt 0.249011 0.000000
vt -0.279195 0.000000
vt -0.284290 0.942946
vt 0.240515 0.942946
vt 0.790744 0.942946
vt 0.743326 0.000000
vt 0.743326 0.000000
vt 0.240997 0.000000
vt 0.240515 0.942946
vt -0.404455 0.942946
vt 0.240515 0.942946
vt 0.240997 0.000000
vt 0.240997 0.000000
vt -0.382152 0.000000
vt -0.404455 0.942946
vt -0.222321 0.942946
vt 0.318019 0.942946
vt 0.300554 0.000000
vt 0.300554 0.000000
vt -0.169882 0.000000
vt -0.222321 0.942946
vt -0.222321 0.942946
vt -0.169882 0.000000
vt -0.335248 0.000000
vt -0.335248 0.000000
vt -0.456242 0.942946
vt -0.222321 0.942946
vt 0.872025 0.000000
vt 0.248879 0.000000
vt 0.342495 0.942946
vt 0.342495 0.942946
vt 0.949418 0.942946
vt 0.872025 0.000000
vt 0.248879 0.000000
vt -0.286355 0.000000
vt -0.275303 0.942946
vt -0.275303 0.942946
vt 0.342495 0.942946
vt 0.248879 0.000000
vt 1.278760 0.000000
vt 0.877482 0.000000
vt 0.940989 0.942946
vt 0.940989 0.942946
vt 1.285517 0.942946
vt 1.278760 0.000000
vt 0.877482 0.000000
vt 0.368769 0.000000
vt 0.359155 0.942946
vt 0.359155 0.942946
vt 0.940989 0.942946
vt 0.877482 0.000000
vt 0.795066 0.942946
vt 1.265543 0.942946
vt 1.167770 0.000000
vt 1.167770 0.000000
vt 0.772007 0.000000
vt 0.795066 0.942946
vt 0.313787 0.942946
vt 0.795066 0.942946
vt 0.772007 0.000000
vt 0.772007 0.000000
vt 0.343147 0.000000
vt 0.313787 0.942946
vt 0.067223 0.000000
vt -0.412385 0.000000
vt -0.386322 0.942946
vt -0.386322 0.942946
vt 0.093286 0.942946
vt 0.067223 0.000000
vt -0.423690 0.942946
vt -0.097188 0.942946
vt -0.087248 0.000000
vt -0.087248 0.000000
vt -0.413751 0.000000
vt -0.423690 0.942946
vt 0.976203 0.000000
vt 0.535362 0.000000
vt 0.570920 0.942946
vt 0.570920 0.942946
vt 0.983364 0.942946
vt 0.976203 0.000000
vt 1.345287 0.000000
vt 0.976203 0.000000
vt 0.983364 0.942946
vt 0.983364 0.942946
vt 1.324754 0.942946
vt 1.345287 0.000000
vt -0.016716 0.000000
vt -0.424785 0.000000
vt -0.407410 0.942946
vt -0.407410 0.942946
vt -0.055696 0.942946
vt -0.016716 0.000000
vt 0.294645 0.942946
vt 0.352100 0.000000
vt -0.016716 0.000000
vt -0.016716 0.000000
vt -0.055696 0.942946
vt 0.294645 0.942946
vn -0.660979 -0.018642 -0.750173
vn -0.660979 -0.018642 -0.750173
vn -0.660979 -0.018642 -0.750173
vn -0.741288 0.532854 -0.408115
vn -0.741288 0.532854 -0.408115
vn -0.741288 0.532854 -0.408115
vn -0.592078 0.412384 -0.692375
vn -0.592078 0.412384 -0.692375
vn -0.592078 0.412384 -0.692375
vn -0.959850 -0.122610 -0.252300
vn -0.959850 -0.122610 -0.252300
vn -0.959850 -0.122610 -0.252300
vn 0.353857 0.638861 -0.683111
vn 0.353857 0.638861 -0.683111
vn 0.353857 0.638861 -0.683111
vn 0.394589 0.591636 -0.703041
vn 0.394589 0.591636 -0.703041
vn 0.394589 0.591636 -0.703041
vn -0.008927 0.179430 -0.983730
vn -0.008927 0.179430 -0.983730
vn -0.008927 0.179430 -0.983730
vn -0.549197 0.473684 -0.688481
vn -0.549197 0.473684 -0.688481
vn -0.549197 0.473684 -0.688481
vn 0.926745 -0.358255 0.113121
vn 0.926745 -0.358255 0.113121
vn 0.926745 -0.358255 0.113121
vn 0.991595 0.111345 -0.065885
vn 0.991595 0.111345 -0.065885
vn 0.991595 0.111345 -0.065885
vn 0.510955 0.755036 0.410908
vn 0.510955 0.755036 0.410908
vn 0.510955 0.755036 0.410908
vn 0.870889 -0.253435 -0.421098
vn 0.870889 -0.253435 -0.421098
vn 0.870889 -0.253435 -0.421098
vn -0.811333 0.449954 0.373203
vn -0.811333 0.449954 0.373203
vn -0.811333 0.449954 0.373203
vn -0.931883 0.258176 0.254831
vn -0.931883 0.258176 0.254831
vn -0.931883 0.258176 0.254831
vn -0.580796 -0.360072 -0.730085
vn -0.580796 -0.360072 -0.730085
vn -0.580796 -0.360072 -0.730085
vn -0.462067 -0.331175 -0.822689
vn -0.462067 -0.331175 -0.822689
vn -0.462067 -0.331175 -0.822689
vn 0.895020 0.436280 0.092732
vn 0.895020 0.436280 0.092732
vn 0.895020 0.436280 0.092732
vn 0.465619 -0.653980 -0.596245
vn 0.465619 -0.653980 -0.596245
vn 0.465619 -0.653980 -0.596245
vn 0.802549 -0.560577 -0.204130
vn 0.802549 -0.560577 -0.204130
vn 0.802549 -0.560577 -0.204130
vn 0.968957 -0.200845 0.144162
vn 0.968957 -0.200845 0.144162
vn 0.968957 -0.200845 0.144162
vn 0.108297 0.207868 -0.972143
vn 0.108297 0.207868 -0.972143
vn 0.108297 0.207868 -0.972143
vn 0.113935 0.193078 -0.974546
vn 0.113935 0.193078 -0.974546
vn 0.113935 0.193078 -0.974546
vn 0.933425 0.358760 -0.003044
vn 0.933425 0.358760 -0.003044
vn 0.933425 0.358760 -0.003044
vn 0.742474 0.669762 -0.012297
vn 0.742474 0.669762 -0.012297
vn 0.742474 0.669762 -0.012297
vn 0.067894 0.750279 -0.657626
vn 0.067894 0.750279 -0.657626
vn 0.067894 0.750279 -0.657626
vn 0.175486 0.458166 -0.871372
vn 0.175486 0.458166 -0.871372
vn 0.175486 0.458166 -0.871372
vn 0.950328 0.116299 -0.288704
vn 0.950328 0.116299 -0.288704
vn 0.950328 0.116299 -0.288704
vn 0.947780 0.145841 -0.283626
vn 0.947780 0.145841 -0.283626
vn 0.947780 0.145841 -0.283626
vn 0.056785 0.881677 -0.468423
vn 0.056785 0.881677 -0.468423
vn 0.056785 0.881677 -0.468423
vn 0.394483 0.587980 -0.706161
vn 0.394483 0.587980 -0.706161
vn 0.394483 0.587980 -0.706161
vn 0.609434 0.485622 0.626707
vn 0.609434 0.485622 0.626707
vn 0.609434 0.485622 0.626707
vn 0.713569 0.613922 0.337520
vn 0.713569 0.613922 0.337520
vn 0.713569 0.613922 0.337520
vn 0.972239 0.233806 0.009297
vn 0.972239 0.233806 0.009297
vn 0.972239 0.233806 0.009297
vn 0.967598 0.251616 0.021064
vn 0.967598 0.251616 0.021064
vn 0.967598 0.251616 0.021064
vn 0.520083 0.812332 -0.263876
vn 0.520083 0.812332 -0.263876
vn 0.520083 0.812332 -0.263876
vn 0.914277 0.343964 0.213976
vn 0.914277 0.343964 0.213976
vn 0.914277 0.343964 0.213976
vn 0.084971 -0.008358 -0.996348
vn 0.084971 -0.008358 -0.996348
vn 0.084971 -0.008358 -0.996348
vn 0.168250 -0.074548 -0.982921
vn 0.168250 -0.074548 -0.982921
vn 0.168250 -0.074548 -0.982921
vn 0.080493 0.561986 0.823221
vn 0.080493 0.561986 0.823221
vn 0.080493 0.561986 0.823221
vn -0.007494 0.243725 0.969815
vn -0.007494 0.243725 0.969815
vn -0.007494 0.243725 0.969815
vn 0.775074 0.421870 0.470410
vn 0.775074 0.421870 0.470410
vn 0.775074 0.421870 0.470410
vn 0.764211 0.459058 0.453043
vn 0.764211 0.459058 0.453043
vn 0.764211 0.459058 0.453043
vn -0.434397 0.828589 0.353185
vn -0.434397 0.828589 0.353185
vn -0.434397 0.828589 0.353185
vn -0.769910 0.608111 0.193496
vn -0.769910 0.608111 0.193496
vn -0.769910 0.608111 0.193496
vn 0.040123 0.374722 0.926269
vn 0.040123 0.374722 0.926269
vn 0.040123 0.374722 0.926269
vn -0.018513 0.346935 0.937706
vn -0.018513 0.346935 0.937706
vn -0.018513 0.346935 0.937706
vn -0.991844 -0.069123 0.107092
vn -0.991844 -0.069123 0.107092
vn -0.991844 -0.069123 0.107092
vn -0.941173 -0.322523 0.100861
vn -0.941173 -0.322523 0.100861
vn -0.941173 -0.322523 0.100861
vn -0.765897 0.384821 0.515087
vn -0.765897 0.384821 0.515087
vn -0.765897 0.384821 0.515087
vn -0.844428 0.160429 0.511081
vn -0.844428 0.160429 0.511081
vn -0.844428 0.160429 0.511081
vn 0.677599 0.683976 0.270252
vn 0.677599 0.683976 0.270252
vn 0.677599 0.683976 0.270252
vn 0.349230 0.903346 -0.249007
vn 0.349230 0.903346 -0.249007
vn 0.349230 0.903346 -0.249007
vn 0.519786 0.544936 -0.657927
vn 0.519786 0.544936 -0.657927
vn 0.519786 0.544936 -0.657927
vn 0.471686 0.556142 -0.684265
vn 0.471686 0.556142 -0.684265
vn 0.471686 0.556142 -0.684265
vn -0.769328 0.028290 -0.638227
vn -0.769328 0.028290 -0.638227
vn -0.769328 0.028290 -0.638227
vn -0.886189 0.383648 -0.259776
vn -0.886189 0.383648 -0.259776
vn -0.886189 0.383648 -0.259776
vn -0.786730 0.112559 0.606948
vn -0.786730 0.112559 0.606948
vn -0.786730 0.112559 0.606948
vn -0.790464 0.122853 0.600062
vn -0.790464 0.122853 0.600062
vn -0.790464 0.122853 0.600062
vn 0.741288 -0.532854 0.408115
vn 0.741288 -0.532854 0.408115
vn 0.741288 -0.532854 0.408115
vn 0.660979 0.018642 0.750173
vn 0.660979 0.018642 0.750173
vn 0.660979 0.018642 0.750173
vn 0.959850 0.122610 0.252300
vn 0.959850 0.122610 0.252300
vn 0.959850 0.122610 0.252300
vn 0.592078 -0.412384 0.692375
vn 0.592078 -0.412384 0.692375
vn 0.592078 -0.412384 0.692375
vn -0.394589 -0.591636 0.703041
vn -0.394589 -0.591636 0.703041
vn -0.394589 -0.591636 0.703041
vn -0.353857 -0.638861 0.683111
vn -0.353857 -0.638861 0.683111
vn -0.353857 -0.638861 0.683111
vn 0.549197 -0.473684 0.688481
vn 0.549197 -0.473684 0.688481
vn 0.549197 -0.473684 0.688481
vn 0.008927 -0.179430 0.983730
vn 0.008927 -0.179430 0.983730
vn 0.008927 -0.179430 0.983730
vn -0.991595 -0.111345 0.065885
vn -0.991595 -0.111345 0.065885
vn -0.991595 -0.111345 0.065885
vn -0.926745 0.358255 -0.113121
vn -0.926745 0.358255 -0.113121
vn -0.926745 0.358255 -0.113121
vn -0.870889 0.253435 0.421098
vn -0.870889 0.253435 0.421098
vn -0.870889 0.253435 0.421098
vn -0.510955 -0.755036 -0.410908
vn -0.510955 -0.755036 -0.410908
vn -0.510955 -0.755036 -0.410908
vn 0.931883 -0.258176 -0.254831
vn 0.931883 -0.258176 -0.254831
vn 0.931883 -0.258176 -0.254831
vn 0.811333 -0.449954 -0.373203
vn 0.811333 -0.449954 -0.373203
vn 0.811333 -0.449954 -0.373203
vn 0.462067 0.331175 0.822689
vn 0.462067 0.331175 0.822689
vn 0.462067 0.331175 0.822689
vn 0.580796 0.360072 0.730085
vn 0.580796 0.360072 0.730085
vn 0.580796 0.360072 0.730085
vn -0.465619 0.653980 0.596245
vn -0.465619 0.653980 0.596245
vn -0.465619 0.653980 0.596245
vn -0.895020 -0.436280 -0.092732
vn -0.895020 -0.436280 -0.092732
vn -0.895020 -0.436280 -0.092732
vn -0.968957 0.200845 -0.144162
vn -0.968957 0.200845 -0.144162
vn -0.968957 0.200845 -0.144162
vn -0.802549 0.560577 0.204130
vn -0.802549 0.560577 0.204130
vn -0.802549 0.560577 0.204130
vn -0.113935 -0.193078 0.974546
vn -0.113935 -0.193078 0.974546
vn -0.113935 -0.193078 0.974546
vn -0.108297 -0.207868 0.972143
vn -0.108297 -0.207868 0.972143
vn -0.108297 -0.207868 0.972143
vn -0.742474 -0.669762 0.012297
vn -0.742474 -0.669762 0.012297
vn -0.742474 -0.669762 0.012297
vn -0.933425 -0.358760 0.003044
vn -0.933425 -0.358760 0.003044
vn -0.933425 -0.358760 0.003044
vn -0.175486 -0.458166 0.871372
vn -0.175486 -0.458166 0.871372
vn -0.175486 -0.458166 0.871372
vn -0.067894 -0.750279 0.657626
vn -0.067894 -0.750279 0.657626
vn -0.067894 -0.750279 0.657626
vn -0.947780 -0.145841 0.283626
vn -0.947780 -0.145841 0.283626
vn -0.947780 -0.145841 0.283626
vn -0.950328 -0.116299 0.288704
vn -0.950328 -0.116299 0.288704
vn -0.950328 -0.116299 0.288704
vn -0.394483 -0.587980 0.706161
vn -0.394483 -0.587980 0.706161
vn -0.394483 -0.587980 0.706161
vn -0.056785 -0.881677 0.468423
vn -0.056785 -0.881677 0.468423
vn -0.056785 -0.881677 0.468423
vn -0.713569 -0.613922 -0.337520
vn -0.713569 -0.613922 -0.337520
vn -0.713569 -0.613922 -0.337520
vn -0.609434 -0.485622 -0.626707
vn -0.609434 -0.485622 -0.626707
vn -0.609434 -0.485622 -0.626707
vn -0.967598 -0.251616 -0.021064
vn -0.967598 -0.251616 -0.021064
vn -0.967598 -0.251616 -0.021064
vn -0.972239 -0.233806 -0.009297
vn -0.972239 -0.233806 -0.009297
vn -0.972239 -0.233806 -0.009297
vn -0.914277 -0.343964 -0.213976
vn -0.914277 -0.343964 -0.213976
vn -0.914277 -0.343964 -0.213976
vn -0.520083 -0.812332 0.263876
vn -0.520083 -0.812332 0.263876
vn -0.520083 -0.812332 0.263876
vn -0.168250 0.074548 0.982921
vn -0.168250 0.074548 0.982921
vn -0.168250 0.074548 0.982921
vn -0.084971 0.008358 0.996348
vn -0.084971 0.008358 0.996348
vn -0.084971 0.008358 0.996348
vn 0.007494 -0.243725 -0.969815
vn 0.007494 -0.243725 -0.969815
vn 0.007494 -0.243725 -0.969815
vn -0.080493 -0.561986 -0.823221
vn -0.080493 -0.561986 -0.823221
vn -0.080493 -0.561986 -0.823221
vn -0.764211 -0.459058 -0.453043
vn -0.764211 -0.459058 -0.453043
vn -0.764211 -0.459058 -0.453043
vn -0.775074 -0.421870 -0.470410
vn -0.775074 -0.421870 -0.470410
vn -0.775074 -0.421870 -0.470410
vn 0.769910 -0.608111 -0.193496
vn 0.769910 -0.608111 -0.193496
vn 0.769910 -0.608111 -0.193496
vn 0.434397 -0.828589 -0.353185
vn 0.434397 -0.828589 -0.353185
vn 0.434397 -0.828589 -0.353185
vn 0.018513 -0.346935 -0.937706
vn 0.018513 -0.346935 -0.937706
vn 0.018513 -0.346935 -0.937706
vn -0.040123 -0.374722 -0.926269
vn -0.040123 -0.374722 -0.926269
vn -0.040123 -0.374722 -0.926269
vn 0.941173 0.322523 -0.100861
vn 0.941173 0.322523 -0.100861
vn 0.941173 0.322523 -0.100861
vn 0.991844 0.069123 -0.107092
vn 0.991844 0.069123 -0.107092
vn 0.991844 0.069123 -0.107092
vn 0.844428 -0.160429 -0.511081
vn 0.844428 -0.160429 -0.511081
vn 0.844428 -0.160429 -0.511081
vn 0.765897 -0.384821 -0.515087
vn 0.765897 -0.384821 -0.515087
vn 0.765897 -0.384821 -0.515087
vn -0.349230 -0.903346 0.249007
vn -0.349230 -0.903346 0.249007
vn -0.349230 -0.903346 0.249007
vn -0.677599 -0.683976 -0.270252
vn -0.677599 -0.683976 -0.270252
vn -0.677599 -0.683976 -0.270252
vn -0.471686 -0.556142 0.684265
vn -0.471686 -0.556142 0.684265
vn -0.471686 -0.556142 0.684265
vn -0.519786 -0.544936 0.657927
vn -0.519786 -0.544936 0.657927
vn -0.519786 -0.544936 0.657927
vn 0.886189 -0.383648 0.259776
vn 0.886189 -0.383648 0.259776
vn 0.886189 -0.383648 0.259776
vn 0.769328 -0.028290 0.638227
vn 0.769328 -0.028290 0.638227
vn 0.769328 -0.028290 0.638227
vn 0.790464 -0.122853 -0.600062
vn 0.790464 -0.122853 -0.600062
vn 0.790464 -0.122853 -0.600062
vn 0.786730 -0.112559 -0.606948
vn 0.786730 -0.112559 -0.606948
vn 0.786730 -0.112559 -0.606948
f 78/78/78 77/77/77 76/76/76
f 81/81/81 80/80/80 79/79/79
f 84/84/84 83/83/83 82/82/82
f 87/87/87 86/86/86 85/85/85
f 90/90/90 89/89/89 88/88/88
f 93/93/93 92/92/92 91/91/91
f 96/96/96 95/95/95 94/94/94
f 99/99/99 98/98/98 97/97/97
f 102/102/102 101/101/101 100/100/100
f 105/105/105 104/104/104 103/103/103
f 108/108/108 107/107/107 106/106/106
f 111/111/111 110/110/110 109/109/109
f 114/114/114 113/113/113 112/112/112
f 117/117/117 116/116/116 115/115/115
f 120/120/120 119/119/119 118/118/118
f 123/123/123 122/122/122 121/121/121
f 126/126/126 125/125/125 124/124/124
f 129/129/129 128/128/128 127/127/127
f 132/132/132 131/131/131 130/130/130
f 135/135/135 134/134/134 133/133/133
f 138/138/138 137/137/137 136/136/136
f 141/141/141 140/140/140 139/139/139
f 144/144/144 143/143/143 142/142/142
f 147/147/147 146/146/146 145/145/145
f 150/150/150 149/149/149 148/148/148
f 153/153/153 152/152/152 151/151/151
f 156/156/156 155/155/155 154/154/154
f 159/159/159 158/158/158 157/157/157
f 162/162/162 161/161/161 160/160/160
f 165/165/165 164/164/164 163/163/163
f 168/168/168 167/167/167 166/166/166
f 171/171/171 170/170/170 169/169/169
f 174/174/174 173/173/173 172/172/172
f 177/177/177 176/176/176 175/175/175
f 180/180/180 179/179/179 178/178/178
f 183/183/183 182/182/182 181/181/181
f 186/186/186 185/185/185 184/184/184
f 189/189/189 188/188/188 187/187/187
f 192/192/192 191/191/191 190/190/190
f 195/195/195 194/194/194 193/193/193
f 198/198/198 197/197/197 196/196/196
f 201/201/201 200/200/200 199/199/199
f 204/204/204 203/203/203 202/202/202
f 207/207/207 206/206/206 205/205/205
f 210/210/210 209/209/209 208/208/208
f 213/213/213 212/212/212 211/211/211
f 216/216/216 215/215/215 214/214/214
f 219/219/219 218/218/218 217/217/217
f 222/222/222 221/221/221 220/220/220
f 225/225/225 224/224/224 223/223/223
f 228/228/228 227/227/227 226/226/226
f 231/231/231 230/230/230 229/229/229
f 234/234/234 233/233/233 232/232/232
f 237/237/237 236/236/236 235/235/235
f 240/240/240 239/239/239 238/238/238
f 243/243/243 242/242/242 241/241/241
f 246/246/246 245/245/245 244/244/244
f 249/249/249 248/248/248 247/247/247
f 252/252/252 251/251/251 250/250/250
f 255/255/255 254/254/254 253/253/253
f 258/258/258 257/257/257 256/256/256
f 261/261/261 260/260/260 259/259/259
f 264/264/264 263/263/263 262/262/262
f 267/267/267 266/266/266 265/265/265
f 270/270/270 269/269/269 268/268/268
f 273/273/273 272/272/272 271/271/271
f 276/276/276 275/275/275 274/274/274
f 279/279/279 278/278/278 277/277/277
f 282/282/282 281/281/281 280/280/280
f 285/285/285 284/284/284 283/283/283
f 288/288/288 287/287/287 286/286/286
f 291/291/291 290/290/290 289/289/289
f 294/294/294 293/293/293 292/292/292
f 297/297/297 296/296/296 295/295/295
f 300/300/300 299/299/299 298/298/298
f 303/303/303 302/302/302 301/301/301
f 306/306/306 305/305/305 304/304/304
f 309/309/309 308/308/308 307/307/307
f 312/312/312 311/311/311 310/310/310
f 315/315/315 314/314/314 313/313/313
f 318/318/318 317/317/317 316/316/316
f 321/321/321 320/320/320 319/319/319
f 324/324/324 323/323/323 322/322/322
f 327/327/327 326/326/326 325/325/325
f 330/330/330 329/329/329 328/328/328
f 333/333/333 332/332/332 331/331/331
f 336/336/336 335/335/335 334/334/334
f 339/339/339 338/338/338 337/337/337
f 342/342/342 341/341/341 340/340/340
f 345/345/345 344/344/344 343/343/343
f 348/348/348 347/347/347 346/346/346
f 351/351/351 350/350/350 349/349/349
f 354/354/354 353/353/353 352/352/352
f 357/357/357 356/356/356 355/355/355
f 360/360/360 359/359/359 358/358/358
f 363/363/363 362/362/362 361/361/361
f 366/366/366 365/365/365 364/364/364
f 369/369/369 368/368/368 367/367/367
f 372/372/372 371/371/371 370/370/370
f 375/375/375 374/374/374 373/373/373
f 378/378/378 377/377/377 376/376/376
f 381/381/381 380/380/380 379/379/379
f 384/384/384 383/383/383 382/382/382
f 387/387/387 386/386/386 385/385/385
f 390/390/390 389/389/389 388/388/388
f 393/393/393 392/392/392 391/391/391
f 396/396/396 395/395/395 394/394/394
f 399/399/399 398/398/398 397/397/397
f 402/402/402 401/401/401 400/400/400
f 405/405/405 404/404/404 403/403/403
f 408/408/408 407/407/407 406/406/406
f 411/411/411 410/410/410 409/409/409
f 414/414/414 413/413/413 412/412/412
f 417/417/417 416/416/416 415/415/415
f 420/420/420 419/419/419 418/418/418
f 423/423/423 422/422/422 421/421/421
o G3_Object_Dunghill_02_2
usemtl G3_Architecture_Wood_01_D
v 0.823564 0.788449 1.578678
v 0.902461 0.820483 1.614319
v 1.350962 0.255477 1.712363
v 1.285049 0.228274 1.689127
v 0.508203 1.412331 1.403293
v 0.604292 1.451908 1.438323
v 0.902461 0.820483 1.614319
v 0.880093 0.793431 1.695908
v 1.341543 0.238972 1.767445
v 1.350962 0.255477 1.712363
v 0.604292 1.451908 1.438323
v 0.591250 1.427817 1.520018
v 0.880093 0.793431 1.695908
v 0.799722 0.770532 1.657772
v 1.276021 0.219015 1.742015
v 1.341543 0.238972 1.767445
v 0.591250 1.427817 1.520018
v 0.492993 1.397757 1.482477
v 0.799722 0.770532 1.657772
v 0.823564 0.788449 1.578678
v 1.285049 0.228274 1.689127
v 1.276021 0.219015 1.742015
v 0.492993 1.397757 1.482477
v 0.508203 1.412331 1.403293
v 0.521147 1.275860 -0.940903
v 0.562739 1.295699 -1.001216
v 0.897598 2.086776 -0.783640
v 0.848423 2.064768 -0.715927
v 0.562739 1.295699 -1.001216
v 0.501030 1.323532 -1.033010
v 0.832358 2.117381 -0.819081
v 0.897598 2.086776 -0.783640
v 0.501030 1.323532 -1.033010
v 0.461489 1.297825 -0.975497
v 0.786001 2.088917 -0.754652
v 0.832358 2.117381 -0.819081
v 0.461489 1.297825 -0.975497
v 0.521147 1.275860 -0.940903
v 0.848423 2.064768 -0.715927
v 0.786001 2.088917 -0.754652
v 0.445098 0.481391 -1.207488
v 0.474766 0.496679 -1.253331
v 0.474766 0.496679 -1.253331
v 0.425776 0.518338 -1.277964
v 0.425776 0.518338 -1.277964
v 0.396206 0.498451 -1.233765
v 0.396206 0.498451 -1.233765
v 0.445098 0.481391 -1.207488
v -1.674995 1.094871 -0.514155
v -1.756401 1.171921 -0.525908
v -0.997622 1.205944 -0.716367
v -0.918394 1.134692 -0.695332
v -2.335439 0.227167 -0.416699
v -2.421953 0.305461 -0.438395
v -1.756401 1.171921 -0.525908
v -1.709160 1.200475 -0.411937
v -0.965552 1.233784 -0.631824
v -0.997622 1.205944 -0.716367
v -2.421953 0.305461 -0.438395
v -2.387134 0.337001 -0.345059
v -1.709160 1.200475 -0.411937
v -1.646025 1.116745 -0.398317
v -0.903423 1.157972 -0.611016
v -0.965552 1.233784 -0.631824
v -2.387134 0.337001 -0.345059
v -2.317178 0.252143 -0.321071
v -1.646025 1.116745 -0.398317
v -1.674995 1.094871 -0.514155
v -0.918394 1.134692 -0.695332
v -0.903423 1.157972 -0.611016
v -2.317178 0.252143 -0.321071
v -2.335439 0.227167 -0.416699
v 1.603394 0.735771 0.030432
v 1.526709 0.797920 0.050698
v 0.888042 0.869725 -0.939729
v 0.962119 0.812557 -0.959469
v 1.526709 0.797920 0.050698
v 1.586465 0.865090 0.009622
v 0.939565 0.930792 -0.976425
v 0.888042 0.869725 -0.939729
v 1.586465 0.865090 0.009622
v 1.665122 0.801941 0.003849
v 1.014800 0.872751 -0.982692
v 0.939565 0.930792 -0.976425
v 1.665122 0.801941 0.003849
v 1.603394 0.735771 0.030432
v 0.962119 0.812557 -0.959469
v 1.014800 0.872751 -0.982692
v 2.044043 0.640887 1.077583
v 1.972598 0.702265 1.096266
v 1.972598 0.702265 1.096266
v 2.033857 0.769418 1.054957
v 2.033857 0.769418 1.054957
v 2.109976 0.706871 1.049825
v 2.109976 0.706871 1.049825
v 2.044043 0.640887 1.077583
v -0.655991 1.393560 0.467384
v -0.593521 1.449820 0.400498
v -0.059023 1.715670 0.998114
v -0.115469 1.676297 1.055270
v -1.061343 1.111602 -0.219756
v -1.024248 1.138344 -0.257562
v -0.593521 1.449820 0.400498
v -0.649297 1.555118 0.438981
v -0.091343 1.789206 1.020862
v -0.059023 1.715670 0.998114
v -1.024248 1.138344 -0.257562
v -1.045571 1.187896 -0.242606
v -0.649297 1.555118 0.438981
v -0.716162 1.493255 0.492014
v -0.149346 1.745374 1.066545
v -0.091343 1.789206 1.020862
v -1.045571 1.187896 -0.242606
v -1.085156 1.158432 -0.211447
v -0.716162 1.493255 0.492014
v -0.655991 1.393560 0.467384
v -0.115469 1.676297 1.055270
v -0.149346 1.745374 1.066545
v -1.085156 1.158432 -0.211447
v -1.061343 1.111602 -0.219756
v 0.604292 1.451908 1.438323
v 0.508203 1.412331 1.403293
v 0.492993 1.397757 1.482477
v 0.591250 1.427817 1.520018
v 2.033857 0.769418 1.054957
v 1.972598 0.702265 1.096266
v 2.044043 0.640887 1.077583
v 2.109976 0.706871 1.049825
v 0.939565 0.930792 -0.976425
v 1.014800 0.872751 -0.982692
v 0.962119 0.812557 -0.959469
v 0.888042 0.869725 -0.939729
v 0.897598 2.086776 -0.783640
v 0.832358 2.117381 -0.819081
v 0.786001 2.088917 -0.754652
v 0.848423 2.064768 -0.715927
v -0.059023 1.715670 0.998114
v -0.091343 1.789206 1.020862
v -0.149346 1.745374 1.066545
v -0.115469 1.676297 1.055270
v 0.461489 1.297825 -0.975497
v 0.492993 1.397757 1.482477
v 0.501030 1.323532 -1.033010
v 0.562739 1.295699 -1.001216
v 0.939565 0.930792 -0.976425
v 1.526709 0.797920 0.050698
v 1.586465 0.865090 0.009622
v 1.665122 0.801941 0.003849
vt 0.750000 0.750000
vt 1.000000 0.750000
vt 1.000000 1.000000
vt 0.750000 1.000000
vt 0.750000 0.500000
vt 1.000000 0.500000
vt 0.000000 0.750000
vt 0.250000 0.750000
vt 0.250000 1.000000
vt 0.000000 1.000000
vt 0.000000 0.500000
vt 0.250000 0.500000
vt 0.250000 0.750000
vt 0.500000 0.750000
vt 0.500000 1.000000
vt 0.250000 1.000000
vt 0.250000 0.500000
vt 0.500000 0.500000
vt 0.500000 0.750000
vt 0.750000 0.750000
vt 0.750000 1.000000
vt 0.500000 1.000000
vt 0.500000 0.500000
vt 0.750000 0.500000
vt 0.750000 0.250000
vt 1.000000 0.250000
vt 1.000000 0.500000
vt 0.750000 0.500000
vt 0.000000 0.250000
vt 0.250000 0.250000
vt 0.250000 0.500000
vt 0.000000 0.500000
vt 0.250000 0.250000
vt 0.500000 0.250000
vt 0.500000 0.500000
vt 0.250000 0.500000
vt 0.500000 0.250000
vt 0.750000 0.250000
vt 0.750000 0.500000
vt 0.500000 0.500000
vt 0.750000 0.000000
vt 1.000000 0.000000
vt 0.000000 0.000000
vt 0.250000 0.000000
vt 0.250000 0.000000
vt 0.500000 0.000000
vt 0.500000 0.000000
vt 0.750000 0.000000
vt 0.750000 0.750000
vt 1.000000 0.750000
vt 1.000000 1.000000
vt 0.750000 1.000000
vt 0.750000 0.500000
vt 1.000000 0.500000
vt 0.000000 0.750000
vt 0.250000 0.750000
vt 0.250000 1.000000
vt 0.000000 1.000000
vt 0.000000 0.500000
vt 0.250000 0.500000
vt 0.250000 0.750000
vt 0.500000 0.750000
vt 0.500000 1.000000
vt 0.250000 1.000000
vt 0.250000 0.500000
vt 0.500000 0.500000
vt 0.500000 0.750000
vt 0.750000 0.750000
vt 0.750000 1.000000
vt 0.500000 1.000000
vt 0.500000 0.500000
vt 0.750000 0.500000
vt 0.750000 0.250000
vt 1.000000 0.250000
vt 1.000000 0.500000
vt 0.750000 0.500000
vt 0.000000 0.250000
vt 0.250000 0.250000
vt 0.250000 0.500000
vt 0.000000 0.500000
vt 0.250000 0.250000
vt 0.500000 0.250000
vt 0.500000 0.500000
vt 0.250000 0.500000
vt 0.500000 0.250000
vt 0.750000 0.250000
vt 0.750000 0.500000
vt 0.500000 0.500000
vt 0.750000 0.000000
vt 1.000000 0.000000
vt 0.000000 0.000000
vt 0.250000 0.000000
vt 0.250000 0.000000
vt 0.500000 0.000000
vt 0.500000 0.000000
vt 0.750000 0.000000
vt 0.750000 0.750000
vt 1.000000 0.750000
vt 1.000000 1.000000
vt 0.750000 1.000000
vt 0.750000 0.500000
vt 1.000000 0.500000
vt 0.000000 0.750000
vt 0.250000 0.750000
vt 0.250000 1.000000
vt 0.000000 1.000000
vt 0.000000 0.500000
vt 0.250000 0.500000
vt 0.250000 0.750000
vt 0.500000 0.750000
vt 0.500000 1.000000
vt 0.250000 1.000000
vt 0.250000 0.500000
vt 0.500000 0.500000
vt 0.500000 0.750000
vt 0.750000 0.750000
vt 0.750000 1.000000
vt 0.500000 1.000000
vt 0.500000 0.500000
vt 0.750000 0.500000
vt 0.226086 0.385102
vt 0.450926 0.384917
vt 0.423427 0.420438
vt 0.192233 0.421350
vt 0.408653 0.425864
vt 0.410869 0.466396
vt 0.203832 0.465611
vt 0.192233 0.424081
vt 0.430865 0.425442
vt 0.639660 0.424081
vt 0.634435 0.459736
vt 0.428822 0.461070
vt 0.654312 0.384917
vt 0.658581 0.420685
vt 0.473354 0.420934
vt 0.464390 0.386534
vt 0.428822 0.500928
vt 0.436132 0.463801
vt 0.623969 0.466836
vt 0.625159 0.501434
vt 0.500000 0.250000
vt 0.423427 0.420438
vt 0.250000 0.250000
vt 1.000000 0.250000
vt 0.250000 0.500000
vt 1.000000 0.250000
vt 0.250000 0.250000
vt 0.500000 0.250000
vn 0.399374 0.028551 -0.916343
vn 0.389523 0.054738 -0.919389
vn 0.312683 0.071842 -0.947137
vn 0.307388 0.066062 -0.949289
vn 0.375873 -0.078825 -0.923313
vn 0.371169 -0.082521 -0.924891
vn 0.751106 0.538265 0.382244
vn 0.731467 0.563859 0.383430
vn 0.714971 0.623272 0.316779
vn 0.717873 0.623563 0.309561
vn 0.841156 0.462166 0.280819
vn 0.845622 0.460066 0.270669
vn -0.403366 -0.091911 0.910411
vn -0.415400 -0.040230 0.908749
vn -0.322814 -0.147466 0.934904
vn -0.319325 -0.144933 0.936497
vn -0.380362 0.072590 0.921984
vn -0.375720 0.074430 0.923740
vn -0.739755 -0.574721 -0.349940
vn -0.754550 -0.555446 -0.349478
vn -0.715396 -0.654443 -0.244771
vn -0.717036 -0.655467 -0.237114
vn -0.831880 -0.491887 -0.256950
vn -0.833767 -0.491922 -0.250689
vn 0.822430 -0.339541 0.456421
vn 0.819685 -0.358894 0.446444
vn 0.787149 -0.447689 0.424230
vn 0.786427 -0.447626 0.425633
vn 0.498657 0.124095 -0.857870
vn 0.496920 0.120674 -0.859365
vn 0.488075 0.033172 -0.872171
vn 0.488945 0.032782 -0.871698
vn -0.837265 0.350364 -0.419800
vn -0.841753 0.318295 -0.436050
vn -0.809705 0.441904 -0.386133
vn -0.809232 0.442033 -0.386974
vn -0.532956 -0.127222 0.836524
vn -0.530733 -0.122926 0.838577
vn -0.530922 -0.018880 0.847210
vn -0.532122 -0.018027 0.846476
vn 0.848557 -0.241800 0.470621
vn 0.849449 -0.241553 0.469136
vn 0.511346 0.206063 -0.834304
vn 0.510810 0.206161 -0.834608
vn -0.853271 0.222160 -0.471776
vn -0.853607 0.221974 -0.471256
vn -0.522615 -0.225722 0.822146
vn -0.521193 -0.226237 0.822906
vn -0.112880 -0.269219 -0.956441
vn -0.062914 -0.220395 -0.973380
vn -0.185249 -0.455496 -0.870750
vn -0.183697 -0.460632 -0.868374
vn 0.087452 -0.167120 -0.982051
vn 0.092244 -0.169950 -0.981126
vn -0.537884 0.842974 0.008682
vn -0.422352 0.904799 -0.054383
vn -0.110422 0.957902 -0.265010
vn -0.111253 0.955701 -0.272504
vn -0.780388 0.618858 0.089491
vn -0.780787 0.619398 0.081963
vn 0.078676 0.222501 0.971753
vn 0.103475 0.237997 0.965738
vn 0.238322 0.422866 0.874293
vn 0.237647 0.433379 0.869314
vn -0.114672 0.175770 0.977730
vn -0.117987 0.178855 0.976775
vn 0.454576 -0.888809 0.058127
vn 0.505169 -0.862130 0.039202
vn 0.119959 -0.964418 0.235602
vn 0.123213 -0.961986 0.243723
vn 0.795477 -0.605983 0.000841
vn 0.796038 -0.605216 0.006055
vn -0.575038 -0.785314 0.229378
vn -0.570287 -0.783244 0.247594
vn -0.537466 -0.793014 0.286808
vn -0.536508 -0.793965 0.285970
vn -0.575943 0.733025 0.361890
vn -0.570802 0.733674 0.368656
vn -0.558078 0.720177 0.412182
vn -0.558836 0.719398 0.412515
vn 0.589434 0.760016 -0.273758
vn 0.596931 0.765076 -0.241521
vn 0.562937 0.762702 -0.318415
vn 0.562343 0.763285 -0.318068
vn 0.597369 -0.707803 -0.377047
vn 0.596192 -0.708828 -0.376986
vn 0.586289 -0.683157 -0.435386
vn 0.587132 -0.682048 -0.435989
vn -0.609495 -0.769850 0.189332
vn -0.610683 -0.768717 0.190104
vn -0.593297 0.738033 0.321413
vn -0.592840 0.738444 0.321313
vn 0.614849 0.764911 -0.192024
vn 0.615257 0.764543 -0.192178
vn 0.601062 -0.732575 -0.319464
vn 0.599973 -0.733689 -0.318955
vn 0.601394 -0.792718 -0.099616
vn 0.600332 -0.793038 -0.103403
vn 0.525745 -0.847130 -0.077219
vn 0.521575 -0.850278 -0.070619
vn 0.589171 -0.807999 -0.003784
vn 0.585275 -0.810834 0.000700
vn 0.544772 0.524995 -0.653914
vn 0.532577 0.523217 -0.665286
vn 0.546739 0.464458 -0.696674
vn 0.551580 0.458062 -0.697094
vn 0.629933 0.468506 -0.619424
vn 0.636743 0.460623 -0.618373
vn -0.620214 0.775637 0.117140
vn -0.633770 0.767954 0.092642
vn -0.518864 0.839998 0.158694
vn -0.515118 0.843026 0.154791
vn -0.624608 0.779697 -0.044017
vn -0.620148 0.783051 -0.047411
vn -0.568606 -0.500516 0.652818
vn -0.579901 -0.505773 0.638677
vn -0.558139 -0.401990 0.725868
vn -0.561823 -0.394237 0.727277
vn -0.673931 -0.453571 0.583173
vn -0.677414 -0.447999 0.583445
vn -0.379198 0.911101 0.161570
vn -0.406953 0.909089 0.089143
vn -0.387550 0.911080 0.140493
vn -0.358764 0.909299 0.210866
vn 0.308090 0.188570 0.932482
vn 0.397611 0.189553 0.897761
vn 0.309614 0.188600 0.931970
vn 0.217356 0.185909 0.958224
vn -0.316227 -0.193518 -0.928736
vn -0.218147 -0.179193 -0.959324
vn -0.303406 -0.191736 -0.933371
vn -0.395964 -0.203939 -0.895333
vn 0.130549 0.890014 0.436843
vn 0.142251 0.863513 0.483849
vn 0.129246 0.892746 0.431625
vn 0.117023 0.916379 0.382824
vn 0.621484 0.099647 0.777064
vn 0.608299 0.021907 0.793405
vn 0.622749 0.108595 0.774849
vn 0.631547 0.186900 0.752474
vn -0.841753 0.318295 -0.436050
vn -0.387550 0.911080 0.140493
vn 0.496920 0.120674 -0.859365
vn 0.819685 -0.358894 0.446444
vn 0.562343 0.763285 -0.318068
vn -0.570287 -0.783244 0.247594
vn -0.570802 0.733674 0.368656
vn 0.596931 0.765076 -0.241521
f 426/426/426 425/425/425 424/424/424
f 424/424/424 427/427/427 426/426/426
f 425/425/425 429/429/429 428/428/428
f 428/428/428 424/424/424 425/425/425
f 432/432/432 431/431/431 430/430/430
f 430/430/430 433/433/433 432/432/432
f 431/431/431 435/435/435 434/434/434
f 434/434/434 430/430/430 431/431/431
f 438/438/438 437/437/437 436/436/436
f 436/436/436 439/439/439 438/438/438
f 437/437/437 441/441/441 440/440/440
f 440/440/440 436/436/436 437/437/437
f 444/444/444 443/443/443 442/442/442
f 442/442/442 445/445/445 444/444/444
f 443/443/443 447/447/447 446/446/446
f 446/446/446 442/442/442 443/443/443
f 450/450/450 449/449/449 448/448/448
f 448/448/448 451/451/451 450/450/450
f 454/454/454 453/453/453 452/452/452
f 452/452/452 455/455/455 454/454/454
f 458/458/458 457/457/457 456/456/456
f 456/456/456 459/459/459 458/458/458
f 462/462/462 461/461/461 460/460/460
f 460/460/460 463/463/463 462/462/462
f 464/464/464 448/448/448 567/567/567
f 567/567/567 465/465/465 464/464/464
f 466/466/466 452/452/452 566/566/566
f 566/566/566 467/467/467 466/466/466
f 468/468/468 456/456/456 564/564/564
f 564/564/564 469/469/469 468/468/468
f 470/470/470 460/460/460 461/461/461
f 461/461/461 471/471/471 470/470/470
f 474/474/474 473/473/473 472/472/472
f 472/472/472 475/475/475 474/474/474
f 473/473/473 477/477/477 476/476/476
f 476/476/476 472/472/472 473/473/473
f 480/480/480 479/479/479 478/478/478
f 478/478/478 481/481/481 480/480/480
f 479/479/479 483/483/483 482/482/482
f 482/482/482 478/478/478 479/479/479
f 486/486/486 485/485/485 484/484/484
f 484/484/484 487/487/487 486/486/486
f 485/485/485 489/489/489 488/488/488
f 488/488/488 484/484/484 485/485/485
f 492/492/492 491/491/491 490/490/490
f 490/490/490 493/493/493 492/492/492
f 491/491/491 495/495/495 494/494/494
f 494/494/494 490/490/490 491/491/491
f 498/498/498 497/497/497 496/496/496
f 496/496/496 499/499/499 498/498/498
f 502/502/502 501/501/501 500/500/500
f 500/500/500 503/503/503 502/502/502
f 506/506/506 505/505/505 504/504/504
f 504/504/504 568/568/568 506/506/506
f 510/510/510 509/509/509 508/508/508
f 508/508/508 511/511/511 510/510/510
f 512/512/512 496/496/496 569/569/569
f 569/569/569 513/513/513 512/512/512
f 514/514/514 500/500/500 570/570/570
f 570/570/570 515/515/515 514/514/514
f 516/516/516 504/504/504 571/571/571
f 571/571/571 517/517/517 516/516/516
f 518/518/518 508/508/508 509/509/509
f 509/509/509 519/519/519 518/518/518
f 522/522/522 521/521/521 520/520/520
f 520/520/520 523/523/523 522/522/522
f 521/521/521 525/525/525 524/524/524
f 524/524/524 520/520/520 521/521/521
f 528/528/528 527/527/527 526/526/526
f 526/526/526 529/529/529 528/528/528
f 527/527/527 531/531/531 530/530/530
f 530/530/530 526/526/526 527/527/527
f 534/534/534 533/533/533 532/532/532
f 532/532/532 535/535/535 534/534/534
f 533/533/533 537/537/537 536/536/536
f 536/536/536 532/532/532 533/533/533
f 540/540/540 539/539/539 538/538/538
f 538/538/538 541/541/541 540/540/540
f 539/539/539 543/543/543 542/542/542
f 542/542/542 538/538/538 539/539/539
f 565/565/565 545/545/545 544/544/544
f 544/544/544 547/547/547 565/565/565
f 550/550/550 549/549/549 548/548/548
f 548/548/548 551/551/551 550/550/550
f 554/554/554 553/553/553 552/552/552
f 552/552/552 555/555/555 554/554/554
f 558/558/558 557/557/557 556/556/556
f 556/556/556 559/559/559 558/558/558
f 562/562/562 561/561/561 560/560/560
f 560/560/560 563/563/563 562/562/562
