mtllib G3_Myrtana_Ardea_Palisaden_04.mtl
o G3_Myrtana_Ardea_Palisaden_04_0
usemtl G3_Architecture_Wood_08_A
v -1.770547 1.981108 3.983877
v -1.706797 2.071924 4.014453
v -0.575547 2.124937 0.911875
v -0.639297 2.034121 0.881299
v -1.593828 2.097861 4.061494
v -1.481094 2.062163 4.102061
v -0.349844 2.115181 0.999482
v -0.462578 2.150879 0.958916
v -1.420937 1.944614 4.117393
v -1.414531 1.829390 4.111826
v -0.283281 1.882407 1.009248
v -0.289609 1.997627 1.014814
v -1.473047 1.724858 4.080420
v -1.599141 1.695283 4.030254
v -0.467891 1.748301 0.927676
v -0.341797 1.777871 0.977832
v -1.723594 1.750146 3.984648
v -1.779688 1.845176 3.970068
v -0.648438 1.898193 0.867490
v -0.592344 1.803159 0.882070
v 0.452813 2.307319 -1.046699
v 0.340078 2.343022 -1.087266
v 0.227109 2.317080 -1.134307
v 0.163281 2.226265 -1.164883
v 0.154141 2.090337 -1.178691
v 0.210313 1.995303 -1.164111
v 0.334766 1.940444 -1.118506
v 0.460859 1.970015 -1.068350
v 0.519375 2.074546 -1.036934
v 0.512969 2.189771 -1.031367
v 1.674844 2.878950 -3.985391
v 1.562109 2.914648 -4.025957
v 1.449219 2.888706 -4.073008
v 1.385391 2.797891 -4.103584
v 1.376250 2.661963 -4.117393
v 1.432344 2.566929 -4.102803
v 1.556875 2.512070 -4.057207
v 1.682969 2.541641 -4.007041
v 1.741406 2.646177 -3.975635
v 1.735078 2.761396 -3.970059
v 0.334766 1.940444 -1.118506
v 1.556875 2.512070 -4.057207
v -0.592344 1.803159 0.882070
v 0.210313 1.995303 -1.164111
v -1.723594 1.750146 3.984648
v 1.376328 1.753345 -3.159414
v 1.358125 -2.334258 -3.164687
v 1.355547 -2.334258 -3.267812
v 1.378828 1.753345 -3.274766
v 1.355547 -2.334258 -3.267812
v 1.311172 -2.334258 -3.340508
v 1.324297 1.753345 -3.356025
v 1.378828 1.753345 -3.274766
v 1.232187 -2.334258 -3.372559
v 1.131172 -2.334258 -3.357393
v 1.122969 1.753345 -3.374521
v 1.235313 1.753345 -3.396631
v 1.094453 -2.334258 -3.287588
v 1.079922 -2.334258 -3.204346
v 1.074297 1.753345 -3.214287
v 1.075000 1.753345 -3.297773
v 1.132734 -2.334258 -3.130322
v 1.218125 -2.334258 -3.096689
v 1.218125 1.753345 -3.080176
v 1.119531 1.753345 -3.114805
v 1.422813 2.074277 -3.094814
v 1.436797 2.084775 -3.213799
v 1.850000 2.811782 -3.169941
v 1.835078 2.798784 -3.051816
v 1.151250 2.118750 -3.064893
v 1.251484 2.091265 -3.021104
v 1.661250 2.819819 -2.964180
v 1.559531 2.853853 -2.993164
v 1.203594 2.357666 -3.150088
v 1.154141 2.238208 -3.080098
v 1.533594 2.887881 -3.048945
v 1.554062 2.921914 -3.159531
v 1.234141 2.161255 -3.419336
v 1.176719 2.080962 -3.434541
v 0.818047 2.539351 -3.739063
v 0.889375 2.612168 -3.712041
v 1.140703 2.352861 -3.203496
v 1.198516 2.324702 -3.285225
v 0.894609 2.728223 -3.543213
v 0.828125 2.716465 -3.468857
v 1.012031 2.063218 -3.312744
v 1.011641 2.083867 -3.243945
v 0.634687 2.570947 -3.525742
v 0.659375 2.507866 -3.612158
v 1.062188 2.072090 -3.400967
v 0.706484 2.523608 -3.702930
v 1.436797 2.084775 -3.213799
v 1.345312 2.056841 -3.352959
v 1.348984 2.121328 -3.372363
v 1.404375 2.168423 -3.274805
v 1.266250 2.332368 -3.227725
v 1.618125 2.936416 -3.235986
v 1.436797 2.084775 -3.213799
v 1.404375 2.168423 -3.274805
v 1.799453 2.853853 -3.246426
v 1.850000 2.811782 -3.169941
v 1.078516 2.231270 -3.144326
v 0.726172 2.675249 -3.427383
v 1.436797 2.084775 -3.213799
v 1.422813 2.074277 -3.094814
v 1.062188 2.072090 -3.400967
v 1.176719 2.080962 -3.434541
v 1.011641 2.083867 -3.243945
v 1.012031 2.063218 -3.312744
v 1.251484 2.091265 -3.021104
v 1.151250 2.118750 -3.064893
v 1.102422 2.108008 -3.092119
v 1.062891 2.109678 -3.139951
v 1.231641 2.323354 -3.257119
v 1.198516 2.324702 -3.285225
v 1.140703 2.352861 -3.203496
v 1.174844 2.345464 -3.174502
v 1.234141 2.161255 -3.419336
v 1.154141 2.238208 -3.080098
v 1.203594 2.357666 -3.150088
v 1.174844 2.345464 -3.174502
v 1.115391 2.226733 -3.105908
v 1.319531 2.185815 -3.352822
v 1.258438 2.241548 -3.365166
v 1.294375 2.246245 -3.334658
v 1.140703 2.352861 -3.203496
v 1.078516 2.231270 -3.144326
v 1.266250 2.332368 -3.227725
v 1.231641 2.323354 -3.257119
v 1.174844 2.345464 -3.174502
v 1.338906 2.252075 -3.296855
v 1.342266 2.063779 -3.032363
v 1.753516 2.785786 -2.990234
v 1.307266 1.753345 -3.100586
v 1.342266 2.063779 -3.032363
v 1.294062 -2.334258 -3.118105
v 1.062891 2.109678 -3.139951
v 0.670781 2.634033 -3.440713
v 1.338906 2.252075 -3.296855
v 1.266250 2.332368 -3.227725
v 1.618125 2.936416 -3.235986
v 1.715781 2.895918 -3.283945
v 1.338906 2.252075 -3.296855
v 1.294375 2.246245 -3.334658
v 1.231641 2.323354 -3.257119
v 1.266250 2.332368 -3.227725
v 1.294375 2.246245 -3.334658
v 1.258438 2.241548 -3.365166
v 1.198516 2.324702 -3.285225
v 1.231641 2.323354 -3.257119
v 0.894609 2.728223 -3.543213
v 1.198516 2.324702 -3.285225
v 1.258438 2.241548 -3.365166
v 0.927578 2.684980 -3.646064
v 1.258438 2.241548 -3.365166
v 1.234141 2.161255 -3.419336
v 0.889375 2.612168 -3.712041
v 0.927578 2.684980 -3.646064
v 1.348984 2.121328 -3.372363
v 1.234141 2.161255 -3.419336
v 1.404375 2.168423 -3.274805
v 1.799453 2.853853 -3.246426
v 1.404375 2.168423 -3.274805
v 1.078516 2.231270 -3.144326
v 0.726172 2.675249 -3.427383
v 1.115391 2.226733 -3.105908
v 1.078516 2.231270 -3.144326
v 1.154141 2.238208 -3.080098
v 1.533594 2.887881 -3.048945
v 1.154141 2.238208 -3.080098
v -1.379922 1.151191 2.910312
v -1.360937 -2.936411 2.910029
v -1.328359 -2.936411 3.007900
v -1.348516 1.151191 3.021348
v -1.328359 -2.936411 3.007900
v -1.264609 -2.936411 3.064434
v -1.272656 1.151191 3.083125
v -1.348516 1.151191 3.021348
v -1.179688 -2.936411 3.071992
v -1.087500 -2.936411 3.027949
v -1.074688 1.151191 3.041943
v -1.175625 1.151191 3.095928
v -1.072812 -2.936411 2.950459
v -1.083281 -2.936411 2.866602
v -1.075000 1.151191 2.874463
v -1.051250 1.151191 2.954531
v -1.155391 -2.936411 2.811260
v -1.246875 -2.936411 2.804063
v -1.251719 1.151191 2.788271
v -1.147344 1.151191 2.792568
v -1.443203 1.472124 2.862119
v -1.421719 1.482622 2.979980
v -1.829766 2.209629 3.058867
v -1.850000 2.196631 2.941533
v -1.192266 1.516597 2.754111
v -1.300938 1.489111 2.741533
v -1.709453 2.217666 2.806895
v -1.603672 2.251699 2.804893
v -1.217422 1.755513 2.850889
v -1.190625 1.636055 2.769492
v -1.562500 2.285728 2.850635
v -1.549844 2.319761 2.962383
v -1.167891 1.559102 3.117295
v -1.108594 1.478809 3.115059
v -0.676484 1.937197 3.301406
v -0.752578 2.010015 3.296406
v -1.141641 1.750708 2.883574
v -1.173047 1.722549 2.978633
v -0.807031 2.126069 3.136504
v -0.765156 2.114312 3.045947
v -0.986641 1.461064 2.950420
v -1.006406 1.481714 2.884512
v -0.563516 1.968794 3.043799
v -0.561875 1.905713 3.133633
v -1.008828 1.469937 3.049453
v -0.580391 1.921455 3.234238
v -1.421719 1.482622 2.979980
v -1.293594 1.454687 3.086318
v -1.291406 1.519175 3.105947
v -1.372969 1.566270 3.028857
v -1.254609 1.730215 2.943447
v -1.588750 2.334263 3.054229
v -1.421719 1.482622 2.979980
v -1.372969 1.566270 3.028857
v -1.759062 2.251699 3.117207
v -1.829766 2.209629 3.058867
v -1.099453 1.629116 2.808809
v -0.679766 2.073096 2.976484
v -1.421719 1.482622 2.979980
v -1.443203 1.472124 2.862119
v -1.008828 1.469937 3.049453
v -1.108594 1.478809 3.115059
v -1.006406 1.481714 2.884512
v -0.986641 1.461064 2.950420
v -1.300938 1.489111 2.741533
v -1.192266 1.516597 2.754111
v -1.137578 1.505854 2.765859
v -1.085781 1.507524 2.800039
v -1.212891 1.721201 2.961436
v -1.173047 1.722549 2.978633
v -1.141641 1.750708 2.883574
v -1.182813 1.743311 2.865830
v -1.167891 1.559102 3.117295
v -1.190625 1.636055 2.769492
v -1.217422 1.755513 2.850889
v -1.182813 1.743311 2.865830
v -1.145938 1.624580 2.782832
v -1.268984 1.583662 3.078652
v -1.207031 1.639395 3.072607
v -1.250312 1.644092 3.053936
v -1.141641 1.750708 2.883574
v -1.099453 1.629116 2.808809
v -1.254609 1.730215 2.943447
v -1.212891 1.721201 2.961436
v -1.182813 1.743311 2.865830
v -1.303906 1.649922 3.030801
v -1.384453 1.461626 2.778848
v -1.790000 2.183633 2.858789
v -1.331016 1.151191 2.833867
v -1.384453 1.461626 2.778848
v -1.313281 -2.936411 2.846758
v -1.085781 1.507524 2.800039
v -0.622891 2.031880 2.973037
v -1.303906 1.649922 3.030801
v -1.254609 1.730215 2.943447
v -1.588750 2.334263 3.054229
v -1.668047 2.293765 3.128623
v -1.303906 1.649922 3.030801
v -1.250312 1.644092 3.053936
v -1.212891 1.721201 2.961436
v -1.254609 1.730215 2.943447
v -1.250312 1.644092 3.053936
v -1.207031 1.639395 3.072607
v -1.173047 1.722549 2.978633
v -1.212891 1.721201 2.961436
v -0.807031 2.126069 3.136504
v -1.173047 1.722549 2.978633
v -1.207031 1.639395 3.072607
v -0.808438 2.082827 3.244492
v -1.207031 1.639395 3.072607
v -1.167891 1.559102 3.117295
v -0.752578 2.010015 3.296406
v -0.808438 2.082827 3.244492
v -1.291406 1.519175 3.105947
v -1.167891 1.559102 3.117295
v -1.372969 1.566270 3.028857
v -1.759062 2.251699 3.117207
v -1.372969 1.566270 3.028857
v -1.099453 1.629116 2.808809
v -0.679766 2.073096 2.976484
v -1.145938 1.624580 2.782832
v -1.099453 1.629116 2.808809
v -1.190625 1.636055 2.769492
v -1.562500 2.285728 2.850635
v -1.190625 1.636055 2.769492
v -1.303906 1.649922 3.030801
v -1.303906 1.649922 3.030801
v -1.250312 1.644092 3.053936
v -1.250312 1.644092 3.053936
v -1.217422 1.755513 2.850889
v -1.207031 1.639395 3.072607
v -1.141641 1.750708 2.883574
v 1.140703 2.352861 -3.203496
v 1.203594 2.357666 -3.150088
v 1.258438 2.241548 -3.365166
v 1.294375 2.246245 -3.334658
v 1.294375 2.246245 -3.334658
v 1.338906 2.252075 -3.296855
v 1.338906 2.252075 -3.296855
vt 2.138849 0.265279
vt 2.137540 0.311398
vt 0.954394 0.300693
vt 0.955703 0.246331
vt 2.137537 0.360183
vt 2.137532 0.408927
vt 0.954386 0.419423
vt 0.954392 0.360069
vt 2.138835 0.462892
vt 2.140140 0.517129
vt 0.956994 0.539646
vt 0.955689 0.483451
vt 2.140947 0.581126
vt 2.141760 0.662527
vt 0.958615 0.662743
vt 0.957802 0.597323
vt 2.140957 0.144861
vt 2.140154 0.202885
vt 0.957008 0.180365
vt 0.957812 0.127065
vt 0.161241 0.434620
vt 0.161247 0.359950
vt 0.161250 0.285331
vt 0.162559 0.223949
vt 0.163863 0.160687
vt 0.164667 0.114530
vt 0.165470 0.662836
vt 0.164657 0.608763
vt 0.163850 0.559398
vt 0.162545 0.506958
vt -0.997179 0.434800
vt -0.997174 0.359754
vt -0.997171 0.284901
vt -0.995862 0.223534
vt -0.994557 0.160456
vt -0.993753 0.114459
vt -0.992950 0.662956
vt -0.993763 0.609022
vt -0.994570 0.559759
vt -0.995876 0.507352
vt 0.165470 0.057288
vt -0.992950 0.057409
vt 0.957812 0.732612
vt 0.164667 0.720077
vt 2.140957 0.750408
vt 0.566404 1.094376
vt 2.771193 1.089153
vt 2.771193 1.126961
vt 0.566404 1.132478
vt 2.771194 0.736048
vt 2.771194 0.771901
vt 0.566404 0.776117
vt 0.566404 0.741949
vt 2.771194 0.807754
vt 2.771193 0.845562
vt 0.566404 0.846025
vt 0.566404 0.810285
vt 2.771193 0.883370
vt 2.771193 0.925363
vt 0.566404 0.924120
vt 0.566404 0.881764
vt 2.771194 0.967357
vt 2.771193 1.009351
vt 0.566404 1.011374
vt 0.566404 0.966475
vt 2.991409 1.136136
vt 2.963237 1.192426
vt 2.185150 1.204008
vt 2.215824 1.127252
vt 3.074610 0.931860
vt 3.047096 1.005853
vt 2.269011 0.990067
vt 2.291525 0.929637
vt 2.865385 0.867637
vt 2.969997 0.899748
vt 2.269929 0.890867
vt 2.248334 0.852097
vt 1.742264 0.765292
vt 1.748415 0.798721
vt 1.152398 0.775626
vt 1.163611 0.742885
vt 1.682942 1.035757
vt 1.709528 1.079900
vt 1.179213 1.071150
vt 1.183603 1.039977
vt 1.722866 0.869743
vt 1.759297 0.899084
vt 1.147688 0.927905
vt 1.140233 0.875935
vt 1.735641 0.834232
vt 1.146316 0.825781
vt 0.436890 0.720121
vt 0.447806 0.769883
vt 0.422340 0.771646
vt 0.399401 0.740586
vt 2.875539 0.810351
vt 2.220299 0.809386
vt 2.963237 0.654955
vt 2.924465 0.704010
vt 2.188708 0.716606
vt 2.185151 0.666537
vt 1.743891 0.985761
vt 1.169373 1.009926
vt 0.436890 1.110650
vt 0.440993 1.081142
vt 0.441847 0.857648
vt 0.438380 0.828016
vt 0.437245 0.912601
vt 0.445314 0.887279
vt 0.434354 1.020305
vt 0.423613 0.988976
vt 0.427811 0.967604
vt 0.427159 0.944257
vt 0.170190 0.823518
vt 0.170687 0.863204
vt 0.103520 0.869711
vt 0.094310 0.826696
vt 0.399483 0.814040
vt 0.380147 0.973846
vt 0.336682 0.958717
vt 0.339016 0.918819
vt 0.383414 0.943211
vt 0.396873 0.773409
vt 0.360587 0.800063
vt 0.359597 0.780237
vt 0.373004 0.911541
vt 0.400081 0.927899
vt 0.295133 0.960622
vt 0.302194 0.921499
vt 0.341450 0.919574
vt 0.361913 0.761051
vt 3.019581 1.079846
vt 2.246497 1.050496
vt 0.566404 1.056274
vt 0.445095 1.051634
vt 2.771193 1.051345
vt 1.804840 0.935765
vt 1.155143 0.979875
vt 2.885693 0.753065
vt 2.875539 0.810351
vt 2.220299 0.809386
vt 2.192265 0.766676
vt 0.253583 0.962528
vt 0.262938 0.923424
vt 0.302194 0.921499
vt 0.295133 0.960622
vt 0.246070 0.820339
vt 0.237855 0.856697
vt 0.170687 0.863204
vt 0.170190 0.823518
vt 1.179213 1.071150
vt 1.709528 1.079900
vt 1.736113 1.124044
vt 1.174824 1.102323
vt 1.736113 0.731863
vt 1.742264 0.765292
vt 1.163611 0.742885
vt 1.174824 0.710143
vt 0.422340 0.771646
vt 0.399483 0.814040
vt 0.399401 0.740586
vt 2.188708 0.716606
vt 2.924465 0.704010
vt 1.743891 0.985761
vt 1.169373 1.009926
vt 0.383414 0.943211
vt 0.400081 0.927899
vt 0.380147 0.973846
vt 2.269929 0.890867
vt 2.969997 0.899748
vt 0.566404 1.094376
vt 2.771193 1.089153
vt 2.771193 1.126961
vt 0.566404 1.132478
vt 2.771194 0.736048
vt 2.771194 0.771901
vt 0.566404 0.776117
vt 0.566404 0.741949
vt 2.771194 0.807754
vt 2.771193 0.845562
vt 0.566404 0.846025
vt 0.566404 0.810285
vt 2.771193 0.883370
vt 2.771193 0.925363
vt 0.566404 0.924120
vt 0.566404 0.881764
vt 2.771194 0.967357
vt 2.771193 1.009351
vt 0.566404 1.011374
vt 0.566404 0.966475
vt 2.991409 1.136136
vt 2.963237 1.192426
vt 2.185150 1.204008
vt 2.215824 1.127252
vt 3.074610 0.931860
vt 3.047096 1.005853
vt 2.269011 0.990067
vt 2.291525 0.929637
vt 2.865385 0.867637
vt 2.969997 0.899748
vt 2.269929 0.890867
vt 2.248334 0.852097
vt 1.742264 0.765292
vt 1.748415 0.798721
vt 1.152398 0.775626
vt 1.163611 0.742885
vt 1.682942 1.035757
vt 1.709528 1.079900
vt 1.179213 1.071150
vt 1.183603 1.039977
vt 1.722866 0.869743
vt 1.759297 0.899084
vt 1.147688 0.927905
vt 1.140233 0.875935
vt 1.735641 0.834232
vt 1.146316 0.825781
vt 0.436890 0.720121
vt 0.447806 0.769883
vt 0.422340 0.771646
vt 0.399401 0.740586
vt 2.875539 0.810351
vt 2.220299 0.809386
vt 2.963237 0.654955
vt 2.924465 0.704010
vt 2.188708 0.716606
vt 2.185151 0.666537
vt 1.743891 0.985761
vt 1.169373 1.009926
vt 0.436890 1.110650
vt 0.440993 1.081142
vt 0.441847 0.857648
vt 0.438380 0.828016
vt 0.437245 0.912601
vt 0.445314 0.887279
vt 0.434354 1.020305
vt 0.423613 0.988976
vt 0.427811 0.967604
vt 0.427159 0.944257
vt 0.170190 0.823518
vt 0.170687 0.863204
vt 0.103520 0.869711
vt 0.094310 0.826696
vt 0.399483 0.814040
vt 0.380147 0.973846
vt 0.336682 0.958717
vt 0.339016 0.918819
vt 0.383414 0.943211
vt 0.396873 0.773409
vt 0.360587 0.800063
vt 0.359597 0.780237
vt 0.373004 0.911541
vt 0.400081 0.927899
vt 0.295133 0.960622
vt 0.302194 0.921499
vt 0.341450 0.919574
vt 0.361913 0.761051
vt 3.019581 1.079846
vt 2.246497 1.050496
vt 0.566404 1.056274
vt 0.445095 1.051634
vt 2.771193 1.051345
vt 1.804840 0.935765
vt 1.155143 0.979875
vt 2.885693 0.753065
vt 2.875539 0.810351
vt 2.220299 0.809386
vt 2.192265 0.766676
vt 0.253583 0.962528
vt 0.262938 0.923424
vt 0.302194 0.921499
vt 0.295133 0.960622
vt 0.246070 0.820339
vt 0.237855 0.856697
vt 0.170687 0.863204
vt 0.170190 0.823518
vt 1.179213 1.071150
vt 1.709528 1.079900
vt 1.736113 1.124044
vt 1.174824 1.102323
vt 1.736113 0.731863
vt 1.742264 0.765292
vt 1.163611 0.742885
vt 1.174824 0.710143
vt 0.422340 0.771646
vt 0.399483 0.814040
vt 0.399401 0.740586
vt 2.188708 0.716606
vt 2.924465 0.704010
vt 1.743891 0.985761
vt 1.169373 1.009926
vt 0.383414 0.943211
vt 0.400081 0.927899
vt 0.380147 0.973846
vt 2.269929 0.890867
vt 2.969997 0.899748
vt 0.361913 0.761051
vt 0.361913 0.761051
vt 0.246070 0.820339
vt 0.246070 0.820339
vt 0.336682 0.958717
vt 0.360587 0.800063
vt 0.103520 0.869711
vt 0.103520 0.869711
vt 0.336682 0.958717
vt 0.360587 0.800063
vt 0.246070 0.820339
vt 0.246070 0.820339
vt 0.361913 0.761051
vt 0.361913 0.761051
vn -0.871815 0.378097 -0.311417
vn -0.496185 0.852130 -0.166356
vn -0.518204 0.842116 -0.149348
vn -0.877972 0.363060 -0.312015
vn 0.035117 0.998937 0.029874
vn 0.589396 0.774959 0.228146
vn 0.582990 0.768738 0.262991
vn 0.017436 0.997957 0.061470
vn 0.905192 0.262140 0.334529
vn 0.911245 -0.249097 0.327999
vn 0.906204 -0.266503 0.328284
vn 0.900678 0.251020 0.354638
vn 0.553626 -0.811268 0.187998
vn -0.074657 -0.996227 -0.044244
vn -0.066173 -0.994603 -0.079915
vn 0.547200 -0.821244 0.161648
vn -0.609452 -0.757146 -0.235155
vn -0.916840 -0.212622 -0.337929
vn -0.906651 -0.227147 -0.355512
vn -0.593303 -0.759517 -0.266693
vn 0.556027 0.760857 0.334561
vn -0.012059 0.990397 0.137727
vn -0.538936 0.836720 -0.097200
vn -0.881312 0.361204 -0.304666
vn -0.891345 -0.226001 -0.392974
vn -0.563988 -0.754314 -0.336048
vn -0.035877 -0.987182 -0.155515
vn 0.565666 -0.817154 0.110821
vn 0.906275 -0.267831 0.327004
vn 0.885785 0.246823 0.393017
vn 0.526133 0.766689 0.367928
vn -0.025002 0.983193 0.180851
vn -0.531875 0.844913 -0.056831
vn -0.875913 0.386249 -0.289118
vn -0.891082 -0.196968 -0.408873
vn -0.558802 -0.739090 -0.376147
vn -0.015525 -0.980254 -0.197132
vn 0.596510 -0.797200 0.092991
vn 0.912048 -0.239857 0.332621
vn 0.871048 0.264770 0.413729
vn -0.035877 -0.987182 -0.155515
vn -0.015525 -0.980254 -0.197132
vn -0.593303 -0.759517 -0.266693
vn -0.563988 -0.754314 -0.336048
vn -0.609452 -0.757146 -0.235155
vn 0.901939 -0.118307 0.415344
vn 0.896551 -0.004571 0.442917
vn 0.959210 -0.004760 -0.282655
vn 0.952115 -0.058654 -0.300062
vn 0.959210 -0.004760 -0.282655
vn 0.647431 -0.005505 -0.762104
vn 0.643191 -0.020956 -0.765419
vn 0.952115 -0.058654 -0.300062
vn 0.117626 -0.005291 -0.993044
vn -0.579078 -0.005485 -0.815254
vn -0.552684 -0.090164 -0.828499
vn 0.132565 -0.039195 -0.990399
vn -0.946872 -0.003631 -0.321590
vn -0.975387 -0.003535 0.220470
vn -0.973084 -0.083670 0.214725
vn -0.955413 -0.105449 -0.275802
vn -0.615306 -0.004486 0.788276
vn -0.050591 -0.004613 0.998709
vn -0.066103 -0.085998 0.994100
vn -0.672407 -0.067171 0.737128
vn 0.813045 -0.351212 0.464337
vn 0.923958 -0.259992 -0.280546
vn 0.826842 -0.449846 -0.337595
vn 0.811275 -0.481187 0.332102
vn -0.444596 0.044837 0.894608
vn -0.184809 -0.062789 0.980767
vn -0.009276 -0.071917 0.997368
vn -0.533143 0.216317 0.817903
vn -0.724376 0.688113 -0.042193
vn -0.649441 0.583433 0.487681
vn -0.850511 0.525604 0.019274
vn -0.804043 0.477339 -0.354489
vn 0.420558 -0.129507 -0.897975
vn 0.159754 -0.246584 -0.955863
vn 0.154422 -0.458691 -0.875075
vn 0.497470 -0.171613 -0.850337
vn 0.092697 0.829991 0.550020
vn 0.470621 0.881851 0.029243
vn 0.469239 0.741547 0.479503
vn 0.254867 0.682239 0.685269
vn -0.886793 -0.434327 -0.157980
vn -0.895917 -0.306744 0.321311
vn -0.829391 -0.420646 0.367651
vn -0.726286 -0.672353 -0.143007
vn -0.492298 -0.496864 -0.714681
vn -0.374041 -0.701061 -0.607130
vn 0.923958 -0.259992 -0.280546
vn 0.666946 -0.138220 -0.732174
vn 0.634061 -0.196531 -0.747891
vn 0.746818 -0.178208 -0.640706
vn -0.390856 0.754497 -0.527225
vn -0.733311 0.419883 -0.534746
vn 0.923958 -0.259992 -0.280546
vn 0.746818 -0.178208 -0.640706
vn 0.675713 -0.346240 -0.650792
vn 0.826842 -0.449846 -0.337595
vn -0.395667 0.570033 0.720076
vn 0.090909 0.585647 0.805452
vn 0.923958 -0.259992 -0.280546
vn 0.813045 -0.351212 0.464337
vn -0.492298 -0.496864 -0.714681
vn 0.159754 -0.246584 -0.955863
vn -0.895917 -0.306744 0.321311
vn -0.886793 -0.434327 -0.157980
vn -0.184809 -0.062789 0.980767
vn -0.444596 0.044837 0.894608
vn -0.637130 0.023986 0.770383
vn -0.788494 -0.057661 0.612334
vn 0.108897 0.970917 -0.213218
vn 0.470621 0.881851 0.029243
vn 0.092697 0.829991 0.550020
vn -0.291342 0.924925 0.244201
vn 0.420558 -0.129507 -0.897975
vn -0.649441 0.583433 0.487681
vn -0.724376 0.688113 -0.042193
vn -0.291342 0.924925 0.244201
vn -0.544235 0.594103 0.592326
vn 0.596967 0.443933 -0.668247
vn 0.640631 0.501246 -0.581673
vn 0.459788 0.626394 -0.629464
vn 0.092697 0.829991 0.550020
vn -0.395667 0.570033 0.720076
vn -0.390856 0.754497 -0.527225
vn 0.108897 0.970917 -0.213218
vn -0.291342 0.924925 0.244201
vn 0.277428 0.374414 -0.884787
vn 0.320763 -0.237502 0.916899
vn 0.450940 -0.305767 0.838546
vn 0.437972 -0.116737 0.891377
vn 0.320763 -0.237502 0.916899
vn 0.436946 -0.004416 0.899477
vn -0.788494 -0.057661 0.612334
vn -0.643634 -0.042956 0.764127
vn 0.277428 0.374414 -0.884787
vn -0.149552 0.563834 -0.812235
vn -0.366773 0.229821 -0.901477
vn 0.008739 0.014931 -0.999850
vn 0.277428 0.374414 -0.884787
vn 0.459788 0.626394 -0.629464
vn 0.357810 0.782194 -0.510044
vn -0.149552 0.563834 -0.812235
vn 0.459788 0.626394 -0.629464
vn 0.640631 0.501246 -0.581673
vn 0.659016 0.716411 -0.229025
vn 0.357810 0.782194 -0.510044
vn 0.800615 0.599176 0.001809
vn 0.659016 0.716411 -0.229025
vn 0.640631 0.501246 -0.581673
vn 0.844558 0.418804 -0.333653
vn 0.640631 0.501246 -0.581673
vn 0.625567 0.297150 -0.721365
vn 0.760461 0.171022 -0.626458
vn 0.844558 0.418804 -0.333653
vn 0.579854 0.451795 -0.677976
vn 0.625567 0.297150 -0.721365
vn 0.494810 0.196643 -0.846460
vn 0.319299 -0.166147 -0.932976
vn 0.494810 0.196643 -0.846460
vn -0.620556 0.119654 0.774980
vn -0.396960 0.216950 0.891827
vn -0.629454 0.141928 0.763966
vn -0.620556 0.119654 0.774980
vn -0.396576 0.125334 0.909406
vn -0.727686 0.349459 0.590213
vn -0.396576 0.125334 0.909406
vn -0.983963 -0.118307 -0.133493
vn -0.986872 -0.004571 -0.161437
vn -0.834656 -0.004760 0.550751
vn -0.822783 -0.058654 0.565321
vn -0.834656 -0.004760 0.550751
vn -0.396323 -0.005505 0.918095
vn -0.391301 -0.020956 0.920024
vn -0.822783 -0.058654 0.565321
vn 0.177851 -0.005291 0.984043
vn 0.792131 -0.005485 0.610326
vn 0.770765 -0.090164 0.630708
vn 0.162794 -0.039195 0.985881
vn 0.999522 -0.003631 0.030699
vn 0.868308 -0.003535 -0.496013
vn 0.867785 -0.083670 -0.489845
vn 0.994303 -0.105449 -0.015585
vn 0.357950 -0.004486 -0.933730
vn -0.243616 -0.004613 -0.969861
vn -0.227432 -0.085998 -0.969989
vn 0.427510 -0.067171 -0.901512
vn -0.913277 -0.351212 -0.206336
vn -0.801562 -0.259992 0.538426
vn -0.692010 -0.449846 0.564589
vn -0.872924 -0.481186 -0.080398
vn 0.163610 0.044837 -0.985506
vn -0.110015 -0.062789 -0.991945
vn -0.282732 -0.071917 -0.956499
vn 0.270716 0.216318 -0.938040
vn 0.705061 0.688111 -0.171440
vn 0.478478 0.583434 -0.656250
vn 0.807712 0.525604 -0.267098
vn 0.872553 0.477339 0.103921
vn -0.139640 -0.129504 0.981697
vn 0.126695 -0.246584 0.960804
vn 0.108173 -0.458691 0.881987
vn -0.227118 -0.171615 0.958627
vn -0.249456 0.829991 -0.498886
vn -0.458609 0.881850 0.109630
vn -0.588929 0.741547 -0.321358
vn -0.444084 0.682239 -0.580810
vn 0.894234 -0.434327 -0.108196
vn 0.762827 -0.306743 -0.569213
vn 0.685660 -0.420646 -0.594077
vn 0.736362 -0.672352 -0.075589
vn 0.679740 -0.496865 0.539518
vn 0.535205 -0.701061 0.471242
vn -0.801562 -0.259992 0.538426
vn -0.423737 -0.138220 0.895177
vn -0.387694 -0.196529 0.900594
vn -0.526862 -0.178209 0.831058
vn 0.527924 0.754496 0.389912
vn 0.857613 0.419883 0.296981
vn -0.801562 -0.259992 0.538426
vn -0.526862 -0.178209 0.831058
vn -0.455913 -0.346239 0.819916
vn -0.692010 -0.449846 0.564589
vn 0.167851 0.570033 -0.804294
vn -0.322427 0.585647 -0.743678
vn -0.801562 -0.259992 0.538426
vn -0.913277 -0.351212 -0.206336
vn 0.679740 -0.496865 0.539518
vn 0.126695 -0.246584 0.960804
vn 0.762827 -0.306743 -0.569213
vn 0.894234 -0.434327 -0.108196
vn -0.110015 -0.062789 -0.991945
vn 0.163610 0.044837 -0.985506
vn 0.384055 0.023985 -0.922998
vn 0.575012 -0.057661 -0.816110
vn -0.041799 0.970917 0.235740
vn -0.458609 0.881850 0.109630
vn -0.249456 0.829991 -0.498886
vn 0.207212 0.924926 -0.318708
vn -0.139640 -0.129504 0.981697
vn 0.478478 0.583434 -0.656250
vn 0.705061 0.688111 -0.171440
vn 0.207212 0.924926 -0.318708
vn 0.347274 0.594104 -0.725563
vn -0.375504 0.443933 0.813585
vn -0.442574 0.501246 0.743559
vn -0.255660 0.626395 0.736388
vn -0.249456 0.829991 -0.498886
vn 0.167851 0.570033 -0.804294
vn 0.527924 0.754496 0.389912
vn -0.041799 0.970917 0.235740
vn 0.207212 0.924926 -0.318708
vn -0.006619 0.374414 0.927238
vn -0.574821 -0.237502 -0.783054
vn -0.676403 -0.305767 -0.670064
vn -0.679448 -0.116737 -0.724378
vn -0.574821 -0.237502 -0.783054
vn -0.680836 -0.004416 -0.732422
vn 0.575012 -0.057661 -0.816110
vn 0.392101 -0.042956 -0.918919
vn -0.006619 0.374414 0.927238
vn 0.380492 0.563833 0.733020
vn 0.614314 0.229821 0.754851
vn 0.283970 0.014930 0.958717
vn -0.006619 0.374414 0.927238
vn -0.255660 0.626395 0.736388
vn -0.193053 0.782193 0.592372
vn 0.380492 0.563833 0.733020
vn -0.255660 0.626395 0.736388
vn -0.442574 0.501246 0.743559
vn -0.563261 0.716410 0.411695
vn -0.193053 0.782193 0.592372
vn -0.766161 0.599176 0.232348
vn -0.563261 0.716410 0.411695
vn -0.442574 0.501246 0.743559
vn -0.710104 0.418804 0.566000
vn -0.442574 0.501246 0.743559
vn -0.387326 0.297150 0.872743
vn -0.544074 0.171021 0.821423
vn -0.710104 0.418804 0.566000
vn -0.356296 0.451794 0.817885
vn -0.387326 0.297150 0.872743
vn -0.225708 0.196643 0.954142
vn -0.032573 -0.166148 0.985563
vn -0.225708 0.196643 0.954142
vn 0.366860 0.119654 -0.922549
vn 0.118868 0.216951 -0.968918
vn 0.378588 0.141930 -0.914618
vn 0.366860 0.119654 -0.922549
vn 0.113365 0.125337 -0.985616
vn 0.523327 0.349459 -0.777179
vn 0.113365 0.125337 -0.985616
vn -0.006619 0.374414 0.927238
vn -0.006619 0.374414 0.927238
vn -0.255660 0.626395 0.736388
vn -0.255660 0.626395 0.736388
vn 0.705061 0.688111 -0.171440
vn -0.442574 0.501246 0.743559
vn -0.249456 0.829991 -0.498886
vn 0.092697 0.829991 0.550020
vn -0.724376 0.688113 -0.042193
vn 0.640631 0.501246 -0.581673
vn 0.459788 0.626394 -0.629464
vn 0.459788 0.626394 -0.629464
vn 0.277428 0.374414 -0.884787
vn 0.277428 0.374414 -0.884787
f 3/3/3 2/2/2 1/1/1
f 1/1/1 4/4/4 3/3/3
f 7/7/7 6/6/6 5/5/5
f 5/5/5 8/8/8 7/7/7
f 11/11/11 10/10/10 9/9/9
f 9/9/9 12/12/12 11/11/11
f 15/15/15 14/14/14 13/13/13
f 13/13/13 16/16/16 15/15/15
f 19/19/19 18/18/18 17/17/17
f 17/17/17 20/20/20 19/19/19
f 21/21/21 7/7/7 8/8/8
f 8/8/8 22/22/22 21/21/21
f 23/23/23 3/3/3 4/4/4
f 4/4/4 24/24/24 23/23/23
f 25/25/25 19/19/19 20/20/20
f 20/20/20 26/26/26 25/25/25
f 27/27/27 15/15/15 16/16/16
f 16/16/16 28/28/28 27/27/27
f 29/29/29 11/11/11 12/12/12
f 12/12/12 30/30/30 29/29/29
f 31/31/31 21/21/21 22/22/22
f 22/22/22 32/32/32 31/31/31
f 33/33/33 23/23/23 24/24/24
f 24/24/24 34/34/34 33/33/33
f 35/35/35 25/25/25 26/26/26
f 26/26/26 36/36/36 35/35/35
f 37/37/37 27/27/27 28/28/28
f 28/28/28 38/38/38 37/37/37
f 39/39/39 29/29/29 30/30/30
f 30/30/30 40/40/40 39/39/39
f 32/32/32 22/22/22 23/23/23
f 23/23/23 33/33/33 32/32/32
f 22/22/22 8/8/8 3/3/3
f 3/3/3 23/23/23 22/22/22
f 8/8/8 5/5/5 2/2/2
f 2/2/2 3/3/3 8/8/8
f 34/34/34 24/24/24 25/25/25
f 25/25/25 35/35/35 34/34/34
f 24/24/24 4/4/4 19/19/19
f 19/19/19 25/25/25 24/24/24
f 4/4/4 1/1/1 18/18/18
f 18/18/18 19/19/19 4/4/4
f 40/40/40 30/30/30 21/21/21
f 21/21/21 31/31/31 40/40/40
f 30/30/30 12/12/12 7/7/7
f 7/7/7 21/21/21 30/30/30
f 12/12/12 9/9/9 6/6/6
f 6/6/6 7/7/7 12/12/12
f 38/38/38 28/28/28 29/29/29
f 29/29/29 39/39/39 38/38/38
f 28/28/28 16/16/16 11/11/11
f 11/11/11 29/29/29 28/28/28
f 16/16/16 13/13/13 10/10/10
f 10/10/10 11/11/11 16/16/16
f 36/36/36 26/26/26 41/41/41
f 41/41/41 42/42/42 36/36/36
f 44/44/44 43/43/43 15/15/15
f 15/15/15 27/27/27 44/44/44
f 43/43/43 45/45/45 14/14/14
f 14/14/14 15/15/15 43/43/43
f 48/48/48 47/47/47 46/46/46
f 46/46/46 49/49/49 48/48/48
f 52/52/52 51/51/51 50/50/50
f 50/50/50 53/53/53 52/52/52
f 56/56/56 55/55/55 54/54/54
f 54/54/54 57/57/57 56/56/56
f 60/60/60 59/59/59 58/58/58
f 58/58/58 61/61/61 60/60/60
f 64/64/64 63/63/63 62/62/62
f 62/62/62 65/65/65 64/64/64
f 68/68/68 67/67/67 66/66/66
f 66/66/66 69/69/69 68/68/68
f 72/72/72 71/71/71 70/70/70
f 70/70/70 73/73/73 72/72/72
f 76/76/76 75/75/75 74/74/74
f 74/74/74 77/77/77 76/76/76
f 80/80/80 79/79/79 78/78/78
f 78/78/78 81/81/81 80/80/80
f 84/84/84 83/83/83 82/82/82
f 82/82/82 85/85/85 84/84/84
f 88/88/88 87/87/87 86/86/86
f 86/86/86 89/89/89 88/88/88
f 91/91/91 90/90/90 79/79/79
f 79/79/79 80/80/80 91/91/91
f 94/94/94 93/93/93 92/92/92
f 92/92/92 95/95/95 94/94/94
f 77/77/77 74/74/74 96/96/96
f 96/96/96 97/97/97 77/77/77
f 100/100/100 99/99/99 98/98/98
f 98/98/98 101/101/101 100/100/100
f 85/85/85 82/82/82 102/102/102
f 102/102/102 103/103/103 85/85/85
f 104/104/104 49/49/49 46/46/46
f 46/46/46 105/105/105 104/104/104
f 106/106/106 56/56/56 57/57/57
f 57/57/57 107/107/107 106/106/106
f 108/108/108 60/60/60 61/61/61
f 61/61/61 109/109/109 108/108/108
f 110/110/110 64/64/64 65/65/65
f 65/65/65 111/111/111 110/110/110
f 65/65/65 113/113/113 112/112/112
f 65/65/65 112/112/112 111/111/111
f 93/93/93 52/52/52 53/53/53
f 53/53/53 92/92/92 93/93/93
f 303/303/303 115/115/115 114/114/114
f 114/114/114 117/117/117 303/303/303
f 94/94/94 118/118/118 107/107/107
f 107/107/107 93/93/93 94/94/94
f 121/121/121 120/120/120 119/119/119
f 119/119/119 122/122/122 121/121/121
f 125/125/125 124/124/124 123/123/123
f 126/126/126 121/121/121 122/122/122
f 122/122/122 127/127/127 126/126/126
f 130/130/130 129/129/129 128/128/128
f 128/128/128 304/304/304 130/130/130
f 131/131/131 125/125/125 123/123/123
f 57/57/57 54/54/54 51/51/51
f 51/51/51 52/52/52 57/57/57
f 57/57/57 52/52/52 93/93/93
f 93/93/93 107/107/107 57/57/57
f 69/69/69 66/66/66 132/132/132
f 132/132/132 133/133/133 69/69/69
f 105/105/105 46/46/46 134/134/134
f 134/134/134 135/135/135 105/105/105
f 46/46/46 47/47/47 136/136/136
f 136/136/136 134/134/134 46/46/46
f 61/61/61 58/58/58 55/55/55
f 55/55/55 56/56/56 61/61/61
f 61/61/61 56/56/56 106/106/106
f 106/106/106 109/109/109 61/61/61
f 86/86/86 90/90/90 91/91/91
f 91/91/91 89/89/89 86/86/86
f 65/65/65 62/62/62 59/59/59
f 59/59/59 60/60/60 65/65/65
f 65/65/65 60/60/60 108/108/108
f 108/108/108 113/113/113 65/65/65
f 137/137/137 87/87/87 88/88/88
f 88/88/88 138/138/138 137/137/137
f 134/134/134 136/136/136 63/63/63
f 63/63/63 64/64/64 134/134/134
f 134/134/134 64/64/64 110/110/110
f 110/110/110 135/135/135 134/134/134
f 132/132/132 71/71/71 72/72/72
f 72/72/72 133/133/133 132/132/132
f 141/141/141 140/140/140 139/139/139
f 139/139/139 142/142/142 141/141/141
f 145/145/145 144/144/144 143/143/143
f 143/143/143 146/146/146 145/145/145
f 149/149/149 148/148/148 307/307/307
f 307/307/307 150/150/150 149/149/149
f 153/153/153 152/152/152 151/151/151
f 151/151/151 154/154/154 153/153/153
f 157/157/157 156/156/156 155/155/155
f 155/155/155 158/158/158 157/157/157
f 305/305/305 160/160/160 159/159/159
f 159/159/159 123/123/123 305/305/305
f 123/123/123 159/159/159 161/161/161
f 161/161/161 309/309/309 123/123/123
f 139/139/139 163/163/163 162/162/162
f 162/162/162 142/142/142 139/139/139
f 165/165/165 164/164/164 137/137/137
f 137/137/137 138/138/138 165/165/165
f 167/167/167 166/166/166 112/112/112
f 112/112/112 113/113/113 167/167/167
f 166/166/166 168/168/168 111/111/111
f 111/111/111 112/112/112 166/166/166
f 70/70/70 170/170/170 169/169/169
f 169/169/169 73/73/73 70/70/70
f 173/173/173 172/172/172 171/171/171
f 171/171/171 174/174/174 173/173/173
f 177/177/177 176/176/176 175/175/175
f 175/175/175 178/178/178 177/177/177
f 181/181/181 180/180/180 179/179/179
f 179/179/179 182/182/182 181/181/181
f 185/185/185 184/184/184 183/183/183
f 183/183/183 186/186/186 185/185/185
f 189/189/189 188/188/188 187/187/187
f 187/187/187 190/190/190 189/189/189
f 193/193/193 192/192/192 191/191/191
f 191/191/191 194/194/194 193/193/193
f 197/197/197 196/196/196 195/195/195
f 195/195/195 198/198/198 197/197/197
f 201/201/201 200/200/200 199/199/199
f 199/199/199 202/202/202 201/201/201
f 205/205/205 204/204/204 203/203/203
f 203/203/203 206/206/206 205/205/205
f 209/209/209 208/208/208 207/207/207
f 207/207/207 210/210/210 209/209/209
f 213/213/213 212/212/212 211/211/211
f 211/211/211 214/214/214 213/213/213
f 216/216/216 215/215/215 204/204/204
f 204/204/204 205/205/205 216/216/216
f 219/219/219 218/218/218 217/217/217
f 217/217/217 220/220/220 219/219/219
f 202/202/202 199/199/199 221/221/221
f 221/221/221 222/222/222 202/202/202
f 225/225/225 224/224/224 223/223/223
f 223/223/223 226/226/226 225/225/225
f 210/210/210 207/207/207 227/227/227
f 227/227/227 228/228/228 210/210/210
f 229/229/229 174/174/174 171/171/171
f 171/171/171 230/230/230 229/229/229
f 231/231/231 181/181/181 182/182/182
f 182/182/182 232/232/232 231/231/231
f 233/233/233 185/185/185 186/186/186
f 186/186/186 234/234/234 233/233/233
f 235/235/235 189/189/189 190/190/190
f 190/190/190 236/236/236 235/235/235
f 190/190/190 238/238/238 237/237/237
f 190/190/190 237/237/237 236/236/236
f 218/218/218 177/177/177 178/178/178
f 178/178/178 217/217/217 218/218/218
f 302/302/302 240/240/240 239/239/239
f 239/239/239 242/242/242 302/302/302
f 219/219/219 243/243/243 232/232/232
f 232/232/232 218/218/218 219/219/219
f 246/246/246 245/245/245 244/244/244
f 244/244/244 247/247/247 246/246/246
f 250/250/250 249/249/249 248/248/248
f 251/251/251 246/246/246 247/247/247
f 247/247/247 252/252/252 251/251/251
f 255/255/255 254/254/254 253/253/253
f 253/253/253 300/300/300 255/255/255
f 256/256/256 250/250/250 248/248/248
f 182/182/182 179/179/179 176/176/176
f 176/176/176 177/177/177 182/182/182
f 182/182/182 177/177/177 218/218/218
f 218/218/218 232/232/232 182/182/182
f 194/194/194 191/191/191 257/257/257
f 257/257/257 258/258/258 194/194/194
f 230/230/230 171/171/171 259/259/259
f 259/259/259 260/260/260 230/230/230
f 171/171/171 172/172/172 261/261/261
f 261/261/261 259/259/259 171/171/171
f 186/186/186 183/183/183 180/180/180
f 180/180/180 181/181/181 186/186/186
f 186/186/186 181/181/181 231/231/231
f 231/231/231 234/234/234 186/186/186
f 211/211/211 215/215/215 216/216/216
f 216/216/216 214/214/214 211/211/211
f 190/190/190 187/187/187 184/184/184
f 184/184/184 185/185/185 190/190/190
f 190/190/190 185/185/185 233/233/233
f 233/233/233 238/238/238 190/190/190
f 262/262/262 212/212/212 213/213/213
f 213/213/213 263/263/263 262/262/262
f 259/259/259 261/261/261 188/188/188
f 188/188/188 189/189/189 259/259/259
f 259/259/259 189/189/189 235/235/235
f 235/235/235 260/260/260 259/259/259
f 257/257/257 196/196/196 197/197/197
f 197/197/197 258/258/258 257/257/257
f 266/266/266 265/265/265 264/264/264
f 264/264/264 267/267/267 266/266/266
f 270/270/270 269/269/269 268/268/268
f 268/268/268 271/271/271 270/270/270
f 274/274/274 273/273/273 299/299/299
f 299/299/299 275/275/275 274/274/274
f 278/278/278 277/277/277 276/276/276
f 276/276/276 279/279/279 278/278/278
f 282/282/282 281/281/281 280/280/280
f 280/280/280 283/283/283 282/282/282
f 301/301/301 285/285/285 284/284/284
f 284/284/284 248/248/248 301/301/301
f 248/248/248 284/284/284 286/286/286
f 286/286/286 297/297/297 248/248/248
f 264/264/264 288/288/288 287/287/287
f 287/287/287 267/267/267 264/264/264
f 290/290/290 289/289/289 262/262/262
f 262/262/262 263/263/263 290/290/290
f 292/292/292 291/291/291 237/237/237
f 237/237/237 238/238/238 292/292/292
f 291/291/291 293/293/293 236/236/236
f 236/236/236 237/237/237 291/291/291
f 195/195/195 295/295/295 294/294/294
f 294/294/294 198/198/198 195/195/195
o G3_Myrtana_Ardea_Palisaden_04_1
usemtl G3_Nature_Tree_Rings_01_B
v -1.779688 1.845176 3.970068
v -1.723594 1.750146 3.984648
v -1.599141 1.695283 4.030254
v -1.473047 1.724858 4.080420
v -1.414531 1.829390 4.111826
v -1.420937 1.944614 4.117393
v -1.481094 2.062163 4.102061
v -1.593828 2.097861 4.061494
v -1.706797 2.071924 4.014453
v -1.770547 1.981108 3.983877
v 1.556875 2.512070 -4.057207
v 1.432344 2.566929 -4.102803
v 1.376250 2.661963 -4.117393
v 1.385391 2.797891 -4.103584
v 1.449219 2.888706 -4.073008
v 1.562109 2.914648 -4.025957
v 1.674844 2.878950 -3.985391
v 1.735078 2.761396 -3.970059
v 1.741406 2.646177 -3.975635
v 1.682969 2.541641 -4.007041
v 1.554062 2.921914 -3.159531
v 1.533594 2.887881 -3.048945
v 1.559531 2.853853 -2.993164
v 1.554062 2.921914 -3.159531
v 1.559531 2.853853 -2.993164
v 1.661250 2.819819 -2.964180
v 1.554062 2.921914 -3.159531
v 1.661250 2.819819 -2.964180
v 1.753516 2.785786 -2.990234
v 1.554062 2.921914 -3.159531
v 1.753516 2.785786 -2.990234
v 1.835078 2.798784 -3.051816
v 1.554062 2.921914 -3.159531
v 1.835078 2.798784 -3.051816
v 1.850000 2.811782 -3.169941
v 1.554062 2.921914 -3.159531
v 1.850000 2.811782 -3.169941
v 1.799453 2.853853 -3.246426
v 1.554062 2.921914 -3.159531
v 1.799453 2.853853 -3.246426
v 1.715781 2.895918 -3.283945
v 1.554062 2.921914 -3.159531
v 1.715781 2.895918 -3.283945
v 1.618125 2.936416 -3.235986
v 0.659375 2.507866 -3.612158
v 0.634687 2.570947 -3.525742
v 0.670781 2.634033 -3.440713
v 0.659375 2.507866 -3.612158
v 0.670781 2.634033 -3.440713
v 0.726172 2.675249 -3.427383
v 0.659375 2.507866 -3.612158
v 0.726172 2.675249 -3.427383
v 0.828125 2.716465 -3.468857
v 0.659375 2.507866 -3.612158
v 0.828125 2.716465 -3.468857
v 0.894609 2.728223 -3.543213
v 0.659375 2.507866 -3.612158
v 0.894609 2.728223 -3.543213
v 0.927578 2.684980 -3.646064
v 0.659375 2.507866 -3.612158
v 0.927578 2.684980 -3.646064
v 0.889375 2.612168 -3.712041
v 0.659375 2.507866 -3.612158
v 0.889375 2.612168 -3.712041
v 0.818047 2.539351 -3.739063
v 0.659375 2.507866 -3.612158
v 0.818047 2.539351 -3.739063
v 0.706484 2.523608 -3.702930
v -1.549844 2.319761 2.962383
v -1.562500 2.285728 2.850635
v -1.603672 2.251699 2.804893
v -1.549844 2.319761 2.962383
v -1.603672 2.251699 2.804893
v -1.709453 2.217666 2.806895
v -1.549844 2.319761 2.962383
v -1.709453 2.217666 2.806895
v -1.790000 2.183633 2.858789
v -1.549844 2.319761 2.962383
v -1.790000 2.183633 2.858789
v -1.850000 2.196631 2.941533
v -1.549844 2.319761 2.962383
v -1.850000 2.196631 2.941533
v -1.829766 2.209629 3.058867
v -1.549844 2.319761 2.962383
v -1.829766 2.209629 3.058867
v -1.759062 2.251699 3.117207
v -1.549844 2.319761 2.962383
v -1.759062 2.251699 3.117207
v -1.668047 2.293765 3.128623
v -1.549844 2.319761 2.962383
v -1.668047 2.293765 3.128623
v -1.588750 2.334263 3.054229
v -0.561875 1.905713 3.133633
v -0.563516 1.968794 3.043799
v -0.622891 2.031880 2.973037
v -0.561875 1.905713 3.133633
v -0.622891 2.031880 2.973037
v -0.679766 2.073096 2.976484
v -0.561875 1.905713 3.133633
v -0.679766 2.073096 2.976484
v -0.765156 2.114312 3.045947
v -0.561875 1.905713 3.133633
v -0.765156 2.114312 3.045947
v -0.807031 2.126069 3.136504
v -0.561875 1.905713 3.133633
v -0.807031 2.126069 3.136504
v -0.808438 2.082827 3.244492
v -0.561875 1.905713 3.133633
v -0.808438 2.082827 3.244492
v -0.752578 2.010015 3.296406
v -0.561875 1.905713 3.133633
v -0.752578 2.010015 3.296406
v -0.676484 1.937197 3.301406
v -0.561875 1.905713 3.133633
v -0.676484 1.937197 3.301406
v -0.580391 1.921455 3.234238
vt 0.363154 0.672904
vt 0.293651 0.578435
vt 0.293651 0.427298
vt 0.377153 0.307156
vt 0.505760 0.285301
vt 0.616570 0.335651
vt 0.706355 0.443146
vt 0.692913 0.574194
vt 0.618217 0.682704
vt 0.501232 0.714684
vt 0.706348 0.427294
vt 0.706348 0.578430
vt 0.636847 0.672905
vt 0.498769 0.714685
vt 0.381784 0.682704
vt 0.307089 0.574194
vt 0.293646 0.443146
vt 0.383431 0.335652
vt 0.494241 0.285302
vt 0.622847 0.307151
vt 0.697809 0.613674
vt 0.589790 0.674815
vt 0.481771 0.735955
vt 0.697809 0.613674
vt 0.481771 0.735955
vt 0.359930 0.643043
vt 0.697809 0.613674
vt 0.359930 0.643043
vt 0.302169 0.515352
vt 0.697809 0.613674
vt 0.302169 0.515352
vt 0.315806 0.376058
vt 0.697809 0.613674
vt 0.315806 0.376058
vt 0.435684 0.264045
vt 0.697809 0.613674
vt 0.435684 0.264045
vt 0.566746 0.296689
vt 0.697809 0.613674
vt 0.566746 0.296689
vt 0.697809 0.329333
vt 0.697809 0.613674
vt 0.697809 0.329333
vt 0.697809 0.471503
vt 0.297463 0.486824
vt 0.362446 0.353685
vt 0.486865 0.264046
vt 0.297463 0.486824
vt 0.486865 0.264046
vt 0.594691 0.324396
vt 0.297463 0.486824
vt 0.594691 0.324396
vt 0.702516 0.384746
vt 0.297463 0.486824
vt 0.702516 0.384746
vt 0.702518 0.525950
vt 0.297463 0.486824
vt 0.702518 0.525950
vt 0.702519 0.667153
vt 0.297463 0.486824
vt 0.702519 0.667153
vt 0.566635 0.701555
vt 0.297463 0.486824
vt 0.566635 0.701555
vt 0.430752 0.735956
vt 0.297463 0.486824
vt 0.430752 0.735956
vt 0.321368 0.620936
vt 0.697809 0.613674
vt 0.589790 0.674815
vt 0.481771 0.735955
vt 0.697809 0.613674
vt 0.481771 0.735955
vt 0.359930 0.643043
vt 0.697809 0.613674
vt 0.359930 0.643043
vt 0.302169 0.515352
vt 0.697809 0.613674
vt 0.302169 0.515352
vt 0.315806 0.376058
vt 0.697809 0.613674
vt 0.315806 0.376058
vt 0.435684 0.264045
vt 0.697809 0.613674
vt 0.435684 0.264045
vt 0.566746 0.296689
vt 0.697809 0.613674
vt 0.566746 0.296689
vt 0.697809 0.329333
vt 0.697809 0.613674
vt 0.697809 0.329333
vt 0.697809 0.471503
vt 0.297463 0.486824
vt 0.362446 0.353685
vt 0.486865 0.264046
vt 0.297463 0.486824
vt 0.486865 0.264046
vt 0.594691 0.324396
vt 0.297463 0.486824
vt 0.594691 0.324396
vt 0.702516 0.384746
vt 0.297463 0.486824
vt 0.702516 0.384746
vt 0.702518 0.525950
vt 0.297463 0.486824
vt 0.702518 0.525950
vt 0.702519 0.667153
vt 0.297463 0.486824
vt 0.702519 0.667153
vt 0.566635 0.701555
vt 0.297463 0.486824
vt 0.566635 0.701555
vt 0.430752 0.735956
vt 0.297463 0.486824
vt 0.430752 0.735956
vt 0.321368 0.620936
vn -0.362895 -0.068469 0.929311
vn -0.373325 -0.078671 0.924359
vn -0.359307 -0.058974 0.931354
vn -0.362224 -0.070955 0.929386
vn -0.363623 -0.069308 0.928964
vn -0.363565 -0.064922 0.929304
vn -0.361514 -0.068094 0.929877
vn -0.361595 -0.070388 0.929674
vn -0.368555 -0.062959 0.927472
vn -0.346184 -0.071712 0.935422
vn 0.362583 0.070208 -0.929303
vn 0.373316 0.078648 -0.924364
vn 0.367794 0.070854 -0.927204
vn 0.359504 0.064608 -0.930904
vn 0.365381 0.065474 -0.928553
vn 0.363597 0.067345 -0.929119
vn 0.359105 0.066673 -0.930913
vn 0.363564 0.064925 -0.929304
vn 0.361545 0.068041 -0.929869
vn 0.351339 0.083687 -0.932501
vn 0.396295 0.854257 0.336445
vn 0.396295 0.854257 0.336445
vn 0.396295 0.854257 0.336445
vn 0.200093 0.909112 0.365348
vn 0.200093 0.909112 0.365348
vn 0.200093 0.909112 0.365348
vn 0.395782 0.884955 0.245379
vn 0.395782 0.884955 0.245379
vn 0.395782 0.884955 0.245379
vn 0.205362 0.866553 0.454876
vn 0.205362 0.866553 0.454876
vn 0.205362 0.866553 0.454876
vn 0.349536 0.925458 0.146124
vn 0.349536 0.925458 0.146124
vn 0.349536 0.925458 0.146124
vn 0.344329 0.900017 0.267219
vn 0.344329 0.900017 0.267219
vn 0.344329 0.900017 0.267219
vn 0.341071 0.905050 0.254077
vn 0.341071 0.905050 0.254077
vn 0.341071 0.905050 0.254077
vn 0.537687 0.622579 0.568584
vn 0.537687 0.622579 0.568584
vn 0.537687 0.622579 0.568584
vn -0.013509 0.805781 -0.592059
vn -0.013509 0.805781 -0.592059
vn -0.013509 0.805781 -0.592059
vn -0.427307 0.741592 -0.517156
vn -0.427307 0.741592 -0.517156
vn -0.427307 0.741592 -0.517156
vn -0.489800 0.726955 -0.481282
vn -0.489800 0.726955 -0.481282
vn -0.489800 0.726955 -0.481282
vn -0.565472 0.726183 -0.391024
vn -0.565472 0.726183 -0.391024
vn -0.565472 0.726183 -0.391024
vn -0.527470 0.709481 -0.467347
vn -0.527470 0.709481 -0.467347
vn -0.527470 0.709481 -0.467347
vn -0.526023 0.705970 -0.474243
vn -0.526023 0.705970 -0.474243
vn -0.526023 0.705970 -0.474243
vn -0.527147 0.696790 -0.486416
vn -0.527147 0.696790 -0.486416
vn -0.527147 0.696790 -0.486416
vn -0.100909 0.987770 0.118859
vn -0.100909 0.987770 0.118859
vn -0.100909 0.987770 0.118859
vn -0.477343 0.854258 -0.205879
vn -0.477343 0.854258 -0.205879
vn -0.477343 0.854258 -0.205879
vn -0.298167 0.909112 -0.290882
vn -0.298167 0.909112 -0.290882
vn -0.298167 0.909112 -0.290882
vn -0.450231 0.884955 -0.118941
vn -0.450231 0.884955 -0.118941
vn -0.450231 0.884955 -0.118941
vn -0.329382 0.866553 -0.374959
vn -0.329382 0.866553 -0.374959
vn -0.329382 0.866553 -0.374959
vn -0.376985 0.925458 -0.037545
vn -0.376985 0.925458 -0.037545
vn -0.376985 0.925458 -0.037545
vn -0.407411 0.900017 -0.154871
vn -0.407411 0.900017 -0.154871
vn -0.407411 0.900017 -0.154871
vn -0.400452 0.905050 -0.143255
vn -0.400452 0.905050 -0.143255
vn -0.400452 0.905050 -0.143255
vn -0.680431 0.622578 -0.386536
vn -0.680431 0.622578 -0.386536
vn -0.680431 0.622578 -0.386536
vn 0.186015 0.805781 0.562242
vn 0.186015 0.805781 0.562242
vn 0.186015 0.805781 0.562242
vn 0.559838 0.741592 0.369625
vn 0.559838 0.741592 0.369625
vn 0.559838 0.741592 0.369625
vn 0.609111 0.726955 0.317049
vn 0.609111 0.726955 0.317049
vn 0.609111 0.726955 0.317049
vn 0.655088 0.726183 0.208610
vn 0.655088 0.726183 0.208610
vn 0.655088 0.726183 0.208610
vn 0.641061 0.709481 0.292708
vn 0.641061 0.709481 0.292708
vn 0.641061 0.709481 0.292708
vn 0.641694 0.705969 0.299726
vn 0.641694 0.705969 0.299726
vn 0.641694 0.705969 0.299726
vn 0.646328 0.696789 0.311039
vn 0.646328 0.696789 0.311039
vn 0.646328 0.696789 0.311039
vn 0.061749 0.987770 -0.143168
vn 0.061749 0.987770 -0.143168
vn 0.061749 0.987770 -0.143168
f 312/312/312 311/311/311 310/310/310
f 313/313/313 312/312/312 310/310/310
f 314/314/314 313/313/313 310/310/310
f 315/315/315 314/314/314 310/310/310
f 316/316/316 315/315/315 310/310/310
f 317/317/317 316/316/316 310/310/310
f 318/318/318 317/317/317 310/310/310
f 319/319/319 318/318/318 310/310/310
f 322/322/322 321/321/321 320/320/320
f 323/323/323 322/322/322 320/320/320
f 324/324/324 323/323/323 320/320/320
f 325/325/325 324/324/324 320/320/320
f 326/326/326 325/325/325 320/320/320
f 327/327/327 326/326/326 320/320/320
f 328/328/328 327/327/327 320/320/320
f 329/329/329 328/328/328 320/320/320
f 332/332/332 331/331/331 330/330/330
f 335/335/335 334/334/334 333/333/333
f 338/338/338 337/337/337 336/336/336
f 341/341/341 340/340/340 339/339/339
f 344/344/344 343/343/343 342/342/342
f 347/347/347 346/346/346 345/345/345
f 350/350/350 349/349/349 348/348/348
f 353/353/353 352/352/352 351/351/351
f 356/356/356 355/355/355 354/354/354
f 359/359/359 358/358/358 357/357/357
f 362/362/362 361/361/361 360/360/360
f 365/365/365 364/364/364 363/363/363
f 368/368/368 367/367/367 366/366/366
f 371/371/371 370/370/370 369/369/369
f 374/374/374 373/373/373 372/372/372
f 377/377/377 376/376/376 375/375/375
f 380/380/380 379/379/379 378/378/378
f 383/383/383 382/382/382 381/381/381
f 386/386/386 385/385/385 384/384/384
f 389/389/389 388/388/388 387/387/387
f 392/392/392 391/391/391 390/390/390
f 395/395/395 394/394/394 393/393/393
f 398/398/398 397/397/397 396/396/396
f 401/401/401 400/400/400 399/399/399
f 404/404/404 403/403/403 402/402/402
f 407/407/407 406/406/406 405/405/405
f 410/410/410 409/409/409 408/408/408
f 413/413/413 412/412/412 411/411/411
f 416/416/416 415/415/415 414/414/414
f 419/419/419 418/418/418 417/417/417
f 422/422/422 421/421/421 420/420/420
f 425/425/425 424/424/424 423/423/423
o G3_Myrtana_Ardea_Palisaden_04_2
usemtl G3_Architecture_Rope_01_01_A
v 1.332656 0.786206 -3.384639
v 1.412344 0.755298 -3.271240
v 1.428359 0.714165 -3.276553
v 1.347109 0.740732 -3.399043
v 1.394453 0.743379 -3.140371
v 1.322500 0.731455 -3.063135
v 1.340703 0.691250 -3.044463
v 1.412422 0.702710 -3.137822
v 1.121172 0.807739 -3.087422
v 1.116719 0.759878 -3.088945
v 1.194063 0.721162 -3.028730
v 1.193203 0.770903 -3.049355
v 1.393516 0.646348 -3.134658
v 1.323906 0.647036 -3.059102
v 1.292656 0.649980 -3.116406
v 1.349141 0.662090 -3.169385
v 1.409063 0.665342 -3.263857
v 1.354141 0.682700 -3.266104
v 1.304844 0.707676 -3.333096
v 1.330859 0.696567 -3.382510
v 1.117188 0.720532 -3.100469
v 1.138437 0.724072 -3.120781
v 1.207422 0.680684 -3.098203
v 1.196328 0.679683 -3.048994
v 1.038828 0.847148 -3.294346
v 1.101484 0.832129 -3.389053
v 1.090156 0.784868 -3.402256
v 1.017813 0.802432 -3.303584
v 1.038672 0.765103 -3.291621
v 1.101250 0.746445 -3.389248
v 1.140703 0.749170 -3.346367
v 1.092969 0.765688 -3.285889
v 1.036484 0.758237 -3.175371
v 1.038672 0.765103 -3.291621
v 1.092969 0.765688 -3.285889
v 1.088359 0.752119 -3.197422
v 1.036406 0.837573 -3.176631
v 1.038828 0.847148 -3.294346
v 1.017813 0.802432 -3.303584
v 1.020938 0.788579 -3.173809
v 1.088203 0.813203 -3.197227
v 1.092969 0.827944 -3.285889
v 1.092969 0.827944 -3.285889
v 1.140703 0.821133 -3.346367
v 1.304844 0.779639 -3.333096
v 1.354141 0.754658 -3.266104
v 1.349141 0.743892 -3.169385
v 1.292656 0.727734 -3.116406
v 1.230781 0.732656 -3.370850
v 1.229297 0.727793 -3.436211
v 1.238203 0.767300 -3.452451
v 1.229609 0.817109 -3.433086
v 1.230781 0.804614 -3.370850
v 1.202422 0.765752 -3.098398
v 1.117188 0.720532 -3.100469
v 1.116719 0.759878 -3.088945
v 1.121172 0.807739 -3.087422
v 1.138437 0.788252 -3.120781
v 1.338594 -0.845581 -3.363320
v 1.392969 -0.874360 -3.275703
v 1.407109 -0.912666 -3.280410
v 1.351328 -0.887925 -3.376064
v 1.389687 -0.885464 -3.140615
v 1.301250 -0.889097 -3.083242
v 1.324688 -0.933867 -3.060439
v 1.405625 -0.923335 -3.138369
v 1.123984 -0.827065 -3.096357
v 1.115078 -0.869727 -3.091650
v 1.201641 -0.898281 -3.057158
v 1.202969 -0.861650 -3.077881
v 1.388906 -0.966655 -3.135566
v 1.309844 -0.974282 -3.073389
v 1.292656 -0.958555 -3.116406
v 1.349141 -0.960151 -3.169385
v 1.390078 -0.958130 -3.269180
v 1.354141 -0.950122 -3.266104
v 1.304844 -0.918706 -3.333096
v 1.336953 -0.929053 -3.361436
v 1.123984 -0.902832 -3.096357
v 1.145156 -0.903022 -3.116660
v 1.207422 -0.925342 -3.098203
v 1.204531 -0.936587 -3.076113
v 1.064062 -0.788823 -3.294717
v 1.108672 -0.802813 -3.379209
v 1.098594 -0.846826 -3.390898
v 1.045469 -0.830464 -3.302891
v 1.063906 -0.865229 -3.292305
v 1.108516 -0.882603 -3.379385
v 1.140703 -0.880063 -3.346367
v 1.092969 -0.864683 -3.285889
v 1.067734 -0.880132 -3.193486
v 1.063906 -0.865229 -3.292305
v 1.092969 -0.864683 -3.285889
v 1.088359 -0.880195 -3.197422
v 1.067734 -0.797417 -3.194609
v 1.064062 -0.788823 -3.294717
v 1.045469 -0.830464 -3.302891
v 1.050469 -0.836704 -3.187900
v 1.088203 -0.799282 -3.197227
v 1.092969 -0.797671 -3.285889
v 1.092969 -0.797671 -3.285889
v 1.140703 -0.813052 -3.346367
v 1.304844 -0.851694 -3.333096
v 1.354141 -0.874956 -3.266104
v 1.349141 -0.884985 -3.169385
v 1.292656 -0.887246 -3.116406
v 1.230781 -0.895449 -3.370850
v 1.236875 -0.899976 -3.419922
v 1.244766 -0.863184 -3.434287
v 1.237188 -0.816797 -3.417158
v 1.230781 -0.828433 -3.370850
v 1.202422 -0.861436 -3.098398
v 1.123984 -0.902832 -3.096357
v 1.115078 -0.869727 -3.091650
v 1.123984 -0.827065 -3.096357
v 1.141250 -0.833481 -3.129717
v -1.272266 0.184053 3.112930
v -1.381641 0.153145 3.027773
v -1.395391 0.112012 3.037539
v -1.281875 0.138579 3.130928
v -1.402734 0.141226 2.897383
v -1.356484 0.129302 2.802480
v -1.379375 0.089097 2.789951
v -1.420703 0.100557 2.900205
v -1.156875 0.205586 2.766846
v -1.152187 0.157725 2.767002
v -1.243750 0.119009 2.732031
v -1.236875 0.168750 2.751504
v -1.403516 0.044194 2.891650
v -1.359063 0.044883 2.799033
v -1.312422 0.047827 2.844707
v -1.350937 0.059937 2.911885
v -1.380625 0.063188 3.019756
v -1.327422 0.080547 3.005840
v -1.260703 0.105522 3.055498
v -1.271172 0.094414 3.110361
v -1.149297 0.118379 2.778174
v -1.163594 0.121919 2.803789
v -1.236250 0.078530 2.802393
v -1.240078 0.077529 2.752090
v -1.017656 0.244995 2.940664
v -1.049922 0.229976 3.049561
v -1.035156 0.182715 3.058857
v -0.994844 0.200278 2.943359
v -1.018359 0.162949 2.938018
v -1.049609 0.144292 3.049678
v -1.099844 0.147017 3.020186
v -1.071953 0.163535 2.948408
v -1.050156 0.156084 2.826191
v -1.018359 0.162949 2.938018
v -1.071953 0.163535 2.948408
v -1.093359 0.149966 2.862451
v -1.049766 0.235420 2.827383
v -1.017656 0.244995 2.940664
v -0.994844 0.200278 2.943359
v -1.035859 0.186426 2.820166
v -1.093281 0.211050 2.862227
v -1.071953 0.225791 2.948408
v -1.071953 0.225791 2.948408
v -1.099844 0.218979 3.020186
v -1.260703 0.177485 3.055498
v -1.327422 0.152505 3.005840
v -1.350937 0.141738 2.911885
v -1.312422 0.125581 2.844707
v -1.178828 0.130503 3.069941
v -1.158281 0.125640 3.132002
v -1.162109 0.165146 3.150146
v -1.159531 0.214956 3.129121
v -1.178828 0.202461 3.069941
v -1.231406 0.163599 2.801113
v -1.149297 0.118379 2.778174
v -1.152187 0.157725 2.767002
v -1.156875 0.205586 2.766846
v -1.163594 0.186099 2.803789
v -1.284141 -1.447729 3.094258
v -1.361797 -1.476514 3.026377
v -1.373984 -1.514819 3.035020
v -1.292656 -1.490078 3.110186
v -1.398203 -1.487612 2.896240
v -1.330313 -1.491250 2.815498
v -1.359453 -1.536021 2.800566
v -1.414062 -1.525488 2.898740
v -1.156953 -1.429219 2.776221
v -1.149844 -1.471880 2.769111
v -1.242734 -1.500435 2.761436
v -1.237891 -1.463804 2.781641
v -1.398828 -1.568809 2.891172
v -1.341484 -1.576436 2.808604
v -1.312422 -1.560708 2.844707
v -1.350937 -1.562305 2.911885
v -1.360859 -1.560283 3.019277
v -1.327422 -1.552275 3.005840
v -1.260703 -1.520859 3.055498
v -1.283125 -1.531206 3.091992
v -1.156953 -1.504985 2.776221
v -1.171328 -1.505176 2.801836
v -1.236250 -1.527495 2.802393
v -1.239922 -1.538740 2.780420
v -1.041641 -1.390977 2.948389
v -1.059687 -1.404966 3.042246
v -1.046641 -1.448979 3.050479
v -1.021484 -1.432617 2.950771
v -1.042266 -1.467383 2.946045
v -1.059375 -1.484756 3.042354
v -1.099844 -1.482217 3.020186
v -1.071953 -1.466836 2.948408
v -1.074766 -1.482290 2.852666
v -1.042266 -1.467383 2.946045
v -1.071953 -1.466836 2.948408
v -1.093359 -1.482349 2.862451
v -1.074453 -1.399570 2.853730
v -1.041641 -1.390977 2.948389
v -1.021484 -1.432617 2.950771
v -1.059922 -1.438857 2.842266
v -1.093281 -1.401431 2.862227
v -1.071953 -1.399824 2.948408
v -1.071953 -1.399824 2.948408
v -1.099844 -1.415205 3.020186
v -1.260703 -1.453848 3.055498
v -1.327422 -1.477109 3.005840
v -1.350937 -1.487139 2.911885
v -1.312422 -1.489399 2.844707
v -1.178828 -1.497603 3.069941
v -1.170313 -1.502129 3.118652
v -1.173672 -1.465337 3.134707
v -1.171406 -1.418950 3.116094
v -1.178828 -1.430586 3.069941
v -1.231406 -1.463589 2.801113
v -1.156953 -1.504985 2.776221
v -1.149844 -1.471880 2.769111
v -1.156953 -1.429219 2.776221
v -1.163750 -1.435635 2.813164
v -1.403516 0.044194 2.891650
v -1.402734 0.141226 2.897383
v -1.398828 -1.568809 2.891172
v -1.398203 -1.487612 2.896240
v -1.381641 0.153145 3.027773
v -1.381641 0.153145 3.027773
v -1.381641 0.153145 3.027773
v -1.380625 0.063188 3.019756
v -1.380625 0.063188 3.019756
v -1.361797 -1.476514 3.026377
v -1.360859 -1.560283 3.019277
v -1.360859 -1.560283 3.019277
v -1.359063 0.044883 2.799033
v -1.359063 0.044883 2.799033
v -1.356484 0.129302 2.802480
v -1.341484 -1.576436 2.808604
v -1.341484 -1.576436 2.808604
v -1.327422 -1.477109 3.005840
v -1.284141 -1.447729 3.094258
v -1.283125 -1.531206 3.091992
v -1.283125 -1.531206 3.091992
v -1.272266 0.184053 3.112930
v -1.271172 0.094414 3.110361
v -1.271172 0.094414 3.110361
v -1.260703 0.177485 3.055498
v -1.240078 0.077529 2.752090
v -1.239922 -1.538740 2.780420
v -1.236875 0.168750 2.751504
v -1.231406 -1.463589 2.801113
v -1.171406 -1.418950 3.116094
v -1.170313 -1.502129 3.118652
v -1.170313 -1.502129 3.118652
v -1.159531 0.214956 3.129121
v -1.158281 0.125640 3.132002
v -1.158281 0.125640 3.132002
v -1.156953 -1.504985 2.776221
v -1.156953 -1.504985 2.776221
v -1.156953 -1.504985 2.776221
v -1.156953 -1.429219 2.776221
v -1.156953 -1.429219 2.776221
v -1.156953 -1.429219 2.776221
v -1.156875 0.205586 2.766846
v -1.156875 0.205586 2.766846
v -1.156875 0.205586 2.766846
v -1.149297 0.118379 2.778174
v -1.149297 0.118379 2.778174
v -1.149297 0.118379 2.778174
v -1.093359 -1.482349 2.862451
v -1.074766 -1.482290 2.852666
v -1.074453 -1.399570 2.853730
v -1.059687 -1.404966 3.042246
v -1.059375 -1.484756 3.042354
v -1.050156 0.156084 2.826191
v -1.049922 0.229976 3.049561
v -1.049766 0.235420 2.827383
v -1.049609 0.144292 3.049678
v -1.042266 -1.467383 2.946045
v -1.042266 -1.467383 2.946045
v -1.041641 -1.390977 2.948389
v -1.041641 -1.390977 2.948389
v -1.018359 0.162949 2.938018
v -1.018359 0.162949 2.938018
v -1.017656 0.244995 2.940664
v -1.017656 0.244995 2.940664
v 1.036406 0.837573 -3.176631
v 1.036484 0.758237 -3.175371
v 1.038672 0.765103 -3.291621
v 1.038672 0.765103 -3.291621
v 1.038828 0.847148 -3.294346
v 1.038828 0.847148 -3.294346
v 1.063906 -0.865229 -3.292305
v 1.063906 -0.865229 -3.292305
v 1.064062 -0.788823 -3.294717
v 1.064062 -0.788823 -3.294717
v 1.067734 -0.880132 -3.193486
v 1.067734 -0.797417 -3.194609
v 1.088359 -0.880195 -3.197422
v 1.101250 0.746445 -3.389248
v 1.101484 0.832129 -3.389053
v 1.108516 -0.882603 -3.379385
v 1.108672 -0.802813 -3.379209
v 1.117188 0.720532 -3.100469
v 1.117188 0.720532 -3.100469
v 1.117188 0.720532 -3.100469
v 1.121172 0.807739 -3.087422
v 1.121172 0.807739 -3.087422
v 1.121172 0.807739 -3.087422
v 1.123984 -0.902832 -3.096357
v 1.123984 -0.902832 -3.096357
v 1.123984 -0.902832 -3.096357
v 1.123984 -0.827065 -3.096357
v 1.123984 -0.827065 -3.096357
v 1.123984 -0.827065 -3.096357
v 1.193203 0.770903 -3.049355
v 1.196328 0.679683 -3.048994
v 1.202422 -0.861436 -3.098398
v 1.204531 -0.936587 -3.076113
v 1.229297 0.727793 -3.436211
v 1.229297 0.727793 -3.436211
v 1.229609 0.817109 -3.433086
v 1.236875 -0.899976 -3.419922
v 1.236875 -0.899976 -3.419922
v 1.237188 -0.816797 -3.417158
v 1.304844 0.779639 -3.333096
v 1.309844 -0.974282 -3.073389
v 1.309844 -0.974282 -3.073389
v 1.322500 0.731455 -3.063135
v 1.323906 0.647036 -3.059102
v 1.323906 0.647036 -3.059102
v 1.330859 0.696567 -3.382510
v 1.330859 0.696567 -3.382510
v 1.332656 0.786206 -3.384639
v 1.336953 -0.929053 -3.361436
v 1.336953 -0.929053 -3.361436
v 1.338594 -0.845581 -3.363320
v 1.354141 -0.874956 -3.266104
v 1.388906 -0.966655 -3.135566
v 1.389687 -0.885464 -3.140615
v 1.390078 -0.958130 -3.269180
v 1.390078 -0.958130 -3.269180
v 1.392969 -0.874360 -3.275703
v 1.393516 0.646348 -3.134658
v 1.394453 0.743379 -3.140371
v 1.409063 0.665342 -3.263857
v 1.409063 0.665342 -3.263857
v 1.412344 0.755298 -3.271240
v 1.412344 0.755298 -3.271240
v 1.412344 0.755298 -3.271240
vt 0.255186 0.669771
vt 0.255186 0.544322
vt 0.507126 0.523481
vt 0.507126 0.648929
vt 0.254974 0.448188
vt 0.254761 0.352055
vt 0.507126 0.331213
vt 0.507126 0.427347
vt -0.045254 0.165774
vt 0.507126 0.141375
vt 0.507126 0.232610
vt 0.233236 0.251898
vt 0.767982 0.409593
vt 0.768194 0.313459
vt 0.992752 0.295705
vt 0.992414 0.391839
vt 0.767769 0.505727
vt 0.992075 0.487973
vt 0.992075 0.613421
vt 0.767769 0.631175
vt 0.988531 0.130369
vt 0.992075 0.149347
vt 0.991564 0.218777
vt 0.745733 0.224709
vt 0.255186 1.071523
vt 0.255186 0.933371
vt 0.507126 0.912529
vt 0.507126 1.050681
vt 0.767769 1.032928
vt 0.767769 0.894775
vt 0.992075 0.877021
vt 0.992075 1.015174
vt 0.721080 0.004118
vt 0.767769 -0.134005
vt 0.992075 -0.151759
vt 0.935676 -0.002982
vt 0.258759 0.030884
vt 0.255186 -0.095410
vt 0.507126 -0.116251
vt 0.507126 0.012995
vt 0.006171 0.048773
vt 0.023330 -0.074568
vt 0.023330 1.092365
vt 0.023330 0.954213
vt 0.023330 0.690612
vt 0.023330 0.565164
vt 0.022992 0.469030
vt 0.022653 0.372896
vt 0.992075 0.738869
vt 0.767769 0.756623
vt 0.507126 0.774377
vt 0.255186 0.795219
vt 0.023330 0.816061
vt -0.036055 0.267050
vt 0.720434 0.142241
vt 0.507126 0.142241
vt 0.186414 0.164646
vt -0.132472 0.172115
vt 0.255186 0.669771
vt 0.255186 0.544322
vt 0.507126 0.523481
vt 0.507126 0.648929
vt 0.254974 0.448188
vt 0.254761 0.352055
vt 0.507126 0.331213
vt 0.507126 0.427347
vt -0.045254 0.165774
vt 0.507126 0.141375
vt 0.507126 0.232610
vt 0.233236 0.251898
vt 0.767982 0.409593
vt 0.768194 0.313459
vt 0.992752 0.295705
vt 0.992414 0.391839
vt 0.767769 0.505727
vt 0.992075 0.487973
vt 0.992075 0.613421
vt 0.767769 0.631175
vt 0.988531 0.130369
vt 0.992075 0.149347
vt 0.991564 0.218777
vt 0.745733 0.224709
vt 0.255186 1.071523
vt 0.255186 0.933371
vt 0.507126 0.912529
vt 0.507126 1.050681
vt 0.767769 1.032928
vt 0.767769 0.894775
vt 0.992075 0.877021
vt 0.992075 1.015174
vt 0.721080 0.004118
vt 0.767769 -0.134005
vt 0.992075 -0.151759
vt 0.935676 -0.002982
vt 0.258759 0.030884
vt 0.255186 -0.095410
vt 0.507126 -0.116251
vt 0.507126 0.012995
vt 0.006171 0.048773
vt 0.023330 -0.074568
vt 0.023330 1.092365
vt 0.023330 0.954213
vt 0.023330 0.690612
vt 0.023330 0.565164
vt 0.022992 0.469030
vt 0.022653 0.372896
vt 0.992075 0.738869
vt 0.767769 0.756623
vt 0.507126 0.774377
vt 0.255186 0.795219
vt 0.023330 0.816061
vt -0.036055 0.267050
vt 0.720434 0.142241
vt 0.507126 0.142241
vt 0.186414 0.164646
vt -0.132472 0.172115
vt 0.255186 0.669771
vt 0.255186 0.544322
vt 0.507126 0.523481
vt 0.507126 0.648929
vt 0.254974 0.448188
vt 0.254761 0.352055
vt 0.507126 0.331213
vt 0.507126 0.427347
vt -0.045254 0.165774
vt 0.507126 0.141375
vt 0.507126 0.232610
vt 0.233236 0.251898
vt 0.767982 0.409593
vt 0.768194 0.313459
vt 0.992752 0.295705
vt 0.992414 0.391839
vt 0.767769 0.505727
vt 0.992075 0.487973
vt 0.992075 0.613421
vt 0.767769 0.631175
vt 0.988531 0.130369
vt 0.992075 0.149347
vt 0.991564 0.218777
vt 0.745733 0.224709
vt 0.255186 1.071523
vt 0.255186 0.933371
vt 0.507126 0.912529
vt 0.507126 1.050681
vt 0.767769 1.032928
vt 0.767769 0.894775
vt 0.992075 0.877021
vt 0.992075 1.015174
vt 0.721080 0.004118
vt 0.767769 -0.134005
vt 0.992075 -0.151759
vt 0.935676 -0.002982
vt 0.258759 0.030884
vt 0.255186 -0.095410
vt 0.507126 -0.116251
vt 0.507126 0.012995
vt 0.006171 0.048773
vt 0.023330 -0.074568
vt 0.023330 1.092365
vt 0.023330 0.954213
vt 0.023330 0.690612
vt 0.023330 0.565164
vt 0.022992 0.469030
vt 0.022653 0.372896
vt 0.992075 0.738869
vt 0.767769 0.756623
vt 0.507126 0.774377
vt 0.255186 0.795219
vt 0.023330 0.816061
vt -0.036055 0.267050
vt 0.720434 0.142241
vt 0.507126 0.142241
vt 0.186414 0.164646
vt -0.132472 0.172115
vt 0.255186 0.669771
vt 0.255186 0.544322
vt 0.507126 0.523481
vt 0.507126 0.648929
vt 0.254974 0.448188
vt 0.254761 0.352055
vt 0.507126 0.331213
vt 0.507126 0.427347
vt -0.045254 0.165774
vt 0.507126 0.141375
vt 0.507126 0.232610
vt 0.233236 0.251898
vt 0.767982 0.409593
vt 0.768194 0.313459
vt 0.992752 0.295705
vt 0.992414 0.391839
vt 0.767769 0.505727
vt 0.992075 0.487973
vt 0.992075 0.613421
vt 0.767769 0.631175
vt 0.988531 0.130369
vt 0.992075 0.149347
vt 0.991564 0.218777
vt 0.745733 0.224709
vt 0.255186 1.071523
vt 0.255186 0.933371
vt 0.507126 0.912529
vt 0.507126 1.050681
vt 0.767769 1.032928
vt 0.767769 0.894775
vt 0.992075 0.877021
vt 0.992075 1.015174
vt 0.721080 0.004118
vt 0.767769 -0.134005
vt 0.992075 -0.151759
vt 0.935676 -0.002982
vt 0.258759 0.030884
vt 0.255186 -0.095410
vt 0.507126 -0.116251
vt 0.507126 0.012995
vt 0.006171 0.048773
vt 0.023330 -0.074568
vt 0.023330 1.092365
vt 0.023330 0.954213
vt 0.023330 0.690612
vt 0.023330 0.565164
vt 0.022992 0.469030
vt 0.022653 0.372896
vt 0.992075 0.738869
vt 0.767769 0.756623
vt 0.507126 0.774377
vt 0.255186 0.795219
vt 0.023330 0.816061
vt -0.036055 0.267050
vt 0.720434 0.142241
vt 0.507126 0.142241
vt 0.186414 0.164646
vt -0.132472 0.172115
vt 0.767982 0.409593
vt 0.254974 0.448188
vt 0.767982 0.409593
vt 0.254974 0.448188
vt 0.255186 0.544322
vt 0.255186 0.544322
vt 0.255186 0.544322
vt 0.767769 0.505727
vt 0.767769 0.505727
vt 0.255186 0.544322
vt 0.767769 0.505727
vt 0.767769 0.505727
vt 0.768194 0.313459
vt 0.768194 0.313459
vt 0.254761 0.352055
vt 0.768194 0.313459
vt 0.768194 0.313459
vt 0.023330 0.565164
vt 0.255186 0.669771
vt 0.767769 0.631175
vt 0.767769 0.631175
vt 0.255186 0.669771
vt 0.767769 0.631175
vt 0.767769 0.631175
vt 0.023330 0.690612
vt 0.745733 0.224709
vt 0.745733 0.224709
vt 0.233236 0.251898
vt -0.036055 0.267050
vt 0.255186 0.795219
vt 0.767769 0.756623
vt 0.767769 0.756623
vt 0.255186 0.795219
vt 0.767769 0.756623
vt 0.767769 0.756623
vt 0.988531 0.130369
vt 0.720434 0.142241
vt 0.720434 0.142241
vt -0.045254 0.165774
vt 0.186414 0.164646
vt 0.186414 0.164646
vt -0.045254 0.165774
vt 0.186414 0.164646
vt 0.186414 0.164646
vt 0.988531 0.130369
vt 0.720434 0.142241
vt 0.720434 0.142241
vt 0.935676 -0.002982
vt 0.721080 0.004118
vt 0.258759 0.030884
vt 0.255186 0.933371
vt 0.767769 0.894775
vt 0.721080 0.004118
vt 0.255186 0.933371
vt 0.258759 0.030884
vt 0.767769 0.894775
vt 0.767769 -0.134005
vt 0.767769 1.032928
vt 0.255186 -0.095410
vt 0.255186 1.071523
vt 0.767769 -0.134005
vt 0.767769 1.032928
vt 0.255186 -0.095410
vt 0.255186 1.071523
vt 0.258759 0.030884
vt 0.721080 0.004118
vt 0.767769 -0.134005
vt 0.767769 1.032928
vt 0.255186 -0.095410
vt 0.255186 1.071523
vt 0.767769 -0.134005
vt 0.767769 1.032928
vt 0.255186 -0.095410
vt 0.255186 1.071523
vt 0.721080 0.004118
vt 0.258759 0.030884
vt 0.935676 -0.002982
vt 0.767769 0.894775
vt 0.255186 0.933371
vt 0.767769 0.894775
vt 0.255186 0.933371
vt 0.988531 0.130369
vt 0.720434 0.142241
vt 0.720434 0.142241
vt -0.045254 0.165774
vt 0.186414 0.164646
vt 0.186414 0.164646
vt 0.988531 0.130369
vt 0.720434 0.142241
vt 0.720434 0.142241
vt -0.045254 0.165774
vt 0.186414 0.164646
vt 0.186414 0.164646
vt 0.233236 0.251898
vt 0.745733 0.224709
vt -0.036055 0.267050
vt 0.745733 0.224709
vt 0.767769 0.756623
vt 0.767769 0.756623
vt 0.255186 0.795219
vt 0.767769 0.756623
vt 0.767769 0.756623
vt 0.255186 0.795219
vt 0.023330 0.690612
vt 0.768194 0.313459
vt 0.768194 0.313459
vt 0.254761 0.352055
vt 0.768194 0.313459
vt 0.768194 0.313459
vt 0.767769 0.631175
vt 0.767769 0.631175
vt 0.255186 0.669771
vt 0.767769 0.631175
vt 0.767769 0.631175
vt 0.255186 0.669771
vt 0.023330 0.565164
vt 0.767982 0.409593
vt 0.254974 0.448188
vt 0.767769 0.505727
vt 0.767769 0.505727
vt 0.255186 0.544322
vt 0.767982 0.409593
vt 0.254974 0.448188
vt 0.767769 0.505727
vt 0.767769 0.505727
vt 0.255186 0.544322
vt 0.255186 0.544322
vt 0.255186 0.544322
vn 0.515817 0.790353 -0.330568
vn 0.646225 0.761718 -0.046672
vn 0.964294 -0.031892 -0.262905
vn 0.659370 -0.030755 -0.751189
vn 0.520251 0.792796 0.317511
vn 0.281993 0.808307 0.516837
vn 0.495778 -0.002600 0.868445
vn 0.925276 0.039506 0.377230
vn -0.132389 0.808653 0.573195
vn -0.657642 -0.101270 0.746492
vn -0.245041 -0.049508 0.968248
vn 0.149671 0.766325 0.624776
vn 0.558683 -0.801831 0.211990
vn 0.174966 -0.800387 0.573382
vn -0.189365 -0.981907 0.000716
vn -0.170575 -0.956293 -0.237504
vn 0.489363 -0.837589 -0.242835
vn -0.290818 -0.941968 -0.167696
vn -0.352204 -0.935900 0.006583
vn 0.175391 -0.861069 -0.477282
vn -0.614308 -0.731204 0.296592
vn -0.232104 -0.887935 -0.397114
vn -0.328349 -0.939810 -0.094577
vn -0.371807 -0.770682 0.517503
vn -0.415911 0.898357 -0.141325
vn -0.281966 0.812829 -0.509710
vn -0.604980 -0.029710 -0.795686
vn -0.949949 -0.003429 -0.312387
vn -0.553227 -0.825946 -0.108417
vn -0.428405 -0.803080 -0.414165
vn -0.088482 -0.985492 0.144831
vn -0.024809 -0.993959 0.106914
vn -0.650198 -0.737631 0.182053
vn -0.553227 -0.825946 -0.108417
vn -0.024809 -0.993959 0.106914
vn -0.189839 -0.960907 -0.201542
vn -0.435680 0.841670 0.319021
vn -0.415911 0.898357 -0.141325
vn -0.949949 -0.003429 -0.312387
vn -0.925058 -0.080314 0.371238
vn 0.428861 0.903312 0.010293
vn 0.298609 0.947725 0.112474
vn 0.298609 0.947725 0.112474
vn 0.204370 0.976795 0.064066
vn 0.142256 0.964270 0.223486
vn 0.004139 0.973363 0.229235
vn -0.081176 0.991788 0.098831
vn 0.037197 0.997303 -0.063267
vn -0.250917 -0.965377 0.071336
vn -0.133307 -0.766013 -0.628850
vn 0.095333 0.010183 -0.995393
vn 0.133160 0.813857 -0.565602
vn 0.192608 0.963867 0.184018
vn 0.414084 0.908710 -0.052724
vn -0.614308 -0.731204 0.296592
vn -0.657642 -0.101270 0.746492
vn -0.132389 0.808653 0.573195
vn 0.512125 0.830266 -0.219967
vn 0.521655 0.809016 -0.270869
vn 0.646091 0.761738 -0.048193
vn 0.959223 -0.039835 -0.279830
vn 0.696303 -0.025162 -0.717307
vn 0.555985 0.762150 0.331675
vn 0.247018 0.814562 0.524852
vn 0.388959 0.011231 0.921187
vn 0.923991 0.012276 0.382218
vn -0.189393 0.754897 0.627903
vn -0.649702 -0.056502 0.758086
vn -0.140763 0.006588 0.990022
vn 0.228510 0.807604 0.543654
vn 0.569480 -0.766304 0.297441
vn 0.041813 -0.863953 0.501833
vn -0.257985 -0.944242 -0.204573
vn -0.114234 -0.990754 -0.073191
vn 0.477022 -0.841259 -0.254430
vn -0.229522 -0.952440 -0.200442
vn -0.322209 -0.945514 -0.046751
vn 0.217786 -0.839499 -0.497806
vn -0.529915 -0.712565 0.459827
vn -0.214589 -0.952717 -0.215131
vn -0.278205 -0.865687 -0.416158
vn -0.356903 -0.873849 0.330163
vn -0.459140 0.877194 -0.140431
vn -0.304760 0.795947 -0.523058
vn -0.623876 -0.027823 -0.781028
vn -0.967893 0.003702 -0.251334
vn -0.581317 -0.809509 -0.082254
vn -0.447790 -0.791926 -0.415135
vn -0.085320 -0.984554 0.152888
vn 0.002429 -0.998761 0.049711
vn -0.616985 -0.785306 0.051216
vn -0.581317 -0.809509 -0.082254
vn 0.002429 -0.998761 0.049711
vn -0.047715 -0.981179 -0.187113
vn -0.499180 0.824880 0.265316
vn -0.459140 0.877194 -0.140431
vn -0.967893 0.003702 -0.251334
vn -0.954141 0.031267 0.297722
vn 0.155784 0.977123 0.144786
vn 0.289812 0.956979 0.014155
vn 0.289812 0.956979 0.014155
vn 0.245609 0.967361 0.062362
vn 0.098041 0.947523 0.304284
vn 0.026197 0.981292 0.190735
vn -0.037529 0.996594 0.073434
vn 0.125520 0.991802 0.023958
vn -0.225608 -0.972529 0.057350
vn -0.092394 -0.764721 -0.637703
vn 0.132487 0.006639 -0.991163
vn 0.151277 0.824732 -0.544916
vn 0.157993 0.953683 0.255984
vn 0.344295 0.938849 0.004930
vn -0.529915 -0.712565 0.459827
vn -0.649702 -0.056502 0.758086
vn -0.189393 0.754897 0.627903
vn 0.439532 0.896542 0.054998
vn -0.396629 0.790353 0.466934
vn -0.604343 0.761718 0.233572
vn -0.845293 -0.031892 0.533350
vn -0.410932 -0.030758 0.911147
vn -0.590350 0.792796 -0.151530
vn -0.420780 0.808306 -0.411807
vn -0.728024 -0.002601 -0.685547
vn -0.995138 0.039506 -0.090223
vn -0.040980 0.808652 -0.586858
vn 0.410654 -0.101274 -0.906149
vn -0.048753 -0.049513 -0.997583
vn -0.325798 0.766326 -0.553715
vn -0.596254 -0.801829 -0.039386
vn -0.334962 -0.800387 -0.497173
vn 0.180880 -0.981907 -0.056051
vn 0.232560 -0.956293 0.177257
vn -0.396983 -0.837588 0.375302
vn 0.327141 -0.941967 0.075341
vn 0.334890 -0.935899 -0.109273
vn -0.028182 -0.861071 0.507702
vn 0.500749 -0.731206 -0.463236
vn 0.338067 -0.887934 0.311903
vn 0.341654 -0.939810 -0.005556
vn 0.204260 -0.770684 -0.603592
vn 0.439056 0.898358 0.013550
vn 0.418668 0.812831 0.404997
vn 0.811180 -0.029712 0.584041
vn 0.999774 -0.003427 0.021000
vn 0.560753 -0.825944 -0.058067
vn 0.530774 -0.803082 0.270812
vn 0.042272 -0.985492 -0.164372
vn -0.007532 -0.993959 -0.109495
vn 0.568560 -0.737630 -0.364198
vn 0.560753 -0.825944 -0.058067
vn -0.007532 -0.993959 -0.109495
vn 0.240469 -0.960907 0.137231
vn 0.323368 0.841672 -0.432460
vn 0.439056 0.898358 0.013550
vn 0.999774 -0.003427 0.021000
vn 0.776098 -0.080312 -0.625477
vn -0.413132 0.903312 0.115544
vn -0.318445 0.947725 -0.020255
vn -0.318445 0.947725 -0.020255
vn -0.214169 0.976795 -0.001512
vn -0.201380 0.964270 -0.172131
vn -0.070978 0.973363 -0.218008
vn 0.048735 0.991788 -0.118246
vn -0.017074 0.997303 0.071378
vn 0.219095 -0.965377 -0.141582
vn 0.311341 -0.766015 0.562395
vn 0.199858 0.010179 0.979772
vn 0.038024 0.813857 0.579820
vn -0.237993 0.963867 -0.119666
vn -0.380574 0.908711 0.171488
vn 0.500749 -0.731206 -0.463236
vn 0.410654 -0.101274 -0.906149
vn -0.040980 0.808652 -0.586858
vn -0.425436 0.830267 0.360085
vn -0.419668 0.809017 0.411546
vn -0.603771 0.761736 0.234989
vn -0.835495 -0.039837 0.548052
vn -0.456158 -0.025161 0.889543
vn -0.628666 0.762148 -0.154628
vn -0.389679 0.814560 -0.429699
vn -0.641291 0.011230 -0.767215
vn -0.995366 0.012278 -0.095370
vn -0.002464 0.754898 -0.655837
vn 0.399670 -0.056504 -0.914916
vn -0.154843 0.006591 -0.987917
vn -0.377472 0.807608 -0.453083
vn -0.631559 -0.766305 -0.117941
vn -0.186707 -0.863953 -0.467681
vn 0.306524 -0.944242 0.120207
vn 0.130645 -0.990754 0.036597
vn -0.381790 -0.841258 0.382781
vn 0.278090 -0.952441 0.124584
vn 0.321796 -0.945514 -0.049497
vn -0.062725 -0.839501 0.539726
vn 0.372320 -0.712565 -0.594667
vn 0.268114 -0.952718 0.142983
vn 0.387722 -0.865687 0.316635
vn 0.244779 -0.873850 -0.420084
vn 0.480138 0.877193 0.000053
vn 0.444371 0.795947 0.411099
vn 0.824966 -0.027820 0.564498
vn 0.999084 0.003701 -0.042632
vn 0.579965 -0.809509 -0.091301
vn 0.549597 -0.791927 0.266073
vn 0.036887 -0.984553 -0.171158
vn -0.016857 -0.998761 -0.046827
vn 0.575052 -0.785306 -0.229367
vn 0.579965 -0.809509 -0.091301
vn -0.016857 -0.998761 -0.046827
vn 0.100338 -0.981179 0.164987
vn 0.399797 0.824881 -0.399668
vn 0.480138 0.877193 0.000053
vn 0.999084 0.003701 -0.042632
vn 0.825404 0.031271 -0.563676
vn -0.191307 0.977123 -0.092914
vn -0.281285 0.956980 0.071195
vn -0.281285 0.956980 0.071195
vn -0.253105 0.967362 0.012175
vn -0.182722 0.947523 -0.262323
vn -0.080823 0.981292 -0.174737
vn 0.014413 0.996594 -0.081199
vn -0.127046 0.991801 0.013782
vn 0.198983 -0.972529 -0.120806
vn 0.274803 -0.764723 0.582822
vn 0.163091 0.006636 0.986589
vn 0.014652 0.824730 0.565336
vn -0.225931 0.953684 -0.198602
vn -0.330686 0.938850 0.095959
vn 0.372320 -0.712565 -0.594667
vn 0.399670 -0.056504 -0.914916
vn -0.002464 0.754898 -0.655837
vn -0.436406 0.896542 0.075911
vn -0.596254 -0.801829 -0.039386
vn -0.590350 0.792796 -0.151530
vn -0.631559 -0.766305 -0.117941
vn -0.628666 0.762148 -0.154628
vn -0.604343 0.761718 0.233572
vn -0.604343 0.761718 0.233572
vn -0.604343 0.761718 0.233572
vn -0.396983 -0.837588 0.375302
vn -0.396983 -0.837588 0.375302
vn -0.603771 0.761736 0.234989
vn -0.381790 -0.841258 0.382781
vn -0.381790 -0.841258 0.382781
vn -0.334962 -0.800387 -0.497173
vn -0.334962 -0.800387 -0.497173
vn -0.420780 0.808306 -0.411807
vn -0.186707 -0.863953 -0.467681
vn -0.186707 -0.863953 -0.467681
vn -0.080823 0.981292 -0.174737
vn -0.419668 0.809017 0.411546
vn -0.062725 -0.839501 0.539726
vn -0.062725 -0.839501 0.539726
vn -0.396629 0.790353 0.466934
vn -0.028182 -0.861071 0.507702
vn -0.028182 -0.861071 0.507702
vn -0.201380 0.964270 -0.172131
vn 0.204260 -0.770684 -0.603592
vn 0.244779 -0.873850 -0.420084
vn -0.325798 0.766326 -0.553715
vn -0.330686 0.938850 0.095959
vn 0.014652 0.824730 0.565336
vn 0.274803 -0.764723 0.582822
vn 0.274803 -0.764723 0.582822
vn 0.038024 0.813857 0.579820
vn 0.311341 -0.766015 0.562395
vn 0.311341 -0.766015 0.562395
vn 0.372320 -0.712565 -0.594667
vn 0.372320 -0.712565 -0.594667
vn 0.372320 -0.712565 -0.594667
vn -0.002464 0.754898 -0.655837
vn -0.002464 0.754898 -0.655837
vn -0.002464 0.754898 -0.655837
vn -0.040980 0.808652 -0.586858
vn -0.040980 0.808652 -0.586858
vn -0.040980 0.808652 -0.586858
vn 0.500749 -0.731206 -0.463236
vn 0.500749 -0.731206 -0.463236
vn 0.500749 -0.731206 -0.463236
vn 0.100338 -0.981179 0.164987
vn 0.575052 -0.785306 -0.229367
vn 0.399797 0.824881 -0.399668
vn 0.444371 0.795947 0.411099
vn 0.549597 -0.791927 0.266073
vn 0.568560 -0.737630 -0.364198
vn 0.418668 0.812831 0.404997
vn 0.323368 0.841672 -0.432460
vn 0.530774 -0.803082 0.270812
vn 0.579965 -0.809509 -0.091301
vn 0.579965 -0.809509 -0.091301
vn 0.480138 0.877193 0.000053
vn 0.480138 0.877193 0.000053
vn 0.560753 -0.825944 -0.058067
vn 0.560753 -0.825944 -0.058067
vn 0.439056 0.898358 0.013550
vn 0.439056 0.898358 0.013550
vn -0.435680 0.841670 0.319021
vn -0.650198 -0.737631 0.182053
vn -0.553227 -0.825946 -0.108417
vn -0.553227 -0.825946 -0.108417
vn -0.415911 0.898357 -0.141325
vn -0.415911 0.898357 -0.141325
vn -0.581317 -0.809509 -0.082254
vn -0.581317 -0.809509 -0.082254
vn -0.459140 0.877194 -0.140431
vn -0.459140 0.877194 -0.140431
vn -0.616985 -0.785306 0.051216
vn -0.499180 0.824880 0.265316
vn -0.047715 -0.981179 -0.187113
vn -0.428405 -0.803080 -0.414165
vn -0.281966 0.812829 -0.509710
vn -0.447790 -0.791926 -0.415135
vn -0.304760 0.795947 -0.523058
vn -0.614308 -0.731204 0.296592
vn -0.614308 -0.731204 0.296592
vn -0.614308 -0.731204 0.296592
vn -0.132389 0.808653 0.573195
vn -0.132389 0.808653 0.573195
vn -0.132389 0.808653 0.573195
vn -0.529915 -0.712565 0.459827
vn -0.529915 -0.712565 0.459827
vn -0.529915 -0.712565 0.459827
vn -0.189393 0.754897 0.627903
vn -0.189393 0.754897 0.627903
vn -0.189393 0.754897 0.627903
vn 0.149671 0.766325 0.624776
vn -0.371807 -0.770682 0.517503
vn 0.344295 0.938849 0.004930
vn -0.356903 -0.873849 0.330163
vn -0.133307 -0.766013 -0.628850
vn -0.133307 -0.766013 -0.628850
vn 0.133160 0.813857 -0.565602
vn -0.092394 -0.764721 -0.637703
vn -0.092394 -0.764721 -0.637703
vn 0.151277 0.824732 -0.544916
vn 0.142256 0.964270 0.223486
vn 0.041813 -0.863953 0.501833
vn 0.041813 -0.863953 0.501833
vn 0.281993 0.808307 0.516837
vn 0.174966 -0.800387 0.573382
vn 0.174966 -0.800387 0.573382
vn 0.175391 -0.861069 -0.477282
vn 0.175391 -0.861069 -0.477282
vn 0.515817 0.790353 -0.330568
vn 0.217786 -0.839499 -0.497806
vn 0.217786 -0.839499 -0.497806
vn 0.521655 0.809016 -0.270869
vn 0.026197 0.981292 0.190735
vn 0.569480 -0.766304 0.297441
vn 0.555985 0.762150 0.331675
vn 0.477022 -0.841259 -0.254430
vn 0.477022 -0.841259 -0.254430
vn 0.646091 0.761738 -0.048193
vn 0.558683 -0.801831 0.211990
vn 0.520251 0.792796 0.317511
vn 0.489363 -0.837589 -0.242835
vn 0.489363 -0.837589 -0.242835
vn 0.646225 0.761718 -0.046672
vn 0.646225 0.761718 -0.046672
vn 0.646225 0.761718 -0.046672
f 428/428/428 427/427/427 426/426/426
f 426/426/426 429/429/429 428/428/428
f 432/432/432 431/431/431 430/430/430
f 430/430/430 433/433/433 432/432/432
f 436/436/436 435/435/435 434/434/434
f 434/434/434 437/437/437 436/436/436
f 440/440/440 439/439/439 438/438/438
f 438/438/438 441/441/441 440/440/440
f 444/444/444 443/443/443 442/442/442
f 442/442/442 445/445/445 444/444/444
f 448/448/448 447/447/447 446/446/446
f 446/446/446 449/449/449 448/448/448
f 452/452/452 451/451/451 450/450/450
f 450/450/450 453/453/453 452/452/452
f 456/456/456 455/455/455 454/454/454
f 454/454/454 457/457/457 456/456/456
f 460/460/460 459/459/459 458/458/458
f 458/458/458 461/461/461 460/460/460
f 464/464/464 463/463/463 462/462/462
f 462/462/462 465/465/465 464/464/464
f 726/726/726 467/467/467 466/466/466
f 466/466/466 722/722/722 726/726/726
f 736/736/736 469/469/469 468/468/468
f 468/468/468 727/727/727 736/736/736
f 784/784/784 471/471/471 470/470/470
f 761/761/761 769/769/769 783/783/783
f 431/431/431 473/473/473 472/472/472
f 472/472/472 780/780/780 431/431/431
f 724/724/724 464/464/464 465/465/465
f 465/465/465 723/723/723 724/724/724
f 735/735/735 452/452/452 453/453/453
f 453/453/453 725/725/725 735/735/735
f 767/767/767 781/781/781 428/428/428
f 428/428/428 429/429/429 767/767/767
f 765/765/765 432/432/432 433/433/433
f 433/433/433 779/779/779 765/765/765
f 474/474/474 444/444/444 768/768/768
f 768/768/768 475/475/475 474/474/474
f 755/755/755 767/767/767 429/429/429
f 429/429/429 476/476/476 755/755/755
f 429/429/429 426/426/426 477/477/477
f 477/477/477 476/476/476 429/429/429
f 769/769/769 761/761/761 478/478/478
f 478/478/478 757/757/757 769/769/769
f 478/478/478 469/469/469 736/736/736
f 736/736/736 757/757/757 478/478/478
f 477/477/477 451/451/451 452/452/452
f 452/452/452 476/476/476 477/477/477
f 476/476/476 452/452/452 735/735/735
f 735/735/735 755/755/755 476/476/476
f 756/756/756 455/455/455 456/456/456
f 456/456/456 474/474/474 756/756/756
f 441/441/441 438/438/438 782/782/782
f 782/782/782 443/443/443 441/441/441
f 779/779/779 433/433/433 428/428/428
f 428/428/428 781/781/781 779/779/779
f 433/433/433 430/430/430 785/785/785
f 785/785/785 428/428/428 433/433/433
f 780/780/780 472/472/472 471/471/471
f 471/471/471 784/784/784 780/780/780
f 448/448/448 449/449/449 766/766/766
f 766/766/766 440/440/440 448/448/448
f 752/752/752 436/436/436 432/432/432
f 432/432/432 765/765/765 752/752/752
f 436/436/436 437/437/437 764/764/764
f 764/764/764 432/432/432 436/436/436
f 751/751/751 479/479/479 473/473/473
f 473/473/473 431/431/431 751/751/751
f 461/461/461 458/458/458 741/741/741
f 741/741/741 447/447/447 461/461/461
f 723/723/723 465/465/465 481/481/481
f 481/481/481 740/740/740 723/723/723
f 465/465/465 462/462/462 744/744/744
f 744/744/744 481/481/481 465/465/465
f 466/466/466 483/483/483 743/743/743
f 743/743/743 722/722/722 466/466/466
f 479/479/479 751/751/751 742/742/742
f 742/742/742 483/483/483 479/479/479
f 752/752/752 739/739/739 435/435/435
f 435/435/435 436/436/436 752/752/752
f 486/486/486 485/485/485 484/484/484
f 484/484/484 487/487/487 486/486/486
f 490/490/490 489/489/489 488/488/488
f 488/488/488 491/491/491 490/490/490
f 494/494/494 493/493/493 492/492/492
f 492/492/492 495/495/495 494/494/494
f 498/498/498 497/497/497 496/496/496
f 496/496/496 499/499/499 498/498/498
f 502/502/502 501/501/501 500/500/500
f 500/500/500 503/503/503 502/502/502
f 506/506/506 505/505/505 504/504/504
f 504/504/504 507/507/507 506/506/506
f 510/510/510 509/509/509 508/508/508
f 508/508/508 511/511/511 510/510/510
f 514/514/514 513/513/513 512/512/512
f 512/512/512 515/515/515 514/514/514
f 518/518/518 517/517/517 516/516/516
f 516/516/516 519/519/519 518/518/518
f 522/522/522 521/521/521 520/520/520
f 520/520/520 523/523/523 522/522/522
f 730/730/730 525/525/525 524/524/524
f 524/524/524 733/733/733 730/730/730
f 738/738/738 527/527/527 526/526/526
f 526/526/526 731/731/731 738/738/738
f 778/778/778 529/529/529 528/528/528
f 528/528/528 772/772/772 778/778/778
f 489/489/489 531/531/531 530/530/530
f 530/530/530 775/775/775 489/489/489
f 728/728/728 522/522/522 523/523/523
f 523/523/523 732/732/732 728/728/728
f 737/737/737 510/510/510 511/511/511
f 511/511/511 729/729/729 737/737/737
f 770/770/770 776/776/776 486/486/486
f 486/486/486 487/487/487 770/770/770
f 762/762/762 490/490/490 491/491/491
f 491/491/491 774/774/774 762/762/762
f 532/532/532 502/502/502 771/771/771
f 771/771/771 533/533/533 532/532/532
f 758/758/758 770/770/770 487/487/487
f 487/487/487 534/534/534 758/758/758
f 487/487/487 484/484/484 535/535/535
f 535/535/535 534/534/534 487/487/487
f 772/772/772 528/528/528 536/536/536
f 536/536/536 760/760/760 772/772/772
f 536/536/536 527/527/527 738/738/738
f 738/738/738 760/760/760 536/536/536
f 535/535/535 509/509/509 510/510/510
f 510/510/510 534/534/534 535/535/535
f 534/534/534 510/510/510 737/737/737
f 737/737/737 758/758/758 534/534/534
f 759/759/759 513/513/513 514/514/514
f 514/514/514 532/532/532 759/759/759
f 499/499/499 496/496/496 777/777/777
f 777/777/777 501/501/501 499/499/499
f 774/774/774 491/491/491 486/486/486
f 486/486/486 776/776/776 774/774/774
f 491/491/491 488/488/488 778/778/778
f 778/778/778 486/486/486 491/491/491
f 775/775/775 530/530/530 773/773/773
f 529/529/529 778/778/778 488/488/488
f 506/506/506 507/507/507 763/763/763
f 763/763/763 498/498/498 506/506/506
f 754/754/754 494/494/494 490/490/490
f 490/490/490 762/762/762 754/754/754
f 494/494/494 495/495/495 489/489/489
f 489/489/489 490/490/490 494/494/494
f 495/495/495 537/537/537 531/531/531
f 531/531/531 489/489/489 495/495/495
f 519/519/519 516/516/516 747/747/747
f 538/538/538 505/505/505 734/734/734
f 732/732/732 523/523/523 539/539/539
f 539/539/539 746/746/746 732/732/732
f 523/523/523 520/520/520 750/750/750
f 750/750/750 539/539/539 523/523/523
f 524/524/524 541/541/541 749/749/749
f 749/749/749 733/733/733 524/524/524
f 537/537/537 495/495/495 492/492/492
f 748/748/748 541/541/541 753/753/753
f 754/754/754 745/745/745 493/493/493
f 493/493/493 494/494/494 754/754/754
f 544/544/544 543/543/543 542/542/542
f 542/542/542 545/545/545 544/544/544
f 548/548/548 547/547/547 546/546/546
f 546/546/546 549/549/549 548/548/548
f 552/552/552 551/551/551 550/550/550
f 550/550/550 553/553/553 552/552/552
f 556/556/556 555/555/555 554/554/554
f 554/554/554 557/557/557 556/556/556
f 560/560/560 559/559/559 558/558/558
f 558/558/558 561/561/561 560/560/560
f 564/564/564 563/563/563 562/562/562
f 562/562/562 565/565/565 564/564/564
f 568/568/568 567/567/567 566/566/566
f 566/566/566 569/569/569 568/568/568
f 572/572/572 571/571/571 570/570/570
f 570/570/570 573/573/573 572/572/572
f 576/576/576 575/575/575 574/574/574
f 574/574/574 577/577/577 576/576/576
f 580/580/580 579/579/579 578/578/578
f 578/578/578 581/581/581 580/580/580
f 720/720/720 583/583/583 582/582/582
f 582/582/582 712/712/712 720/720/720
f 711/711/711 585/585/585 584/584/584
f 584/584/584 721/721/721 711/711/711
f 663/663/663 587/587/587 586/586/586
f 682/682/682 679/679/679 662/662/662
f 547/547/547 589/589/589 588/588/588
f 588/588/588 659/659/659 547/547/547
f 718/718/718 580/580/580 581/581/581
f 581/581/581 710/710/710 718/718/718
f 713/713/713 568/568/568 569/569/569
f 569/569/569 719/719/719 713/713/713
f 680/680/680 665/665/665 544/544/544
f 544/544/544 545/545/545 680/680/680
f 670/670/670 548/548/548 549/549/549
f 549/549/549 658/658/658 670/670/670
f 590/590/590 560/560/560 681/681/681
f 681/681/681 591/591/591 590/590/590
f 691/691/691 680/680/680 545/545/545
f 545/545/545 592/592/592 691/691/691
f 545/545/545 542/542/542 593/593/593
f 593/593/593 592/592/592 545/545/545
f 679/679/679 682/682/682 594/594/594
f 594/594/594 690/690/690 679/679/679
f 594/594/594 585/585/585 711/711/711
f 711/711/711 690/690/690 594/594/594
f 593/593/593 567/567/567 568/568/568
f 568/568/568 592/592/592 593/593/593
f 592/592/592 568/568/568 713/713/713
f 713/713/713 691/691/691 592/592/592
f 692/692/692 571/571/571 572/572/572
f 572/572/572 590/590/590 692/692/692
f 557/557/557 554/554/554 666/666/666
f 666/666/666 559/559/559 557/557/557
f 658/658/658 549/549/549 544/544/544
f 544/544/544 665/665/665 658/658/658
f 549/549/549 546/546/546 664/664/664
f 664/664/664 544/544/544 549/549/549
f 659/659/659 588/588/588 587/587/587
f 587/587/587 663/663/663 659/659/659
f 564/564/564 565/565/565 671/671/671
f 671/671/671 556/556/556 564/564/564
f 683/683/683 552/552/552 548/548/548
f 548/548/548 670/670/670 683/683/683
f 552/552/552 553/553/553 672/672/672
f 672/672/672 548/548/548 552/552/552
f 685/685/685 595/595/595 589/589/589
f 589/589/589 547/547/547 685/685/685
f 577/577/577 574/574/574 704/704/704
f 704/704/704 563/563/563 577/577/577
f 710/710/710 581/581/581 597/597/597
f 597/597/597 703/703/703 710/710/710
f 581/581/581 578/578/578 701/701/701
f 701/701/701 597/597/597 581/581/581
f 582/582/582 599/599/599 700/700/700
f 700/700/700 712/712/712 582/582/582
f 595/595/595 685/685/685 699/699/699
f 699/699/699 599/599/599 595/595/595
f 683/683/683 702/702/702 551/551/551
f 551/551/551 552/552/552 683/683/683
f 602/602/602 601/601/601 600/600/600
f 600/600/600 603/603/603 602/602/602
f 606/606/606 605/605/605 604/604/604
f 604/604/604 607/607/607 606/606/606
f 610/610/610 609/609/609 608/608/608
f 608/608/608 611/611/611 610/610/610
f 614/614/614 613/613/613 612/612/612
f 612/612/612 615/615/615 614/614/614
f 618/618/618 617/617/617 616/616/616
f 616/616/616 619/619/619 618/618/618
f 622/622/622 621/621/621 620/620/620
f 620/620/620 623/623/623 622/622/622
f 626/626/626 625/625/625 624/624/624
f 624/624/624 627/627/627 626/626/626
f 630/630/630 629/629/629 628/628/628
f 628/628/628 631/631/631 630/630/630
f 634/634/634 633/633/633 632/632/632
f 632/632/632 635/635/635 634/634/634
f 638/638/638 637/637/637 636/636/636
f 636/636/636 639/639/639 638/638/638
f 716/716/716 641/641/641 640/640/640
f 640/640/640 707/707/707 716/716/716
f 708/708/708 643/643/643 642/642/642
f 642/642/642 717/717/717 708/708/708
f 667/667/667 645/645/645 644/644/644
f 644/644/644 676/676/676 667/667/667
f 605/605/605 647/647/647 646/646/646
f 646/646/646 661/661/661 605/605/605
f 714/714/714 638/638/638 639/639/639
f 639/639/639 706/706/706 714/714/714
f 709/709/709 626/626/626 627/627/627
f 627/627/627 715/715/715 709/709/709
f 677/677/677 668/668/668 602/602/602
f 602/602/602 603/603/603 677/677/677
f 673/673/673 606/606/606 607/607/607
f 607/607/607 660/660/660 673/673/673
f 648/648/648 618/618/618 678/678/678
f 678/678/678 649/649/649 648/648/648
f 688/688/688 677/677/677 603/603/603
f 603/603/603 650/650/650 688/688/688
f 603/603/603 600/600/600 651/651/651
f 651/651/651 650/650/650 603/603/603
f 676/676/676 644/644/644 652/652/652
f 652/652/652 687/687/687 676/676/676
f 652/652/652 643/643/643 708/708/708
f 708/708/708 687/687/687 652/652/652
f 651/651/651 625/625/625 626/626/626
f 626/626/626 650/650/650 651/651/651
f 650/650/650 626/626/626 709/709/709
f 709/709/709 688/688/688 650/650/650
f 689/689/689 629/629/629 630/630/630
f 630/630/630 648/648/648 689/689/689
f 615/615/615 612/612/612 669/669/669
f 669/669/669 617/617/617 615/615/615
f 660/660/660 607/607/607 602/602/602
f 602/602/602 668/668/668 660/660/660
f 607/607/607 604/604/604 667/667/667
f 667/667/667 602/602/602 607/607/607
f 661/661/661 646/646/646 675/675/675
f 645/645/645 667/667/667 604/604/604
f 622/622/622 623/623/623 674/674/674
f 674/674/674 614/614/614 622/622/622
f 684/684/684 610/610/610 606/606/606
f 606/606/606 673/673/673 684/684/684
f 610/610/610 611/611/611 605/605/605
f 605/605/605 606/606/606 610/610/610
f 611/611/611 653/653/653 647/647/647
f 647/647/647 605/605/605 611/611/611
f 635/635/635 632/632/632 695/695/695
f 654/654/654 621/621/621 705/705/705
f 706/706/706 639/639/639 655/655/655
f 655/655/655 694/694/694 706/706/706
f 639/639/639 636/636/636 698/698/698
f 698/698/698 655/655/655 639/639/639
f 640/640/640 657/657/657 697/697/697
f 697/697/697 707/707/707 640/640/640
f 653/653/653 611/611/611 608/608/608
f 696/696/696 657/657/657 686/686/686
f 684/684/684 693/693/693 609/609/609
f 609/609/609 610/610/610 684/684/684
