mtllib G3_Object_Candle_02.mtl
o G3_Object_Candle_02_0
usemtl G3_Objects_Potion_01_C
v 0.057441 0.000152 -0.033164
v 0.033164 0.000152 -0.057444
v 0.033794 0.012548 -0.058535
v 0.058535 0.012548 -0.033796
v 0.000000 0.000152 -0.066331
v 0.000000 0.012548 -0.067590
v -0.033164 0.000152 -0.057444
v -0.033794 0.012548 -0.058535
v -0.057446 0.000152 -0.033164
v -0.058535 0.012548 -0.033796
v -0.066333 0.000152 -0.000000
v -0.067593 0.012548 -0.000000
v -0.057446 0.000152 0.033167
v -0.058535 0.012548 0.033796
v -0.033164 0.000152 0.057444
v -0.033794 0.012548 0.058535
v 0.000000 0.000152 0.066331
v 0.000000 0.012548 0.067590
v 0.033164 0.000152 0.057444
v 0.033794 0.012548 0.058535
v 0.057441 0.000152 0.033167
v 0.058535 0.012548 0.033796
v 0.066328 0.000152 -0.000000
v 0.067593 0.012548 -0.000000
v 0.057441 0.000152 -0.033164
v 0.058535 0.012548 -0.033796
v 0.066328 0.000152 -0.000000
v 0.057441 0.000152 0.033167
v 0.033164 0.000152 0.057444
v 0.000000 0.000152 0.066331
v -0.033164 0.000152 0.057444
v -0.057446 0.000152 0.033167
v -0.066333 0.000152 -0.000000
v -0.057446 0.000152 -0.033164
v -0.033164 0.000152 -0.057444
v 0.000000 0.000152 -0.066331
v 0.033164 0.000152 -0.057444
v 0.057441 0.000152 -0.033164
v -0.027139 0.082008 0.047004
v 0.000000 0.082008 0.054277
v 0.000000 0.091113 0.052454
v -0.026226 0.091113 0.045425
v -0.047007 0.082008 0.027139
v -0.045425 0.091113 0.026226
v -0.054277 0.082008 -0.000000
v -0.052451 0.091113 -0.000000
v -0.047007 0.082008 -0.027139
v -0.045425 0.091113 -0.026226
v -0.027139 0.082008 -0.047004
v -0.026226 0.091113 -0.045425
v 0.000000 0.082008 -0.054275
v 0.000000 0.091113 -0.052451
v 0.027139 0.082008 -0.047004
v 0.026226 0.091113 -0.045425
v 0.047007 0.082008 -0.027139
v 0.045425 0.091113 -0.026226
v 0.054277 0.082008 -0.000000
v 0.047007 0.082008 -0.027139
v 0.045425 0.091113 -0.026226
v 0.052451 0.091113 -0.000000
v 0.047007 0.082008 0.027139
v 0.045425 0.091113 0.026226
v 0.027139 0.082008 0.047004
v 0.026226 0.091113 0.045425
v 0.000000 0.015440 0.063430
v -0.031714 0.015440 0.054934
v -0.054932 0.015440 0.031716
v -0.063433 0.015440 -0.000000
v -0.054932 0.015440 -0.031716
v -0.031714 0.015440 -0.054932
v 0.000000 0.015440 -0.063430
v 0.031714 0.015440 -0.054932
v 0.054932 0.015440 -0.031716
v 0.054932 0.015440 -0.031716
v 0.063433 0.015440 -0.000000
v 0.054932 0.015440 0.031716
v 0.031714 0.015440 0.054934
v -0.044326 0.079459 0.025593
v -0.025591 0.079459 0.044326
v -0.051187 0.079459 -0.000000
v -0.044326 0.079459 -0.025593
v -0.025591 0.079459 -0.044326
v 0.000000 0.079459 -0.051184
v 0.025591 0.079459 -0.044326
v 0.044326 0.079459 -0.025593
v 0.051187 0.079459 -0.000000
v 0.044326 0.079459 -0.025593
v 0.044326 0.079459 0.025593
v 0.025591 0.079459 0.044326
v 0.000000 0.079459 0.051184
v 0.045425 0.091113 -0.026226
v 0.026226 0.091113 -0.045425
v 0.022964 0.091113 -0.039771
v 0.039771 0.091113 -0.022961
v 0.000000 0.091113 -0.052451
v 0.000000 0.091113 -0.045923
v -0.026226 0.091113 -0.045425
v -0.022964 0.091113 -0.039771
v -0.045425 0.091113 -0.026226
v -0.039771 0.091113 -0.022961
v -0.052451 0.091113 -0.000000
v -0.045923 0.091113 -0.000000
v -0.045425 0.091113 0.026226
v -0.039771 0.091113 0.022961
v -0.026226 0.091113 0.045425
v -0.022964 0.091113 0.039771
v 0.000000 0.091113 0.052454
v 0.000000 0.091113 0.045925
v 0.026226 0.091113 0.045425
v 0.022964 0.091113 0.039771
v 0.045425 0.091113 0.026226
v 0.039771 0.091113 0.022961
v 0.052451 0.091113 -0.000000
v 0.045923 0.091113 -0.000000
v 0.045425 0.091113 -0.026226
v 0.039771 0.091113 -0.022961
v 0.025430 0.095817 -0.044048
v 0.044048 0.095817 -0.025430
v 0.036592 0.077486 -0.021125
v 0.021128 0.077486 -0.036592
v 0.000000 0.095817 -0.050862
v 0.000000 0.077486 -0.042251
v -0.025430 0.095817 -0.044048
v -0.021128 0.077486 -0.036592
v -0.044048 0.095817 -0.025430
v -0.036592 0.077486 -0.021125
v -0.050859 0.095817 -0.000000
v -0.042251 0.077486 -0.000000
v -0.044048 0.095817 0.025432
v -0.036592 0.077486 0.021125
v -0.025430 0.095817 0.044048
v -0.021128 0.077486 0.036592
v 0.000000 0.095817 0.050862
v 0.000000 0.077486 0.042251
v 0.025430 0.095817 0.044048
v 0.021128 0.077486 0.036592
v 0.044048 0.095817 0.025432
v 0.036592 0.077486 0.021125
v 0.050859 0.095817 -0.000000
v 0.042251 0.077486 -0.000000
v 0.044048 0.095817 -0.025430
v 0.036592 0.077486 -0.021125
v 0.028184 0.120742 -0.048813
v 0.048813 0.120742 -0.028181
v 0.000000 0.120742 -0.056365
v -0.028184 0.120742 -0.048813
v -0.048813 0.120742 -0.028181
v -0.056362 0.120742 -0.000000
v -0.048813 0.120742 0.028181
v -0.028184 0.120742 0.048813
v 0.000000 0.120742 0.056365
v 0.028184 0.120742 0.048813
v 0.048813 0.120742 0.028181
v 0.056362 0.120742 -0.000000
v 0.048813 0.120742 -0.028181
v 0.029956 0.143804 -0.051887
v 0.051890 0.143804 -0.029958
v 0.000000 0.143804 -0.059915
v -0.029956 0.143804 -0.051887
v -0.051890 0.143804 -0.029958
v -0.059917 0.143804 -0.000000
v -0.051890 0.143804 0.029958
v -0.029956 0.143804 0.051887
v 0.000000 0.143804 0.059915
v 0.029956 0.143804 0.051887
v 0.051890 0.143804 0.029958
v 0.059917 0.143804 -0.000000
v 0.051890 0.143804 -0.029958
v 0.029312 0.166559 -0.050767
v 0.050767 0.166559 -0.029312
v 0.000000 0.166559 -0.058621
v -0.029312 0.166559 -0.050767
v -0.050767 0.166559 -0.029312
v -0.058623 0.166559 -0.000000
v -0.050767 0.166559 0.029312
v -0.029312 0.166559 0.050767
v 0.000000 0.166559 0.058621
v 0.029312 0.166559 0.050767
v 0.050767 0.166559 0.029312
v 0.058623 0.166559 -0.000000
v 0.050767 0.166559 -0.029312
v 0.027261 0.189938 -0.047219
v 0.047222 0.189938 -0.027263
v 0.000000 0.189938 -0.054524
v -0.027261 0.189938 -0.047219
v -0.047222 0.189938 -0.027263
v -0.054526 0.189938 -0.000000
v -0.047222 0.189938 0.027263
v -0.027261 0.189938 0.047219
v 0.000000 0.189938 0.054524
v 0.027261 0.189938 0.047219
v 0.047222 0.189938 0.027263
v 0.054526 0.189938 -0.000000
v 0.047222 0.189938 -0.027263
v 0.018145 0.231145 -0.031428
v 0.031431 0.231145 -0.018145
v 0.000000 0.231145 -0.036292
v -0.018145 0.231145 -0.031428
v -0.031431 0.231145 -0.018145
v -0.036289 0.231145 -0.000000
v -0.031431 0.231145 0.018145
v -0.018145 0.231145 0.031428
v 0.000000 0.231145 0.036292
v 0.018145 0.231145 0.031428
v 0.031431 0.231145 0.018145
v 0.036289 0.231145 -0.000000
v 0.031431 0.231145 -0.018145
v 0.013350 0.255471 -0.023120
v 0.023120 0.255471 -0.013350
v 0.013574 0.295037 -0.023508
v 0.023506 0.295037 -0.013572
v 0.016567 0.318201 -0.028696
v 0.028696 0.318201 -0.016567
v 0.028149 0.300592 -0.016252
v 0.016250 0.300592 -0.028149
v 0.000000 0.255471 -0.026697
v 0.000000 0.295037 -0.027144
v 0.000000 0.318201 -0.033135
v 0.000000 0.300592 -0.032505
v -0.013350 0.255471 -0.023120
v -0.013569 0.295037 -0.023508
v -0.016567 0.318201 -0.028696
v -0.016250 0.300592 -0.028149
v -0.023120 0.255471 -0.013350
v -0.023506 0.295037 -0.013572
v -0.028696 0.318201 -0.016567
v -0.028149 0.300592 -0.016252
v -0.026699 0.255471 -0.000000
v -0.027144 0.295037 -0.000000
v -0.033135 0.318201 -0.000000
v -0.032505 0.300592 -0.000000
v -0.023120 0.255471 0.013350
v -0.023506 0.295037 0.013572
v -0.028696 0.318201 0.016567
v -0.028149 0.300592 0.016252
v -0.013350 0.255471 0.023120
v -0.013569 0.295037 0.023508
v -0.016567 0.318201 0.028696
v -0.016250 0.300592 0.028149
v 0.000000 0.255471 0.026697
v 0.000000 0.295037 0.027144
v 0.000000 0.318201 0.033135
v 0.000000 0.300592 0.032505
v 0.013350 0.255471 0.023120
v 0.013574 0.295037 0.023508
v 0.016567 0.318201 0.028696
v 0.016255 0.300592 0.028149
v 0.023120 0.255471 0.013350
v 0.023506 0.295037 0.013572
v 0.028696 0.318201 0.016567
v 0.028149 0.300592 0.016252
v 0.026699 0.255471 -0.000000
v 0.027144 0.295037 -0.000000
v 0.033135 0.318201 -0.000000
v 0.032505 0.300592 -0.000000
v 0.023120 0.255471 -0.013350
v 0.023506 0.295037 -0.013572
v 0.028696 0.318201 -0.016567
v 0.028149 0.300592 -0.016252
v 0.028696 0.318201 -0.016567
v 0.016567 0.318201 -0.028696
v 0.010850 0.320189 -0.018792
v 0.018789 0.320189 -0.010850
v 0.000000 0.318201 -0.033135
v 0.000000 0.320189 -0.021697
v -0.016567 0.318201 -0.028696
v -0.010850 0.320189 -0.018792
v -0.028696 0.318201 -0.016567
v -0.018789 0.320189 -0.010850
v -0.033135 0.318201 -0.000000
v -0.021694 0.320189 -0.000000
v -0.028696 0.318201 0.016567
v -0.018789 0.320189 0.010850
v -0.016567 0.318201 0.028696
v -0.010850 0.320189 0.018792
v 0.000000 0.318201 0.033135
v 0.000000 0.320189 0.021697
v 0.016567 0.318201 0.028696
v 0.010850 0.320189 0.018792
v 0.028696 0.318201 0.016567
v 0.018789 0.320189 0.010850
v 0.033135 0.318201 -0.000000
v 0.021699 0.320189 -0.000000
v 0.028696 0.318201 -0.016567
v 0.018789 0.320189 -0.010850
v 0.021782 0.370864 -0.013591
v 0.025303 0.372480 -0.000313
v 0.025332 0.338050 -0.000239
v 0.024990 0.333517 -0.016396
v 0.016699 0.333197 -0.028254
v 0.012153 0.369725 -0.023186
v 0.012153 0.369725 -0.023186
v 0.016699 0.333197 -0.028254
v 0.007271 0.336158 -0.032786
v 0.004888 0.369917 -0.028040
v -0.001504 0.338884 -0.034661
v -0.009409 0.342676 -0.029038
v -0.008008 0.371188 -0.026790
v -0.001660 0.370314 -0.032075
v -0.024126 0.372193 -0.013230
v -0.014351 0.371582 -0.022930
v -0.015093 0.343850 -0.024277
v -0.024272 0.341830 -0.013367
v -0.024126 0.372193 -0.013230
v -0.024272 0.341830 -0.013367
v -0.027861 0.342256 -0.000103
v -0.027734 0.372824 -0.000042
v -0.024302 0.342443 0.013174
v -0.024185 0.373199 0.013174
v -0.024185 0.373199 0.013174
v -0.024302 0.342443 0.013174
v -0.014541 0.342506 0.022917
v -0.014429 0.373324 0.022900
v -0.001216 0.342449 0.026487
v -0.001118 0.373210 0.026465
v 0.012129 0.372958 0.022854
v 0.012075 0.342323 0.022896
v 0.021782 0.372767 0.013044
v 0.012129 0.372958 0.022854
v 0.012075 0.342323 0.022896
v 0.021782 0.341561 0.013108
v 0.021914 0.428848 -0.013501
v 0.025239 0.431353 -0.000620
v 0.021782 0.370864 -0.013591
v 0.012651 0.426742 -0.022576
v 0.021914 0.428848 -0.013501
v 0.006797 0.423204 -0.024905
v -0.007271 0.424824 -0.025146
v 0.000532 0.420465 -0.029124
v -0.022783 0.430221 -0.011926
v -0.013105 0.427355 -0.021533
v -0.026470 0.433368 0.000928
v -0.022783 0.430221 -0.011926
v -0.023101 0.435858 0.013726
v -0.013594 0.437103 0.023047
v -0.023101 0.435858 0.013726
v -0.000581 0.436880 0.026289
v 0.012373 0.435619 0.022476
v 0.021787 0.433707 0.012595
v 0.012373 0.435619 0.022476
v 0.025239 0.431353 -0.000620
v 0.021914 0.428848 -0.013501
v 0.011035 0.425484 -0.006506
v 0.012690 0.427021 -0.000129
v 0.012651 0.426742 -0.022576
v 0.006421 0.424369 -0.011001
v 0.006797 0.423204 -0.024905
v 0.000054 0.424092 -0.012429
v 0.000532 0.420465 -0.029124
v -0.007271 0.424824 -0.025146
v -0.013105 0.427355 -0.021533
v -0.022783 0.430221 -0.011926
v -0.011172 0.426427 -0.005608
v -0.006387 0.424862 -0.010447
v -0.026470 0.433368 0.000928
v -0.012993 0.428248 0.000828
v -0.023101 0.435858 0.013726
v -0.011338 0.429783 0.007175
v -0.013594 0.437103 0.023047
v -0.006650 0.430633 0.011743
v -0.000581 0.436880 0.026289
v -0.000210 0.430633 0.013276
v 0.012373 0.435619 0.022476
v 0.006226 0.429878 0.011326
v 0.021787 0.433707 0.012595
v 0.010937 0.428589 0.006411
v 0.000039 0.425853 0.000420
v -0.009409 0.342676 -0.029038
v -0.015093 0.343850 -0.024277
v -0.014351 0.371582 -0.022930
v -0.008008 0.371188 -0.026790
v 0.020420 0.306109 -0.029836
v 0.019917 0.280039 -0.016787
v 0.013916 0.283433 -0.027351
v 0.002090 0.273550 -0.023433
v 0.003545 0.291457 -0.034236
v 0.010713 0.260758 -0.018225
v -0.005513 0.316504 -0.037573
v -0.005083 0.295607 -0.031611
v -0.013447 0.303830 -0.029324
v -0.013828 0.320682 -0.033147
v 0.007490 0.309364 -0.035811
v -0.009512 0.286979 -0.021309
v -0.019429 0.310843 -0.023792
v -0.027192 0.317878 -0.015583
v -0.021445 0.323870 -0.026926
v -0.026665 0.311549 -0.016372
v 0.029966 0.309624 -0.018508
v 0.000068 0.442094 -0.002490
v 0.002476 0.442094 -0.001099
v 0.002690 0.421486 0.000420
v -0.001289 0.421486 -0.001877
v 0.000068 0.442094 0.000293
v 0.000068 0.442094 -0.002490
v -0.001289 0.421486 -0.001877
v -0.001289 0.421486 0.002715
v 0.000039 0.458463 0.000420
v 0.000039 0.458463 0.000420
v -0.001289 0.421486 0.002715
v -0.001289 0.421486 -0.001877
v 0.002690 0.421486 0.000420
v 0.028359 0.307997 -0.000698
v 0.027588 0.321570 -0.018760
v 0.024370 0.313589 0.014187
v 0.018232 0.319653 -0.029180
v 0.018232 0.319653 -0.029180
v 0.007490 0.309364 -0.035811
v -0.005513 0.316504 -0.037573
v -0.013828 0.320682 -0.033147
v -0.013828 0.320682 -0.033147
v -0.021445 0.323870 -0.026926
v -0.021445 0.323870 -0.026926
v -0.027192 0.317878 -0.015583
v -0.027192 0.317878 -0.015583
v -0.031177 0.315741 -0.000698
v -0.027192 0.315741 0.014187
v -0.027192 0.315741 0.014187
v -0.016294 0.315741 0.025083
v -0.001411 0.315741 0.029072
v 0.013477 0.315711 0.025083
v 0.013477 0.315711 0.025083
v 0.019917 0.280039 -0.016787
v 0.029966 0.309624 -0.018508
v 0.028359 0.307997 -0.000698
v 0.029966 0.309624 -0.018508
v 0.020420 0.306109 -0.029836
v 0.020420 0.306109 -0.029836
v -0.003477 0.274710 -0.022505
v -0.021445 0.323870 -0.026926
v -0.013447 0.303830 -0.029324
v -0.007271 0.424824 -0.025146
v -0.005513 0.316504 -0.037573
v -0.005083 0.295607 -0.031611
v -0.001660 0.370314 -0.032075
v -0.001504 0.338884 -0.034661
v -0.001289 0.421486 0.002715
v 0.000039 0.458463 0.000420
v 0.000068 0.442094 0.000293
v 0.000532 0.420465 -0.029124
v 0.002476 0.442094 -0.001099
v 0.002690 0.421486 0.000420
v 0.002690 0.421486 0.000420
v 0.006797 0.423204 -0.024905
v 0.007490 0.309364 -0.035811
v 0.025239 0.431353 -0.000620
v 0.029966 0.309624 -0.018508
v 0.029966 0.309624 -0.018508
v 0.066328 0.000152 -0.000000
v 0.066328 0.000152 -0.000000
vt 0.515806 0.008889
vt 0.555334 0.008889
vt 0.555334 0.022477
vt 0.515806 0.022477
vt 0.594862 0.008889
vt 0.594862 0.022477
vt 0.634390 0.008889
vt 0.634390 0.022477
vt 0.673918 0.008889
vt 0.673918 0.022477
vt 0.713446 0.008889
vt 0.713446 0.022477
vt 0.752974 0.008889
vt 0.752974 0.022477
vt 0.792502 0.008889
vt 0.792502 0.022477
vt 0.832030 0.008889
vt 0.832030 0.022477
vt 0.871558 0.008889
vt 0.871558 0.022477
vt 0.911086 0.008889
vt 0.911086 0.022477
vt 0.950614 0.008889
vt 0.950614 0.022477
vt 0.990142 0.008889
vt 0.990142 0.022477
vt 0.412092 0.307164
vt 0.375464 0.343792
vt 0.325430 0.357198
vt 0.275396 0.343792
vt 0.238768 0.307164
vt 0.225361 0.257130
vt 0.238768 0.207096
vt 0.275396 0.170468
vt 0.325430 0.157061
vt 0.375464 0.170468
vt 0.412092 0.207096
vt 0.425499 0.257130
vt 0.792502 0.144761
vt 0.832030 0.144761
vt 0.832030 0.158758
vt 0.792502 0.158758
vt 0.752974 0.144761
vt 0.752974 0.158758
vt 0.713446 0.144761
vt 0.713446 0.158758
vt 0.673918 0.144761
vt 0.673918 0.158758
vt 0.634390 0.144761
vt 0.634390 0.158758
vt 0.594862 0.144761
vt 0.594862 0.158758
vt 0.555334 0.144761
vt 0.555334 0.158758
vt 0.515806 0.144761
vt 0.515806 0.158758
vt 0.950614 0.144761
vt 0.990142 0.144761
vt 0.990142 0.158758
vt 0.950614 0.158758
vt 0.911086 0.144761
vt 0.911086 0.158758
vt 0.871558 0.144761
vt 0.871558 0.158758
vt 0.832030 0.033482
vt 0.792502 0.033482
vt 0.752974 0.033482
vt 0.713446 0.033482
vt 0.673918 0.033482
vt 0.634390 0.033482
vt 0.594862 0.033482
vt 0.555334 0.033482
vt 0.515806 0.033482
vt 0.990142 0.033482
vt 0.950614 0.033482
vt 0.911086 0.033482
vt 0.871558 0.033482
vt 0.752974 0.132533
vt 0.792502 0.132533
vt 0.713446 0.132533
vt 0.673918 0.132533
vt 0.634390 0.132533
vt 0.594862 0.132533
vt 0.555334 0.132533
vt 0.515806 0.132533
vt 0.950614 0.132533
vt 0.990142 0.132533
vt 0.911086 0.132533
vt 0.871558 0.132533
vt 0.832030 0.132533
vt 0.515806 0.158758
vt 0.555334 0.158758
vt 0.555334 0.175517
vt 0.515806 0.175517
vt 0.594862 0.158758
vt 0.594862 0.175517
vt 0.634390 0.158758
vt 0.634390 0.175517
vt 0.673918 0.158758
vt 0.673918 0.175517
vt 0.713446 0.158758
vt 0.713446 0.175517
vt 0.752974 0.158758
vt 0.752974 0.175517
vt 0.792502 0.158758
vt 0.792502 0.175517
vt 0.832030 0.158758
vt 0.832030 0.175517
vt 0.871558 0.158758
vt 0.871558 0.175517
vt 0.911086 0.158758
vt 0.911086 0.175517
vt 0.950614 0.158758
vt 0.950614 0.175517
vt 0.990142 0.158758
vt 0.990142 0.175517
vt 0.556128 0.343129
vt 0.516363 0.343129
vt 0.516363 0.283481
vt 0.556128 0.283481
vt 0.595892 0.343129
vt 0.595892 0.283481
vt 0.635657 0.343129
vt 0.635657 0.283481
vt 0.675422 0.343129
vt 0.675422 0.283481
vt 0.715187 0.343129
vt 0.715187 0.283481
vt 0.754952 0.343129
vt 0.754952 0.283481
vt 0.794717 0.343129
vt 0.794717 0.283481
vt 0.834482 0.343129
vt 0.834482 0.283481
vt 0.874247 0.343129
vt 0.874247 0.283481
vt 0.914012 0.343129
vt 0.914012 0.283481
vt 0.953776 0.343129
vt 0.953776 0.283481
vt 0.993541 0.343129
vt 0.993541 0.283481
vt 0.556128 0.402776
vt 0.516363 0.402776
vt 0.595892 0.402776
vt 0.635657 0.402776
vt 0.675422 0.402776
vt 0.715187 0.402776
vt 0.754952 0.402776
vt 0.794717 0.402776
vt 0.834482 0.402776
vt 0.874247 0.402776
vt 0.914012 0.402776
vt 0.953776 0.402776
vt 0.993541 0.402776
vt 0.556128 0.462423
vt 0.516363 0.462423
vt 0.595892 0.462423
vt 0.635657 0.462423
vt 0.675422 0.462423
vt 0.715187 0.462423
vt 0.754952 0.462423
vt 0.794717 0.462423
vt 0.834482 0.462423
vt 0.874247 0.462423
vt 0.914012 0.462423
vt 0.953776 0.462423
vt 0.993541 0.462423
vt 0.556128 0.522071
vt 0.516363 0.522071
vt 0.595892 0.522071
vt 0.635657 0.522071
vt 0.675422 0.522071
vt 0.715187 0.522071
vt 0.754952 0.522071
vt 0.794717 0.522071
vt 0.834482 0.522071
vt 0.874247 0.522071
vt 0.914012 0.522071
vt 0.953776 0.522071
vt 0.993541 0.522071
vt 0.556128 0.581718
vt 0.516363 0.581718
vt 0.595892 0.581718
vt 0.635657 0.581718
vt 0.675422 0.581718
vt 0.715187 0.581718
vt 0.754952 0.581718
vt 0.794717 0.581718
vt 0.834482 0.581718
vt 0.874247 0.581718
vt 0.914012 0.581718
vt 0.953776 0.581718
vt 0.993541 0.581718
vt 0.556128 0.694470
vt 0.516363 0.694470
vt 0.595892 0.694470
vt 0.635657 0.694470
vt 0.675422 0.694470
vt 0.715187 0.694470
vt 0.754952 0.694470
vt 0.794717 0.694470
vt 0.834482 0.694470
vt 0.874247 0.694470
vt 0.914012 0.694470
vt 0.953776 0.694470
vt 0.993541 0.694470
vt 0.556128 0.749636
vt 0.516363 0.749636
vt 0.556128 0.856411
vt 0.516363 0.856411
vt 0.556128 0.956066
vt 0.516363 0.956066
vt 0.516363 0.900900
vt 0.556128 0.900900
vt 0.595892 0.749636
vt 0.595892 0.856411
vt 0.595892 0.956066
vt 0.595892 0.900900
vt 0.635657 0.749636
vt 0.635657 0.856411
vt 0.635657 0.956066
vt 0.635657 0.900900
vt 0.675422 0.749636
vt 0.675422 0.856411
vt 0.675422 0.956066
vt 0.675422 0.900900
vt 0.715187 0.749636
vt 0.715187 0.856411
vt 0.715187 0.956066
vt 0.715187 0.900900
vt 0.754952 0.749636
vt 0.754952 0.856411
vt 0.754952 0.956066
vt 0.754952 0.900900
vt 0.794717 0.749636
vt 0.794717 0.856411
vt 0.794717 0.956066
vt 0.794717 0.900900
vt 0.834482 0.749636
vt 0.834482 0.856411
vt 0.834482 0.956066
vt 0.834482 0.900900
vt 0.874247 0.749636
vt 0.874247 0.856411
vt 0.874247 0.956066
vt 0.874247 0.900900
vt 0.914012 0.749636
vt 0.914012 0.856411
vt 0.914012 0.956066
vt 0.914012 0.900900
vt 0.953776 0.749636
vt 0.953776 0.856411
vt 0.953776 0.956066
vt 0.953776 0.900900
vt 0.993541 0.749636
vt 0.993541 0.856411
vt 0.993541 0.956066
vt 0.993541 0.900900
vt 0.516363 0.956066
vt 0.556128 0.956066
vt 0.556128 0.989878
vt 0.516363 0.989878
vt 0.595892 0.956066
vt 0.595892 0.989878
vt 0.635657 0.956066
vt 0.635657 0.989878
vt 0.675422 0.956066
vt 0.675422 0.989878
vt 0.715187 0.956066
vt 0.715187 0.989878
vt 0.754952 0.956066
vt 0.754952 0.989878
vt 0.794717 0.956066
vt 0.794717 0.989878
vt 0.834482 0.956066
vt 0.834482 0.989878
vt 0.874247 0.956066
vt 0.874247 0.989878
vt 0.914012 0.956066
vt 0.914012 0.989878
vt 0.953776 0.956066
vt 0.953776 0.989878
vt 0.993541 0.956066
vt 0.993541 0.989878
vt 0.101710 0.530433
vt 0.065801 0.531519
vt 0.065600 0.463908
vt 0.101589 0.463365
vt 0.127322 0.465283
vt 0.127663 0.529192
vt 0.157969 0.529192
vt 0.156706 0.465283
vt 0.174103 0.469774
vt 0.177621 0.528938
vt 0.194901 0.471554
vt 0.216284 0.467700
vt 0.212487 0.529008
vt 0.195328 0.528684
vt 0.256082 0.530689
vt 0.229652 0.529332
vt 0.230058 0.465397
vt 0.256475 0.463493
vt 0.364906 0.530689
vt 0.364542 0.463493
vt 0.400412 0.464194
vt 0.400578 0.532091
vt 0.436315 0.464611
vt 0.436316 0.532925
vt 0.261397 0.532925
vt 0.261087 0.464611
vt 0.287480 0.464750
vt 0.287781 0.533202
vt 0.323515 0.464623
vt 0.323781 0.532949
vt 0.359606 0.532390
vt 0.359461 0.464343
vt 0.029680 0.531964
vt 0.003150 0.532390
vt 0.003039 0.464343
vt 0.029506 0.464131
vt 0.101469 0.656529
vt 0.066634 0.662094
vt 0.131926 0.530433
vt 0.156619 0.651852
vt 0.131572 0.656529
vt 0.172460 0.643993
vt 0.210494 0.647592
vt 0.189394 0.637910
vt 0.252447 0.659580
vt 0.226277 0.653214
vt 0.403195 0.666569
vt 0.368432 0.659580
vt 0.437810 0.672101
vt 0.290049 0.674865
vt 0.264330 0.672101
vt 0.325241 0.674371
vt 0.360269 0.671569
vt 0.030895 0.667322
vt 0.004173 0.671569
vt 0.382972 0.697366
vt 0.413591 0.677677
vt 0.424063 0.711866
vt 0.408716 0.721526
vt 0.448584 0.676011
vt 0.441492 0.711113
vt 0.466036 0.682497
vt 0.456347 0.719438
vt 0.487110 0.685629
vt 0.492338 0.706193
vt 0.495567 0.723068
vt 0.495348 0.758768
vt 0.464325 0.752330
vt 0.464680 0.734534
vt 0.477789 0.790516
vt 0.455335 0.768111
vt 0.447239 0.809967
vt 0.440027 0.777705
vt 0.411862 0.811932
vt 0.422490 0.778551
vt 0.381415 0.795803
vt 0.407488 0.770393
vt 0.364178 0.765709
vt 0.399091 0.755362
vt 0.364799 0.729644
vt 0.399557 0.737465
vt 0.432616 0.745113
vt 0.133762 0.729654
vt 0.154926 0.727347
vt 0.155009 0.791206
vt 0.135951 0.791259
vt 0.028443 0.717785
vt 0.036086 0.675479
vt 0.052037 0.697752
vt 0.094725 0.715190
vt 0.071895 0.724058
vt 0.075631 0.677719
vt 0.067147 0.756814
vt 0.084224 0.756774
vt 0.072874 0.790350
vt 0.051028 0.782421
vt 0.049065 0.732925
vt 0.094719 0.798279
vt 0.075621 0.835758
vt 0.002928 0.819208
vt 0.029332 0.792805
vt 0.035880 0.844588
vt 0.002928 0.694266
vt 0.150411 0.804658
vt 0.146996 0.804658
vt 0.146996 0.779244
vt 0.150411 0.779244
vt 0.143580 0.804658
vt 0.140164 0.804658
vt 0.140164 0.779244
vt 0.143580 0.779244
vt 0.146996 0.830071
vt 0.140164 0.830071
vt 0.148871 0.791951
vt 0.139996 0.791951
vt 0.144434 0.830071
vt 0.065400 0.396297
vt 0.101528 0.429831
vt 0.029332 0.396297
vt 0.127152 0.433328
vt 0.156075 0.433328
vt 0.170584 0.410610
vt 0.194473 0.414424
vt 0.220080 0.406391
vt 0.131572 0.668050
vt 0.154843 0.663489
vt 0.230464 0.401462
vt 0.256867 0.396297
vt 0.364178 0.396297
vt 0.400246 0.396297
vt 0.436313 0.396297
vt 0.260777 0.396297
vt 0.287180 0.396297
vt 0.323248 0.396297
vt 0.359316 0.396297
vt 0.002928 0.396297
vt 0.036086 0.675479
vt 0.002928 0.694266
vt 0.065400 0.396297
vt 0.101467 0.396297
vt 0.126981 0.401374
vt 0.155444 0.401374
vt 0.101301 0.756734
vt 0.029332 0.792805
vt 0.072874 0.790350
vt 0.210494 0.647592
vt 0.067147 0.756814
vt 0.084224 0.756774
vt 0.195328 0.528684
vt 0.194901 0.471554
vt 0.143580 0.779244
vt 0.146996 0.830071
vt 0.143580 0.804658
vt 0.189394 0.637910
vt 0.146996 0.804658
vt 0.146996 0.779244
vt 0.146996 0.779244
vt 0.172460 0.643993
vt 0.049065 0.732925
vt 0.382972 0.697366
vt 0.101467 0.396297
vt 0.101467 0.396297
vt 0.412092 0.307164
vt 0.412092 0.307164
vn 0.861583 -0.101155 -0.497437
vn 0.497437 -0.101138 -0.861584
vn 0.460615 0.389029 -0.797803
vn 0.797805 0.389027 -0.460613
vn -0.000003 -0.101148 -0.994871
vn -0.000002 0.389019 -0.921230
vn -0.497433 -0.101137 -0.861587
vn -0.460613 0.389029 -0.797804
vn -0.861585 -0.101147 -0.497434
vn -0.797806 0.389026 -0.460614
vn -0.994871 -0.101150 0.000001
vn -0.921227 0.389025 0.000000
vn -0.861585 -0.101145 0.497435
vn -0.797806 0.389025 0.460614
vn -0.497436 -0.101138 0.861585
vn -0.460615 0.389030 0.797803
vn 0.000002 -0.101148 0.994871
vn 0.000001 0.389019 0.921230
vn 0.497433 -0.101138 0.861587
vn 0.460613 0.389030 0.797804
vn 0.861584 -0.101156 0.497434
vn 0.797806 0.389027 0.460612
vn 0.994871 -0.101151 0.000001
vn 0.921227 0.389025 0.000000
vn 0.861583 -0.101155 -0.497437
vn 0.797805 0.389027 -0.460613
vn 0.000000 -1.000000 -0.000000
vn 0.000000 -1.000000 -0.000000
vn 0.000000 -1.000000 -0.000000
vn 0.000000 -1.000000 -0.000000
vn 0.000000 -1.000000 -0.000000
vn 0.000000 -1.000000 -0.000000
vn 0.000000 -1.000000 -0.000000
vn 0.000000 -1.000000 -0.000000
vn 0.000000 -1.000000 -0.000000
vn 0.000000 -1.000000 -0.000000
vn 0.000000 -1.000000 -0.000000
vn 0.000000 -1.000000 -0.000000
vn -0.475175 -0.311168 0.823033
vn -0.000000 -0.311152 0.950360
vn 0.000003 0.196397 0.980525
vn -0.490264 0.196412 0.849155
vn -0.823038 -0.311155 0.475176
vn -0.849157 0.196412 0.490260
vn -0.950360 -0.311154 0.000000
vn -0.980522 0.196411 0.000001
vn -0.823037 -0.311156 -0.475177
vn -0.849156 0.196413 -0.490261
vn -0.475178 -0.311164 -0.823033
vn -0.490257 0.196417 -0.849157
vn 0.000003 -0.311150 -0.950361
vn 0.000001 0.196393 -0.980525
vn 0.475178 -0.311159 -0.823035
vn 0.490260 0.196387 -0.849163
vn 0.823034 -0.311163 -0.475176
vn 0.849157 0.196410 -0.490260
vn 0.950360 -0.311152 0.000000
vn 0.823034 -0.311163 -0.475176
vn 0.849157 0.196410 -0.490260
vn 0.980525 0.196397 -0.000003
vn 0.823035 -0.311164 0.475174
vn 0.849156 0.196412 0.490262
vn 0.475175 -0.311162 0.823035
vn 0.490260 0.196410 0.849158
vn 0.000000 0.575353 0.817906
vn -0.408951 0.575359 0.708323
vn -0.708324 0.575359 0.408949
vn -0.817901 0.575360 -0.000000
vn -0.708324 0.575359 -0.408949
vn -0.408950 0.575358 -0.708324
vn -0.000001 0.575353 -0.817906
vn 0.408951 0.575359 -0.708323
vn 0.708320 0.575365 -0.408948
vn 0.708320 0.575365 -0.408948
vn 0.817900 0.575361 -0.000001
vn 0.708319 0.575365 0.408949
vn 0.408951 0.575359 0.708323
vn -0.804732 -0.369511 0.464615
vn -0.464610 -0.369525 0.804729
vn -0.929228 -0.369508 -0.000000
vn -0.804732 -0.369510 -0.464617
vn -0.464614 -0.369526 -0.804727
vn 0.000002 -0.369497 -0.929232
vn 0.464619 -0.369498 -0.804737
vn 0.804726 -0.369520 -0.464618
vn 0.929232 -0.369497 0.000002
vn 0.804726 -0.369520 -0.464618
vn 0.804729 -0.369519 0.464615
vn 0.464617 -0.369520 0.804727
vn -0.000003 -0.369497 0.929232
vn 0.000000 1.000000 -0.000000
vn 0.000000 1.000000 -0.000000
vn 0.000000 1.000000 -0.000000
vn 0.000000 1.000000 -0.000000
vn 0.000000 1.000000 -0.000000
vn 0.000000 1.000000 -0.000000
vn 0.000000 1.000000 -0.000000
vn 0.000000 1.000000 -0.000000
vn 0.000000 1.000000 -0.000000
vn 0.000000 1.000000 -0.000000
vn 0.000000 1.000000 -0.000000
vn 0.000000 1.000000 -0.000000
vn 0.000000 1.000000 -0.000000
vn 0.000000 1.000000 -0.000000
vn 0.000000 1.000000 -0.000000
vn 0.000000 1.000000 -0.000000
vn 0.000000 1.000000 -0.000000
vn 0.000000 1.000000 -0.000000
vn 0.000000 1.000000 -0.000000
vn 0.000000 1.000000 -0.000000
vn 0.000000 1.000000 -0.000000
vn 0.000000 1.000000 -0.000000
vn 0.000000 1.000000 -0.000000
vn 0.000000 1.000000 -0.000000
vn 0.000000 1.000000 -0.000000
vn 0.000000 1.000000 -0.000000
vn 0.474225 -0.316909 -0.821388
vn 0.821390 -0.316906 -0.474226
vn 0.783868 -0.425141 -0.452554
vn 0.452553 -0.425152 -0.783863
vn -0.000001 -0.316911 -0.948455
vn 0.000000 -0.425145 -0.905125
vn -0.474227 -0.316909 -0.821387
vn -0.452565 -0.425154 -0.783855
vn -0.821387 -0.316913 -0.474225
vn -0.783860 -0.425153 -0.452558
vn -0.948455 -0.316912 -0.000000
vn -0.905124 -0.425148 -0.000003
vn -0.821388 -0.316910 0.474226
vn -0.783862 -0.425149 0.452558
vn -0.474228 -0.316911 0.821386
vn -0.452561 -0.425151 0.783860
vn 0.000001 -0.316911 0.948455
vn -0.000007 -0.425144 0.905126
vn 0.474225 -0.316909 0.821389
vn 0.452559 -0.425150 0.783861
vn 0.821388 -0.316907 0.474228
vn 0.783864 -0.425141 0.452562
vn 0.948455 -0.316912 -0.000003
vn 0.905125 -0.425145 -0.000005
vn 0.821390 -0.316906 -0.474226
vn 0.783868 -0.425141 -0.452554
vn 0.491553 -0.183022 -0.851398
vn 0.851397 -0.183023 -0.491555
vn -0.000001 -0.183023 -0.983109
vn -0.491556 -0.183023 -0.851396
vn -0.851397 -0.183023 -0.491555
vn -0.983108 -0.183026 0.000001
vn -0.851397 -0.183023 0.491554
vn -0.491556 -0.183021 0.851396
vn -0.000000 -0.183023 0.983109
vn 0.491553 -0.183023 0.851398
vn 0.851396 -0.183020 0.491557
vn 0.983108 -0.183026 -0.000002
vn 0.851397 -0.183023 -0.491555
vn 0.499445 -0.047150 -0.865062
vn 0.865063 -0.047147 -0.499444
vn -0.000001 -0.047149 -0.998888
vn -0.499446 -0.047148 -0.865061
vn -0.865063 -0.047149 -0.499443
vn -0.998888 -0.047148 -0.000000
vn -0.865063 -0.047149 0.499443
vn -0.499446 -0.047149 0.865061
vn -0.000001 -0.047149 0.998888
vn 0.499445 -0.047150 0.865061
vn 0.865062 -0.047148 0.499444
vn 0.998888 -0.047146 0.000000
vn 0.865063 -0.047147 -0.499444
vn 0.496753 0.113802 -0.860399
vn 0.860399 0.113801 -0.496752
vn -0.000001 0.113801 -0.993504
vn -0.496753 0.113802 -0.860399
vn -0.860400 0.113801 -0.496751
vn -0.993503 0.113804 -0.000001
vn -0.860399 0.113802 0.496752
vn -0.496754 0.113804 0.860398
vn -0.000000 0.113801 0.993504
vn 0.496752 0.113801 0.860399
vn 0.860400 0.113800 0.496752
vn 0.993504 0.113801 -0.000000
vn 0.860399 0.113801 -0.496752
vn 0.479213 0.285343 -0.830020
vn 0.830020 0.285341 -0.479216
vn -0.000001 0.285346 -0.958425
vn -0.479212 0.285346 -0.830020
vn -0.830020 0.285346 -0.479213
vn -0.958425 0.285346 -0.000000
vn -0.830020 0.285344 0.479214
vn -0.479212 0.285344 0.830021
vn -0.000002 0.285346 0.958425
vn 0.479213 0.285343 0.830021
vn 0.830020 0.285342 0.479215
vn 0.958427 0.285339 -0.000000
vn 0.830020 0.285341 -0.479216
vn 0.461026 0.387053 -0.798527
vn 0.798524 0.387054 -0.461031
vn -0.000001 0.387056 -0.922056
vn -0.461034 0.387052 -0.798522
vn -0.798527 0.387053 -0.461026
vn -0.922058 0.387051 0.000000
vn -0.798526 0.387055 0.461025
vn -0.461033 0.387055 0.798522
vn -0.000002 0.387056 0.922056
vn 0.461026 0.387053 0.798527
vn 0.798524 0.387054 0.461030
vn 0.922058 0.387051 0.000001
vn 0.798524 0.387054 -0.461031
vn 0.491163 0.187089 -0.850739
vn 0.850733 0.187091 -0.491172
vn 0.457624 -0.402855 -0.792647
vn 0.792640 -0.402860 -0.457630
vn 0.499678 -0.035755 -0.865473
vn 0.865477 -0.035746 -0.499672
vn 0.804156 -0.371180 -0.464284
vn 0.464272 -0.371179 -0.804163
vn -0.000001 0.187092 -0.982342
vn -0.000004 -0.402851 -0.915266
vn -0.000002 -0.035761 -0.999360
vn -0.000005 -0.371179 -0.928561
vn -0.491170 0.187092 -0.850734
vn -0.457630 -0.402853 -0.792644
vn -0.499690 -0.035754 -0.865466
vn -0.464284 -0.371172 -0.804159
vn -0.850733 0.187089 -0.491173
vn -0.792645 -0.402848 -0.457633
vn -0.865471 -0.035732 -0.499683
vn -0.804160 -0.371161 -0.464292
vn -0.982344 0.187085 0.000002
vn -0.915265 -0.402852 -0.000001
vn -0.999361 -0.035734 -0.000018
vn -0.928565 -0.371169 -0.000010
vn -0.850734 0.187088 0.491172
vn -0.792639 -0.402865 0.457628
vn -0.865477 -0.035736 0.499672
vn -0.804158 -0.371178 0.464281
vn -0.491168 0.187090 0.850736
vn -0.457626 -0.402855 0.792645
vn -0.499673 -0.035749 0.865476
vn -0.464273 -0.371176 0.804164
vn -0.000006 0.187093 0.982342
vn -0.000004 -0.402851 0.915266
vn -0.000001 -0.035761 0.999360
vn -0.000005 -0.371179 0.928561
vn 0.491167 0.187090 0.850736
vn 0.457623 -0.402858 0.792645
vn 0.499679 -0.035762 0.865472
vn 0.464274 -0.371181 0.804161
vn 0.850732 0.187091 0.491175
vn 0.792635 -0.402868 0.457632
vn 0.865478 -0.035752 0.499670
vn 0.804155 -0.371184 0.464282
vn 0.982343 0.187089 -0.000002
vn 0.915263 -0.402857 -0.000003
vn 0.999361 -0.035750 -0.000006
vn 0.928563 -0.371176 -0.000006
vn 0.850733 0.187091 -0.491172
vn 0.792640 -0.402860 -0.457630
vn 0.865477 -0.035746 -0.499672
vn 0.804156 -0.371180 -0.464284
vn 0.148265 0.985236 -0.085604
vn 0.085602 0.985234 -0.148279
vn 0.085601 0.985234 -0.148277
vn 0.148264 0.985236 -0.085600
vn 0.000000 0.985234 -0.171212
vn -0.000003 0.985234 -0.171215
vn -0.085599 0.985236 -0.148268
vn -0.085603 0.985235 -0.148269
vn -0.148264 0.985236 -0.085600
vn -0.148266 0.985236 -0.085599
vn -0.171202 0.985236 0.000002
vn -0.171201 0.985236 -0.000000
vn -0.148270 0.985235 0.085602
vn -0.148269 0.985235 0.085603
vn -0.085605 0.985235 0.148267
vn -0.085606 0.985236 0.148265
vn 0.000001 0.985235 0.171206
vn 0.000002 0.985235 0.171207
vn 0.085601 0.985236 0.148265
vn 0.085600 0.985236 0.148266
vn 0.148264 0.985236 0.085601
vn 0.148263 0.985236 0.085602
vn 0.171199 0.985237 0.000003
vn 0.171198 0.985237 0.000004
vn 0.148265 0.985236 -0.085604
vn 0.148264 0.985236 -0.085600
vn 0.877312 0.047565 -0.477557
vn 1.000000 0.000415 -0.000047
vn 0.993784 0.070949 0.085793
vn 0.941164 0.162399 -0.296373
vn 0.627590 0.152801 -0.763402
vn 0.621260 0.096763 -0.777607
vn 0.621260 0.096763 -0.777607
vn 0.627590 0.152801 -0.763402
vn 0.357409 0.132331 -0.924525
vn 0.530023 0.074657 -0.844691
vn -0.122093 0.148126 -0.981403
vn -0.559074 0.155568 -0.814392
vn -0.566669 0.066124 -0.821288
vn -0.075080 0.071287 -0.994626
vn -0.865864 0.025905 -0.499609
vn -0.618167 0.051394 -0.784365
vn -0.685285 0.154716 -0.711652
vn -0.898944 0.109935 -0.424044
vn -0.865864 0.025905 -0.499609
vn -0.898944 0.109935 -0.424044
vn -0.997906 0.064674 -0.000943
vn -0.999915 0.012314 -0.004239
vn -0.863775 0.058000 0.500529
vn -0.866104 0.007387 0.499809
vn -0.866104 0.007387 0.499809
vn -0.863775 0.058000 0.500529
vn -0.497955 0.052524 0.865611
vn -0.499488 0.004275 0.866310
vn 0.001911 0.049008 0.998797
vn 0.002549 0.002702 0.999993
vn 0.505438 0.002365 0.862860
vn 0.502961 0.048473 0.862949
vn 0.868755 0.002086 0.495237
vn 0.505438 0.002365 0.862860
vn 0.502961 0.048473 0.862949
vn 0.869556 0.047897 0.491506
vn 0.880621 -0.000495 -0.473821
vn 0.999545 0.000918 0.030169
vn 0.877312 0.047565 -0.477557
vn 0.586273 0.002442 -0.810109
vn 0.880621 -0.000495 -0.473821
vn 0.442242 0.015908 -0.896755
vn -0.488268 0.033224 -0.872061
vn 0.048546 0.038263 -0.998088
vn -0.875333 0.031588 -0.482488
vn -0.628457 0.033513 -0.777122
vn -0.999442 0.021913 0.025233
vn -0.875333 0.031588 -0.482488
vn -0.850714 0.010718 0.525519
vn -0.480818 0.003571 0.876813
vn -0.850714 0.010718 0.525519
vn 0.011608 0.000916 0.999932
vn 0.503469 0.001104 0.864013
vn 0.860783 0.001839 0.508970
vn 0.503469 0.001104 0.864013
vn -0.333878 0.925522 -0.178702
vn -0.309925 0.950512 -0.021762
vn -0.215676 0.971192 -0.101345
vn -0.224354 0.949997 -0.217189
vn -0.302795 0.951110 -0.060875
vn -0.121241 0.992620 -0.002529
vn -0.339900 0.907108 -0.248242
vn 0.015117 0.995741 -0.090945
vn 0.084129 0.974248 -0.209197
vn 0.358036 0.928255 -0.100761
vn 0.348756 0.937202 -0.004716
vn 0.334088 0.940432 -0.063026
vn 0.267524 0.955858 -0.121517
vn 0.196087 0.978394 -0.065543
vn 0.339579 0.917760 -0.205917
vn 0.276625 0.932578 -0.231899
vn 0.280623 0.904174 -0.322055
vn 0.229206 0.917875 -0.323992
vn 0.180624 0.898789 -0.399441
vn 0.145964 0.912697 -0.381679
vn 0.046563 0.900128 -0.433129
vn 0.042911 0.915812 -0.399307
vn -0.112910 0.904023 -0.412303
vn -0.068193 0.923499 -0.377491
vn -0.257283 0.910918 -0.322543
vn -0.166479 0.934456 -0.314764
vn 0.034814 0.969657 -0.241976
vn -0.559074 0.155568 -0.814392
vn -0.685285 0.154716 -0.711652
vn -0.618167 0.051394 -0.784365
vn -0.566669 0.066124 -0.821288
vn 0.629311 -0.085342 -0.772454
vn 0.778518 -0.309668 -0.545908
vn 0.509834 -0.371716 -0.775820
vn -0.060452 -0.451425 -0.890259
vn -0.030845 -0.286757 -0.957507
vn 0.377321 -0.391219 -0.839391
vn -0.199027 -0.035393 -0.979355
vn -0.462802 -0.304947 -0.832359
vn -0.683973 -0.322935 -0.654135
vn -0.540232 0.041502 -0.840492
vn 0.229874 -0.052941 -0.971779
vn -0.734415 -0.355002 -0.578453
vn -0.775245 -0.281579 -0.565428
vn -0.927545 0.079526 -0.365151
vn -0.757652 0.075791 -0.648243
vn -0.809041 -0.145351 -0.569496
vn 0.918526 0.051423 -0.392003
vn -0.462122 0.076686 -0.883494
vn 0.996156 0.076495 -0.042687
vn 0.999107 0.013208 0.040147
vn -0.533604 0.009974 -0.845676
vn -0.499931 0.065696 0.863570
vn -0.462122 0.076686 -0.883494
vn -0.533604 0.009974 -0.845676
vn -0.494763 0.133556 0.858704
vn -0.050425 0.994500 0.091796
vn -0.050425 0.994500 0.091796
vn 0.000000 -1.000000 -0.000000
vn 0.000000 -1.000000 -0.000000
vn 0.000000 -1.000000 -0.000000
vn 0.983244 0.131864 0.125873
vn 0.927445 0.197294 -0.317680
vn 0.892552 0.097813 0.440208
vn 0.592481 0.125520 -0.795746
vn 0.592481 0.125520 -0.795746
vn 0.229874 -0.052941 -0.971779
vn -0.199027 -0.035393 -0.979355
vn -0.540232 0.041502 -0.840492
vn -0.540232 0.041502 -0.840492
vn -0.757652 0.075791 -0.648243
vn -0.757652 0.075791 -0.648243
vn -0.927545 0.079526 -0.365151
vn -0.927545 0.079526 -0.365151
vn -0.991638 0.128292 0.013943
vn -0.862299 0.112374 0.493774
vn -0.862299 0.112374 0.493774
vn -0.499550 0.102388 0.860213
vn -0.000480 0.096847 0.995299
vn 0.513500 0.096432 0.852654
vn 0.513500 0.096432 0.852654
vn 0.946327 -0.318262 0.056335
vn 0.946327 -0.318262 0.056335
vn 0.946327 -0.318262 0.056335
vn 0.918526 0.051423 -0.392003
vn 0.629311 -0.085342 -0.772454
vn 0.629311 -0.085342 -0.772454
vn -0.422933 -0.437066 -0.793790
vn -0.757652 0.075791 -0.648243
vn -0.683973 -0.322935 -0.654135
vn -0.488268 0.033224 -0.872061
vn -0.199027 -0.035393 -0.979355
vn -0.462802 -0.304947 -0.832359
vn -0.075080 0.071287 -0.994626
vn -0.122093 0.148126 -0.981403
vn -0.494763 0.133556 0.858704
vn -0.050425 0.994500 0.091796
vn -0.499931 0.065696 0.863570
vn 0.048546 0.038263 -0.998088
vn 0.996156 0.076495 -0.042687
vn 0.999107 0.013208 0.040147
vn 0.999107 0.013208 0.040147
vn 0.442242 0.015908 -0.896755
vn 0.229874 -0.052941 -0.971779
vn -0.333878 0.925522 -0.178702
vn 0.918526 0.051423 -0.392003
vn 0.918526 0.051423 -0.392003
vn 0.000000 -1.000000 -0.000000
vn 0.000000 -1.000000 -0.000000
f 3/3/3 2/2/2 1/1/1
f 1/1/1 4/4/4 3/3/3
f 6/6/6 5/5/5 2/2/2
f 2/2/2 3/3/3 6/6/6
f 8/8/8 7/7/7 5/5/5
f 5/5/5 6/6/6 8/8/8
f 10/10/10 9/9/9 7/7/7
f 7/7/7 8/8/8 10/10/10
f 12/12/12 11/11/11 9/9/9
f 9/9/9 10/10/10 12/12/12
f 14/14/14 13/13/13 11/11/11
f 11/11/11 12/12/12 14/14/14
f 16/16/16 15/15/15 13/13/13
f 13/13/13 14/14/14 16/16/16
f 18/18/18 17/17/17 15/15/15
f 15/15/15 16/16/16 18/18/18
f 20/20/20 19/19/19 17/17/17
f 17/17/17 18/18/18 20/20/20
f 22/22/22 21/21/21 19/19/19
f 19/19/19 20/20/20 22/22/22
f 24/24/24 23/23/23 21/21/21
f 21/21/21 22/22/22 24/24/24
f 26/26/26 25/25/25 23/23/23
f 23/23/23 24/24/24 26/26/26
f 29/29/29 28/28/28 449/449/449
f 31/31/31 30/30/30 29/29/29
f 33/33/33 32/32/32 31/31/31
f 33/33/33 31/31/31 29/29/29
f 35/35/35 34/34/34 33/33/33
f 37/37/37 36/36/36 35/35/35
f 37/37/37 35/35/35 33/33/33
f 37/37/37 33/33/33 29/29/29
f 37/37/37 29/29/29 449/449/449
f 37/37/37 449/449/449 38/38/38
f 41/41/41 40/40/40 39/39/39
f 39/39/39 42/42/42 41/41/41
f 42/42/42 39/39/39 43/43/43
f 43/43/43 44/44/44 42/42/42
f 44/44/44 43/43/43 45/45/45
f 45/45/45 46/46/46 44/44/44
f 46/46/46 45/45/45 47/47/47
f 47/47/47 48/48/48 46/46/46
f 48/48/48 47/47/47 49/49/49
f 49/49/49 50/50/50 48/48/48
f 50/50/50 49/49/49 51/51/51
f 51/51/51 52/52/52 50/50/50
f 52/52/52 51/51/51 53/53/53
f 53/53/53 54/54/54 52/52/52
f 54/54/54 53/53/53 55/55/55
f 55/55/55 56/56/56 54/54/54
f 59/59/59 58/58/58 57/57/57
f 57/57/57 60/60/60 59/59/59
f 60/60/60 57/57/57 61/61/61
f 61/61/61 62/62/62 60/60/60
f 62/62/62 61/61/61 63/63/63
f 63/63/63 64/64/64 62/62/62
f 64/64/64 63/63/63 40/40/40
f 40/40/40 41/41/41 64/64/64
f 65/65/65 18/18/18 16/16/16
f 16/16/16 66/66/66 65/65/65
f 66/66/66 16/16/16 14/14/14
f 14/14/14 67/67/67 66/66/66
f 67/67/67 14/14/14 12/12/12
f 12/12/12 68/68/68 67/67/67
f 68/68/68 12/12/12 10/10/10
f 10/10/10 69/69/69 68/68/68
f 69/69/69 10/10/10 8/8/8
f 8/8/8 70/70/70 69/69/69
f 70/70/70 8/8/8 6/6/6
f 6/6/6 71/71/71 70/70/70
f 71/71/71 6/6/6 3/3/3
f 3/3/3 72/72/72 71/71/71
f 72/72/72 3/3/3 4/4/4
f 4/4/4 73/73/73 72/72/72
f 74/74/74 26/26/26 24/24/24
f 24/24/24 75/75/75 74/74/74
f 75/75/75 24/24/24 22/22/22
f 22/22/22 76/76/76 75/75/75
f 76/76/76 22/22/22 20/20/20
f 20/20/20 77/77/77 76/76/76
f 77/77/77 20/20/20 18/18/18
f 18/18/18 65/65/65 77/77/77
f 39/39/39 79/79/79 78/78/78
f 78/78/78 43/43/43 39/39/39
f 43/43/43 78/78/78 80/80/80
f 80/80/80 45/45/45 43/43/43
f 45/45/45 80/80/80 81/81/81
f 81/81/81 47/47/47 45/45/45
f 47/47/47 81/81/81 82/82/82
f 82/82/82 49/49/49 47/47/47
f 49/49/49 82/82/82 83/83/83
f 83/83/83 51/51/51 49/49/49
f 51/51/51 83/83/83 84/84/84
f 84/84/84 53/53/53 51/51/51
f 53/53/53 84/84/84 85/85/85
f 85/85/85 55/55/55 53/53/53
f 58/58/58 87/87/87 86/86/86
f 86/86/86 57/57/57 58/58/58
f 57/57/57 86/86/86 88/88/88
f 88/88/88 61/61/61 57/57/57
f 61/61/61 88/88/88 89/89/89
f 89/89/89 63/63/63 61/61/61
f 63/63/63 89/89/89 90/90/90
f 90/90/90 40/40/40 63/63/63
f 40/40/40 90/90/90 79/79/79
f 79/79/79 39/39/39 40/40/40
f 79/79/79 66/66/66 67/67/67
f 67/67/67 78/78/78 79/79/79
f 78/78/78 67/67/67 68/68/68
f 68/68/68 80/80/80 78/78/78
f 80/80/80 68/68/68 69/69/69
f 69/69/69 81/81/81 80/80/80
f 81/81/81 69/69/69 70/70/70
f 70/70/70 82/82/82 81/81/81
f 82/82/82 70/70/70 71/71/71
f 71/71/71 83/83/83 82/82/82
f 83/83/83 71/71/71 72/72/72
f 72/72/72 84/84/84 83/83/83
f 84/84/84 72/72/72 73/73/73
f 73/73/73 85/85/85 84/84/84
f 87/87/87 74/74/74 75/75/75
f 75/75/75 86/86/86 87/87/87
f 86/86/86 75/75/75 76/76/76
f 76/76/76 88/88/88 86/86/86
f 88/88/88 76/76/76 77/77/77
f 77/77/77 89/89/89 88/88/88
f 89/89/89 77/77/77 65/65/65
f 65/65/65 90/90/90 89/89/89
f 90/90/90 65/65/65 66/66/66
f 66/66/66 79/79/79 90/90/90
f 93/93/93 92/92/92 91/91/91
f 91/91/91 94/94/94 93/93/93
f 96/96/96 95/95/95 92/92/92
f 92/92/92 93/93/93 96/96/96
f 98/98/98 97/97/97 95/95/95
f 95/95/95 96/96/96 98/98/98
f 100/100/100 99/99/99 97/97/97
f 97/97/97 98/98/98 100/100/100
f 102/102/102 101/101/101 99/99/99
f 99/99/99 100/100/100 102/102/102
f 104/104/104 103/103/103 101/101/101
f 101/101/101 102/102/102 104/104/104
f 106/106/106 105/105/105 103/103/103
f 103/103/103 104/104/104 106/106/106
f 108/108/108 107/107/107 105/105/105
f 105/105/105 106/106/106 108/108/108
f 110/110/110 109/109/109 107/107/107
f 107/107/107 108/108/108 110/110/110
f 112/112/112 111/111/111 109/109/109
f 109/109/109 110/110/110 112/112/112
f 114/114/114 113/113/113 111/111/111
f 111/111/111 112/112/112 114/114/114
f 116/116/116 115/115/115 113/113/113
f 113/113/113 114/114/114 116/116/116
f 119/119/119 118/118/118 117/117/117
f 117/117/117 120/120/120 119/119/119
f 120/120/120 117/117/117 121/121/121
f 121/121/121 122/122/122 120/120/120
f 122/122/122 121/121/121 123/123/123
f 123/123/123 124/124/124 122/122/122
f 124/124/124 123/123/123 125/125/125
f 125/125/125 126/126/126 124/124/124
f 126/126/126 125/125/125 127/127/127
f 127/127/127 128/128/128 126/126/126
f 128/128/128 127/127/127 129/129/129
f 129/129/129 130/130/130 128/128/128
f 130/130/130 129/129/129 131/131/131
f 131/131/131 132/132/132 130/130/130
f 132/132/132 131/131/131 133/133/133
f 133/133/133 134/134/134 132/132/132
f 134/134/134 133/133/133 135/135/135
f 135/135/135 136/136/136 134/134/134
f 136/136/136 135/135/135 137/137/137
f 137/137/137 138/138/138 136/136/136
f 138/138/138 137/137/137 139/139/139
f 139/139/139 140/140/140 138/138/138
f 140/140/140 139/139/139 141/141/141
f 141/141/141 142/142/142 140/140/140
f 118/118/118 144/144/144 143/143/143
f 143/143/143 117/117/117 118/118/118
f 117/117/117 143/143/143 145/145/145
f 145/145/145 121/121/121 117/117/117
f 121/121/121 145/145/145 146/146/146
f 146/146/146 123/123/123 121/121/121
f 123/123/123 146/146/146 147/147/147
f 147/147/147 125/125/125 123/123/123
f 125/125/125 147/147/147 148/148/148
f 148/148/148 127/127/127 125/125/125
f 127/127/127 148/148/148 149/149/149
f 149/149/149 129/129/129 127/127/127
f 129/129/129 149/149/149 150/150/150
f 150/150/150 131/131/131 129/129/129
f 131/131/131 150/150/150 151/151/151
f 151/151/151 133/133/133 131/131/131
f 133/133/133 151/151/151 152/152/152
f 152/152/152 135/135/135 133/133/133
f 135/135/135 152/152/152 153/153/153
f 153/153/153 137/137/137 135/135/135
f 137/137/137 153/153/153 154/154/154
f 154/154/154 139/139/139 137/137/137
f 139/139/139 154/154/154 155/155/155
f 155/155/155 141/141/141 139/139/139
f 144/144/144 157/157/157 156/156/156
f 156/156/156 143/143/143 144/144/144
f 143/143/143 156/156/156 158/158/158
f 158/158/158 145/145/145 143/143/143
f 145/145/145 158/158/158 159/159/159
f 159/159/159 146/146/146 145/145/145
f 146/146/146 159/159/159 160/160/160
f 160/160/160 147/147/147 146/146/146
f 147/147/147 160/160/160 161/161/161
f 161/161/161 148/148/148 147/147/147
f 148/148/148 161/161/161 162/162/162
f 162/162/162 149/149/149 148/148/148
f 149/149/149 162/162/162 163/163/163
f 163/163/163 150/150/150 149/149/149
f 150/150/150 163/163/163 164/164/164
f 164/164/164 151/151/151 150/150/150
f 151/151/151 164/164/164 165/165/165
f 165/165/165 152/152/152 151/151/151
f 152/152/152 165/165/165 166/166/166
f 166/166/166 153/153/153 152/152/152
f 153/153/153 166/166/166 167/167/167
f 167/167/167 154/154/154 153/153/153
f 154/154/154 167/167/167 168/168/168
f 168/168/168 155/155/155 154/154/154
f 157/157/157 170/170/170 169/169/169
f 169/169/169 156/156/156 157/157/157
f 156/156/156 169/169/169 171/171/171
f 171/171/171 158/158/158 156/156/156
f 158/158/158 171/171/171 172/172/172
f 172/172/172 159/159/159 158/158/158
f 159/159/159 172/172/172 173/173/173
f 173/173/173 160/160/160 159/159/159
f 160/160/160 173/173/173 174/174/174
f 174/174/174 161/161/161 160/160/160
f 161/161/161 174/174/174 175/175/175
f 175/175/175 162/162/162 161/161/161
f 162/162/162 175/175/175 176/176/176
f 176/176/176 163/163/163 162/162/162
f 163/163/163 176/176/176 177/177/177
f 177/177/177 164/164/164 163/163/163
f 164/164/164 177/177/177 178/178/178
f 178/178/178 165/165/165 164/164/164
f 165/165/165 178/178/178 179/179/179
f 179/179/179 166/166/166 165/165/165
f 166/166/166 179/179/179 180/180/180
f 180/180/180 167/167/167 166/166/166
f 167/167/167 180/180/180 181/181/181
f 181/181/181 168/168/168 167/167/167
f 170/170/170 183/183/183 182/182/182
f 182/182/182 169/169/169 170/170/170
f 169/169/169 182/182/182 184/184/184
f 184/184/184 171/171/171 169/169/169
f 171/171/171 184/184/184 185/185/185
f 185/185/185 172/172/172 171/171/171
f 172/172/172 185/185/185 186/186/186
f 186/186/186 173/173/173 172/172/172
f 173/173/173 186/186/186 187/187/187
f 187/187/187 174/174/174 173/173/173
f 174/174/174 187/187/187 188/188/188
f 188/188/188 175/175/175 174/174/174
f 175/175/175 188/188/188 189/189/189
f 189/189/189 176/176/176 175/175/175
f 176/176/176 189/189/189 190/190/190
f 190/190/190 177/177/177 176/176/176
f 177/177/177 190/190/190 191/191/191
f 191/191/191 178/178/178 177/177/177
f 178/178/178 191/191/191 192/192/192
f 192/192/192 179/179/179 178/178/178
f 179/179/179 192/192/192 193/193/193
f 193/193/193 180/180/180 179/179/179
f 180/180/180 193/193/193 194/194/194
f 194/194/194 181/181/181 180/180/180
f 183/183/183 196/196/196 195/195/195
f 195/195/195 182/182/182 183/183/183
f 182/182/182 195/195/195 197/197/197
f 197/197/197 184/184/184 182/182/182
f 184/184/184 197/197/197 198/198/198
f 198/198/198 185/185/185 184/184/184
f 185/185/185 198/198/198 199/199/199
f 199/199/199 186/186/186 185/185/185
f 186/186/186 199/199/199 200/200/200
f 200/200/200 187/187/187 186/186/186
f 187/187/187 200/200/200 201/201/201
f 201/201/201 188/188/188 187/187/187
f 188/188/188 201/201/201 202/202/202
f 202/202/202 189/189/189 188/188/188
f 189/189/189 202/202/202 203/203/203
f 203/203/203 190/190/190 189/189/189
f 190/190/190 203/203/203 204/204/204
f 204/204/204 191/191/191 190/190/190
f 191/191/191 204/204/204 205/205/205
f 205/205/205 192/192/192 191/191/191
f 192/192/192 205/205/205 206/206/206
f 206/206/206 193/193/193 192/192/192
f 193/193/193 206/206/206 207/207/207
f 207/207/207 194/194/194 193/193/193
f 196/196/196 209/209/209 208/208/208
f 208/208/208 195/195/195 196/196/196
f 209/209/209 211/211/211 210/210/210
f 210/210/210 208/208/208 209/209/209
f 214/214/214 213/213/213 212/212/212
f 212/212/212 215/215/215 214/214/214
f 195/195/195 208/208/208 216/216/216
f 216/216/216 197/197/197 195/195/195
f 208/208/208 210/210/210 217/217/217
f 217/217/217 216/216/216 208/208/208
f 215/215/215 212/212/212 218/218/218
f 218/218/218 219/219/219 215/215/215
f 197/197/197 216/216/216 220/220/220
f 220/220/220 198/198/198 197/197/197
f 216/216/216 217/217/217 221/221/221
f 221/221/221 220/220/220 216/216/216
f 219/219/219 218/218/218 222/222/222
f 222/222/222 223/223/223 219/219/219
f 198/198/198 220/220/220 224/224/224
f 224/224/224 199/199/199 198/198/198
f 220/220/220 221/221/221 225/225/225
f 225/225/225 224/224/224 220/220/220
f 223/223/223 222/222/222 226/226/226
f 226/226/226 227/227/227 223/223/223
f 199/199/199 224/224/224 228/228/228
f 228/228/228 200/200/200 199/199/199
f 224/224/224 225/225/225 229/229/229
f 229/229/229 228/228/228 224/224/224
f 227/227/227 226/226/226 230/230/230
f 230/230/230 231/231/231 227/227/227
f 200/200/200 228/228/228 232/232/232
f 232/232/232 201/201/201 200/200/200
f 228/228/228 229/229/229 233/233/233
f 233/233/233 232/232/232 228/228/228
f 231/231/231 230/230/230 234/234/234
f 234/234/234 235/235/235 231/231/231
f 201/201/201 232/232/232 236/236/236
f 236/236/236 202/202/202 201/201/201
f 232/232/232 233/233/233 237/237/237
f 237/237/237 236/236/236 232/232/232
f 235/235/235 234/234/234 238/238/238
f 238/238/238 239/239/239 235/235/235
f 202/202/202 236/236/236 240/240/240
f 240/240/240 203/203/203 202/202/202
f 236/236/236 237/237/237 241/241/241
f 241/241/241 240/240/240 236/236/236
f 239/239/239 238/238/238 242/242/242
f 242/242/242 243/243/243 239/239/239
f 203/203/203 240/240/240 244/244/244
f 244/244/244 204/204/204 203/203/203
f 240/240/240 241/241/241 245/245/245
f 245/245/245 244/244/244 240/240/240
f 243/243/243 242/242/242 246/246/246
f 246/246/246 247/247/247 243/243/243
f 204/204/204 244/244/244 248/248/248
f 248/248/248 205/205/205 204/204/204
f 244/244/244 245/245/245 249/249/249
f 249/249/249 248/248/248 244/244/244
f 247/247/247 246/246/246 250/250/250
f 250/250/250 251/251/251 247/247/247
f 205/205/205 248/248/248 252/252/252
f 252/252/252 206/206/206 205/205/205
f 248/248/248 249/249/249 253/253/253
f 253/253/253 252/252/252 248/248/248
f 251/251/251 250/250/250 254/254/254
f 254/254/254 255/255/255 251/251/251
f 206/206/206 252/252/252 256/256/256
f 256/256/256 207/207/207 206/206/206
f 252/252/252 253/253/253 257/257/257
f 257/257/257 256/256/256 252/252/252
f 255/255/255 254/254/254 258/258/258
f 258/258/258 259/259/259 255/255/255
f 262/262/262 261/261/261 260/260/260
f 260/260/260 263/263/263 262/262/262
f 210/210/210 211/211/211 214/214/214
f 214/214/214 215/215/215 210/210/210
f 265/265/265 264/264/264 261/261/261
f 261/261/261 262/262/262 265/265/265
f 217/217/217 210/210/210 215/215/215
f 215/215/215 219/219/219 217/217/217
f 267/267/267 266/266/266 264/264/264
f 264/264/264 265/265/265 267/267/267
f 221/221/221 217/217/217 219/219/219
f 219/219/219 223/223/223 221/221/221
f 269/269/269 268/268/268 266/266/266
f 266/266/266 267/267/267 269/269/269
f 225/225/225 221/221/221 223/223/223
f 223/223/223 227/227/227 225/225/225
f 271/271/271 270/270/270 268/268/268
f 268/268/268 269/269/269 271/271/271
f 229/229/229 225/225/225 227/227/227
f 227/227/227 231/231/231 229/229/229
f 273/273/273 272/272/272 270/270/270
f 270/270/270 271/271/271 273/273/273
f 233/233/233 229/229/229 231/231/231
f 231/231/231 235/235/235 233/233/233
f 275/275/275 274/274/274 272/272/272
f 272/272/272 273/273/273 275/275/275
f 237/237/237 233/233/233 235/235/235
f 235/235/235 239/239/239 237/237/237
f 277/277/277 276/276/276 274/274/274
f 274/274/274 275/275/275 277/277/277
f 241/241/241 237/237/237 239/239/239
f 239/239/239 243/243/243 241/241/241
f 279/279/279 278/278/278 276/276/276
f 276/276/276 277/277/277 279/279/279
f 245/245/245 241/241/241 243/243/243
f 243/243/243 247/247/247 245/245/245
f 281/281/281 280/280/280 278/278/278
f 278/278/278 279/279/279 281/281/281
f 249/249/249 245/245/245 247/247/247
f 247/247/247 251/251/251 249/249/249
f 283/283/283 282/282/282 280/280/280
f 280/280/280 281/281/281 283/283/283
f 253/253/253 249/249/249 251/251/251
f 251/251/251 255/255/255 253/253/253
f 285/285/285 284/284/284 282/282/282
f 282/282/282 283/283/283 285/285/285
f 257/257/257 253/253/253 255/255/255
f 255/255/255 259/259/259 257/257/257
f 288/288/288 287/287/287 286/286/286
f 286/286/286 289/289/289 288/288/288
f 290/290/290 289/289/289 286/286/286
f 286/286/286 291/291/291 290/290/290
f 294/294/294 293/293/293 292/292/292
f 292/292/292 295/295/295 294/294/294
f 298/298/298 297/297/297 296/296/296
f 296/296/296 299/299/299 298/298/298
f 302/302/302 301/301/301 300/300/300
f 300/300/300 303/303/303 302/302/302
f 306/306/306 305/305/305 304/304/304
f 304/304/304 307/307/307 306/306/306
f 308/308/308 306/306/306 307/307/307
f 307/307/307 309/309/309 308/308/308
f 312/312/312 311/311/311 310/310/310
f 310/310/310 313/313/313 312/312/312
f 314/314/314 312/312/312 313/313/313
f 313/313/313 315/315/315 314/314/314
f 314/314/314 315/315/315 316/316/316
f 316/316/316 317/317/317 314/314/314
f 320/320/320 319/319/319 318/318/318
f 318/318/318 321/321/321 320/320/320
f 321/321/321 318/318/318 287/287/287
f 287/287/287 288/288/288 321/321/321
f 322/322/322 286/286/286 287/287/287
f 287/287/287 323/323/323 322/322/322
f 325/325/325 292/292/292 324/324/324
f 324/324/324 326/326/326 325/325/325
f 327/327/327 295/295/295 292/292/292
f 292/292/292 325/325/325 327/327/327
f 329/329/329 328/328/328 298/298/298
f 298/298/298 299/299/299 329/329/329
f 330/330/330 300/300/300 301/301/301
f 301/301/301 331/331/331 330/330/330
f 332/332/332 307/307/307 304/304/304
f 304/304/304 333/333/333 332/332/332
f 334/334/334 309/309/309 307/307/307
f 307/307/307 332/332/332 334/334/334
f 335/335/335 313/313/313 310/310/310
f 310/310/310 336/336/336 335/335/335
f 337/337/337 315/315/315 313/313/313
f 313/313/313 335/335/335 337/337/337
f 338/338/338 316/316/316 315/315/315
f 315/315/315 337/337/337 338/338/338
f 339/339/339 318/318/318 319/319/319
f 319/319/319 340/340/340 339/339/339
f 323/323/323 287/287/287 318/318/318
f 318/318/318 339/339/339 323/323/323
f 343/343/343 342/342/342 445/445/445
f 445/445/445 344/344/344 343/343/343
f 346/346/346 345/345/345 342/342/342
f 342/342/342 343/343/343 346/346/346
f 348/348/348 347/347/347 345/345/345
f 345/345/345 346/346/346 348/348/348
f 348/348/348 350/350/350 349/349/349
f 353/353/353 352/352/352 351/351/351
f 351/351/351 354/354/354 353/353/353
f 356/356/356 355/355/355 352/352/352
f 352/352/352 353/353/353 356/356/356
f 358/358/358 357/357/357 355/355/355
f 355/355/355 356/356/356 358/358/358
f 360/360/360 359/359/359 357/357/357
f 357/357/357 358/358/358 360/360/360
f 362/362/362 361/361/361 359/359/359
f 359/359/359 360/360/360 362/362/362
f 364/364/364 363/363/363 361/361/361
f 361/361/361 362/362/362 364/364/364
f 366/366/366 365/365/365 363/363/363
f 363/363/363 364/364/364 366/366/366
f 344/344/344 445/445/445 365/365/365
f 365/365/365 366/366/366 344/344/344
f 367/367/367 343/343/343 344/344/344
f 367/367/367 346/346/346 343/343/343
f 367/367/367 348/348/348 346/346/346
f 367/367/367 354/354/354 348/348/348
f 367/367/367 353/353/353 354/354/354
f 367/367/367 356/356/356 353/353/353
f 367/367/367 358/358/358 356/356/356
f 367/367/367 360/360/360 358/358/358
f 367/367/367 362/362/362 360/360/360
f 367/367/367 364/364/364 362/362/362
f 367/367/367 366/366/366 364/364/364
f 367/367/367 344/344/344 366/366/366
f 435/435/435 294/294/294 295/295/295
f 295/295/295 434/434/434 435/435/435
f 439/439/439 434/434/434 295/295/295
f 295/295/295 443/443/443 439/439/439
f 370/370/370 369/369/369 368/368/368
f 368/368/368 371/371/371 370/370/370
f 431/431/431 331/331/331 301/301/301
f 301/301/301 298/298/298 431/431/431
f 374/374/374 373/373/373 372/372/372
f 374/374/374 376/376/376 375/375/375
f 375/375/375 377/377/377 374/374/374
f 380/380/380 379/379/379 378/378/378
f 378/378/378 381/381/381 380/380/380
f 433/433/433 376/376/376 382/382/382
f 382/382/382 432/432/432 433/433/433
f 430/430/430 384/384/384 383/383/383
f 387/387/387 386/386/386 385/385/385
f 373/373/373 388/388/388 372/372/372
f 387/387/387 384/384/384 386/386/386
f 354/354/354 351/351/351 350/350/350
f 350/350/350 348/348/348 354/354/354
f 348/348/348 349/349/349 347/347/347
f 391/391/391 390/390/390 389/389/389
f 389/389/389 392/392/392 391/391/391
f 395/395/395 394/394/394 393/393/393
f 393/393/393 396/396/396 395/395/395
f 436/436/436 438/438/438 440/440/440
f 440/440/440 442/442/442 436/436/436
f 397/397/397 389/389/389 390/390/390
f 398/398/398 393/393/393 394/394/394
f 437/437/437 440/440/440 438/438/438
f 401/401/401 400/400/400 399/399/399
f 289/289/289 403/403/403 402/402/402
f 402/402/402 288/288/288 289/289/289
f 288/288/288 402/402/402 404/404/404
f 404/404/404 321/321/321 288/288/288
f 290/290/290 405/405/405 403/403/403
f 403/403/403 289/289/289 290/290/290
f 407/407/407 406/406/406 293/293/293
f 293/293/293 294/294/294 407/407/407
f 408/408/408 407/407/407 294/294/294
f 294/294/294 435/435/435 408/408/408
f 297/297/297 409/409/409 408/408/408
f 408/408/408 435/435/435 297/297/297
f 369/369/369 411/411/411 410/410/410
f 410/410/410 368/368/368 369/369/369
f 303/303/303 413/413/413 412/412/412
f 412/412/412 302/302/302 303/303/303
f 415/415/415 414/414/414 305/305/305
f 305/305/305 306/306/306 415/415/415
f 416/416/416 415/415/415 306/306/306
f 306/306/306 308/308/308 416/416/416
f 312/312/312 418/418/418 417/417/417
f 417/417/417 311/311/311 312/312/312
f 314/314/314 419/419/419 418/418/418
f 418/418/418 312/312/312 314/314/314
f 317/317/317 420/420/420 419/419/419
f 419/419/419 314/314/314 317/317/317
f 321/321/321 404/404/404 421/421/421
f 421/421/421 320/320/320 321/321/321
f 424/424/424 423/423/423 422/422/422
f 405/405/405 426/426/426 447/447/447
f 447/447/447 403/403/403 405/405/405
f 407/407/407 427/427/427 406/406/406
f 403/403/403 447/447/447 402/402/402
f 372/372/372 444/444/444 376/376/376
f 376/376/376 374/374/374 372/372/372
f 428/428/428 375/375/375 376/376/376
f 376/376/376 433/433/433 428/428/428
f 374/374/374 377/377/377 373/373/373
f 383/383/383 428/428/428 433/433/433
f 430/430/430 386/386/386 384/384/384
f 430/430/430 383/383/383 433/433/433
f 380/380/380 381/381/381 429/429/429
