mtllib G3_Object_Fireplace_04.mtl
o G3_Object_Fireplace_04_0
usemtl G3_Architecture_Wall_Stone_09_B
v -1.042715 0.999628 1.043806
v -0.956250 0.900000 1.043799
v -1.042715 0.900002 1.043802
v -0.082275 0.900002 1.043802
v -0.082275 0.999628 1.043806
v -0.082275 0.999628 0.308362
v -0.082275 0.900002 0.308357
v -0.082275 0.900002 0.308357
v -0.082275 0.999628 0.308362
v -1.042715 0.999628 0.308362
v -1.042715 0.900002 0.308357
v -1.042715 0.900002 0.308357
v -1.042715 0.999628 0.308362
v -1.042715 0.999628 1.043806
v -1.042715 0.900002 1.043802
v -0.082275 0.999628 1.043806
v -1.042715 0.999628 1.043806
v -1.170000 0.999625 1.171085
v 0.045000 0.999625 1.171085
v -0.082275 0.999628 0.308362
v 0.045000 0.999625 0.181082
v -1.042715 0.999628 0.308362
v -1.170000 0.999625 0.181082
v -0.168750 0.900000 1.043799
v -0.082275 0.999628 1.043806
v -0.082275 0.900002 1.043802
v -0.956250 0.225000 1.351085
v -0.956221 0.225000 1.043804
v -0.956230 0.562500 1.043801
v -0.956250 0.562500 1.317109
v -0.168750 0.900000 1.351082
v -0.956250 0.900000 1.351085
v -0.956250 0.900000 1.043799
v -0.168750 0.900000 1.043799
v -0.168750 0.900000 1.351082
v -0.168750 0.900000 1.043799
v -0.168730 0.562500 1.043801
v -0.168750 0.562500 1.315923
v -1.350000 0.225000 0.001082
v -1.381211 0.225000 1.376072
v -1.319160 0.562500 1.317109
v -1.319160 0.562500 0.001082
v 0.225000 0.225000 0.001082
v -1.350000 0.225000 0.001082
v -1.319160 0.562500 0.001082
v 0.225000 0.562500 0.001082
v 0.248691 0.225000 1.349482
v 0.225000 0.225000 0.001082
v 0.225000 0.562500 0.001082
v 0.225000 0.562500 1.315925
v -1.381211 0.225000 1.376072
v -0.956250 0.225000 1.351085
v -0.956250 0.562500 1.317109
v -1.319160 0.562500 1.317109
v -0.168750 0.225000 1.351082
v 0.248691 0.225000 1.349482
v 0.225000 0.562500 1.315925
v -0.168750 0.562500 1.315923
v -1.350000 0.900000 1.351085
v -1.350000 0.900000 0.001082
v -0.956250 0.900000 1.351085
v -1.350000 0.900000 1.351085
v -0.956250 0.900000 1.043799
v -0.956250 0.900000 1.351085
v -0.168721 0.225000 1.043804
v -0.168750 0.225000 1.351082
v 0.225000 0.900000 1.351084
v -0.168750 0.900000 1.351082
v -1.350000 0.900000 0.001082
v 0.225000 0.900000 0.001082
v 0.225000 0.900000 0.001082
v 0.225000 0.900000 1.351084
v -1.319160 0.562500 0.001082
v -1.042715 0.999628 1.043806
v -1.042715 0.999628 1.043806
v -1.042715 0.999628 0.308362
v -0.956250 0.562500 1.317109
v -0.082275 0.999628 1.043806
v -0.082275 0.999628 0.308362
v 0.225000 0.562500 0.001082
v 0.225000 0.562500 1.315925
vt 0.804595 0.999501
vt 0.749748 0.871015
vt 0.804595 0.871019
vt 0.772111 0.871019
vt 0.772115 0.999501
vt 0.227886 0.999501
vt 0.227883 0.871019
vt 0.804600 0.871019
vt 0.804600 0.999501
vt 0.195405 0.999501
vt 0.195405 0.871019
vt 0.772117 0.871019
vt 0.772114 0.999501
vt 0.227886 0.999501
vt 0.227889 0.871019
vt 0.804599 0.227885
vt 0.195405 0.227886
vt 0.114671 0.133699
vt 0.885329 0.133699
vt 0.804600 0.772114
vt 0.885329 0.866300
vt 0.195405 0.772114
vt 0.114671 0.866301
vt 0.250248 0.871015
vt 0.195401 0.999501
vt 0.195401 0.871019
vt 0.000500 0.000500
vt 0.227888 0.000500
vt 0.227889 0.435757
vt 0.000500 0.435757
vt 0.250248 0.000502
vt 0.749748 0.000500
vt 0.749748 0.227891
vt 0.250248 0.227891
vt 0.999498 0.871015
vt 0.772109 0.871015
vt 0.772111 0.435757
vt 0.999498 0.435757
vt 0.000500 0.000500
vt 0.999500 0.000500
vt 0.999500 0.435757
vt 0.000500 0.435757
vt 0.000500 0.000500
vt 0.999500 0.000500
vt 0.999500 0.435757
vt 0.000500 0.435757
vt 0.000500 0.000500
vt 0.999500 0.000500
vt 0.999500 0.435757
vt 0.000500 0.435757
vt 0.000499 0.000500
vt 0.250252 0.000500
vt 0.250252 0.435757
vt 0.000499 0.435757
vt 0.749752 0.000500
vt 0.999500 0.000500
vt 0.999500 0.435757
vt 0.749752 0.435757
vt 0.999500 0.871015
vt 0.000500 0.871015
vt 0.250252 0.871015
vt 0.000499 0.871015
vt 0.227891 0.871015
vt 0.000500 0.871015
vt 0.772112 0.000500
vt 0.999498 0.000500
vt 0.999500 0.871015
vt 0.749752 0.871015
vt 0.999500 0.871015
vt 0.000500 0.871015
vt 0.999500 0.871015
vt 0.000500 0.871015
vt 0.000500 0.435757
vt 0.804595 0.999501
vt 0.804595 0.999501
vt 0.195405 0.772114
vt 0.000500 0.435757
vt 0.195401 0.999501
vt 0.804600 0.772114
vt 0.000500 0.435757
vt 0.000500 0.435757
vn -0.000015 0.000060 -1.000000
vn -0.000017 0.000042 -1.000000
vn -0.000033 0.000019 -1.000000
vn -1.000000 0.000002 -0.000000
vn -1.000000 0.000000 -0.000000
vn -1.000000 0.000000 -0.000000
vn -1.000000 0.000002 -0.000000
vn 0.000000 -0.000019 1.000000
vn 0.000000 -0.000044 1.000000
vn 0.000000 -0.000044 1.000000
vn 0.000000 -0.000019 1.000000
vn 1.000000 -0.000002 -0.000000
vn 1.000000 0.000000 -0.000000
vn 1.000000 0.000000 -0.000000
vn 1.000000 -0.000002 -0.000000
vn 0.000010 1.000000 0.000010
vn -0.000010 1.000000 0.000010
vn -0.000010 1.000000 0.000010
vn 0.000010 1.000000 0.000010
vn 0.000010 1.000000 -0.000010
vn 0.000010 1.000000 -0.000010
vn -0.000010 1.000000 -0.000010
vn -0.000010 1.000000 -0.000010
vn 0.000017 0.000042 -1.000000
vn 0.000015 0.000060 -1.000000
vn 0.000034 0.000019 -1.000000
vn 1.000000 0.000022 0.000064
vn 1.000000 0.000035 0.000078
vn 1.000000 0.000027 0.000052
vn 1.000000 0.000012 0.000034
vn 0.000000 -1.000000 -0.000000
vn 0.000000 -1.000000 -0.000000
vn 0.000000 -1.000000 -0.000000
vn 0.000000 -1.000000 -0.000000
vn -1.000000 -0.000018 -0.000018
vn -1.000000 -0.000036 0.000001
vn -1.000000 -0.000025 -0.000033
vn -1.000000 -0.000009 -0.000051
vn -0.996494 0.082660 -0.012948
vn -0.993433 0.112171 -0.022548
vn -0.999160 0.039784 -0.009834
vn -1.000000 -0.000000 -0.000000
vn 0.000000 0.000000 -1.000000
vn 0.000000 0.000000 -1.000000
vn 0.000000 0.000000 -1.000000
vn 0.000000 0.000001 -1.000000
vn 0.998138 0.060042 -0.010709
vn 0.999751 0.003187 -0.022096
vn 0.999958 0.005480 -0.007413
vn 0.999388 0.034985 -0.000000
vn 0.044627 0.120499 0.991710
vn 0.025490 0.166678 0.985682
vn 0.016739 0.015660 0.999737
vn 0.000000 0.039870 0.999205
vn 0.009741 0.120690 0.992642
vn 0.003812 0.101847 0.994793
vn 0.001104 0.000979 0.999999
vn -0.000007 -0.000000 1.000000
vn -0.999970 -0.007696 -0.000000
vn -0.999982 -0.005994 -0.000000
vn 0.000000 0.071976 0.997406
vn 0.000000 0.029329 0.999570
vn 1.000000 0.000015 0.000019
vn 1.000000 -0.000000 0.000000
vn -1.000000 -0.000020 -0.000063
vn -1.000000 -0.000008 -0.000078
vn -0.000007 0.022896 0.999738
vn -0.000000 0.070814 0.997490
vn 0.000000 0.000000 -1.000000
vn 0.000000 -0.000001 -1.000000
vn 0.998818 0.048615 -0.000000
vn 0.998861 0.047715 -0.000000
vn -1.000000 -0.000000 -0.000000
vn -0.000015 0.000060 -1.000000
vn -0.000015 0.000060 -1.000000
vn -0.000010 1.000000 -0.000010
vn 1.000000 0.000012 0.000034
vn 0.000015 0.000060 -1.000000
vn 0.000010 1.000000 -0.000010
vn 0.000000 0.000001 -1.000000
vn 0.999388 0.034985 -0.000000
f 3/3/3 2/2/2 1/1/1
f 6/6/6 5/5/5 4/4/4
f 4/4/4 7/7/7 6/6/6
f 10/10/10 9/9/9 8/8/8
f 8/8/8 11/11/11 10/10/10
f 14/14/14 13/13/13 12/12/12
f 12/12/12 15/15/15 14/14/14
f 18/18/18 17/17/17 16/16/16
f 16/16/16 19/19/19 18/18/18
f 19/19/19 16/16/16 79/79/79
f 79/79/79 21/21/21 19/19/19
f 21/21/21 79/79/79 76/76/76
f 76/76/76 23/23/23 21/21/21
f 23/23/23 76/76/76 17/17/17
f 17/17/17 18/18/18 23/23/23
f 75/75/75 2/2/2 24/24/24
f 24/24/24 78/78/78 75/75/75
f 24/24/24 26/26/26 78/78/78
f 29/29/29 28/28/28 27/27/27
f 27/27/27 30/30/30 29/29/29
f 33/33/33 32/32/32 31/31/31
f 31/31/31 34/34/34 33/33/33
f 37/37/37 36/36/36 35/35/35
f 35/35/35 38/38/38 37/37/37
f 41/41/41 40/40/40 39/39/39
f 39/39/39 42/42/42 41/41/41
f 45/45/45 44/44/44 43/43/43
f 43/43/43 46/46/46 45/45/45
f 49/49/49 48/48/48 47/47/47
f 47/47/47 50/50/50 49/49/49
f 53/53/53 52/52/52 51/51/51
f 51/51/51 54/54/54 53/53/53
f 57/57/57 56/56/56 55/55/55
f 55/55/55 58/58/58 57/57/57
f 59/59/59 41/41/41 73/73/73
f 73/73/73 60/60/60 59/59/59
f 61/61/61 53/53/53 54/54/54
f 54/54/54 62/62/62 61/61/61
f 63/63/63 29/29/29 77/77/77
f 77/77/77 64/64/64 63/63/63
f 65/65/65 37/37/37 38/38/38
f 38/38/38 66/66/66 65/65/65
f 67/67/67 57/57/57 58/58/58
f 58/58/58 68/68/68 67/67/67
f 69/69/69 45/45/45 80/80/80
f 80/80/80 70/70/70 69/69/69
f 71/71/71 49/49/49 81/81/81
f 81/81/81 72/72/72 71/71/71
o G3_Object_Fireplace_04_1
usemtl G3_Architecture_Wall_Stone_10_A
v 0.262969 0.000000 1.373019
v 0.248691 0.225000 1.349482
v -0.168750 0.225000 1.351082
v -0.956250 0.225000 1.351085
v -1.381211 0.225000 1.376072
v -1.394844 0.000000 1.400961
v 0.225000 0.225000 0.001082
v 0.225000 0.000000 0.001082
v -1.363633 0.000000 0.001082
v -1.350000 0.225000 0.001082
v -1.350000 0.225000 0.001082
v -1.363633 0.000000 0.001082
v -1.394844 0.000000 1.400961
v -1.381211 0.225000 1.376072
v -0.956250 0.225000 1.351085
v -0.168750 0.225000 1.351082
v -0.168721 0.225000 1.043804
v -0.956221 0.225000 1.043804
v 0.262969 0.000000 1.373019
v 0.225000 0.000000 0.001082
v 0.225000 0.225000 0.001082
v 0.248691 0.225000 1.349482
v -1.335723 1.080000 0.001082
v 0.207432 1.080000 0.001082
v 0.225000 0.900000 0.001082
v -1.350000 0.900000 0.001082
v -1.335723 1.080000 1.322424
v -1.335723 1.080000 0.001082
v -1.350000 0.900000 0.001082
v -1.350000 0.900000 1.351085
v 0.045000 1.080000 1.171085
v -1.170000 1.080000 1.171085
v -1.335723 1.080000 1.322424
v 0.207432 1.080000 1.322424
v 0.045000 1.080000 0.181082
v 0.045000 1.080000 1.171085
v 0.207432 1.080000 1.322424
v 0.207432 1.080000 0.001082
v -1.170000 1.080000 0.181082
v 0.045000 1.080000 0.181082
v 0.207432 1.080000 0.001082
v -1.335723 1.080000 0.001082
v -1.170000 1.080000 1.171085
v -1.170000 1.080000 0.181082
v -1.335723 1.080000 0.001082
v -1.335723 1.080000 1.322424
v 0.207432 1.080000 1.322424
v -1.335723 1.080000 1.322424
v -1.350000 0.900000 1.351085
v -0.956250 0.900000 1.351085
v -0.168750 0.900000 1.351082
v 0.225000 0.900000 1.351084
v 0.045000 0.999625 1.171085
v -1.170000 0.999625 1.171085
v -1.170000 1.080000 1.171085
v 0.045000 1.080000 1.171085
v 0.045000 0.999625 0.181082
v 0.045000 0.999625 1.171085
v 0.045000 1.080000 1.171085
v 0.045000 1.080000 0.181082
v -1.170000 0.999625 0.181082
v 0.045000 0.999625 0.181082
v 0.045000 1.080000 0.181082
v -1.170000 1.080000 0.181082
v -1.170000 0.999625 1.171085
v -1.170000 0.999625 0.181082
v -1.170000 1.080000 0.181082
v -1.170000 1.080000 1.171085
v 0.225000 0.900000 1.351084
v 0.225000 0.900000 0.001082
v 0.207432 1.080000 0.001082
v 0.207432 1.080000 1.322424
v 0.225000 0.269973 1.216082
v 1.710000 0.270014 1.216080
v 1.710000 0.270017 0.721080
v 0.225000 0.269976 0.721083
v 0.225000 0.000000 1.261084
v 1.710000 0.000000 1.261079
v 1.710000 0.225014 1.261080
v 0.225000 0.224973 1.261083
v -1.170000 1.080000 1.171085
v 0.207432 1.080000 1.322424
v 0.207432 1.080000 1.322424
vt 0.999500 0.000125
vt 0.999500 0.249875
vt 0.749752 0.249875
vt 0.250252 0.249875
vt 0.000499 0.249875
vt 0.000499 0.000125
vt 0.000500 0.249875
vt 0.000500 0.000125
vt 0.999500 0.000125
vt 0.999500 0.249875
vt 0.000500 0.249875
vt 0.000500 0.000125
vt 0.999500 0.000125
vt 0.999500 0.249875
vt -0.085940 0.000125
vt 0.413545 0.000128
vt 0.413560 0.249875
vt -0.085925 0.249875
vt 0.000501 0.000125
vt 0.999500 0.000125
vt 0.999500 0.249875
vt 0.000500 0.249875
vt 1.083333 0.398969
vt -0.083334 0.398969
vt -0.083334 0.304688
vt 1.083333 0.304688
vt 1.000001 0.360495
vt -0.000001 0.360495
vt -0.000001 0.266214
vt 1.000001 0.266214
vt 0.967273 0.455627
vt 0.123523 0.455627
vt -0.001477 0.361346
vt 1.092273 0.361346
vt 0.872462 0.762224
vt 0.139125 0.762224
vt 0.005792 0.856504
vt 1.005795 0.856505
vt 0.949999 0.493249
vt 0.049999 0.493250
vt -0.083334 0.398969
vt 1.083333 0.398969
vt 0.866668 0.454776
vt 0.133332 0.454776
vt -0.000001 0.360495
vt 1.000001 0.360495
vt 1.092273 0.361346
vt -0.001477 0.361346
vt -0.001477 0.267065
vt 0.271963 0.267065
vt 0.818838 0.267067
vt 1.092273 0.267066
vt 0.026208 0.489178
vt 0.869958 0.489178
vt 0.869958 0.429641
vt 0.026208 0.429641
vt 1.053713 0.073474
vt 0.306386 0.073482
vt 0.306387 0.127502
vt 1.053713 0.127498
vt 0.545312 0.002743
vt 1.454688 0.002744
vt 1.454688 0.056225
vt 0.545312 0.056225
vt 0.866300 -0.193482
vt 0.133700 -0.193474
vt 0.133699 -0.247498
vt 0.866300 -0.247502
vt 0.005793 0.950785
vt 1.005795 0.950786
vt 1.005795 0.856505
vt 0.005792 0.856504
vt 0.000500 0.186832
vt 0.999498 0.186856
vt 0.999501 0.499750
vt 0.000502 0.499726
vt 0.000500 0.000250
vt 0.999498 0.000252
vt 0.999498 0.132053
vt 0.000500 0.132028
vt 0.869958 0.429641
vt 1.092273 0.361346
vt 1.092273 0.361346
vn 0.007950 0.112135 0.993661
vn 0.003812 0.101847 0.994793
vn 0.009741 0.120690 0.992642
vn 0.025490 0.166678 0.985682
vn 0.044627 0.120499 0.991710
vn 0.041864 0.130872 0.990515
vn 0.000000 0.000000 -1.000000
vn 0.000000 0.000000 -1.000000
vn 0.000000 0.000000 -1.000000
vn 0.000000 0.000000 -1.000000
vn -0.996494 0.082660 -0.012948
vn -0.997921 0.060483 -0.022247
vn -0.998045 0.058260 -0.022609
vn -0.993433 0.112171 -0.022548
vn 0.000000 1.000000 -0.000000
vn 0.000000 1.000000 -0.000000
vn 0.000000 1.000000 -0.000000
vn 0.000000 1.000000 -0.000000
vn 0.998329 0.054688 -0.018663
vn 0.999617 0.000000 -0.027667
vn 0.999751 0.003187 -0.022096
vn 0.998138 0.060042 -0.010709
vn 0.000000 -0.000000 -1.000000
vn 0.000000 -0.000004 -1.000000
vn 0.000000 -0.000001 -1.000000
vn 0.000000 0.000000 -1.000000
vn -0.996871 0.079049 -0.000000
vn -0.996871 0.079049 -0.000000
vn -0.999982 -0.005994 -0.000000
vn -0.999970 -0.007696 -0.000000
vn -0.000000 1.000000 -0.000000
vn 0.000000 1.000000 -0.000000
vn 0.000000 1.000000 -0.000000
vn -0.000000 1.000000 -0.000000
vn -0.000000 1.000000 0.000000
vn -0.000000 1.000000 -0.000000
vn -0.000000 1.000000 -0.000000
vn -0.000000 1.000000 0.000000
vn 0.000000 1.000000 0.000000
vn -0.000000 1.000000 0.000000
vn -0.000000 1.000000 0.000000
vn 0.000000 1.000000 0.000000
vn 0.000000 1.000000 -0.000000
vn 0.000000 1.000000 0.000000
vn 0.000000 1.000000 0.000000
vn 0.000000 1.000000 -0.000000
vn -0.000004 0.157238 0.987561
vn 0.000000 0.157248 0.987559
vn 0.000000 0.029329 0.999570
vn 0.000000 0.071976 0.997406
vn -0.000000 0.070814 0.997490
vn -0.000007 0.022896 0.999738
vn 0.000000 0.000000 -1.000000
vn 0.000000 0.000000 -1.000000
vn 0.000000 0.000000 -1.000000
vn 0.000000 0.000000 -1.000000
vn -1.000000 0.000000 -0.000000
vn -1.000000 0.000000 -0.000000
vn -1.000000 0.000000 -0.000000
vn -1.000000 0.000000 -0.000000
vn 0.000000 0.000000 1.000000
vn 0.000000 0.000000 1.000000
vn 0.000000 0.000000 1.000000
vn 0.000000 0.000000 1.000000
vn 1.000000 0.000000 -0.000000
vn 1.000000 0.000000 -0.000000
vn 1.000000 0.000000 -0.000000
vn 1.000000 0.000000 -0.000000
vn 0.998861 0.047715 -0.000000
vn 0.998818 0.048615 -0.000000
vn 0.995273 0.097115 -0.000000
vn 0.995273 0.097116 -0.000000
vn -0.000025 0.923876 0.382691
vn -0.000025 0.923879 0.382685
vn -0.000027 1.000000 0.000006
vn -0.000027 1.000000 0.000006
vn 0.000001 0.000004 1.000000
vn -0.000032 -0.000005 1.000000
vn -0.000040 0.187364 0.982291
vn -0.000009 0.382679 0.923881
vn 0.000000 0.000000 -1.000000
vn -0.000004 0.157238 0.987561
vn -0.000004 0.157238 0.987561
f 84/84/84 83/83/83 82/82/82
f 87/87/87 86/86/86 85/85/85
f 87/87/87 85/85/85 84/84/84
f 87/87/87 84/84/84 82/82/82
f 90/90/90 89/89/89 88/88/88
f 88/88/88 91/91/91 90/90/90
f 94/94/94 93/93/93 92/92/92
f 92/92/92 95/95/95 94/94/94
f 98/98/98 97/97/97 96/96/96
f 96/96/96 99/99/99 98/98/98
f 102/102/102 101/101/101 100/100/100
f 100/100/100 103/103/103 102/102/102
f 106/106/106 105/105/105 104/104/104
f 104/104/104 107/107/107 106/106/106
f 110/110/110 109/109/109 108/108/108
f 108/108/108 111/111/111 110/110/110
f 114/114/114 113/113/113 112/112/112
f 112/112/112 115/115/115 114/114/114
f 118/118/118 117/117/117 116/116/116
f 116/116/116 119/119/119 118/118/118
f 122/122/122 121/121/121 120/120/120
f 120/120/120 123/123/123 122/122/122
f 126/126/126 125/125/125 124/124/124
f 124/124/124 127/127/127 126/126/126
f 130/130/130 129/129/129 164/164/164
f 131/131/131 130/130/130 164/164/164
f 132/132/132 131/131/131 164/164/164
f 133/133/133 132/132/132 164/164/164
f 162/162/162 135/135/135 134/134/134
f 134/134/134 137/137/137 162/162/162
f 140/140/140 139/139/139 138/138/138
f 138/138/138 141/141/141 140/140/140
f 144/144/144 143/143/143 142/142/142
f 142/142/142 145/145/145 144/144/144
f 148/148/148 147/147/147 146/146/146
f 146/146/146 149/149/149 148/148/148
f 152/152/152 151/151/151 150/150/150
f 150/150/150 153/153/153 152/152/152
f 156/156/156 155/155/155 154/154/154
f 154/154/154 157/157/157 156/156/156
f 160/160/160 159/159/159 158/158/158
f 158/158/158 161/161/161 160/160/160
f 154/154/154 155/155/155 160/160/160
f 160/160/160 161/161/161 154/154/154
o G3_Object_Fireplace_04_2
usemtl G3_Architecture_WallHouse_02_A
v -1.042715 0.900002 1.043802
v -0.956250 0.900000 1.043799
v -0.956230 0.562500 1.043801
v -1.042715 0.562501 1.043804
v -1.042715 0.900002 0.308357
v -1.042715 0.900002 1.043802
v -1.042715 0.562501 1.043804
v -1.042715 0.562501 0.308359
v -0.082275 0.900002 1.043802
v -0.082275 0.900002 0.308357
v -0.082275 0.562501 0.308359
v -0.082275 0.562501 1.043804
v -0.168750 0.900000 1.043799
v -0.082275 0.900002 1.043802
v -0.082275 0.562501 1.043804
v -0.168730 0.562500 1.043801
v -0.082275 0.900002 0.308357
v -1.042715 0.900002 0.308357
v -1.042715 0.562501 0.308359
v -0.082275 0.562501 0.308359
v -0.082275 0.225000 0.308362
v -1.042725 0.225000 0.308362
v -1.042725 0.225000 1.043806
v -0.956221 0.225000 1.043804
v -0.168721 0.225000 1.043804
v -0.082275 0.225000 1.043806
v 1.800000 0.810000 1.261085
v 1.800000 0.000000 1.261085
v 1.800000 0.000000 0.001082
v 1.800000 0.810000 0.001082
v 1.800000 0.810000 0.001082
v 1.800000 0.000000 0.001082
v 0.225000 0.000000 0.001082
v 0.225000 0.810000 0.001082
v 1.800000 0.000000 1.261085
v 1.800000 0.810000 1.261085
v 1.710000 0.810000 1.261084
v 1.710000 0.225014 1.261080
v 1.710000 0.000000 1.261079
v 0.225000 0.269976 0.721083
v 1.710000 0.270017 0.721080
v 1.710000 0.810003 0.721084
v 0.225000 0.810003 0.721079
v 1.710000 0.225014 1.261080
v 1.710000 0.810000 1.261084
v 1.710000 0.270014 1.216080
v 1.710000 0.810003 0.721084
v 1.710000 0.270017 0.721080
v -0.956221 0.225000 1.043804
v -1.042725 0.225000 1.043806
v -1.042725 0.225000 1.043806
v -1.042725 0.225000 0.308362
v -0.082275 0.225000 0.308362
v -0.082275 0.225000 1.043806
v -0.082275 0.225000 1.043806
v -0.168721 0.225000 1.043804
v -1.042725 0.225000 0.308362
v -0.082275 0.225000 0.308362
v -1.042725 0.225000 0.308362
v -1.042715 0.562501 1.043804
v -1.042715 0.562501 0.308359
v -0.082275 0.562501 1.043804
vt 0.499749 0.499750
vt 0.454777 0.499748
vt 0.454771 0.249999
vt 0.499749 0.250000
vt 0.499750 0.499750
vt 0.000253 0.499750
vt 0.000251 0.250000
vt 0.499749 0.250000
vt 0.499747 0.499750
vt 0.000250 0.499750
vt 0.000251 0.250000
vt 0.499749 0.250000
vt 0.045221 0.499748
vt 0.000250 0.499750
vt 0.000251 0.250000
vt 0.045215 0.249999
vt 0.499750 0.499750
vt 0.000252 0.499750
vt 0.000251 0.250000
vt 0.499749 0.250000
vt 0.499749 0.499747
vt 0.000250 0.499747
vt 0.000250 0.000250
vt 0.045235 0.000252
vt 0.454792 0.000252
vt 0.499748 0.000250
vt 0.149999 0.724999
vt 0.149999 0.274999
vt 0.850001 0.274999
vt 0.850001 0.724999
vt -0.141411 0.725000
vt -0.141411 0.275000
vt 0.733589 0.275000
vt 0.733589 0.725000
vt 0.525000 0.274999
vt 0.525000 0.724999
vt 0.475000 0.724999
vt 0.475000 0.400007
vt 0.475000 0.274999
vt 0.087501 0.549153
vt 0.912501 0.549170
vt 0.912501 0.772429
vt 0.087501 0.772430
vt 0.849998 0.400007
vt 0.850000 0.724999
vt 0.824998 0.425007
vt 0.550000 0.725001
vt 0.549999 0.425008
vt 0.454765 0.000250
vt 0.499750 0.000250
vt 0.000250 0.000250
vt 0.499747 0.000250
vt 0.000253 0.000250
vt 0.499750 0.000250
vt 0.000252 0.000250
vt 0.045208 0.000250
vt 0.000250 0.000250
vt 0.499749 0.000250
vt 0.000250 0.000250
vt 0.499749 0.250000
vt 0.499749 0.250000
vt 0.499749 0.250000
vn -0.000033 0.000019 -1.000000
vn -0.000017 0.000042 -1.000000
vn -0.000033 -0.000006 -1.000000
vn -0.000033 -0.000006 -1.000000
vn 1.000000 -0.000002 -0.000000
vn 1.000000 -0.000002 -0.000000
vn 1.000000 -0.000005 -0.000000
vn 1.000000 -0.000005 -0.000000
vn -1.000000 0.000002 -0.000000
vn -1.000000 0.000002 -0.000000
vn -1.000000 0.000005 -0.000000
vn -1.000000 0.000005 -0.000000
vn 0.000017 0.000042 -1.000000
vn 0.000034 0.000019 -1.000000
vn 0.000033 -0.000006 -1.000000
vn 0.000033 -0.000006 -1.000000
vn 0.000000 -0.000019 1.000000
vn 0.000000 -0.000019 1.000000
vn 0.000000 0.000006 1.000000
vn 0.000000 0.000006 1.000000
vn 0.000000 1.000000 -0.000000
vn 0.000000 1.000000 -0.000000
vn 0.000000 1.000000 -0.000000
vn 0.000000 1.000000 -0.000000
vn 0.000000 1.000000 -0.000000
vn 0.000000 1.000000 -0.000000
vn 1.000000 0.000000 -0.000000
vn 1.000000 0.000000 -0.000000
vn 1.000000 0.000000 -0.000000
vn 1.000000 0.000000 -0.000000
vn -0.000000 0.000000 -1.000000
vn 0.000000 0.000000 -1.000000
vn -0.000000 0.000001 -1.000000
vn -0.000001 0.000001 -1.000000
vn -0.000064 -0.000004 1.000000
vn -0.000023 0.000000 1.000000
vn -0.000026 -0.000000 1.000000
vn -0.000040 0.187364 0.982291
vn -0.000032 -0.000005 1.000000
vn -0.000002 0.000003 1.000000
vn 0.000001 -0.000005 1.000000
vn 0.000000 -0.000003 1.000000
vn -0.000003 0.000005 1.000000
vn -1.000000 0.000000 -0.000007
vn -1.000000 -0.000000 -0.000006
vn -1.000000 -0.000000 -0.000006
vn -1.000000 -0.000000 -0.000006
vn -1.000000 0.000000 -0.000006
vn -0.000033 -0.000006 -1.000000
vn -0.000034 -0.000006 -1.000000
vn 1.000000 -0.000005 -0.000000
vn 1.000000 -0.000005 -0.000000
vn -1.000000 0.000005 -0.000000
vn -1.000000 0.000005 -0.000000
vn 0.000033 -0.000006 -1.000000
vn 0.000034 -0.000006 -1.000000
vn 0.000000 0.000006 1.000000
vn 0.000000 0.000006 1.000000
vn 0.000000 0.000006 1.000000
vn -0.000033 -0.000006 -1.000000
vn 1.000000 -0.000005 -0.000000
vn -1.000000 0.000005 -0.000000
f 167/167/167 166/166/166 165/165/165
f 165/165/165 168/168/168 167/167/167
f 171/171/171 170/170/170 169/169/169
f 169/169/169 172/172/172 171/171/171
f 175/175/175 174/174/174 173/173/173
f 173/173/173 176/176/176 175/175/175
f 179/179/179 178/178/178 177/177/177
f 177/177/177 180/180/180 179/179/179
f 183/183/183 182/182/182 181/181/181
f 181/181/181 184/184/184 183/183/183
f 187/187/187 186/186/186 185/185/185
f 188/188/188 187/187/187 185/185/185
f 189/189/189 188/188/188 185/185/185
f 190/190/190 189/189/189 185/185/185
f 193/193/193 192/192/192 191/191/191
f 191/191/191 194/194/194 193/193/193
f 197/197/197 196/196/196 195/195/195
f 195/195/195 198/198/198 197/197/197
f 201/201/201 200/200/200 199/199/199
f 202/202/202 201/201/201 199/199/199
f 203/203/203 202/202/202 199/199/199
f 206/206/206 205/205/205 204/204/204
f 204/204/204 207/207/207 206/206/206
f 210/210/210 209/209/209 208/208/208
f 211/211/211 209/209/209 210/210/210
f 210/210/210 212/212/212 211/211/211
f 213/213/213 167/167/167 224/224/224
f 224/224/224 214/214/214 213/213/213
f 215/215/215 171/171/171 225/225/225
f 225/225/225 216/216/216 215/215/215
f 217/217/217 175/175/175 226/226/226
f 226/226/226 218/218/218 217/217/217
f 219/219/219 179/179/179 180/180/180
f 180/180/180 220/220/220 219/219/219
f 223/223/223 183/183/183 184/184/184
f 184/184/184 222/222/222 223/223/223
o G3_Object_Fireplace_04_3
usemtl G3_Architecture_Wood_Burned_02_A
v -0.282998 0.297471 1.083496
v -0.424883 0.353428 1.061501
v -0.456826 0.380330 0.534866
v -0.303213 0.371176 0.492473
v -0.256602 0.393276 1.089600
v -0.325889 0.469805 0.504502
v -0.410020 0.460002 0.580022
v -0.364248 0.447366 1.022644
v -0.364248 0.447366 1.022644
v -0.410020 0.460002 0.580022
v -0.456826 0.380330 0.534866
v -0.424883 0.353428 1.061501
v -0.256602 0.393276 1.089600
v -0.364248 0.447366 1.022644
v -0.424883 0.353428 1.061501
v -0.282998 0.297471 1.083496
v -0.325889 0.469805 0.504502
v -0.256602 0.393276 1.089600
v -0.282998 0.297471 1.083496
v -0.303213 0.371176 0.492473
v -0.410020 0.460002 0.580022
v -0.325889 0.469805 0.504502
v -0.303213 0.371176 0.492473
v -0.456826 0.380330 0.534866
v -0.237314 0.213625 0.845730
v -0.223252 0.228497 0.998467
v -0.725518 0.213625 1.161528
v -0.804580 0.242952 1.025999
v -0.237314 0.313189 0.845730
v -0.786709 0.332584 1.071086
v -0.692822 0.305471 1.128776
v -0.275283 0.332584 0.976804
v -0.275283 0.332584 0.976804
v -0.692822 0.305471 1.128776
v -0.725518 0.213625 1.161528
v -0.223252 0.228497 0.998467
v -0.237314 0.313189 0.845730
v -0.275283 0.332584 0.976804
v -0.223252 0.228497 0.998467
v -0.237314 0.213625 0.845730
v -0.786709 0.332584 1.071086
v -0.237314 0.313189 0.845730
v -0.237314 0.213625 0.845730
v -0.804580 0.242952 1.025999
v -0.692822 0.305471 1.128776
v -0.786709 0.332584 1.071086
v -0.804580 0.242952 1.025999
v -0.725518 0.213625 1.161528
v -0.240469 0.208635 0.487090
v -0.184746 0.230057 0.629161
v -0.623252 0.307054 0.913547
v -0.730176 0.340787 0.799933
v -0.226299 0.306686 0.477173
v -0.688506 0.428819 0.829944
v -0.587598 0.390223 0.864664
v -0.225293 0.339767 0.610975
v -0.225293 0.339767 0.610975
v -0.587598 0.390223 0.864664
v -0.623252 0.307054 0.913547
v -0.184746 0.230057 0.629161
v -0.226299 0.306686 0.477173
v -0.225293 0.339767 0.610975
v -0.184746 0.230057 0.629161
v -0.240469 0.208635 0.487090
v -0.688506 0.428819 0.829944
v -0.226299 0.306686 0.477173
v -0.240469 0.208635 0.487090
v -0.730176 0.340787 0.799933
v -0.587598 0.390223 0.864664
v -0.688506 0.428819 0.829944
v -0.730176 0.340787 0.799933
v -0.623252 0.307054 0.913547
v -0.789180 0.213625 0.930034
v -0.776504 0.228497 0.777175
v -0.253545 0.213625 0.703810
v -0.199219 0.242952 0.851008
v -0.789180 0.313189 0.930034
v -0.208994 0.332584 0.803502
v -0.291436 0.305471 0.730386
v -0.729023 0.332584 0.807544
v -0.729023 0.332584 0.807544
v -0.291436 0.305471 0.730386
v -0.253545 0.213625 0.703810
v -0.776504 0.228497 0.777175
v -0.789180 0.313189 0.930034
v -0.729023 0.332584 0.807544
v -0.776504 0.228497 0.777175
v -0.789180 0.213625 0.930034
v -0.208994 0.332584 0.803502
v -0.789180 0.313189 0.930034
v -0.789180 0.213625 0.930034
v -0.199219 0.242952 0.851008
v -0.291436 0.305471 0.730386
v -0.208994 0.332584 0.803502
v -0.199219 0.242952 0.851008
v -0.253545 0.213625 0.703810
v -0.284111 0.213625 0.458877
v -0.131250 0.228497 0.471550
v -0.057891 0.213625 0.994508
v -0.205088 0.242952 1.048829
v -0.284111 0.313189 0.458877
v -0.157578 0.332584 1.039060
v -0.084463 0.305471 0.956614
v -0.161621 0.332584 0.519031
v -0.161621 0.332584 0.519031
v -0.084463 0.305471 0.956614
v -0.057891 0.213625 0.994508
v -0.131250 0.228497 0.471550
v -0.284111 0.313189 0.458877
v -0.161621 0.332584 0.519031
v -0.131250 0.228497 0.471550
v -0.284111 0.213625 0.458877
v -0.157578 0.332584 1.039060
v -0.284111 0.313189 0.458877
v -0.284111 0.213625 0.458877
v -0.205088 0.242952 1.048829
v -0.084463 0.305471 0.956614
v -0.157578 0.332584 1.039060
v -0.205088 0.242952 1.048829
v -0.057891 0.213625 0.994508
v -0.786885 0.297471 0.313413
v -0.650977 0.353428 0.359712
v -0.710967 0.380330 0.883893
v -0.869609 0.371176 0.898967
v -0.811826 0.393276 0.302817
v -0.845195 0.469805 0.891058
v -0.749219 0.460002 0.831294
v -0.717432 0.447366 0.387449
v -0.717432 0.447366 0.387449
v -0.749219 0.460002 0.831294
v -0.710967 0.380330 0.883893
v -0.650977 0.353428 0.359712
v -0.811826 0.393276 0.302817
v -0.717432 0.447366 0.387449
v -0.650977 0.353428 0.359712
v -0.786885 0.297471 0.313413
v -0.845195 0.469805 0.891058
v -0.811826 0.393276 0.302817
v -0.786885 0.297471 0.313413
v -0.869609 0.371176 0.898967
v -0.749219 0.460002 0.831294
v -0.845195 0.469805 0.891058
v -0.869609 0.371176 0.898967
v -0.710967 0.380330 0.883893
v -0.873174 0.213625 0.539634
v -0.860498 0.228497 0.386775
v -0.337539 0.213625 0.313408
v -0.283213 0.242952 0.460608
v -0.873174 0.313189 0.539634
v -0.292988 0.332584 0.413101
v -0.375430 0.305471 0.339985
v -0.813018 0.332584 0.417144
v -0.813018 0.332584 0.417144
v -0.375430 0.305471 0.339985
v -0.337539 0.213625 0.313408
v -0.860498 0.228497 0.386775
v -0.873174 0.313189 0.539634
v -0.813018 0.332584 0.417144
v -0.860498 0.228497 0.386775
v -0.873174 0.213625 0.539634
v -0.292988 0.332584 0.413101
v -0.873174 0.313189 0.539634
v -0.873174 0.213625 0.539634
v -0.283213 0.242952 0.460608
v -0.375430 0.305471 0.339985
v -0.292988 0.332584 0.413101
v -0.283213 0.242952 0.460608
v -0.337539 0.213625 0.313408
v -0.932344 0.208635 0.893372
v -0.962539 0.230057 0.743784
v -0.481318 0.307054 0.539863
v -0.395742 0.340787 0.670320
v -0.948008 0.306686 0.900679
v -0.431563 0.428819 0.633529
v -0.524922 0.390223 0.581814
v -0.925771 0.339767 0.768734
v -0.925771 0.339767 0.768734
v -0.524922 0.390223 0.581814
v -0.481318 0.307054 0.539863
v -0.962539 0.230057 0.743784
v -0.948008 0.306686 0.900679
v -0.925771 0.339767 0.768734
v -0.962539 0.230057 0.743784
v -0.932344 0.208635 0.893372
v -0.431563 0.428819 0.633529
v -0.948008 0.306686 0.900679
v -0.932344 0.208635 0.893372
v -0.395742 0.340787 0.670320
v -0.524922 0.390223 0.581814
v -0.431563 0.428819 0.633529
v -0.395742 0.340787 0.670320
v -0.481318 0.307054 0.539863
v -0.315049 0.213625 0.552441
v -0.354072 0.228497 0.700775
v -0.881826 0.213625 0.682216
v -0.909766 0.242952 0.527820
v -0.315049 0.313189 0.552441
v -0.908389 0.332584 0.576301
v -0.839893 0.305471 0.662625
v -0.395557 0.332584 0.662625
v -0.395557 0.332584 0.662625
v -0.839893 0.305471 0.662625
v -0.881826 0.213625 0.682216
v -0.354072 0.228497 0.700775
v -0.315049 0.313189 0.552441
v -0.395557 0.332584 0.662625
v -0.354072 0.228497 0.700775
v -0.315049 0.213625 0.552441
v -0.908389 0.332584 0.576301
v -0.315049 0.313189 0.552441
v -0.315049 0.213625 0.552441
v -0.909766 0.242952 0.527820
v -0.839893 0.305471 0.662625
v -0.908389 0.332584 0.576301
v -0.909766 0.242952 0.527820
v -0.881826 0.213625 0.682216
v -0.894258 0.213625 0.928735
v -1.042588 0.228497 0.889711
v -1.024033 0.213625 0.361958
v -0.869639 0.242952 0.334023
v -0.894258 0.313189 0.928735
v -0.918115 0.332584 0.335396
v -1.004443 0.305471 0.403892
v -1.004443 0.332584 0.848226
v -1.004443 0.332584 0.848226
v -1.004443 0.305471 0.403892
v -1.024033 0.213625 0.361958
v -1.042588 0.228497 0.889711
v -0.894258 0.313189 0.928735
v -1.004443 0.332584 0.848226
v -1.042588 0.228497 0.889711
v -0.894258 0.213625 0.928735
v -0.918115 0.332584 0.335396
v -0.894258 0.313189 0.928735
v -0.894258 0.213625 0.928735
v -0.869639 0.242952 0.334023
v -1.004443 0.305471 0.403892
v -0.918115 0.332584 0.335396
v -0.869639 0.242952 0.334023
v -1.024033 0.213625 0.361958
vt -0.241336 0.010000
vt -0.011792 0.061303
vt -0.010000 0.871095
vt -0.244996 0.922748
vt -0.270249 0.010000
vt -0.272825 0.920601
vt -0.409029 0.820582
vt -0.434482 0.139683
vt -0.799441 0.761972
vt -0.783346 0.079520
vt -0.645003 0.010000
vt -0.637560 0.819581
vt -0.979977 0.220939
vt -0.990000 0.049671
vt -0.824694 0.010000
vt -0.828322 0.238579
vt -0.464003 0.010000
vt -0.459736 0.920346
vt -0.612307 0.926049
vt -0.601434 0.013031
vt -0.958318 0.448407
vt -0.973821 0.310528
vt -0.824694 0.263832
vt -0.825817 0.504824
vt -0.241336 0.010000
vt -0.011792 0.061303
vt -0.010000 0.871095
vt -0.244996 0.922748
vt -0.270249 0.010000
vt -0.272825 0.920601
vt -0.409029 0.820582
vt -0.434482 0.139683
vt -0.799441 0.761972
vt -0.783346 0.079520
vt -0.645003 0.010000
vt -0.637560 0.819581
vt -0.979977 0.220939
vt -0.990000 0.049671
vt -0.824694 0.010000
vt -0.828322 0.238579
vt -0.464003 0.010000
vt -0.459736 0.920346
vt -0.612307 0.926049
vt -0.601434 0.013031
vt -0.958318 0.448407
vt -0.973821 0.310528
vt -0.824694 0.263832
vt -0.825817 0.504824
vt -0.241336 0.010000
vt -0.011792 0.061303
vt -0.010000 0.871095
vt -0.244996 0.922748
vt -0.270249 0.010000
vt -0.272825 0.920601
vt -0.409029 0.820582
vt -0.434482 0.139683
vt -0.799441 0.761972
vt -0.783346 0.079520
vt -0.645003 0.010000
vt -0.637560 0.819581
vt -0.979977 0.220939
vt -0.990000 0.049671
vt -0.824694 0.010000
vt -0.828322 0.238579
vt -0.464003 0.010000
vt -0.459736 0.920346
vt -0.612307 0.926049
vt -0.601434 0.013031
vt -0.958318 0.448407
vt -0.973821 0.310528
vt -0.824694 0.263832
vt -0.825817 0.504824
vt -0.241336 0.010000
vt -0.011792 0.061303
vt -0.010000 0.871095
vt -0.244996 0.922748
vt -0.270249 0.010000
vt -0.272825 0.920601
vt -0.409029 0.820582
vt -0.434482 0.139683
vt -0.799441 0.761972
vt -0.783346 0.079520
vt -0.645003 0.010000
vt -0.637560 0.819581
vt -0.979977 0.220939
vt -0.990000 0.049671
vt -0.824694 0.010000
vt -0.828322 0.238579
vt -0.464003 0.010000
vt -0.459736 0.920346
vt -0.612307 0.926049
vt -0.601434 0.013031
vt -0.958318 0.448407
vt -0.973821 0.310528
vt -0.824694 0.263832
vt -0.825817 0.504824
vt -0.241336 0.010000
vt -0.011792 0.061303
vt -0.010000 0.871095
vt -0.244996 0.922748
vt -0.270249 0.010000
vt -0.272825 0.920601
vt -0.409029 0.820582
vt -0.434482 0.139683
vt -0.799441 0.761972
vt -0.783346 0.079520
vt -0.645003 0.010000
vt -0.637560 0.819581
vt -0.979977 0.220939
vt -0.990000 0.049671
vt -0.824694 0.010000
vt -0.828322 0.238579
vt -0.464003 0.010000
vt -0.459736 0.920346
vt -0.612307 0.926049
vt -0.601434 0.013031
vt -0.958318 0.448407
vt -0.973821 0.310528
vt -0.824694 0.263832
vt -0.825817 0.504824
vt -0.241336 0.010000
vt -0.011792 0.061303
vt -0.010000 0.871095
vt -0.244996 0.922748
vt -0.270249 0.010000
vt -0.272825 0.920601
vt -0.409029 0.820582
vt -0.434482 0.139683
vt -0.799441 0.761972
vt -0.783346 0.079520
vt -0.645003 0.010000
vt -0.637560 0.819581
vt -0.979977 0.220939
vt -0.990000 0.049671
vt -0.824694 0.010000
vt -0.828322 0.238579
vt -0.464003 0.010000
vt -0.459736 0.920346
vt -0.612307 0.926049
vt -0.601434 0.013031
vt -0.958318 0.448407
vt -0.973821 0.310528
vt -0.824694 0.263832
vt -0.825817 0.504824
vt -0.241336 0.010000
vt -0.011792 0.061303
vt -0.010000 0.871095
vt -0.244996 0.922748
vt -0.270249 0.010000
vt -0.272825 0.920601
vt -0.409029 0.820582
vt -0.434482 0.139683
vt -0.799441 0.761972
vt -0.783346 0.079520
vt -0.645003 0.010000
vt -0.637560 0.819581
vt -0.979977 0.220939
vt -0.990000 0.049671
vt -0.824694 0.010000
vt -0.828322 0.238579
vt -0.464003 0.010000
vt -0.459736 0.920346
vt -0.612307 0.926049
vt -0.601434 0.013031
vt -0.958318 0.448407
vt -0.973821 0.310528
vt -0.824694 0.263832
vt -0.825817 0.504824
vt -0.241336 0.010000
vt -0.011792 0.061303
vt -0.010000 0.871095
vt -0.244996 0.922748
vt -0.270249 0.010000
vt -0.272825 0.920601
vt -0.409029 0.820582
vt -0.434482 0.139683
vt -0.799441 0.761972
vt -0.783346 0.079520
vt -0.645003 0.010000
vt -0.637560 0.819581
vt -0.979977 0.220939
vt -0.990000 0.049671
vt -0.824694 0.010000
vt -0.828322 0.238579
vt -0.464003 0.010000
vt -0.459736 0.920346
vt -0.612307 0.926049
vt -0.601434 0.013031
vt -0.958318 0.448407
vt -0.973821 0.310528
vt -0.824694 0.263832
vt -0.825817 0.504824
vt -0.241336 0.010000
vt -0.011792 0.061303
vt -0.010000 0.871095
vt -0.244996 0.922748
vt -0.270249 0.010000
vt -0.272825 0.920601
vt -0.409029 0.820582
vt -0.434482 0.139683
vt -0.799441 0.761972
vt -0.783346 0.079520
vt -0.645003 0.010000
vt -0.637560 0.819581
vt -0.979977 0.220939
vt -0.990000 0.049671
vt -0.824694 0.010000
vt -0.828322 0.238579
vt -0.464003 0.010000
vt -0.459736 0.920346
vt -0.612307 0.926049
vt -0.601434 0.013031
vt -0.958318 0.448407
vt -0.973821 0.310528
vt -0.824694 0.263832
vt -0.825817 0.504824
vt -0.241336 0.010000
vt -0.011792 0.061303
vt -0.010000 0.871095
vt -0.244996 0.922748
vt -0.270249 0.010000
vt -0.272825 0.920601
vt -0.409029 0.820582
vt -0.434482 0.139683
vt -0.799441 0.761972
vt -0.783346 0.079520
vt -0.645003 0.010000
vt -0.637560 0.819581
vt -0.979977 0.220939
vt -0.990000 0.049671
vt -0.824694 0.010000
vt -0.828322 0.238579
vt -0.464003 0.010000
vt -0.459736 0.920346
vt -0.612307 0.926049
vt -0.601434 0.013031
vt -0.958318 0.448407
vt -0.973821 0.310528
vt -0.824694 0.263832
vt -0.825817 0.504824
vn -0.311504 -0.949195 -0.044656
vn -0.363327 -0.931312 -0.025535
vn -0.132491 -0.985409 -0.106845
vn -0.092052 -0.988482 -0.120122
vn 0.380598 0.924718 0.006496
vn 0.000797 0.991566 0.129599
vn 0.044933 0.992187 0.116392
vn 0.459835 0.887727 -0.022205
vn -0.828825 0.553581 0.081228
vn -0.882195 0.459180 0.104331
vn -0.871400 0.480404 0.099365
vn -0.822428 0.563404 0.078664
vn -0.208071 0.204237 0.956553
vn -0.257335 0.506515 0.822935
vn -0.227229 0.308270 0.923762
vn -0.160350 -0.018690 0.986883
vn 0.984186 0.175944 -0.020530
vn 0.956020 -0.254122 -0.146450
vn 0.969920 -0.204136 -0.132602
vn 0.974433 0.224616 -0.005320
vn -0.384141 0.371285 -0.845331
vn -0.662759 -0.061316 -0.746319
vn -0.481986 0.248561 -0.840183
vn -0.187911 0.565539 -0.803029
vn 0.027656 -0.998703 0.042755
vn 0.059089 -0.994064 0.091349
vn -0.077024 -0.989893 -0.119076
vn -0.099892 -0.982941 -0.154429
vn -0.081844 0.991132 -0.104687
vn 0.131621 0.962291 0.238057
vn 0.107932 0.973782 0.200247
vn -0.129448 0.974789 -0.181742
vn 0.286785 0.317884 0.903717
vn 0.321755 0.214310 0.922250
vn 0.314411 0.237291 0.919151
vn 0.282783 0.328876 0.901041
vn 0.979578 0.199998 0.020704
vn 0.864157 0.469609 0.180830
vn 0.953185 0.293012 0.074710
vn 0.995788 0.000000 -0.091687
vn -0.261733 0.429020 -0.864545
vn -0.379504 0.000000 -0.925190
vn -0.369202 0.052634 -0.927858
vn -0.244281 0.474202 -0.845849
vn -0.721995 0.203583 0.661269
vn -0.559994 -0.280496 0.779570
vn -0.693626 0.059863 0.717844
vn -0.728221 0.445130 0.521108
vn -0.104422 -0.985504 0.133710
vn -0.060984 -0.983179 0.172164
vn -0.245632 -0.969358 0.003235
vn -0.275764 -0.960880 -0.025769
vn 0.035344 0.983212 -0.179013
vn 0.325105 0.940333 0.100403
vn 0.294187 0.953269 0.068787
vn -0.032677 0.970308 -0.239653
vn 0.556623 0.319931 0.766691
vn 0.580135 0.213325 0.786089
vn 0.575581 0.236971 0.782657
vn 0.553663 0.331250 0.764022
vn 0.968639 0.038346 -0.245494
vn 0.938977 0.332205 -0.089227
vn 0.970893 0.137461 -0.196139
vn 0.926092 -0.167934 -0.337864
vn -0.416169 0.413866 -0.809641
vn -0.605530 0.006978 -0.795792
vn -0.588914 0.056973 -0.806185
vn -0.388170 0.456623 -0.800512
vn -0.486030 0.357572 0.797444
vn -0.369179 -0.138559 0.918971
vn -0.464519 0.214766 0.859126
vn -0.494486 0.588141 0.639980
vn -0.019811 -0.998703 -0.046908
vn -0.042329 -0.994064 -0.100222
vn 0.055177 -0.989893 0.130642
vn 0.071558 -0.982941 0.169429
vn 0.062422 0.991132 0.117309
vn -0.088284 0.962291 -0.257296
vn -0.071520 0.973782 -0.215947
vn 0.095922 0.974789 0.201459
vn -0.125500 0.317883 -0.939787
vn -0.156720 0.214309 -0.964111
vn -0.150026 0.237290 -0.959784
vn -0.122023 0.328875 -0.936457
vn -0.961100 0.199998 -0.190492
vn -0.819628 0.469609 -0.328143
vn -0.925731 0.293013 -0.239095
vn -0.996581 0.000000 -0.082623
vn 0.107630 0.429021 0.896859
vn 0.213081 0.000000 0.977034
vn 0.202472 0.052634 0.977873
vn 0.093690 0.474203 0.875416
vn 0.825855 0.203579 -0.525851
vn 0.686856 -0.280500 -0.670484
vn 0.807740 0.059858 -0.586492
vn 0.807649 0.445127 -0.386738
vn 0.046908 -0.998703 -0.019811
vn 0.100222 -0.994064 -0.042329
vn -0.130643 -0.989893 0.055177
vn -0.169429 -0.982941 0.071558
vn -0.117309 0.991132 0.062422
vn 0.257296 0.962292 -0.088283
vn 0.215946 0.973782 -0.071519
vn -0.201460 0.974789 0.095923
vn 0.939787 0.317885 -0.125500
vn 0.964111 0.214308 -0.156721
vn 0.959784 0.237290 -0.150027
vn 0.936456 0.328877 -0.122023
vn 0.190494 0.200000 -0.961100
vn 0.328145 0.469611 -0.819626
vn 0.239096 0.293014 -0.925730
vn 0.082624 0.000000 -0.996581
vn -0.896861 0.429017 0.107631
vn -0.977035 0.000000 0.213081
vn -0.977873 0.052634 0.202471
vn -0.875419 0.474199 0.093691
vn 0.525850 0.203580 0.825855
vn 0.670484 -0.280498 0.686857
vn 0.586492 0.059859 0.807740
vn 0.386737 0.445128 0.807648
vn 0.299017 -0.949195 0.098070
vn 0.353373 -0.931312 0.088238
vn 0.111925 -0.985409 0.128229
vn 0.069794 -0.988482 0.134282
vn -0.373688 0.924718 -0.072487
vn 0.021720 0.991566 -0.127769
vn -0.024040 0.992187 -0.122426
vn -0.456705 0.887727 -0.057982
vn 0.830338 0.553581 0.063930
vn 0.886909 0.459181 0.050446
vn 0.875416 0.480404 0.053461
vn 0.823593 0.563404 0.065344
vn 0.371014 0.204237 -0.905890
vn 0.396327 0.506515 -0.765746
vn 0.384187 0.308270 -0.870270
vn 0.329284 -0.018690 -0.944046
vn -0.972799 0.175944 -0.150684
vn -0.966927 -0.254122 -0.021786
vn -0.978211 -0.204136 -0.037838
vn -0.960553 0.224617 -0.163969
vn 0.231515 0.371285 0.899193
vn 0.523093 -0.061317 0.850067
vn 0.328768 0.248560 0.911114
vn 0.045612 0.565539 0.823459
vn -0.019811 -0.998703 -0.046908
vn -0.042329 -0.994064 -0.100222
vn 0.055177 -0.989893 0.130642
vn 0.071558 -0.982941 0.169429
vn 0.062422 0.991132 0.117309
vn -0.088284 0.962291 -0.257297
vn -0.071520 0.973782 -0.215947
vn 0.095922 0.974789 0.201459
vn -0.125500 0.317884 -0.939787
vn -0.156720 0.214310 -0.964111
vn -0.150026 0.237291 -0.959784
vn -0.122023 0.328876 -0.936457
vn -0.961100 0.199998 -0.190491
vn -0.819628 0.469609 -0.328142
vn -0.925731 0.293012 -0.239094
vn -0.996581 0.000000 -0.082622
vn 0.107630 0.429020 0.896860
vn 0.213081 0.000000 0.977035
vn 0.202472 0.052634 0.977873
vn 0.093690 0.474202 0.875417
vn 0.825855 0.203582 -0.525850
vn 0.686857 -0.280496 -0.670484
vn 0.807740 0.059862 -0.586492
vn 0.807647 0.445130 -0.386737
vn 0.126054 -0.985504 -0.113546
vn 0.089953 -0.983179 -0.158959
vn 0.242462 -0.969358 0.039468
vn 0.267100 -0.960880 0.073263
vn -0.065892 0.983212 0.170156
vn -0.302731 0.940333 -0.155332
vn -0.277773 0.953269 -0.118827
vn -0.009435 0.970308 0.241687
vn -0.415032 0.319931 -0.851700
vn -0.434818 0.213325 -0.874886
vn -0.430930 0.236971 -0.870715
vn -0.412581 0.331250 -0.848558
vn -0.996553 0.038347 0.073562
vn -0.940206 0.332205 -0.075180
vn -0.990203 0.137462 0.024565
vn -0.970692 -0.167933 0.171917
vn 0.269253 0.413866 0.869608
vn 0.458143 0.006977 0.888851
vn 0.439974 0.056973 0.896201
vn 0.243265 0.456623 0.855755
vn 0.617121 0.357572 -0.700931
vn 0.523147 -0.138560 -0.840903
vn 0.606647 0.214766 -0.765412
vn 0.598105 0.588141 -0.544390
vn 0.011365 -0.998703 0.049635
vn 0.024282 -0.994064 0.106050
vn -0.031653 -0.989893 -0.138239
vn -0.041050 -0.982941 -0.179281
vn -0.041103 0.991132 -0.126367
vn 0.042263 0.962291 0.268718
vn 0.032934 0.973782 0.225085
vn -0.059482 0.974789 -0.215055
vn -0.039599 0.317883 0.947303
vn -0.013077 0.214309 0.976679
vn -0.018918 0.237290 0.971255
vn -0.042444 0.328875 0.943419
vn 0.913421 0.199998 0.354491
vn 0.750194 0.469609 0.465484
vn 0.870148 0.293013 0.396214
vn 0.967093 0.000000 0.254422
vn 0.049743 0.429021 -0.901924
vn -0.040184 0.000000 -0.999192
vn -0.029590 0.052634 -0.998175
vn 0.059748 0.474202 -0.878386
vn -0.904622 0.203579 0.374453
vn -0.792850 -0.280499 0.541026
vn -0.897312 0.059858 0.437319
vn -0.862535 0.445127 0.240616
vn -0.049635 -0.998703 0.011365
vn -0.106050 -0.994064 0.024282
vn 0.138239 -0.989893 -0.031653
vn 0.179281 -0.982941 -0.041050
vn 0.126367 0.991132 -0.041103
vn -0.268717 0.962292 0.042263
vn -0.225085 0.973782 0.032934
vn 0.215056 0.974789 -0.059482
vn -0.947302 0.317886 -0.039599
vn -0.976679 0.214308 -0.013076
vn -0.971255 0.237290 -0.018917
vn -0.943418 0.328878 -0.042444
vn -0.354492 0.200000 0.913420
vn -0.465486 0.469611 0.750192
vn -0.396215 0.293014 0.870148
vn -0.254422 0.000000 0.967093
vn 0.901926 0.429017 0.049742
vn 0.999192 0.000000 -0.040183
vn 0.998175 0.052634 -0.029590
vn 0.878388 0.474199 0.059747
vn -0.374453 0.203580 -0.904621
vn -0.541026 -0.280498 -0.792850
vn -0.437319 0.059859 -0.897312
vn -0.240615 0.445127 -0.862535
f 229/229/229 228/228/228 227/227/227
f 227/227/227 230/230/230 229/229/229
f 233/233/233 232/232/232 231/231/231
f 231/231/231 234/234/234 233/233/233
f 237/237/237 236/236/236 235/235/235
f 235/235/235 238/238/238 237/237/237
f 241/241/241 240/240/240 239/239/239
f 239/239/239 242/242/242 241/241/241
f 245/245/245 244/244/244 243/243/243
f 243/243/243 246/246/246 245/245/245
f 249/249/249 248/248/248 247/247/247
f 247/247/247 250/250/250 249/249/249
f 253/253/253 252/252/252 251/251/251
f 251/251/251 254/254/254 253/253/253
f 257/257/257 256/256/256 255/255/255
f 255/255/255 258/258/258 257/257/257
f 261/261/261 260/260/260 259/259/259
f 259/259/259 262/262/262 261/261/261
f 265/265/265 264/264/264 263/263/263
f 263/263/263 266/266/266 265/265/265
f 269/269/269 268/268/268 267/267/267
f 267/267/267 270/270/270 269/269/269
f 273/273/273 272/272/272 271/271/271
f 271/271/271 274/274/274 273/273/273
f 277/277/277 276/276/276 275/275/275
f 275/275/275 278/278/278 277/277/277
f 281/281/281 280/280/280 279/279/279
f 279/279/279 282/282/282 281/281/281
f 285/285/285 284/284/284 283/283/283
f 283/283/283 286/286/286 285/285/285
f 289/289/289 288/288/288 287/287/287
f 287/287/287 290/290/290 289/289/289
f 293/293/293 292/292/292 291/291/291
f 291/291/291 294/294/294 293/293/293
f 297/297/297 296/296/296 295/295/295
f 295/295/295 298/298/298 297/297/297
f 301/301/301 300/300/300 299/299/299
f 299/299/299 302/302/302 301/301/301
f 305/305/305 304/304/304 303/303/303
f 303/303/303 306/306/306 305/305/305
f 309/309/309 308/308/308 307/307/307
f 307/307/307 310/310/310 309/309/309
f 313/313/313 312/312/312 311/311/311
f 311/311/311 314/314/314 313/313/313
f 317/317/317 316/316/316 315/315/315
f 315/315/315 318/318/318 317/317/317
f 321/321/321 320/320/320 319/319/319
f 319/319/319 322/322/322 321/321/321
f 325/325/325 324/324/324 323/323/323
f 323/323/323 326/326/326 325/325/325
f 329/329/329 328/328/328 327/327/327
f 327/327/327 330/330/330 329/329/329
f 333/333/333 332/332/332 331/331/331
f 331/331/331 334/334/334 333/333/333
f 337/337/337 336/336/336 335/335/335
f 335/335/335 338/338/338 337/337/337
f 341/341/341 340/340/340 339/339/339
f 339/339/339 342/342/342 341/341/341
f 345/345/345 344/344/344 343/343/343
f 343/343/343 346/346/346 345/345/345
f 349/349/349 348/348/348 347/347/347
f 347/347/347 350/350/350 349/349/349
f 353/353/353 352/352/352 351/351/351
f 351/351/351 354/354/354 353/353/353
f 357/357/357 356/356/356 355/355/355
f 355/355/355 358/358/358 357/357/357
f 361/361/361 360/360/360 359/359/359
f 359/359/359 362/362/362 361/361/361
f 365/365/365 364/364/364 363/363/363
f 363/363/363 366/366/366 365/365/365
f 369/369/369 368/368/368 367/367/367
f 367/367/367 370/370/370 369/369/369
f 373/373/373 372/372/372 371/371/371
f 371/371/371 374/374/374 373/373/373
f 377/377/377 376/376/376 375/375/375
f 375/375/375 378/378/378 377/377/377
f 381/381/381 380/380/380 379/379/379
f 379/379/379 382/382/382 381/381/381
f 385/385/385 384/384/384 383/383/383
f 383/383/383 386/386/386 385/385/385
f 389/389/389 388/388/388 387/387/387
f 387/387/387 390/390/390 389/389/389
f 393/393/393 392/392/392 391/391/391
f 391/391/391 394/394/394 393/393/393
f 397/397/397 396/396/396 395/395/395
f 395/395/395 398/398/398 397/397/397
f 401/401/401 400/400/400 399/399/399
f 399/399/399 402/402/402 401/401/401
f 405/405/405 404/404/404 403/403/403
f 403/403/403 406/406/406 405/405/405
f 409/409/409 408/408/408 407/407/407
f 407/407/407 410/410/410 409/409/409
f 413/413/413 412/412/412 411/411/411
f 411/411/411 414/414/414 413/413/413
f 417/417/417 416/416/416 415/415/415
f 415/415/415 418/418/418 417/417/417
f 421/421/421 420/420/420 419/419/419
f 419/419/419 422/422/422 421/421/421
f 425/425/425 424/424/424 423/423/423
f 423/423/423 426/426/426 425/425/425
f 429/429/429 428/428/428 427/427/427
f 427/427/427 430/430/430 429/429/429
f 433/433/433 432/432/432 431/431/431
f 431/431/431 434/434/434 433/433/433
f 437/437/437 436/436/436 435/435/435
f 435/435/435 438/438/438 437/437/437
f 441/441/441 440/440/440 439/439/439
f 439/439/439 442/442/442 441/441/441
f 445/445/445 444/444/444 443/443/443
f 443/443/443 446/446/446 445/445/445
f 449/449/449 448/448/448 447/447/447
f 447/447/447 450/450/450 449/449/449
f 453/453/453 452/452/452 451/451/451
f 451/451/451 454/454/454 453/453/453
f 457/457/457 456/456/456 455/455/455
f 455/455/455 458/458/458 457/457/457
f 461/461/461 460/460/460 459/459/459
f 459/459/459 462/462/462 461/461/461
f 465/465/465 464/464/464 463/463/463
f 463/463/463 466/466/466 465/465/465
o G3_Object_Fireplace_04_4
usemtl G3_Objects_Barrelmetal_01_A
v 0.054473 1.040074 0.658081
v 0.054473 1.022074 0.676082
v -1.179287 1.022074 0.676082
v -1.179287 1.040074 0.658081
v 0.054473 1.040074 0.694082
v -1.179287 1.040074 0.694082
v 0.054473 1.058074 0.676082
v -1.179287 1.058074 0.676082
v 0.054473 1.040074 0.388081
v 0.054473 1.022074 0.406082
v -1.179277 1.022074 0.406082
v -1.179277 1.040074 0.388081
v 0.054473 1.040074 0.424082
v -1.179277 1.040074 0.424082
v 0.054473 1.058074 0.406082
v -1.179277 1.058074 0.406082
v -0.442510 1.040074 1.191727
v -0.460508 1.022074 1.191727
v -0.460508 1.022074 0.156729
v -0.442510 1.040074 0.156729
v -0.478506 1.040074 1.191727
v -0.478506 1.040074 0.156729
v -0.460508 1.058074 1.191727
v -0.460508 1.058074 0.156729
v -0.646484 1.040074 1.191727
v -0.664482 1.022074 1.191727
v -0.664482 1.022074 0.156729
v -0.646484 1.040074 0.156729
v -0.682480 1.040074 1.191727
v -0.682480 1.040074 0.156729
v -0.664482 1.058074 1.191727
v -0.664482 1.058074 0.156729
v -0.850459 1.040074 1.191727
v -0.868457 1.022074 1.191727
v -0.868457 1.022074 0.156729
v -0.850459 1.040074 0.156729
v -0.886455 1.040074 1.191727
v -0.886455 1.040074 0.156729
v -0.868457 1.058074 1.191727
v -0.868457 1.058074 0.156729
v -1.054434 1.040074 1.191727
v -1.072432 1.022074 1.191727
v -1.072432 1.022074 0.156729
v -1.054434 1.040074 0.156729
v -1.090430 1.040074 1.191727
v -1.090430 1.040074 0.156729
v -1.072432 1.058074 1.191727
v -1.072432 1.058074 0.156729
v -0.238535 1.040074 1.191727
v -0.256533 1.022074 1.191727
v -0.256533 1.022074 0.156729
v -0.238535 1.040074 0.156729
v -0.274541 1.040074 1.191727
v -0.274541 1.040074 0.156729
v -0.256533 1.058074 1.191727
v -0.256533 1.058074 0.156729
v -0.034561 1.040074 1.191727
v -0.052568 1.022074 1.191727
v -0.052568 1.022074 0.156729
v -0.034561 1.040074 0.156729
v -0.070566 1.040074 1.191727
v -0.070566 1.040074 0.156729
v -0.052568 1.058074 1.191727
v -0.052568 1.058074 0.156729
v 0.054473 1.040074 0.928081
v 0.054473 1.022074 0.946082
v -1.179277 1.022074 0.946082
v -1.179277 1.040074 0.928081
v 0.054473 1.040074 0.964082
v -1.179277 1.040074 0.964082
v 0.054473 1.058074 0.946082
v -1.179277 1.058074 0.946082
v -1.083359 0.646866 1.227023
v -1.083359 0.628866 1.209022
v -0.048359 0.628866 1.209022
v -0.048359 0.646866 1.227023
v -1.083359 0.646866 1.191023
v -0.048359 0.646866 1.191023
v -1.083359 0.664866 1.209022
v -0.048359 0.664866 1.209022
v -0.578135 0.561002 1.209022
v -0.560127 0.647244 1.209022
v -0.578135 0.647257 1.227023
v -0.578135 0.647244 1.191023
v -0.596133 0.647244 1.209022
v -0.560127 0.905994 1.209022
v -0.578135 0.906020 1.227023
v -0.578135 0.905994 1.191023
v -0.596133 0.905994 1.209022
v -1.083359 0.811572 1.227023
v -1.083359 0.793571 1.209022
v -0.048359 0.793571 1.209022
v -0.048359 0.811572 1.227023
v -1.083359 0.811572 1.191023
v -0.048359 0.811572 1.191023
v -1.083359 0.829572 1.209022
v -0.048359 0.829572 1.209022
v -0.128086 0.520889 1.247454
v -0.128086 0.235698 1.132589
v -0.996885 0.235698 1.132589
v -0.996885 0.520889 1.247454
v -0.128086 0.520889 1.247454
v -0.996885 0.520889 1.247454
v -0.996885 0.228587 1.152128
v -0.128086 0.228587 1.152128
v -1.083359 0.377637 1.227023
v -1.083359 0.359637 1.209022
v -0.048359 0.359637 1.209022
v -0.048359 0.377637 1.227023
v -1.083359 0.377637 1.191023
v -0.048359 0.377637 1.191023
v -1.083359 0.395637 1.209022
v -0.048359 0.395637 1.209022
v -0.837959 0.561002 1.209022
v -0.819961 0.647244 1.209022
v -0.837959 0.647257 1.227023
v -0.837959 0.647244 1.191023
v -0.855967 0.647244 1.209022
v -0.819961 0.905994 1.209022
v -0.837959 0.906020 1.227023
v -0.837959 0.905994 1.191023
v -0.855967 0.905994 1.209022
v -0.324795 0.561002 1.209022
v -0.306797 0.647244 1.209022
v -0.324795 0.647257 1.227023
v -0.324795 0.647244 1.191023
v -0.342793 0.647244 1.209022
v -0.306797 0.905994 1.209022
v -0.324795 0.906020 1.227023
v -0.324795 0.905994 1.191023
v -0.342793 0.905994 1.209022
v -1.179287 1.022074 0.676082
v -1.179287 1.040074 0.694082
v -1.179287 1.040074 0.658081
v -1.179287 1.058074 0.676082
v -1.179277 1.022074 0.946082
v -1.179277 1.022074 0.406082
v -1.179277 1.040074 0.964082
v -1.179277 1.040074 0.928081
v -1.179277 1.040074 0.424082
v -1.179277 1.040074 0.388081
v -1.179277 1.058074 0.946082
v -1.179277 1.058074 0.406082
v -1.090430 1.040074 0.156729
v -1.090430 1.040074 1.191727
v -1.083359 0.359637 1.209022
v -1.083359 0.377637 1.227023
v -1.083359 0.377637 1.191023
v -1.083359 0.395637 1.209022
v -1.083359 0.628866 1.209022
v -1.083359 0.646866 1.227023
v -1.083359 0.646866 1.191023
v -1.083359 0.664866 1.209022
v -1.083359 0.793571 1.209022
v -1.083359 0.811572 1.227023
v -1.083359 0.811572 1.191023
v -1.083359 0.829572 1.209022
v -1.072432 1.022074 1.191727
v -1.072432 1.022074 0.156729
v -1.072432 1.058074 0.156729
v -1.072432 1.058074 1.191727
v -1.054434 1.040074 0.156729
v -1.054434 1.040074 1.191727
v -0.886455 1.040074 0.156729
v -0.886455 1.040074 1.191727
v -0.868457 1.022074 1.191727
v -0.868457 1.022074 0.156729
v -0.868457 1.058074 0.156729
v -0.868457 1.058074 1.191727
v -0.855967 0.647244 1.209022
v -0.855967 0.905994 1.209022
v -0.850459 1.040074 0.156729
v -0.850459 1.040074 1.191727
v -0.837959 0.561002 1.209022
v -0.837959 0.561002 1.209022
v -0.837959 0.647244 1.191023
v -0.837959 0.647257 1.227023
v -0.837959 0.905994 1.191023
v -0.837959 0.906020 1.227023
v -0.819961 0.647244 1.209022
v -0.819961 0.905994 1.209022
v -0.682480 1.040074 0.156729
v -0.682480 1.040074 1.191727
v -0.664482 1.022074 1.191727
v -0.664482 1.022074 0.156729
v -0.664482 1.058074 0.156729
v -0.664482 1.058074 1.191727
v -0.646484 1.040074 0.156729
v -0.646484 1.040074 1.191727
v -0.596133 0.647244 1.209022
v -0.596133 0.905994 1.209022
v -0.578135 0.561002 1.209022
v -0.578135 0.561002 1.209022
v -0.578135 0.647244 1.191023
v -0.578135 0.647257 1.227023
v -0.578135 0.905994 1.191023
v -0.578135 0.906020 1.227023
v -0.560127 0.647244 1.209022
v -0.560127 0.905994 1.209022
v -0.478506 1.040074 1.191727
v -0.478506 1.040074 0.156729
v -0.460508 1.022074 1.191727
v -0.460508 1.022074 0.156729
v -0.460508 1.058074 1.191727
v -0.460508 1.058074 0.156729
v -0.442510 1.040074 1.191727
v -0.442510 1.040074 0.156729
v -0.342793 0.647244 1.209022
v -0.342793 0.905994 1.209022
v -0.324795 0.561002 1.209022
v -0.324795 0.561002 1.209022
v -0.324795 0.647244 1.191023
v -0.324795 0.647257 1.227023
v -0.324795 0.905994 1.191023
v -0.324795 0.906020 1.227023
v -0.306797 0.647244 1.209022
v -0.306797 0.905994 1.209022
v -0.274541 1.040074 0.156729
v -0.274541 1.040074 1.191727
v -0.256533 1.022074 1.191727
v -0.256533 1.022074 0.156729
v -0.256533 1.058074 0.156729
v -0.256533 1.058074 1.191727
v -0.238535 1.040074 0.156729
v -0.238535 1.040074 1.191727
v -0.070566 1.040074 0.156729
v -0.070566 1.040074 1.191727
v -0.052568 1.022074 1.191727
v -0.052568 1.022074 0.156729
v -0.052568 1.058074 0.156729
v -0.052568 1.058074 1.191727
v -0.048359 0.359637 1.209022
v -0.048359 0.377637 1.227023
v -0.048359 0.377637 1.191023
v -0.048359 0.395637 1.209022
v -0.048359 0.628866 1.209022
v -0.048359 0.646866 1.227023
v -0.048359 0.646866 1.191023
v -0.048359 0.664866 1.209022
v -0.048359 0.793571 1.209022
v -0.048359 0.811572 1.227023
v -0.048359 0.811572 1.191023
v -0.048359 0.829572 1.209022
v -0.034561 1.040074 0.156729
v -0.034561 1.040074 1.191727
v 0.054473 1.022074 0.946082
v 0.054473 1.022074 0.676082
v 0.054473 1.022074 0.406082
v 0.054473 1.040074 0.694082
v 0.054473 1.040074 0.658081
v 0.054473 1.040074 0.964082
v 0.054473 1.040074 0.928081
v 0.054473 1.040074 0.424082
v 0.054473 1.040074 0.388081
v 0.054473 1.058074 0.676082
v 0.054473 1.058074 0.946082
v 0.054473 1.058074 0.406082
vt 2.631335 -0.102342
vt 2.565803 -0.125285
vt -0.579309 2.120558
vt -0.513776 2.143501
vt 2.500271 -0.148228
vt -0.644841 2.097615
vt 2.565803 -0.125285
vt -0.579309 2.120558
vt 3.614318 0.241804
vt 3.548786 0.218861
vt 0.403675 2.464704
vt 0.469207 2.487647
vt 3.483254 0.195918
vt 0.338142 2.441761
vt 3.548786 0.218861
vt 0.403675 2.464704
vt -0.578409 0.122134
vt -0.624295 0.154901
vt 3.143805 1.474126
vt 3.189691 1.441360
vt -0.670181 0.187667
vt 3.097919 1.506892
vt -0.624295 0.154901
vt 3.143805 1.474126
vt -1.098383 0.493435
vt -1.144269 0.526201
vt 2.623830 1.845427
vt 2.669716 1.812660
vt -1.190156 0.558967
vt 2.577944 1.878193
vt -1.144269 0.526201
vt 2.623830 1.845427
vt -1.618357 0.864735
vt -1.664243 0.897501
vt 2.103856 2.216727
vt 2.149742 2.183961
vt -1.710130 0.930267
vt 2.057970 2.249493
vt -1.664243 0.897501
vt 2.103856 2.216727
vt -2.138332 1.236035
vt -2.184218 1.268801
vt 1.583881 2.588027
vt 1.629768 2.555261
vt -2.230104 1.301568
vt 1.537995 2.620793
vt -2.184218 1.268801
vt 1.583881 2.588027
vt -0.058434 -0.249166
vt -0.104320 -0.216400
vt 3.663779 1.102826
vt 3.709665 1.070060
vt -0.150206 -0.183634
vt 3.617893 1.135592
vt -0.104320 -0.216400
vt 3.663779 1.102826
vt 0.461540 -0.620466
vt 0.415654 -0.587700
vt 4.183753 0.731526
vt 4.229640 0.698760
vt 0.369768 -0.554934
vt 4.137867 0.764292
vt 0.415654 -0.587700
vt 4.183753 0.731526
vt 1.648353 -0.446488
vt 1.582821 -0.469431
vt -1.562291 1.776412
vt -1.496759 1.799355
vt 1.517289 -0.492374
vt -1.627823 1.753469
vt 1.582821 -0.469431
vt -1.562291 1.776412
vt -0.578409 0.122134
vt -0.624295 0.154901
vt 3.143805 1.474126
vt 3.189691 1.441360
vt -0.670181 0.187667
vt 3.097919 1.506892
vt -0.624295 0.154901
vt 3.143805 1.474126
vt -0.624295 0.154901
vt -0.310318 0.264825
vt -0.264385 0.232075
vt -0.356204 0.297591
vt -0.310318 0.264825
vt 0.631707 0.594631
vt 0.677687 0.561898
vt 0.585821 0.627398
vt 0.631707 0.594631
vt -0.578409 0.122134
vt -0.624295 0.154901
vt 3.143805 1.474126
vt 3.189691 1.441360
vt -0.670181 0.187667
vt 3.097919 1.506892
vt -0.624295 0.154901
vt 3.143805 1.474126
vt 0.999500 0.000500
vt 0.000499 0.000500
vt 0.000500 0.999501
vt 0.999501 0.999500
vt 0.999500 0.000500
vt 0.999501 0.999500
vt 0.000500 0.999501
vt 0.000499 0.000500
vt -0.578409 0.122134
vt -0.624295 0.154901
vt 3.143805 1.474126
vt 3.189691 1.441360
vt -0.670181 0.187667
vt 3.097919 1.506892
vt -0.624295 0.154901
vt 3.143805 1.474126
vt -0.624295 0.154901
vt -0.310318 0.264825
vt -0.264385 0.232075
vt -0.356204 0.297591
vt -0.310318 0.264825
vt 0.631707 0.594631
vt 0.677687 0.561898
vt 0.585821 0.627398
vt 0.631707 0.594631
vt -0.624295 0.154901
vt -0.310318 0.264825
vt -0.264385 0.232075
vt -0.356204 0.297591
vt -0.310318 0.264825
vt 0.631707 0.594631
vt 0.677687 0.561898
vt 0.585821 0.627398
vt 0.631707 0.594631
vt -0.579309 2.120558
vt -0.644841 2.097615
vt -0.513776 2.143501
vt -0.579309 2.120558
vt -1.562291 1.776412
vt 0.403675 2.464704
vt -1.627823 1.753469
vt -1.496759 1.799355
vt 0.338142 2.441761
vt 0.469207 2.487647
vt -1.562291 1.776412
vt 0.403675 2.464704
vt 1.537995 2.620793
vt -2.230104 1.301568
vt -0.624295 0.154901
vt -0.578409 0.122134
vt -0.670181 0.187667
vt -0.624295 0.154901
vt -0.624295 0.154901
vt -0.578409 0.122134
vt -0.670181 0.187667
vt -0.624295 0.154901
vt -0.624295 0.154901
vt -0.578409 0.122134
vt -0.670181 0.187667
vt -0.624295 0.154901
vt -2.184218 1.268801
vt 1.583881 2.588027
vt 1.583881 2.588027
vt -2.184218 1.268801
vt 1.629768 2.555261
vt -2.138332 1.236035
vt 2.057970 2.249493
vt -1.710130 0.930267
vt -1.664243 0.897501
vt 2.103856 2.216727
vt 2.103856 2.216727
vt -1.664243 0.897501
vt -0.310318 0.264825
vt 0.631707 0.594631
vt 2.149742 2.183961
vt -1.618357 0.864735
vt -0.624295 0.154901
vt -0.624295 0.154901
vt -0.356204 0.297591
vt -0.264385 0.232075
vt 0.585821 0.627398
vt 0.677687 0.561898
vt -0.310318 0.264825
vt 0.631707 0.594631
vt 2.577944 1.878193
vt -1.190156 0.558967
vt -1.144269 0.526201
vt 2.623830 1.845427
vt 2.623830 1.845427
vt -1.144269 0.526201
vt 2.669716 1.812660
vt -1.098383 0.493435
vt -0.310318 0.264825
vt 0.631707 0.594631
vt -0.624295 0.154901
vt -0.624295 0.154901
vt -0.356204 0.297591
vt -0.264385 0.232075
vt 0.585821 0.627398
vt 0.677687 0.561898
vt -0.310318 0.264825
vt 0.631707 0.594631
vt -0.670181 0.187667
vt 3.097919 1.506892
vt -0.624295 0.154901
vt 3.143805 1.474126
vt -0.624295 0.154901
vt 3.143805 1.474126
vt -0.578409 0.122134
vt 3.189691 1.441360
vt -0.310318 0.264825
vt 0.631707 0.594631
vt -0.624295 0.154901
vt -0.624295 0.154901
vt -0.356204 0.297591
vt -0.264385 0.232075
vt 0.585821 0.627398
vt 0.677687 0.561898
vt -0.310318 0.264825
vt 0.631707 0.594631
vt 3.617893 1.135592
vt -0.150206 -0.183634
vt -0.104320 -0.216400
vt 3.663779 1.102826
vt 3.663779 1.102826
vt -0.104320 -0.216400
vt 3.709665 1.070060
vt -0.058434 -0.249166
vt 4.137867 0.764292
vt 0.369768 -0.554934
vt 0.415654 -0.587700
vt 4.183753 0.731526
vt 4.183753 0.731526
vt 0.415654 -0.587700
vt 3.143805 1.474126
vt 3.189691 1.441360
vt 3.097919 1.506892
vt 3.143805 1.474126
vt 3.143805 1.474126
vt 3.189691 1.441360
vt 3.097919 1.506892
vt 3.143805 1.474126
vt 3.143805 1.474126
vt 3.189691 1.441360
vt 3.097919 1.506892
vt 3.143805 1.474126
vt 4.229640 0.698760
vt 0.461540 -0.620466
vt 1.582821 -0.469431
vt 2.565803 -0.125285
vt 3.548786 0.218861
vt 2.500271 -0.148228
vt 2.631335 -0.102342
vt 1.517289 -0.492374
vt 1.648353 -0.446488
vt 3.483254 0.195918
vt 3.614318 0.241804
vt 2.565803 -0.125285
vt 1.582821 -0.469431
vt 3.548786 0.218861
vn -0.000000 -0.000001 -1.000000
vn 0.000000 -1.000000 0.000001
vn -0.000000 -1.000000 -0.000001
vn -0.000000 -0.000001 -1.000000
vn 0.000000 -0.000001 1.000000
vn 0.000000 -0.000001 1.000000
vn -0.000000 1.000000 0.000001
vn 0.000000 1.000000 -0.000001
vn -0.000000 -0.000000 -1.000000
vn 0.000000 -1.000000 0.000000
vn 0.000000 -1.000000 0.000000
vn -0.000000 -0.000001 -1.000000
vn 0.000000 -0.000000 1.000000
vn 0.000000 -0.000001 1.000000
vn -0.000000 1.000000 0.000000
vn -0.000000 1.000000 -0.000000
vn 1.000000 -0.000000 -0.000000
vn 0.000000 -1.000000 -0.000000
vn -0.000001 -1.000000 -0.000000
vn 1.000000 -0.000002 -0.000000
vn -1.000000 -0.000002 -0.000000
vn -1.000000 -0.000000 -0.000000
vn -0.000001 1.000000 -0.000000
vn 0.000000 1.000000 -0.000000
vn 1.000000 0.000001 -0.000000
vn 0.000002 -1.000000 0.000000
vn 0.000000 -1.000000 0.000000
vn 1.000000 -0.000002 0.000000
vn -1.000000 -0.000001 0.000000
vn -1.000000 -0.000000 -0.000000
vn 0.000000 1.000000 -0.000000
vn 0.000002 1.000000 -0.000000
vn 1.000000 0.000001 -0.000000
vn 0.000002 -1.000000 0.000000
vn 0.000000 -1.000000 0.000000
vn 1.000000 -0.000002 0.000000
vn -1.000000 -0.000001 0.000000
vn -1.000000 -0.000000 -0.000000
vn 0.000000 1.000000 -0.000000
vn 0.000002 1.000000 -0.000000
vn 1.000000 0.000001 -0.000000
vn -0.000000 -1.000000 0.000000
vn -0.000002 -1.000000 0.000000
vn 1.000000 -0.000001 0.000000
vn -1.000000 -0.000001 0.000000
vn -1.000000 -0.000000 -0.000000
vn -0.000001 1.000000 -0.000000
vn -0.000000 1.000000 -0.000000
vn 1.000000 0.000001 -0.000000
vn 0.000001 -1.000000 0.000000
vn -0.000000 -1.000000 0.000000
vn 1.000000 -0.000001 0.000000
vn -1.000000 -0.000001 -0.000000
vn -1.000000 -0.000000 -0.000000
vn -0.000000 1.000000 -0.000000
vn 0.000001 1.000000 -0.000000
vn 1.000000 0.000001 -0.000000
vn 0.000001 -1.000000 0.000000
vn -0.000000 -1.000000 0.000000
vn 1.000000 -0.000001 0.000000
vn -1.000000 -0.000001 0.000000
vn -1.000000 -0.000000 -0.000000
vn -0.000000 1.000000 -0.000000
vn 0.000001 1.000000 -0.000000
vn -0.000000 0.000000 -1.000000
vn 0.000000 -1.000000 0.000001
vn 0.000000 -1.000000 0.000000
vn 0.000000 -0.000001 -1.000000
vn 0.000000 0.000000 1.000000
vn 0.000000 -0.000001 1.000000
vn -0.000000 1.000000 0.000001
vn -0.000000 1.000000 0.000000
vn -0.000000 -0.000001 1.000000
vn 0.000000 -1.000000 -0.000001
vn 0.000000 -1.000000 -0.000001
vn -0.000000 -0.000001 1.000000
vn 0.000000 -0.000001 -1.000000
vn 0.000000 -0.000001 -1.000000
vn 0.000000 1.000000 -0.000001
vn 0.000000 1.000000 -0.000001
vn -0.000007 -1.000000 0.000010
vn 0.995158 -0.098289 0.000015
vn -0.000000 -0.098227 0.995164
vn -0.000000 -0.098270 -0.995160
vn -0.995159 -0.098283 0.000015
vn 1.000000 0.000000 0.000322
vn -0.000002 0.000000 1.000000
vn -0.000002 0.000000 -1.000000
vn -1.000000 0.000000 0.000322
vn -0.000000 0.000000 1.000000
vn 0.000000 -1.000000 -0.000001
vn 0.000000 -1.000000 -0.000001
vn -0.000000 -0.000000 1.000000
vn 0.000000 -0.000000 -1.000000
vn 0.000000 0.000000 -1.000000
vn 0.000000 1.000000 -0.000001
vn 0.000000 1.000000 -0.000001
vn 0.000000 0.373601 -0.927590
vn 0.000000 0.373601 -0.927590
vn 0.000000 0.373601 -0.927590
vn 0.000000 0.373601 -0.927590
vn 0.000000 -0.310049 0.950721
vn 0.000000 -0.310049 0.950721
vn 0.000000 -0.310049 0.950721
vn 0.000000 -0.310049 0.950721
vn -0.000000 -0.000001 1.000000
vn 0.000000 -1.000000 -0.000001
vn 0.000000 -1.000000 -0.000001
vn -0.000000 -0.000001 1.000000
vn 0.000000 -0.000001 -1.000000
vn 0.000000 -0.000001 -1.000000
vn 0.000000 1.000000 -0.000001
vn 0.000000 1.000000 -0.000001
vn -0.000007 -1.000000 0.000010
vn 0.995158 -0.098289 0.000015
vn -0.000003 -0.098227 0.995164
vn -0.000003 -0.098270 -0.995160
vn -0.995158 -0.098283 0.000015
vn 1.000000 0.000000 0.000322
vn -0.000004 0.000000 1.000000
vn -0.000004 0.000000 -1.000000
vn -1.000000 0.000000 0.000322
vn -0.000006 -1.000000 0.000010
vn 0.995158 -0.098289 0.000015
vn -0.000002 -0.098227 0.995164
vn -0.000002 -0.098270 -0.995160
vn -0.995159 -0.098283 0.000015
vn 1.000000 0.000000 0.000322
vn -0.000003 0.000000 1.000000
vn -0.000003 0.000000 -1.000000
vn -1.000000 0.000000 0.000322
vn -0.000000 -1.000000 -0.000001
vn 0.000000 -0.000001 1.000000
vn -0.000000 -0.000001 -1.000000
vn 0.000000 1.000000 -0.000001
vn 0.000000 -1.000000 0.000000
vn 0.000000 -1.000000 0.000000
vn 0.000000 -0.000001 1.000000
vn 0.000000 -0.000001 -1.000000
vn 0.000000 -0.000001 1.000000
vn -0.000000 -0.000001 -1.000000
vn -0.000000 1.000000 0.000000
vn -0.000000 1.000000 -0.000000
vn -1.000000 -0.000000 -0.000000
vn -1.000000 -0.000001 0.000000
vn 0.000000 -1.000000 -0.000001
vn -0.000000 -0.000001 1.000000
vn 0.000000 -0.000001 -1.000000
vn 0.000000 1.000000 -0.000001
vn 0.000000 -1.000000 -0.000001
vn -0.000000 -0.000001 1.000000
vn 0.000000 -0.000001 -1.000000
vn 0.000000 1.000000 -0.000001
vn 0.000000 -1.000000 -0.000001
vn -0.000000 0.000000 1.000000
vn 0.000000 -0.000000 -1.000000
vn 0.000000 1.000000 -0.000001
vn -0.000000 -1.000000 0.000000
vn -0.000002 -1.000000 0.000000
vn -0.000000 1.000000 -0.000000
vn -0.000001 1.000000 -0.000000
vn 1.000000 -0.000001 0.000000
vn 1.000000 0.000001 -0.000000
vn -1.000000 -0.000000 -0.000000
vn -1.000000 -0.000001 0.000000
vn 0.000002 -1.000000 0.000000
vn 0.000000 -1.000000 0.000000
vn 0.000002 1.000000 -0.000000
vn 0.000000 1.000000 -0.000000
vn -0.995158 -0.098283 0.000015
vn -1.000000 0.000000 0.000322
vn 1.000000 -0.000002 0.000000
vn 1.000000 0.000001 -0.000000
vn -0.000007 -1.000000 0.000010
vn -0.000007 -1.000000 0.000010
vn -0.000003 -0.098270 -0.995160
vn -0.000003 -0.098227 0.995164
vn -0.000004 0.000000 -1.000000
vn -0.000004 0.000000 1.000000
vn 0.995158 -0.098289 0.000015
vn 1.000000 0.000000 0.000322
vn -1.000000 -0.000000 -0.000000
vn -1.000000 -0.000001 0.000000
vn 0.000002 -1.000000 0.000000
vn 0.000000 -1.000000 0.000000
vn 0.000002 1.000000 -0.000000
vn 0.000000 1.000000 -0.000000
vn 1.000000 -0.000002 0.000000
vn 1.000000 0.000001 -0.000000
vn -0.995159 -0.098283 0.000015
vn -1.000000 0.000000 0.000322
vn -0.000007 -1.000000 0.000010
vn -0.000007 -1.000000 0.000010
vn -0.000000 -0.098270 -0.995160
vn -0.000000 -0.098227 0.995164
vn -0.000002 0.000000 -1.000000
vn -0.000002 0.000000 1.000000
vn 0.995158 -0.098289 0.000015
vn 1.000000 0.000000 0.000322
vn -1.000000 -0.000002 -0.000000
vn -1.000000 -0.000000 -0.000000
vn 0.000000 -1.000000 -0.000000
vn -0.000001 -1.000000 -0.000000
vn -0.000001 1.000000 -0.000000
vn 0.000000 1.000000 -0.000000
vn 1.000000 -0.000000 -0.000000
vn 1.000000 -0.000002 -0.000000
vn -0.995159 -0.098283 0.000015
vn -1.000000 0.000000 0.000322
vn -0.000006 -1.000000 0.000010
vn -0.000006 -1.000000 0.000010
vn -0.000002 -0.098270 -0.995160
vn -0.000002 -0.098227 0.995164
vn -0.000003 0.000000 -1.000000
vn -0.000003 0.000000 1.000000
vn 0.995158 -0.098289 0.000015
vn 1.000000 0.000000 0.000322
vn -1.000000 -0.000000 -0.000000
vn -1.000000 -0.000001 -0.000000
vn 0.000001 -1.000000 0.000000
vn -0.000000 -1.000000 0.000000
vn 0.000001 1.000000 -0.000000
vn -0.000000 1.000000 -0.000000
vn 1.000000 -0.000001 0.000000
vn 1.000000 0.000001 -0.000000
vn -1.000000 -0.000000 -0.000000
vn -1.000000 -0.000001 0.000000
vn 0.000001 -1.000000 0.000000
vn -0.000000 -1.000000 0.000000
vn 0.000001 1.000000 -0.000000
vn -0.000000 1.000000 -0.000000
vn 0.000000 -1.000000 -0.000001
vn -0.000000 -0.000001 1.000000
vn 0.000000 -0.000001 -1.000000
vn 0.000000 1.000000 -0.000001
vn 0.000000 -1.000000 -0.000001
vn -0.000000 -0.000001 1.000000
vn 0.000000 -0.000001 -1.000000
vn 0.000000 1.000000 -0.000001
vn 0.000000 -1.000000 -0.000001
vn -0.000000 -0.000000 1.000000
vn 0.000000 0.000000 -1.000000
vn 0.000000 1.000000 -0.000001
vn 1.000000 -0.000001 0.000000
vn 1.000000 0.000001 -0.000000
vn 0.000000 -1.000000 0.000001
vn 0.000000 -1.000000 0.000001
vn 0.000000 -1.000000 0.000000
vn 0.000000 -0.000001 1.000000
vn -0.000000 -0.000001 -1.000000
vn 0.000000 0.000000 1.000000
vn -0.000000 0.000000 -1.000000
vn 0.000000 -0.000000 1.000000
vn -0.000000 -0.000000 -1.000000
vn -0.000000 1.000000 0.000001
vn -0.000000 1.000000 0.000001
vn -0.000000 1.000000 0.000000
f 469/469/469 468/468/468 467/467/467
f 467/467/467 470/470/470 469/469/469
f 472/472/472 471/471/471 713/713/713
f 713/713/713 598/598/598 472/472/472
f 474/474/474 473/473/473 715/715/715
f 715/715/715 599/599/599 474/474/474
f 600/600/600 716/716/716 721/721/721
f 721/721/721 601/601/601 600/600/600
f 477/477/477 476/476/476 475/475/475
f 475/475/475 478/478/478 477/477/477
f 480/480/480 479/479/479 714/714/714
f 714/714/714 603/603/603 480/480/480
f 482/482/482 481/481/481 719/719/719
f 719/719/719 606/606/606 482/482/482
f 607/607/607 720/720/720 723/723/723
f 723/723/723 609/609/609 607/607/607
f 485/485/485 484/484/484 483/483/483
f 483/483/483 486/486/486 485/485/485
f 488/488/488 487/487/487 668/668/668
f 668/668/668 669/669/669 488/488/488
f 490/490/490 489/489/489 666/666/666
f 666/666/666 667/667/667 490/490/490
f 673/673/673 672/672/672 670/670/670
f 670/670/670 671/671/671 673/673/673
f 493/493/493 492/492/492 491/491/491
f 491/491/491 494/494/494 493/493/493
f 496/496/496 495/495/495 650/650/650
f 650/650/650 651/651/651 496/496/496
f 498/498/498 497/497/497 649/649/649
f 649/649/649 648/648/648 498/498/498
f 654/654/654 655/655/655 653/653/653
f 653/653/653 652/652/652 654/654/654
f 501/501/501 500/500/500 499/499/499
f 499/499/499 502/502/502 501/501/501
f 504/504/504 503/503/503 632/632/632
f 632/632/632 633/633/633 504/504/504
f 506/506/506 505/505/505 631/631/631
f 631/631/631 630/630/630 506/506/506
f 638/638/638 639/639/639 635/635/635
f 635/635/635 634/634/634 638/638/638
f 509/509/509 508/508/508 507/507/507
f 507/507/507 510/510/510 509/509/509
f 512/512/512 511/511/511 624/624/624
f 624/624/624 625/625/625 512/512/512
f 514/514/514 513/513/513 611/611/611
f 611/611/611 610/610/610 514/514/514
f 628/628/628 629/629/629 627/627/627
f 627/627/627 626/626/626 628/628/628
f 517/517/517 516/516/516 515/515/515
f 515/515/515 518/518/518 517/517/517
f 520/520/520 519/519/519 686/686/686
f 686/686/686 687/687/687 520/520/520
f 522/522/522 521/521/521 685/685/685
f 685/685/685 684/684/684 522/522/522
f 690/690/690 691/691/691 689/689/689
f 689/689/689 688/688/688 690/690/690
f 525/525/525 524/524/524 523/523/523
f 523/523/523 526/526/526 525/525/525
f 528/528/528 527/527/527 694/694/694
f 694/694/694 695/695/695 528/528/528
f 530/530/530 529/529/529 693/693/693
f 693/693/693 692/692/692 530/530/530
f 710/710/710 711/711/711 697/697/697
f 697/697/697 696/696/696 710/710/710
f 533/533/533 532/532/532 531/531/531
f 531/531/531 534/534/534 533/533/533
f 536/536/536 535/535/535 712/712/712
f 712/712/712 602/602/602 536/536/536
f 538/538/538 537/537/537 717/717/717
f 717/717/717 604/604/604 538/538/538
f 605/605/605 718/718/718 722/722/722
f 722/722/722 608/608/608 605/605/605
f 541/541/541 540/540/540 539/539/539
f 539/539/539 542/542/542 541/541/541
f 544/544/544 543/543/543 616/616/616
f 616/616/616 702/702/702 544/544/544
f 546/546/546 545/545/545 618/618/618
f 618/618/618 704/704/704 546/546/546
f 703/703/703 617/617/617 619/619/619
f 619/619/619 705/705/705 703/703/703
f 549/549/549 548/548/548 547/547/547
f 664/664/664 550/550/550 658/658/658
f 660/660/660 551/551/551 659/659/659
f 656/656/656 549/549/549 547/547/547
f 552/552/552 548/548/548 661/661/661
f 661/661/661 553/553/553 552/552/552
f 554/554/554 550/550/550 664/664/664
f 664/664/664 665/665/665 554/554/554
f 555/555/555 551/551/551 660/660/660
f 660/660/660 662/662/662 555/555/555
f 549/549/549 656/656/656 657/657/657
f 657/657/657 663/663/663 549/549/549
f 558/558/558 557/557/557 556/556/556
f 556/556/556 559/559/559 558/558/558
f 561/561/561 560/560/560 620/620/620
f 620/620/620 706/706/706 561/561/561
f 563/563/563 562/562/562 622/622/622
f 622/622/622 708/708/708 563/563/563
f 707/707/707 621/621/621 623/623/623
f 623/623/623 709/709/709 707/707/707
f 566/566/566 565/565/565 564/564/564
f 564/564/564 567/567/567 566/566/566
f 570/570/570 569/569/569 568/568/568
f 568/568/568 571/571/571 570/570/570
f 574/574/574 573/573/573 572/572/572
f 572/572/572 575/575/575 574/574/574
f 577/577/577 576/576/576 612/612/612
f 612/612/612 698/698/698 577/577/577
f 579/579/579 578/578/578 614/614/614
f 614/614/614 700/700/700 579/579/579
f 699/699/699 613/613/613 615/615/615
f 615/615/615 701/701/701 699/699/699
f 582/582/582 581/581/581 580/580/580
f 646/646/646 583/583/583 640/640/640
f 642/642/642 584/584/584 641/641/641
f 636/636/636 582/582/582 580/580/580
f 585/585/585 581/581/581 643/643/643
f 643/643/643 586/586/586 585/585/585
f 587/587/587 583/583/583 646/646/646
f 646/646/646 647/647/647 587/587/587
f 588/588/588 584/584/584 642/642/642
f 642/642/642 644/644/644 588/588/588
f 582/582/582 636/636/636 637/637/637
f 637/637/637 645/645/645 582/582/582
f 591/591/591 590/590/590 589/589/589
f 682/682/682 592/592/592 676/676/676
f 678/678/678 593/593/593 677/677/677
f 674/674/674 591/591/591 589/589/589
f 594/594/594 590/590/590 679/679/679
f 679/679/679 595/595/595 594/594/594
f 596/596/596 592/592/592 682/682/682
f 682/682/682 683/683/683 596/596/596
f 597/597/597 593/593/593 678/678/678
f 678/678/678 680/680/680 597/597/597
f 591/591/591 674/674/674 675/675/675
f 675/675/675 681/681/681 591/591/591
o G3_Object_Fireplace_04_5
usemtl G3_Objects_Wood_01_B
v 0.940820 0.500569 0.721083
v 0.596250 0.494044 1.228239
v 0.225000 0.500569 1.228854
v 0.225000 0.500569 0.721083
v 1.710000 0.500569 0.721083
v 1.710000 0.493136 1.239137
v 1.125596 0.503096 1.227434
v 0.940820 0.539056 0.721083
v 0.225000 0.539056 0.721083
v 0.225000 0.539056 1.239137
v 0.596250 0.539056 1.238521
v 1.710000 0.539056 0.721083
v 1.125596 0.539056 1.223300
v 1.710000 0.539056 1.229747
v 0.225000 0.539056 1.239137
v 0.225000 0.500569 1.228854
v 0.596250 0.494044 1.228239
v 0.596250 0.539056 1.238521
v 1.710000 0.539056 1.229747
v 1.125596 0.539056 1.223300
v 1.125596 0.503096 1.227434
v 1.710000 0.493136 1.239137
v 0.225000 0.810000 1.306084
v 0.225000 0.810000 0.001082
v 1.842822 0.810000 0.001084
v 1.836475 0.810000 0.339761
v 1.818096 0.810000 0.653584
v 1.839160 0.810000 1.006282
v 1.845000 0.810000 1.306084
v 0.225000 0.900000 1.306084
v 1.845000 0.900000 1.306084
v 1.839160 0.900000 1.006282
v 1.818096 0.900000 0.653584
v 1.836475 0.900000 0.339761
v 1.842822 0.900000 0.001084
v 0.225000 0.900000 0.001082
v 1.845000 0.900000 1.306084
v 0.225000 0.900000 1.306084
v 0.225000 0.810000 1.306084
v 1.845000 0.810000 1.306084
v 1.845000 0.900000 1.306084
v 1.845000 0.810000 1.306084
v 1.862256 0.810000 1.006565
v 1.862256 0.900000 1.006565
v 0.225000 0.900000 0.001082
v 1.842822 0.900000 0.001084
v 1.842822 0.810000 0.001084
v 0.225000 0.810000 0.001082
v 1.818096 0.900000 0.653584
v 1.818096 0.810000 0.653584
v 1.836475 0.810000 0.339761
v 1.836475 0.900000 0.339761
v 1.864727 0.900000 0.339761
v 1.864727 0.810000 0.339761
v 1.842822 0.810000 0.001084
v 1.842822 0.900000 0.001084
v 1.839160 0.900000 1.006282
v 1.839160 0.810000 1.006282
v 1.861563 0.810000 0.653510
v 1.861563 0.900000 0.653510
v 1.864727 0.810000 0.339761
v 1.864727 0.900000 0.339761
v 1.864727 0.810000 0.339761
v 1.864727 0.900000 0.339761
v 1.836475 0.900000 0.339761
v 1.836475 0.810000 0.339761
v 1.861563 0.810000 0.653510
v 1.861563 0.900000 0.653510
v 1.861563 0.810000 0.653510
v 1.818096 0.810000 0.653584
v 1.818096 0.900000 0.653584
v 1.861563 0.900000 0.653510
v 1.862256 0.900000 1.006565
v 1.862256 0.810000 1.006565
v 1.862256 0.900000 1.006565
v 1.862256 0.810000 1.006565
v 1.839160 0.810000 1.006282
v 1.839160 0.900000 1.006282
v 0.596250 0.539056 1.238521
v 1.125596 0.503096 1.227434
vt 0.514825 0.643904
vt 0.706250 0.362151
vt 0.912499 0.361809
vt 0.912499 0.643904
vt 0.087501 0.643904
vt 0.087501 0.356096
vt 0.412171 0.362597
vt 0.485175 0.643904
vt 0.087501 0.643904
vt 0.087501 0.356096
vt 0.293750 0.356438
vt 0.912499 0.643904
vt 0.587829 0.364895
vt 0.912499 0.361312
vt 0.087501 0.524815
vt 0.087501 0.503434
vt 0.293750 0.499809
vt 0.293750 0.524815
vt 0.912499 0.524815
vt 0.587829 0.524815
vt 0.587829 0.504837
vt 0.912499 0.499304
vt 0.000500 -0.004422
vt 0.000500 0.972622
vt 0.986153 0.972622
vt 0.982285 0.740237
vt 0.971087 0.500000
vt 0.983922 0.230003
vt 0.987479 -0.004422
vt 0.000500 -0.004422
vt 0.987479 -0.004422
vt 0.983922 0.230003
vt 0.971087 0.500000
vt 0.982285 0.740237
vt 0.986153 0.972622
vt 0.000500 0.972622
vt 0.999500 0.222374
vt 0.000499 0.222374
vt 0.000499 0.172374
vt 0.999500 0.172374
vt 0.942943 0.000499
vt 0.992943 0.000499
vt 0.992943 0.229786
vt 0.942943 0.229786
vt 0.000500 0.972622
vt 0.986153 0.972622
vt 0.986153 0.972622
vt 0.000500 0.972622
vt 0.942943 0.500000
vt 0.992943 0.500000
vt 0.992943 0.740237
vt 0.942943 0.740237
vt 0.942943 0.740237
vt 0.992943 0.740237
vt 0.992943 0.999500
vt 0.942943 0.999500
vt 0.942943 0.230003
vt 0.992943 0.230003
vt 0.992943 0.500057
vt 0.942943 0.500057
vt 0.999501 0.740237
vt 0.999501 0.740237
vt 0.999501 0.740237
vt 0.999501 0.740237
vt 0.982285 0.740237
vt 0.982285 0.740237
vt 0.997569 0.500056
vt 0.997569 0.500056
vt 0.997569 0.500056
vt 0.971087 0.500000
vt 0.971087 0.500000
vt 0.997569 0.500056
vt 0.997992 0.229786
vt 0.997992 0.229786
vt 0.997992 0.229786
vt 0.997992 0.229786
vt 0.983922 0.230003
vt 0.983922 0.230003
vt 0.293750 0.356438
vt 0.587829 0.504837
vn 0.003150 -0.999994 -0.001260
vn -0.006867 -0.999823 -0.017530
vn -0.006908 -0.999929 -0.009738
vn 0.000000 -1.000000 -0.000000
vn -0.009139 -0.999943 -0.005558
vn -0.016751 -0.999757 -0.014345
vn 0.002719 -0.999995 -0.001909
vn 0.000000 1.000000 -0.000000
vn 0.000000 1.000000 -0.000000
vn 0.000000 1.000000 -0.000000
vn 0.000000 1.000000 -0.000000
vn 0.000000 1.000000 -0.000000
vn 0.000000 1.000000 -0.000000
vn 0.000000 1.000000 -0.000000
vn -0.002576 -0.255356 0.966844
vn -0.002935 -0.258134 0.966105
vn 0.003297 -0.223937 0.974598
vn 0.003962 -0.215654 0.976462
vn -0.015999 0.196943 0.980285
vn 0.008786 0.114245 0.993414
vn 0.008060 0.107365 0.994187
vn -0.016202 0.200298 0.979601
vn 0.000000 -1.000000 -0.000000
vn 0.000000 -1.000000 -0.000000
vn 0.000000 -1.000000 -0.000000
vn 0.000000 -1.000000 -0.000000
vn 0.000000 -1.000000 -0.000000
vn 0.000000 -1.000000 -0.000000
vn 0.000000 -1.000000 -0.000000
vn 0.000000 1.000000 -0.000000
vn 0.000000 1.000000 -0.000000
vn 0.000000 1.000000 -0.000000
vn 0.000000 1.000000 -0.000000
vn 0.000000 1.000000 -0.000000
vn 0.000000 1.000000 -0.000000
vn 0.000000 1.000000 -0.000000
vn 0.000000 0.000000 1.000000
vn 0.000000 0.000000 1.000000
vn 0.000000 0.000000 1.000000
vn 0.000000 0.000000 1.000000
vn 0.998345 0.000000 0.057517
vn 0.998345 0.000000 0.057517
vn 0.998345 0.000000 0.057517
vn 0.998345 0.000000 0.057517
vn 0.000001 -0.000004 -1.000000
vn 0.000001 0.000000 -1.000000
vn 0.000001 -0.000000 -1.000000
vn 0.000001 -0.000004 -1.000000
vn 0.998289 0.000000 0.058468
vn 0.998289 0.000000 0.058468
vn 0.998289 0.000000 0.058468
vn 0.998289 0.000000 0.058468
vn 0.997914 0.000000 -0.064555
vn 0.997914 0.000000 -0.064555
vn 0.997914 0.000000 -0.064555
vn 0.997914 0.000000 -0.064555
vn 0.997990 0.000000 0.063371
vn 0.997990 0.000000 0.063371
vn 0.997990 0.000000 0.063371
vn 0.997990 0.000000 0.063371
vn 0.000000 -1.000000 -0.000000
vn 0.000000 1.000000 -0.000000
vn 0.000000 0.000000 1.000000
vn 0.000000 0.000000 1.000000
vn 0.000000 0.000000 1.000000
vn 0.000000 0.000000 1.000000
vn 0.000000 -1.000000 -0.000000
vn -0.001701 0.000000 -0.999999
vn -0.001701 0.000000 -0.999999
vn -0.001701 0.000000 -0.999999
vn -0.001701 0.000000 -0.999999
vn 0.000000 1.000000 -0.000000
vn 0.000000 1.000000 -0.000000
vn 0.000000 -1.000000 -0.000000
vn 0.012301 0.000000 -0.999924
vn 0.012301 0.000000 -0.999924
vn 0.012301 0.000000 -0.999924
vn 0.012301 0.000000 -0.999924
vn 0.000000 1.000000 -0.000000
vn 0.008060 0.107365 0.994187
f 726/726/726 725/725/725 724/724/724
f 724/724/724 727/727/727 726/726/726
f 730/730/730 729/729/729 728/728/728
f 728/728/728 724/724/724 730/730/730
f 733/733/733 732/732/732 731/731/731
f 731/731/731 734/734/734 733/733/733
f 736/736/736 731/731/731 735/735/735
f 735/735/735 737/737/737 736/736/736
f 740/740/740 739/739/739 738/738/738
f 738/738/738 741/741/741 740/740/740
f 803/803/803 743/743/743 742/742/742
f 742/742/742 745/745/745 803/803/803
f 803/803/803 740/740/740 741/741/741
f 741/741/741 743/743/743 803/803/803
f 725/725/725 730/730/730 724/724/724
f 731/731/731 736/736/736 802/802/802
f 748/748/748 747/747/747 746/746/746
f 749/749/749 748/748/748 746/746/746
f 750/750/750 749/749/749 746/746/746
f 751/751/751 750/750/750 746/746/746
f 752/752/752 751/751/751 746/746/746
f 755/755/755 754/754/754 753/753/753
f 756/756/756 755/755/755 753/753/753
f 757/757/757 756/756/756 753/753/753
f 758/758/758 757/757/757 753/753/753
f 759/759/759 758/758/758 753/753/753
f 762/762/762 761/761/761 760/760/760
f 760/760/760 763/763/763 762/762/762
f 766/766/766 765/765/765 764/764/764
f 764/764/764 767/767/767 766/766/766
f 770/770/770 769/769/769 768/768/768
f 768/768/768 771/771/771 770/770/770
f 774/774/774 773/773/773 772/772/772
f 772/772/772 775/775/775 774/774/774
f 778/778/778 777/777/777 776/776/776
f 776/776/776 779/779/779 778/778/778
f 782/782/782 781/781/781 780/780/780
f 780/780/780 783/783/783 782/782/782
f 784/784/784 748/748/748 749/749/749
f 785/785/785 757/757/757 758/758/758
f 788/788/788 787/787/787 786/786/786
f 786/786/786 789/789/789 788/788/788
f 790/790/790 750/750/750 751/751/751
f 793/793/793 792/792/792 791/791/791
f 791/791/791 794/794/794 793/793/793
f 795/795/795 755/755/755 756/756/756
f 796/796/796 754/754/754 755/755/755
f 797/797/797 751/751/751 752/752/752
f 800/800/800 799/799/799 798/798/798
f 798/798/798 801/801/801 800/800/800
