mtllib G3_Object_Interact_Stool_01.mtl
o G3_Object_Interact_Stool_01_0
usemtl G3_Architecture_Wood_08_A
v 0.141334 0.304443 0.096823
v 0.141338 0.292751 0.091976
v -0.158919 0.292751 0.091782
v -0.158922 0.304443 0.096628
v 0.141327 0.309286 0.108525
v -0.158930 0.309286 0.108330
v 0.141319 0.304443 0.120226
v 0.141327 0.309286 0.108525
v -0.158930 0.309286 0.108330
v -0.158937 0.304443 0.120031
v 0.141316 0.292751 0.125073
v -0.158940 0.292751 0.124878
v 0.141319 0.281060 0.120226
v -0.158937 0.281060 0.120031
v 0.141327 0.276217 0.108525
v -0.158930 0.276217 0.108330
v 0.141334 0.281060 0.096823
v 0.141327 0.276217 0.108525
v -0.158930 0.276217 0.108330
v -0.158922 0.281060 0.096628
v 0.245561 0.591142 0.011881
v 0.237234 0.591142 -0.051682
v 0.257892 0.611200 -0.057203
v 0.266944 0.611200 0.011895
v 0.216587 0.591142 -0.101621
v 0.235098 0.611200 -0.112334
v 0.195745 0.591142 -0.108423
v 0.162890 0.591142 -0.159337
v 0.178020 0.611200 -0.174447
v 0.214301 0.611200 -0.119061
v 0.122914 0.591142 -0.200867
v 0.133618 0.611200 -0.219378
v 0.063704 0.591142 -0.225438
v 0.069252 0.611200 -0.246089
v 0.000152 0.591142 -0.233846
v 0.000166 0.611200 -0.255229
v -0.063412 0.591142 -0.225520
v -0.068932 0.611200 -0.246178
v -0.122654 0.591142 -0.201026
v -0.133333 0.611200 -0.219551
v -0.165936 0.591142 -0.167859
v -0.181084 0.611200 -0.182960
v -0.171113 0.591142 -0.149181
v -0.212596 0.591142 -0.111200
v -0.229158 0.611200 -0.114287
v -0.186202 0.611200 -0.164339
v -0.237167 0.591142 -0.051990
v -0.257818 0.611200 -0.057538
v -0.245576 0.591142 0.011562
v -0.266959 0.611200 0.011548
v -0.237250 0.591142 0.075126
v -0.257907 0.611200 0.080647
v -0.212756 0.591142 0.134368
v -0.231281 0.611200 0.145047
v -0.173763 0.591142 0.185252
v -0.188893 0.611200 0.200362
v -0.122930 0.591142 0.224311
v -0.133633 0.611200 0.242822
v -0.063719 0.591142 0.248881
v -0.069267 0.611200 0.269532
v -0.018033 0.611200 0.279147
v -0.012144 0.591142 0.259603
v -0.010012 0.601971 0.271151
v 0.009827 0.591142 0.248186
v 0.063396 0.591142 0.248964
v 0.068922 0.611200 0.261826
v 0.003230 0.611200 0.269571
v 0.122639 0.591142 0.224470
v 0.130344 0.611200 0.237440
v 0.173523 0.591142 0.185477
v 0.188633 0.611200 0.200607
v 0.212581 0.591142 0.134644
v 0.231092 0.611200 0.145347
v 0.237152 0.591142 0.075433
v 0.257803 0.611200 0.080981
v 0.266944 0.611200 0.011895
v 0.257892 0.611200 -0.057203
v 0.257892 0.644533 -0.057203
v 0.266944 0.644533 0.011895
v 0.235098 0.611200 -0.112334
v 0.235099 0.644533 -0.112332
v 0.214301 0.611200 -0.119061
v 0.178020 0.611200 -0.174447
v 0.178020 0.644533 -0.174447
v 0.214300 0.644533 -0.119063
v 0.133618 0.611200 -0.219378
v 0.133618 0.644533 -0.219378
v 0.133618 0.611200 -0.219378
v 0.069252 0.611200 -0.246089
v 0.069252 0.644533 -0.246089
v 0.133618 0.644533 -0.219378
v 0.000166 0.611200 -0.255229
v 0.000166 0.644533 -0.255229
v -0.068932 0.611200 -0.246178
v -0.068932 0.644533 -0.246178
v -0.133333 0.611200 -0.219551
v -0.133333 0.644533 -0.219551
v -0.181084 0.611200 -0.182960
v -0.181082 0.644533 -0.182961
v -0.186202 0.611200 -0.164339
v -0.229158 0.611200 -0.114287
v -0.229158 0.644533 -0.114287
v -0.186203 0.644533 -0.164337
v -0.257818 0.611200 -0.057538
v -0.257818 0.644533 -0.057538
v -0.266959 0.611200 0.011548
v -0.266959 0.644533 0.011548
v -0.257907 0.611200 0.080647
v -0.257907 0.644533 0.080647
v -0.231281 0.611200 0.145047
v -0.231281 0.644533 0.145047
v -0.188893 0.611200 0.200362
v -0.188893 0.644533 0.200362
v -0.188893 0.611200 0.200362
v -0.133633 0.611200 0.242822
v -0.133633 0.644533 0.242822
v -0.188893 0.644533 0.200362
v -0.069267 0.611200 0.269532
v -0.069267 0.644533 0.269532
v -0.018033 0.611200 0.279147
v -0.018035 0.644533 0.279147
v 0.003230 0.611200 0.269571
v 0.068922 0.611200 0.261826
v 0.068922 0.644533 0.261826
v 0.003232 0.644533 0.269570
v 0.130344 0.611200 0.237440
v 0.130344 0.644533 0.237440
v 0.188633 0.611200 0.200607
v 0.188633 0.644533 0.200607
v 0.188633 0.611200 0.200607
v 0.231092 0.611200 0.145347
v 0.231092 0.644533 0.145347
v 0.188633 0.644533 0.200607
v 0.257803 0.611200 0.080981
v 0.257803 0.644533 0.080981
v 0.266944 0.644533 0.011895
v 0.257892 0.644533 -0.057203
v 0.237234 0.662815 -0.051682
v 0.245561 0.662815 0.011881
v 0.235099 0.644533 -0.112332
v 0.216588 0.662815 -0.101620
v 0.214300 0.644533 -0.119063
v 0.178020 0.644533 -0.174447
v 0.162890 0.662815 -0.159337
v 0.195743 0.662815 -0.108424
v 0.133618 0.644533 -0.219378
v 0.122914 0.662815 -0.200867
v 0.069252 0.644533 -0.246089
v 0.063704 0.662815 -0.225438
v 0.000166 0.644533 -0.255229
v 0.000009 0.662815 -0.233828
v -0.068932 0.644533 -0.246178
v -0.063412 0.662815 -0.225520
v -0.133333 0.644533 -0.219551
v -0.122654 0.662815 -0.201026
v -0.181082 0.644533 -0.182961
v -0.165930 0.662815 -0.167863
v -0.186203 0.644533 -0.164337
v -0.229158 0.644533 -0.114287
v -0.210647 0.662815 -0.103584
v -0.171111 0.662815 -0.149183
v -0.257818 0.644533 -0.057538
v -0.237167 0.662815 -0.051990
v -0.266959 0.644533 0.011548
v -0.245576 0.662815 0.011562
v -0.257907 0.644533 0.080647
v -0.237250 0.662815 0.075126
v -0.231281 0.644533 0.145047
v -0.212756 0.662815 0.134368
v -0.188893 0.644533 0.200362
v -0.173763 0.662815 0.185252
v -0.133633 0.644533 0.242822
v -0.122930 0.662815 0.224311
v -0.069267 0.644533 0.269532
v -0.063719 0.662815 0.248881
v -0.018035 0.644533 0.279147
v -0.010014 0.652945 0.271151
v -0.012146 0.662815 0.259602
v 0.003232 0.644533 0.269570
v 0.068922 0.644533 0.261826
v 0.063401 0.662815 0.241169
v 0.009829 0.662815 0.248186
v 0.130344 0.644533 0.237440
v 0.119664 0.662815 0.218915
v 0.188633 0.644533 0.200607
v 0.173523 0.662815 0.185477
v 0.231092 0.644533 0.145347
v 0.212581 0.662815 0.134644
v 0.257803 0.644533 0.080981
v 0.237152 0.662815 0.075433
v -0.000291 0.591142 0.171971
v -0.003356 0.591142 0.007477
v -0.153209 0.662815 -0.143998
v 0.003066 0.662815 0.006475
v 0.106304 0.662815 -0.051270
v -0.003273 0.662815 0.185574
v -0.151483 0.591142 -0.140458
v 0.074525 0.591142 -0.029339
v 0.172077 0.591142 -0.099444
v -0.012146 0.662815 0.259602
v -0.010014 0.652945 0.271151
v -0.010012 0.601971 0.271151
v -0.012144 0.591142 0.259603
v -0.000291 0.591142 0.171971
v -0.003273 0.662815 0.185574
v 0.003230 0.611200 0.269571
v 0.003232 0.644533 0.269570
v 0.009829 0.662815 0.248186
v -0.003273 0.662815 0.185574
v -0.000291 0.591142 0.171971
v 0.009827 0.591142 0.248186
v 0.168440 0.662815 -0.096555
v -0.010012 0.601971 0.271151
v -0.010014 0.652945 0.271151
v 0.216587 0.591142 -0.101621
v 0.074525 0.591142 -0.029339
v 0.106304 0.662815 -0.051270
v 0.216588 0.662815 -0.101620
v 0.235099 0.644533 -0.112332
v 0.235098 0.611200 -0.112334
v 0.214300 0.644533 -0.119063
v 0.195743 0.662815 -0.108424
v 0.168440 0.662815 -0.096555
v 0.172077 0.591142 -0.099444
v 0.195745 0.591142 -0.108423
v 0.214301 0.611200 -0.119061
v 0.106304 0.662815 -0.051270
v 0.074525 0.591142 -0.029339
v -0.165936 0.591142 -0.167859
v -0.151483 0.591142 -0.140458
v -0.153209 0.662815 -0.143998
v -0.165930 0.662815 -0.167863
v -0.181082 0.644533 -0.182961
v -0.181084 0.611200 -0.182960
v -0.171111 0.662815 -0.149183
v -0.153209 0.662815 -0.143998
v -0.151483 0.591142 -0.140458
v -0.171113 0.591142 -0.149181
v -0.186202 0.611200 -0.164339
v -0.186203 0.644533 -0.164337
v -0.248562 -0.000000 0.158700
v -0.219844 -0.000000 0.177021
v -0.197046 0.124113 0.168593
v -0.228088 0.126571 0.148552
v -0.186582 -0.000000 0.169670
v -0.161313 0.118177 0.160899
v -0.186582 -0.000000 0.169670
v -0.168260 -0.000000 0.140952
v -0.141822 0.112241 0.129978
v -0.161313 0.118177 0.160899
v -0.175612 -0.000000 0.107690
v -0.149990 0.109782 0.093943
v -0.204330 -0.000000 0.089369
v -0.181032 0.112241 0.073903
v -0.204330 -0.000000 0.089369
v -0.237592 -0.000000 0.096720
v -0.216765 0.118177 0.081596
v -0.181032 0.112241 0.073903
v -0.255914 -0.000000 0.125438
v -0.236256 0.124113 0.112517
v -0.178552 0.300577 0.144270
v -0.205404 0.302704 0.126935
v -0.147642 0.295442 0.137615
v -0.130782 0.290308 0.110868
v -0.147642 0.295442 0.137615
v -0.137848 0.288181 0.079696
v -0.164700 0.290308 0.062361
v -0.195610 0.295442 0.069016
v -0.164700 0.290308 0.062361
v -0.212470 0.300577 0.095764
v -0.151086 0.478168 0.128943
v -0.179641 0.480430 0.110508
v -0.118216 0.472708 0.121865
v -0.100286 0.467247 0.093421
v -0.118216 0.472708 0.121865
v -0.107799 0.464986 0.060273
v -0.136355 0.467247 0.041837
v -0.136355 0.467247 0.041837
v -0.169225 0.472708 0.048915
v -0.187155 0.478168 0.077359
v -0.134386 0.590885 0.117266
v -0.163104 0.590885 0.098944
v -0.101124 0.590885 0.109914
v -0.082802 0.590885 0.081196
v -0.101124 0.590885 0.109914
v -0.090154 0.590885 0.047934
v -0.118872 0.590885 0.029612
v -0.152134 0.590885 0.036964
v -0.118872 0.590885 0.029612
v -0.170455 0.590885 0.065682
v -0.237592 -0.000000 0.096720
v -0.204330 -0.000000 0.089369
v -0.175612 -0.000000 0.107690
v -0.168260 -0.000000 0.140952
v -0.186582 -0.000000 0.169670
v -0.219844 -0.000000 0.177021
v -0.248562 -0.000000 0.158700
v -0.255914 -0.000000 0.125438
v 0.248195 -0.000000 0.157994
v 0.255590 -0.000000 0.124742
v 0.235556 0.122752 0.113789
v 0.229224 0.124647 0.141555
v 0.237305 -0.000000 0.095999
v 0.220564 0.118177 0.089937
v 0.237305 -0.000000 0.095999
v 0.204053 -0.000000 0.088605
v 0.193031 0.113602 0.083972
v 0.220564 0.118177 0.089937
v 0.175311 -0.000000 0.106889
v 0.169084 0.111707 0.099387
v 0.167916 -0.000000 0.140142
v 0.162753 0.113602 0.127153
v 0.186201 -0.000000 0.168884
v 0.177745 0.118177 0.151005
v 0.186201 -0.000000 0.168884
v 0.219453 -0.000000 0.176278
v 0.205278 0.122752 0.156971
v 0.177745 0.118177 0.151005
v 0.209161 0.300423 0.095233
v 0.202267 0.302487 0.125464
v 0.192838 0.295442 0.069264
v 0.162861 0.290461 0.062769
v 0.192838 0.295442 0.069264
v 0.136789 0.288398 0.079553
v 0.129895 0.290461 0.109784
v 0.146218 0.295442 0.135753
v 0.176196 0.300423 0.142248
v 0.146218 0.295442 0.135753
v 0.186893 0.478168 0.076573
v 0.179337 0.480430 0.109712
v 0.169001 0.472708 0.048106
v 0.136140 0.467247 0.040986
v 0.169001 0.472708 0.048106
v 0.107560 0.464986 0.059384
v 0.100003 0.467247 0.092523
v 0.117896 0.472708 0.120990
v 0.117896 0.472708 0.120990
v 0.150757 0.478168 0.128110
v 0.170209 0.590885 0.064875
v 0.162814 0.590885 0.098127
v 0.151924 0.590885 0.036133
v 0.118672 0.590885 0.028738
v 0.151924 0.590885 0.036133
v 0.089930 0.590885 0.047023
v 0.082535 0.590885 0.080275
v 0.100820 0.590885 0.109017
v 0.134072 0.590885 0.116411
v 0.100820 0.590885 0.109017
v 0.186201 -0.000000 0.168884
v 0.167916 -0.000000 0.140142
v 0.175311 -0.000000 0.106889
v 0.204053 -0.000000 0.088605
v 0.237305 -0.000000 0.095999
v 0.255590 -0.000000 0.124742
v 0.248195 -0.000000 0.157994
v 0.219453 -0.000000 0.176278
v -0.000655 -0.000000 -0.279160
v -0.032135 -0.000000 -0.266144
v -0.033683 0.123903 -0.246322
v -0.000668 0.126275 -0.259764
v -0.045192 -0.000000 -0.234680
v -0.047375 0.118177 -0.213826
v -0.045192 -0.000000 -0.234680
v -0.032176 -0.000000 -0.203200
v -0.033725 0.112450 -0.181313
v -0.047375 0.118177 -0.213826
v -0.000713 -0.000000 -0.190144
v -0.000727 0.110078 -0.167828
v 0.030767 -0.000000 -0.203159
v 0.032287 0.112450 -0.181270
v 0.043824 -0.000000 -0.234623
v 0.045980 0.118177 -0.213766
v 0.043824 -0.000000 -0.234623
v 0.030808 -0.000000 -0.266103
v 0.032329 0.123903 -0.246279
v 0.045980 0.118177 -0.213766
v -0.031823 0.300842 -0.213185
v -0.000690 0.303079 -0.225861
v -0.044735 0.295442 -0.182541
v -0.031862 0.290042 -0.151881
v -0.044735 0.295442 -0.182541
v -0.000746 0.287805 -0.139164
v 0.030387 0.290042 -0.151841
v 0.043299 0.295442 -0.182484
v 0.030427 0.300842 -0.213145
v 0.043299 0.295442 -0.182484
v -0.028918 0.477600 -0.179017
v -0.000713 0.479626 -0.190501
v -0.040616 0.472708 -0.151255
v -0.040616 0.472708 -0.151255
v -0.028954 0.467815 -0.123478
v -0.000764 0.465789 -0.111957
v 0.027442 0.467815 -0.123441
v 0.039140 0.472708 -0.151204
v 0.039140 0.472708 -0.151204
v 0.027478 0.477600 -0.178981
v -0.032203 0.590885 -0.161866
v -0.000723 0.590885 -0.174882
v -0.045259 0.590885 -0.130403
v -0.032244 0.590885 -0.098922
v -0.045259 0.590885 -0.130403
v -0.000781 0.590885 -0.085866
v 0.030700 0.590885 -0.098882
v 0.043756 0.590885 -0.130345
v 0.030740 0.590885 -0.161825
v 0.043756 0.590885 -0.130345
v 0.043824 -0.000000 -0.234623
v 0.030767 -0.000000 -0.203159
v -0.000713 -0.000000 -0.190144
v -0.032176 -0.000000 -0.203200
v -0.045192 -0.000000 -0.234680
v -0.032135 -0.000000 -0.266144
v -0.000655 -0.000000 -0.279160
v 0.030808 -0.000000 -0.266103
v 0.010444 0.304443 -0.171994
v 0.006245 0.292751 -0.169573
v 0.156204 0.292751 0.090554
v 0.160403 0.304443 0.088133
v 0.020581 0.309286 -0.177838
v 0.170541 0.309286 0.082289
v 0.030719 0.304443 -0.183683
v 0.020581 0.309286 -0.177838
v 0.170541 0.309286 0.082289
v 0.180679 0.304443 0.076445
v 0.034918 0.292751 -0.186103
v 0.184878 0.292751 0.074024
v 0.030719 0.281060 -0.183683
v 0.180679 0.281060 0.076445
v 0.020581 0.276217 -0.177838
v 0.170541 0.276217 0.082289
v 0.010444 0.281060 -0.171994
v 0.020581 0.276217 -0.177838
v 0.170541 0.276217 0.082289
v 0.160403 0.281060 0.088133
v -0.158006 0.304443 0.091581
v -0.153810 0.292751 0.094007
v -0.003513 0.292751 -0.165925
v -0.007709 0.304443 -0.168351
v -0.168136 0.309286 0.085724
v -0.017839 0.309286 -0.174209
v -0.178266 0.304443 0.079866
v -0.168136 0.309286 0.085724
v -0.017839 0.309286 -0.174209
v -0.027969 0.304443 -0.180066
v -0.182462 0.292751 0.077440
v -0.032165 0.292751 -0.182492
v -0.178266 0.281060 0.079866
v -0.027969 0.281060 -0.180066
v -0.168136 0.276217 0.085724
v -0.017839 0.276217 -0.174209
v -0.158006 0.281060 0.091581
v -0.168136 0.276217 0.085724
v -0.017839 0.276217 -0.174209
v -0.007709 0.281060 -0.168351
v -0.266959 0.611200 0.011548
v -0.237592 -0.000000 0.096720
v -0.171113 0.591142 -0.149181
v -0.171113 0.591142 -0.149181
v -0.171111 0.662815 -0.149183
v -0.153209 0.662815 -0.143998
v -0.133333 0.611200 -0.219551
v -0.133333 0.644533 -0.219551
v -0.018035 0.644533 0.279147
v -0.010014 0.652945 0.271151
v -0.000291 0.591142 0.171971
v -0.000291 0.591142 0.171971
v 0.003230 0.611200 0.269571
v 0.009827 0.591142 0.248186
v 0.009827 0.591142 0.248186
v 0.043824 -0.000000 -0.234623
v 0.074525 0.591142 -0.029339
v 0.074525 0.591142 -0.029339
v 0.106304 0.662815 -0.051270
v 0.106304 0.662815 -0.051270
v 0.186201 -0.000000 0.168884
v 0.195745 0.591142 -0.108423
v 0.195745 0.591142 -0.108423
v 0.214300 0.644533 -0.119063
v 0.216587 0.591142 -0.101621
v 0.235099 0.644533 -0.112332
v 0.266944 0.611200 0.011895
vt -0.429688 0.125000
vt -0.429688 0.093750
vt 0.664062 0.093750
vt 0.664062 0.125000
vt -0.429688 0.156250
vt 0.664062 0.156250
vt -0.429688 0.066406
vt -0.429688 0.039062
vt 0.664062 0.039063
vt 0.664062 0.066406
vt -0.429688 0.093750
vt 0.664062 0.093750
vt -0.429688 0.125000
vt 0.664062 0.125000
vt -0.429688 0.152344
vt 0.664062 0.152344
vt -0.429688 0.066406
vt -0.429688 0.035156
vt 0.664062 0.035156
vt 0.664062 0.066406
vt 0.564169 0.837247
vt 0.597626 0.902103
vt 0.620477 0.893618
vt 0.584106 0.823115
vt 0.610755 0.962372
vt 0.634970 0.960153
vt 0.595723 0.982486
vt 0.598097 1.051726
vt 0.622010 1.055846
vt 0.619933 0.980168
vt 0.587741 1.116905
vt 0.609731 1.127124
vt 0.548444 1.178947
vt 0.567012 1.194569
vt 0.494614 1.228764
vt 0.508495 1.248723
vt 0.429920 1.262959
vt 0.438168 1.285896
vt 0.358772 1.279204
vt 0.360824 1.303555
vt 0.296886 1.276810
vt 0.292549 1.300914
vt 0.279943 1.262786
vt 0.216613 1.254710
vt 0.203165 1.268528
vt 0.275698 1.286904
vt 0.155291 1.215640
vt 0.139626 1.234457
vt 0.106230 1.161844
vt 0.086292 1.175977
vt 0.072772 1.096988
vt 0.049921 1.105473
vt 0.057198 1.025491
vt 0.032992 1.027750
vt 0.060570 0.952226
vt 0.036657 0.948106
vt 0.082657 0.882186
vt 0.060667 0.871967
vt 0.121955 0.820144
vt 0.103387 0.804522
vt 0.144943 0.761713
vt 0.163113 0.776076
vt 0.157611 0.763884
vt 0.191012 0.772230
vt 0.240478 0.736132
vt 0.237291 0.720471
vt 0.170989 0.756616
vt 0.311627 0.719888
vt 0.310403 0.702688
vt 0.384382 0.722701
vt 0.388665 0.698595
vt 0.453786 0.744382
vt 0.464111 0.722163
vt 0.515108 0.783451
vt 0.530773 0.764635
vt 0.221588 0.848634
vt 0.221588 0.758708
vt 0.265010 0.758708
vt 0.265010 0.848634
vt 0.221588 0.686973
vt 0.265010 0.686975
vt 0.083991 1.097399
vt 0.083991 1.025343
vt 0.127413 1.025343
vt 0.127413 1.097397
vt 0.083991 0.966901
vt 0.127413 0.966901
vt 0.280881 1.096537
vt 0.280881 1.012740
vt 0.324303 1.012740
vt 0.324303 1.096537
vt 0.280881 0.922814
vt 0.324303 0.922814
vt 0.280881 0.832888
vt 0.324303 0.832888
vt 0.280881 0.749091
vt 0.324303 0.749091
vt 0.280881 0.686973
vt 0.324303 0.686975
vt 0.488863 0.686973
vt 0.488863 0.752153
vt 0.445442 0.752153
vt 0.445442 0.686975
vt 0.488863 0.826038
vt 0.445442 0.826038
vt 0.488863 0.915964
vt 0.445442 0.915964
vt 0.488863 1.005890
vt 0.445442 1.005890
vt 0.488863 1.089687
vt 0.445442 1.089687
vt 0.488863 1.161645
vt 0.445442 1.161645
vt 0.197663 0.686973
vt 0.197663 0.758931
vt 0.154242 0.758931
vt 0.154242 0.686973
vt 0.197663 0.842729
vt 0.154242 0.842729
vt 0.197663 0.909420
vt 0.154242 0.909417
vt 0.209685 0.935723
vt 0.209685 1.021218
vt 0.166263 1.021218
vt 0.166263 0.935726
vt 0.209685 1.101139
vt 0.166263 1.101139
vt 0.209685 1.176973
vt 0.166263 1.176973
vt 0.221588 1.094315
vt 0.221588 1.022356
vt 0.265010 1.022356
vt 0.265010 1.094315
vt 0.221588 0.938559
vt 0.265010 0.938559
vt 0.584107 0.823115
vt 0.620477 0.893618
vt 0.597626 0.902103
vt 0.564169 0.837247
vt 0.634970 0.960151
vt 0.610754 0.962370
vt 0.619933 0.980170
vt 0.622010 1.055846
vt 0.598097 1.051726
vt 0.595723 0.982488
vt 0.609731 1.127124
vt 0.587741 1.116905
vt 0.567012 1.194569
vt 0.548444 1.178947
vt 0.508495 1.248723
vt 0.494469 1.228841
vt 0.438168 1.285896
vt 0.429920 1.262959
vt 0.360824 1.303555
vt 0.358772 1.279204
vt 0.292552 1.300914
vt 0.296894 1.276811
vt 0.275696 1.286903
vt 0.203165 1.268528
vt 0.213491 1.246310
vt 0.279945 1.262787
vt 0.139626 1.234457
vt 0.155291 1.215640
vt 0.086292 1.175976
vt 0.106230 1.161844
vt 0.049921 1.105473
vt 0.072772 1.096988
vt 0.032992 1.027750
vt 0.057198 1.025491
vt 0.036657 0.948106
vt 0.060570 0.952226
vt 0.060667 0.871967
vt 0.082657 0.882186
vt 0.103387 0.804522
vt 0.121955 0.820144
vt 0.144941 0.761714
vt 0.157609 0.763886
vt 0.163111 0.776078
vt 0.170991 0.756615
vt 0.237291 0.720471
vt 0.245539 0.743408
vt 0.191013 0.772229
vt 0.310403 0.702688
vt 0.312455 0.727039
vt 0.388665 0.698595
vt 0.384382 0.722701
vt 0.464111 0.722163
vt 0.453786 0.744382
vt 0.530773 0.764635
vt 0.515108 0.783451
vt 0.231003 0.850084
vt 0.334829 1.005721
vt 0.293283 1.246124
vt 0.341470 1.002416
vt 0.475224 0.988173
vt 0.219400 0.839350
vt 0.292597 1.241679
vt 0.431356 0.988676
vt 0.567822 0.989729
vt 0.127413 0.801038
vt 0.114556 0.816067
vt 0.048155 0.816068
vt 0.034049 0.801038
vt 0.034049 0.686973
vt 0.127413 0.704680
vt 0.101284 0.954997
vt 0.057863 0.954997
vt 0.034049 0.927159
vt 0.034049 0.845678
vt 0.127413 0.827971
vt 0.127413 0.927159
vt 0.562556 0.989433
vt 0.209685 0.919852
vt 0.143284 0.919849
vt 0.340175 0.871810
vt 0.340175 0.686973
vt 0.433538 0.728316
vt 0.433538 0.871811
vt 0.409724 0.895895
vt 0.366303 0.895894
vt 0.363989 1.093612
vt 0.340175 1.069469
vt 0.340175 1.033943
vt 0.433538 1.038675
vt 0.433538 1.069471
vt 0.407410 1.093613
vt 0.340175 0.953110
vt 0.433538 0.911767
vt 0.053436 1.060200
vt 0.017810 1.061531
vt 0.018924 0.968061
vt 0.049953 0.966901
vt 0.070467 0.989965
vt 0.072087 1.033356
vt 0.046533 1.077403
vt 0.069839 1.077403
vt 0.072087 1.170767
vt 0.046532 1.170767
vt 0.026880 1.144639
vt 0.026879 1.101217
vt 1.000000 0.101563
vt 1.000000 0.136719
vt 0.800781 0.136719
vt 0.800781 0.101563
vt 1.000000 0.171875
vt 0.800781 0.171875
vt 1.000000 -0.406250
vt 1.000000 -0.375000
vt 0.800781 -0.375000
vt 0.800781 -0.406250
vt 1.000000 -0.339844
vt 0.800781 -0.339844
vt 1.000000 -0.304687
vt 0.800781 -0.304687
vt 1.000000 0.000000
vt 1.000000 0.035156
vt 0.800781 0.035156
vt 0.800781 0.000000
vt 1.000000 0.070313
vt 0.800781 0.070313
vt 0.500000 0.136719
vt 0.500000 0.101563
vt 0.500000 0.171875
vt 0.500000 -0.375000
vt 0.500000 -0.406250
vt 0.500000 -0.339844
vt 0.500000 -0.304688
vt 0.500000 0.035156
vt 0.500000 0.000000
vt 0.500000 0.070313
vt 0.199219 0.136719
vt 0.199219 0.101562
vt 0.199219 0.171875
vt 0.199219 -0.375000
vt 0.199219 -0.406250
vt 0.199219 -0.339844
vt 0.199219 -0.304688
vt 0.199219 -0.000000
vt 0.199219 0.035156
vt 0.199219 0.070312
vt -0.000000 0.136719
vt -0.000000 0.101562
vt -0.000000 0.171875
vt 0.000000 -0.375000
vt 0.000000 -0.406250
vt 0.000000 -0.339844
vt 0.000000 -0.304688
vt -0.000000 0.035156
vt 0.000000 -0.000000
vt -0.000000 0.070312
vt 0.500000 0.187520
vt 0.591122 0.149776
vt 0.628866 0.058654
vt 0.591122 -0.032468
vt 0.500000 -0.070212
vt 0.408878 -0.032468
vt 0.371134 0.058654
vt 0.408878 0.149776
vt 1.000000 0.078125
vt 1.000000 0.109375
vt 0.800781 0.109375
vt 0.800781 0.078125
vt 1.000000 0.144531
vt 0.800781 0.144531
vt 1.000000 -0.609375
vt 1.000000 -0.574219
vt 0.800781 -0.574219
vt 0.800781 -0.609375
vt 1.000000 -0.539062
vt 0.800781 -0.539062
vt 1.000000 -0.503906
vt 0.800781 -0.503906
vt 1.000000 -0.468750
vt 0.800781 -0.468750
vt 1.000000 0.007813
vt 1.000000 0.042969
vt 0.800781 0.042969
vt 0.800781 0.007813
vt 0.500000 0.109375
vt 0.500000 0.078125
vt 0.500000 0.144531
vt 0.500000 -0.574219
vt 0.500000 -0.609375
vt 0.500000 -0.539062
vt 0.500000 -0.503906
vt 0.500000 -0.468750
vt 0.500000 0.042969
vt 0.500000 0.007813
vt 0.199219 0.109375
vt 0.199219 0.078125
vt 0.199219 0.144531
vt 0.199219 -0.574219
vt 0.199219 -0.609375
vt 0.199219 -0.539062
vt 0.199219 -0.503906
vt 0.199219 -0.468750
vt 0.199219 0.007812
vt 0.199219 0.042969
vt -0.000000 0.109375
vt -0.000000 0.078125
vt -0.000000 0.144531
vt 0.000000 -0.574219
vt 0.000000 -0.609375
vt 0.000000 -0.539062
vt 0.000000 -0.503906
vt 0.000000 -0.468750
vt -0.000000 0.042969
vt -0.000000 0.007812
vt 0.721126 0.132247
vt 0.772372 0.111020
vt 0.793599 0.059774
vt 0.772372 0.008527
vt 0.721126 -0.012700
vt 0.669879 0.008527
vt 0.648652 0.059774
vt 0.669879 0.111020
vt 1.000000 0.082031
vt 1.000000 0.117188
vt 0.800781 0.117188
vt 0.800781 0.082031
vt 1.000000 0.152344
vt 0.800781 0.152344
vt 1.000000 -0.613281
vt 1.000000 -0.574219
vt 0.800781 -0.574219
vt 0.800781 -0.613281
vt 1.000000 -0.539062
vt 0.800781 -0.539062
vt 1.000000 -0.500000
vt 0.800781 -0.500000
vt 1.000000 -0.464844
vt 0.800781 -0.464844
vt 1.000000 0.007813
vt 1.000000 0.042969
vt 0.800781 0.042969
vt 0.800781 0.007813
vt 0.500000 0.117188
vt 0.500000 0.082031
vt 0.500000 0.152344
vt 0.500000 -0.574219
vt 0.500000 -0.613281
vt 0.500000 -0.539062
vt 0.500000 -0.500000
vt 0.500000 -0.464844
vt 0.500000 0.042969
vt 0.500000 0.007813
vt 0.199219 0.117187
vt 0.199219 0.082031
vt 0.199219 0.152344
vt 0.199219 -0.613281
vt 0.199219 -0.574219
vt 0.199219 -0.539062
vt 0.199219 -0.500000
vt 0.199219 -0.464844
vt 0.199219 0.007812
vt 0.199219 0.042969
vt -0.000000 0.117187
vt -0.000000 0.082031
vt -0.000000 0.152344
vt 0.000000 -0.574219
vt 0.000000 -0.613281
vt 0.000000 -0.539062
vt 0.000000 -0.500000
vt 0.000000 -0.464844
vt -0.000000 0.042969
vt -0.000000 0.007812
vt 0.751718 0.185118
vt 0.819709 0.156955
vt 0.847872 0.088964
vt 0.819709 0.020973
vt 0.751718 -0.007190
vt 0.683727 0.020973
vt 0.655564 0.088964
vt 0.683727 0.156955
vt -0.433594 0.152344
vt -0.433594 0.121094
vt 0.664062 0.121094
vt 0.664062 0.152344
vt -0.433594 0.183594
vt 0.664062 0.183594
vt -0.433594 0.093750
vt -0.433594 0.070312
vt 0.664062 0.070313
vt 0.664062 0.093750
vt -0.433594 0.121094
vt 0.664062 0.121094
vt -0.433594 0.152344
vt 0.664062 0.152344
vt -0.433594 0.183594
vt 0.664062 0.183594
vt -0.433594 0.089844
vt -0.433594 0.062500
vt 0.664062 0.062500
vt 0.664062 0.089844
vt -0.437500 0.167969
vt -0.437500 0.136719
vt 0.652344 0.136719
vt 0.652344 0.167969
vt -0.437500 0.199219
vt 0.652344 0.199219
vt -0.437500 0.109375
vt -0.437500 0.082031
vt 0.652344 0.082031
vt 0.652344 0.109375
vt -0.437500 0.136719
vt 0.652344 0.136719
vt -0.437500 0.167969
vt 0.652344 0.167969
vt -0.437500 0.199219
vt 0.652344 0.199219
vt -0.437500 0.109375
vt -0.437500 0.078125
vt 0.652344 0.078125
vt 0.652344 0.109375
vt 0.086292 1.175977
vt 0.500000 0.187520
vt 0.279943 1.262786
vt 0.279943 1.262786
vt 0.046533 1.077403
vt 0.018924 0.968061
vt 0.360824 1.303555
vt 0.324303 0.749091
vt 0.154242 0.909417
vt 0.143284 0.919849
vt 0.231003 0.850084
vt 0.231003 0.850084
vt 0.101284 0.954997
vt 0.191012 0.772230
vt 0.191012 0.772230
vt 0.751718 0.185118
vt 0.431356 0.988676
vt 0.431356 0.988676
vt 0.475224 0.988173
vt 0.475224 0.988173
vt 0.721126 0.132247
vt 0.595723 0.982486
vt 0.595723 0.982486
vt 0.363989 1.093612
vt 0.340175 0.871810
vt 0.409724 0.895895
vt 0.221588 0.848634
vn 0.000458 0.707320 -0.706893
vn 0.000649 -0.000000 -1.000000
vn 0.000649 -0.000000 -1.000000
vn 0.000458 0.707320 -0.706893
vn 0.000000 1.000000 0.000000
vn 0.000000 1.000000 -0.000000
vn -0.000458 0.707320 0.706893
vn 0.000000 1.000000 0.000000
vn 0.000000 1.000000 -0.000000
vn -0.000458 0.707320 0.706893
vn -0.000649 -0.000000 1.000000
vn -0.000649 0.000000 1.000000
vn -0.000458 -0.707321 0.706893
vn -0.000458 -0.707320 0.706893
vn -0.000000 -1.000000 -0.000001
vn -0.000000 -1.000000 0.000000
vn 0.000458 -0.707320 -0.706893
vn -0.000000 -1.000000 -0.000001
vn -0.000000 -1.000000 0.000000
vn 0.000458 -0.707320 -0.706893
vn 0.393770 -0.919209 0.000256
vn 0.380419 -0.919209 -0.101668
vn 0.891287 -0.385835 -0.238200
vn 0.922567 -0.385836 0.000599
vn -0.003544 -0.735195 -0.677846
vn 0.358723 -0.313890 -0.879085
vn 0.538757 -0.716654 0.442886
vn 0.305895 -0.920842 -0.241824
vn 0.716312 -0.387930 -0.580007
vn 0.936131 -0.311574 0.163037
vn 0.233242 -0.912611 -0.335767
vn 0.515752 -0.380882 -0.767417
vn 0.102162 -0.919209 -0.380287
vn 0.239356 -0.385835 -0.890977
vn 0.000255 -0.919209 -0.393770
vn 0.000598 -0.385836 -0.922567
vn -0.101669 -0.919209 -0.380419
vn -0.238200 -0.385836 -0.891287
vn -0.196664 -0.919209 -0.341143
vn -0.460766 -0.385835 -0.799266
vn -0.661459 -0.743271 0.100099
vn -0.942000 -0.313920 -0.118705
vn 0.012370 -0.818390 -0.574531
vn -0.381843 -0.871577 -0.307489
vn -0.783079 -0.325778 -0.529770
vn -0.160289 -0.295352 -0.941846
vn -0.380287 -0.919209 -0.102162
vn -0.888148 -0.376126 -0.264051
vn -0.393770 -0.919209 -0.000255
vn -0.922567 -0.385835 -0.000598
vn -0.380419 -0.919209 0.101669
vn -0.891286 -0.385836 0.238200
vn -0.341141 -0.919210 0.196663
vn -0.799266 -0.385836 0.460765
vn -0.278618 -0.919209 0.278257
vn -0.652777 -0.385836 0.651930
vn -0.197106 -0.919209 0.340887
vn -0.461802 -0.385836 0.798667
vn -0.112581 -0.921429 0.371878
vn -0.262619 -0.388063 0.883424
vn 0.211071 -0.298184 0.930879
vn 0.445448 -0.819333 0.360927
vn 0.645728 -0.457298 0.611485
vn -0.422977 -0.840166 0.339429
vn 0.084320 -0.859194 0.504654
vn 0.219847 -0.303336 0.927176
vn -0.589902 -0.309880 0.745647
vn 0.217574 -0.884722 0.412225
vn 0.433951 -0.309464 0.846120
vn 0.278257 -0.919209 0.278618
vn 0.633860 -0.374056 0.676981
vn 0.340887 -0.919209 0.197106
vn 0.798668 -0.385835 0.461802
vn 0.380288 -0.919208 0.102162
vn 0.890977 -0.385836 0.239356
vn 0.922567 -0.385836 0.000599
vn 0.891287 -0.385835 -0.238200
vn 0.882991 0.405756 -0.235983
vn 0.913981 0.405757 0.000593
vn 0.358723 -0.313890 -0.879085
vn 0.383486 0.326179 -0.864029
vn 0.936131 -0.311574 0.163037
vn 0.716312 -0.387930 -0.580007
vn 0.710641 0.406326 -0.574360
vn 0.924431 0.333501 0.184947
vn 0.515752 -0.380882 -0.767417
vn 0.510256 0.399227 -0.761745
vn 0.515752 -0.380882 -0.767417
vn 0.239356 -0.385835 -0.890977
vn 0.237057 0.405805 -0.882681
vn 0.510256 0.399227 -0.761745
vn 0.000598 -0.385836 -0.922567
vn 0.000726 0.405943 -0.913898
vn -0.238200 -0.385836 -0.891287
vn -0.235983 0.405757 -0.882991
vn -0.460766 -0.385835 -0.799266
vn -0.456478 0.405755 -0.791827
vn -0.942000 -0.313920 -0.118705
vn -0.931730 0.316834 -0.177470
vn -0.160289 -0.295352 -0.941846
vn -0.783079 -0.325778 -0.529770
vn -0.760483 0.405654 -0.507061
vn -0.092882 0.328739 -0.939842
vn -0.888148 -0.376126 -0.264051
vn -0.875021 0.402248 -0.269324
vn -0.922567 -0.385835 -0.000598
vn -0.913981 0.405757 -0.000593
vn -0.891286 -0.385836 0.238200
vn -0.882991 0.405756 0.235983
vn -0.799266 -0.385836 0.460765
vn -0.791827 0.405757 0.456477
vn -0.652777 -0.385836 0.651930
vn -0.646701 0.405757 0.645863
vn -0.652777 -0.385836 0.651930
vn -0.461802 -0.385836 0.798667
vn -0.457504 0.405757 0.791234
vn -0.646701 0.405757 0.645863
vn -0.262619 -0.388063 0.883424
vn -0.262469 0.406531 0.875124
vn 0.211071 -0.298184 0.930879
vn 0.211560 0.315331 0.925099
vn -0.589902 -0.309880 0.745647
vn 0.219847 -0.303336 0.927176
vn 0.224160 0.405684 0.886100
vn -0.690136 0.346273 0.635458
vn 0.433951 -0.309464 0.846120
vn 0.413821 0.408333 0.813644
vn 0.633860 -0.374056 0.676981
vn 0.618151 0.401475 0.675801
vn 0.633860 -0.374056 0.676981
vn 0.798668 -0.385835 0.461802
vn 0.791234 0.405757 0.457504
vn 0.618151 0.401475 0.675801
vn 0.890977 -0.385836 0.239356
vn 0.882684 0.405756 0.237128
vn 0.913981 0.405757 0.000593
vn 0.882991 0.405756 -0.235983
vn 0.358652 0.928537 -0.095851
vn 0.371239 0.928537 0.000241
vn 0.383486 0.326179 -0.864029
vn 0.001559 0.761739 -0.647882
vn 0.924431 0.333501 0.184947
vn 0.710641 0.406326 -0.574360
vn 0.287470 0.930676 -0.226279
vn 0.543443 0.685584 0.484402
vn 0.510256 0.399227 -0.761745
vn 0.217604 0.923149 -0.316931
vn 0.237057 0.405805 -0.882681
vn 0.096219 0.928516 -0.358609
vn 0.000726 0.405943 -0.913898
vn 0.000043 0.928622 -0.371027
vn -0.235983 0.405757 -0.882991
vn -0.095851 0.928537 -0.358651
vn -0.456478 0.405755 -0.791827
vn -0.185412 0.928537 -0.321623
vn -0.931730 0.316834 -0.177470
vn -0.574754 0.817244 0.042073
vn -0.092882 0.328739 -0.939842
vn -0.760483 0.405654 -0.507061
vn -0.305470 0.929300 -0.207580
vn 0.067039 0.754113 -0.653314
vn -0.875021 0.402248 -0.269324
vn -0.360963 0.925681 -0.113226
vn -0.913981 0.405757 -0.000593
vn -0.371239 0.928537 -0.000241
vn -0.882991 0.405756 0.235983
vn -0.358652 0.928537 0.095851
vn -0.791827 0.405757 0.456477
vn -0.321623 0.928537 0.185411
vn -0.646701 0.405757 0.645863
vn -0.262676 0.928537 0.262335
vn -0.457504 0.405757 0.791234
vn -0.185828 0.928537 0.321382
vn -0.262469 0.406531 0.875124
vn -0.108059 0.931186 0.348162
vn 0.211560 0.315331 0.925099
vn 0.714049 0.488921 0.501089
vn 0.561413 0.759777 0.327954
vn -0.690136 0.346273 0.635458
vn 0.224160 0.405684 0.886100
vn 0.090950 0.928623 0.359705
vn -0.493071 0.797688 0.347238
vn 0.413821 0.408333 0.813644
vn 0.162810 0.931488 0.325306
vn 0.618151 0.401475 0.675801
vn 0.254522 0.925042 0.281986
vn 0.791234 0.405757 0.457504
vn 0.321382 0.928537 0.185828
vn 0.882684 0.405756 0.237128
vn 0.358527 0.928537 0.096316
vn -0.001569 -0.999293 0.037572
vn -0.000000 -1.000000 0.000000
vn -0.164266 0.979195 -0.119142
vn 0.000000 1.000000 -0.000000
vn 0.048695 0.998435 -0.027505
vn 0.001120 0.998047 0.062460
vn -0.102138 -0.989034 -0.106677
vn 0.022371 -0.999652 -0.013991
vn 0.315050 -0.742047 0.591701
vn 0.561413 0.759777 0.327954
vn 0.714049 0.488921 0.501089
vn 0.645728 -0.457298 0.611485
vn 0.445448 -0.819333 0.360927
vn -0.001569 -0.999293 0.037572
vn 0.001120 0.998047 0.062460
vn -0.589902 -0.309880 0.745647
vn -0.690136 0.346273 0.635458
vn -0.493071 0.797688 0.347238
vn 0.001120 0.998047 0.062460
vn -0.001569 -0.999293 0.037572
vn -0.422977 -0.840166 0.339429
vn 0.348607 0.728397 0.589840
vn 0.645728 -0.457298 0.611485
vn 0.714049 0.488921 0.501089
vn -0.003544 -0.735195 -0.677846
vn 0.022371 -0.999652 -0.013991
vn 0.048695 0.998435 -0.027505
vn 0.001559 0.761739 -0.647882
vn 0.383486 0.326179 -0.864029
vn 0.358723 -0.313890 -0.879085
vn 0.924431 0.333501 0.184947
vn 0.543443 0.685584 0.484402
vn 0.348607 0.728397 0.589840
vn 0.315050 -0.742047 0.591701
vn 0.538757 -0.716654 0.442886
vn 0.936131 -0.311574 0.163037
vn 0.048695 0.998435 -0.027505
vn 0.022371 -0.999652 -0.013991
vn -0.661459 -0.743271 0.100099
vn -0.102138 -0.989034 -0.106677
vn -0.164266 0.979195 -0.119142
vn -0.574754 0.817244 0.042073
vn -0.931730 0.316834 -0.177470
vn -0.942000 -0.313920 -0.118705
vn 0.067039 0.754113 -0.653314
vn -0.164266 0.979195 -0.119142
vn -0.102138 -0.989034 -0.106677
vn 0.012370 -0.818390 -0.574531
vn -0.160289 -0.295352 -0.941846
vn -0.092882 0.328739 -0.939842
vn -0.809848 0.176478 0.559465
vn -0.211652 0.104739 0.971717
vn -0.155087 0.122980 0.980216
vn -0.803039 0.174826 0.569705
vn 0.526576 -0.051705 0.848554
vn 0.580617 -0.000325 0.814177
vn 0.526576 -0.051705 0.848554
vn 0.956603 -0.206714 0.205380
vn 0.976134 -0.124855 0.177687
vn 0.580617 -0.000325 0.814177
vn 0.787802 -0.252769 -0.561672
vn 0.810046 -0.177447 -0.558872
vn 0.126707 -0.159814 -0.978982
vn 0.177183 -0.125580 -0.976133
vn 0.126707 -0.159814 -0.978982
vn -0.614483 0.006219 -0.788906
vn -0.564810 0.000830 -0.825221
vn 0.177183 -0.125580 -0.976133
vn -0.979721 0.139294 -0.144027
vn -0.975298 0.125298 -0.181919
vn -0.171194 0.131578 0.976412
vn -0.809766 0.171172 0.561231
vn 0.571093 0.021202 0.820612
vn 0.979221 -0.095646 0.178825
vn 0.571093 0.021202 0.820612
vn 0.807896 -0.149593 -0.570023
vn 0.160489 -0.108709 -0.981033
vn -0.577530 0.002149 -0.816367
vn 0.160489 -0.108709 -0.981033
vn -0.976828 0.117705 -0.178755
vn -0.165358 0.117649 0.979191
vn -0.806652 0.174126 0.564794
vn 0.572672 -0.010711 0.819715
vn 0.974262 -0.134593 0.180829
vn 0.572672 -0.010711 0.819715
vn 0.806198 -0.183691 -0.562408
vn 0.166412 -0.130400 -0.977396
vn 0.166412 -0.130400 -0.977396
vn -0.572733 -0.003529 -0.819735
vn -0.975849 0.123556 -0.180144
vn -0.140909 0.123347 0.982309
vn -0.806615 0.178974 0.563330
vn 0.607713 -0.006940 0.794126
vn 0.981390 -0.124973 0.145793
vn 0.607713 -0.006940 0.794126
vn 0.807940 -0.169181 -0.564456
vn 0.199961 -0.123706 -0.971963
vn -0.538088 -0.006663 -0.842862
vn 0.199961 -0.123706 -0.971963
vn -0.971178 0.121871 -0.204845
vn -0.000000 -1.000000 0.000000
vn -0.000000 -1.000000 0.000000
vn -0.000000 -1.000000 0.000000
vn -0.000000 -1.000000 0.000000
vn -0.000000 -1.000000 0.000000
vn -0.000000 -1.000000 0.000000
vn -0.000000 -1.000000 0.000000
vn -0.000000 -1.000000 0.000000
vn 0.800355 0.197142 0.566186
vn 0.978240 0.147556 -0.145858
vn 0.974724 0.134271 -0.178560
vn 0.807081 0.185351 0.560594
vn 0.601390 0.044509 -0.797715
vn 0.576839 0.016937 -0.816682
vn 0.601390 0.044509 -0.797715
vn -0.151134 -0.054959 -0.986984
vn -0.160334 -0.099947 -0.981990
vn 0.576839 0.016937 -0.816682
vn -0.819138 -0.083859 -0.567434
vn -0.807385 -0.146522 -0.571542
vn -0.979288 -0.022590 0.201206
vn -0.979760 -0.093407 0.177045
vn -0.544836 0.085370 0.834186
vn -0.572456 0.026909 0.819494
vn -0.544836 0.085370 0.834186
vn 0.188809 0.173017 0.966652
vn 0.169404 0.141744 0.975300
vn -0.572456 0.026909 0.819494
vn 0.977144 0.115031 -0.178768
vn 0.806924 0.163890 0.567463
vn 0.574355 -0.013094 -0.818501
vn -0.163264 -0.144912 -0.975882
vn 0.574355 -0.013094 -0.818501
vn -0.802459 -0.203231 -0.561032
vn -0.971115 -0.154424 0.181902
vn -0.571560 -0.027042 0.820114
vn 0.164495 0.104828 0.980792
vn -0.571560 -0.027042 0.820114
vn 0.977368 0.114645 -0.177787
vn 0.807062 0.166751 0.566432
vn 0.575079 -0.009684 -0.818040
vn -0.163696 -0.132215 -0.977611
vn 0.575079 -0.009684 -0.818040
vn -0.804910 -0.183151 -0.564424
vn -0.974580 -0.133834 0.179673
vn -0.572483 -0.011029 0.819843
vn -0.572483 -0.011029 0.819843
vn 0.165757 0.114308 0.979519
vn 0.971262 0.123347 -0.203558
vn 0.805235 0.178973 0.565301
vn 0.538385 -0.006940 -0.842671
vn -0.198654 -0.124973 -0.972069
vn 0.538385 -0.006940 -0.842671
vn -0.806747 -0.169181 -0.566160
vn -0.981737 -0.123706 0.144529
vn -0.607995 -0.006663 0.793913
vn 0.139671 0.121871 0.982670
vn -0.607995 -0.006663 0.793913
vn -0.000000 -1.000000 0.000000
vn -0.000000 -1.000000 0.000000
vn -0.000000 -1.000000 0.000000
vn -0.000000 -1.000000 0.000000
vn -0.000000 -1.000000 0.000000
vn -0.000000 -1.000000 0.000000
vn -0.000000 -1.000000 0.000000
vn -0.000000 -1.000000 0.000000
vn 0.000306 0.152313 -0.988332
vn -0.682516 0.107448 -0.722929
vn -0.706297 0.120155 -0.697644
vn 0.000471 0.170353 -0.985383
vn -0.998957 -0.011663 -0.044160
vn -0.999998 -0.001760 -0.001073
vn -0.998957 -0.011663 -0.044160
vn -0.723077 -0.142405 0.675930
vn -0.707036 -0.125945 0.695872
vn -0.999998 -0.001760 -0.001073
vn 0.000082 -0.197758 0.980251
vn -0.000323 -0.178520 0.983936
vn 0.722522 -0.140304 0.676962
vn 0.706168 -0.126903 0.696579
vn 0.999060 -0.011232 -0.041862
vn 0.999997 -0.002201 0.000634
vn 0.999060 -0.011232 -0.041862
vn 0.683605 0.106569 -0.722030
vn 0.707241 0.120549 -0.696620
vn 0.999997 -0.002201 0.000634
vn -0.706523 0.141446 -0.693411
vn 0.000636 0.192338 -0.981329
vn -0.999824 0.018578 0.002625
vn -0.707430 -0.104291 0.699046
vn -0.999824 0.018578 0.002625
vn -0.000641 -0.155184 0.987885
vn 0.706523 -0.104291 0.699963
vn 0.999820 0.018578 0.003922
vn 0.707422 0.141446 -0.692494
vn 0.999820 0.018578 0.003922
vn -0.706383 0.115782 -0.698296
vn 0.000789 0.167527 -0.985867
vn -0.999974 -0.007133 -0.001424
vn -0.999974 -0.007133 -0.001424
vn -0.707086 -0.128079 0.695432
vn -0.000948 -0.178176 0.983998
vn 0.706064 -0.129210 0.696261
vn 0.999970 -0.007751 -0.000701
vn 0.999970 -0.007751 -0.000701
vn 0.707172 0.115990 -0.697463
vn -0.726439 0.082587 -0.682251
vn 0.000923 0.138646 -0.990342
vn -0.998070 -0.046515 0.041152
vn -0.679188 -0.162137 0.715832
vn -0.998070 -0.046515 0.041152
vn -0.001147 -0.204965 0.978769
vn 0.678293 -0.160171 0.717122
vn 0.998123 -0.044918 0.041634
vn 0.727136 0.082315 -0.681541
vn 0.998123 -0.044918 0.041634
vn -0.000000 -1.000000 0.000000
vn -0.000000 -1.000000 0.000000
vn -0.000000 -1.000000 0.000000
vn -0.000000 -1.000000 0.000000
vn -0.000000 -1.000000 0.000000
vn -0.000000 -1.000000 0.000000
vn -0.000000 -1.000000 0.000000
vn -0.000000 -1.000000 0.000000
vn -0.612417 0.707320 0.353049
vn -0.866350 -0.000000 0.499438
vn -0.866349 -0.000000 0.499438
vn -0.612417 0.707320 0.353050
vn -0.000000 1.000000 -0.000000
vn 0.000000 1.000000 -0.000000
vn 0.612416 0.707321 -0.353049
vn -0.000000 1.000000 -0.000000
vn 0.000000 1.000000 -0.000000
vn 0.612416 0.707321 -0.353049
vn 0.866350 -0.000000 -0.499438
vn 0.866349 -0.000000 -0.499438
vn 0.612416 -0.707321 -0.353049
vn 0.612416 -0.707321 -0.353049
vn -0.000000 -1.000000 0.000000
vn 0.000000 -1.000000 -0.000000
vn -0.612416 -0.707321 0.353049
vn -0.000000 -1.000000 0.000000
vn 0.000000 -1.000000 -0.000000
vn -0.612417 -0.707320 0.353050
vn 0.611958 0.707321 0.353844
vn 0.865701 0.000000 0.500562
vn 0.865701 0.000000 0.500562
vn 0.611958 0.707321 0.353844
vn 0.000000 1.000000 0.000000
vn -0.000000 1.000000 -0.000000
vn -0.611958 0.707321 -0.353843
vn 0.000000 1.000000 0.000000
vn -0.000000 1.000000 -0.000000
vn -0.611958 0.707320 -0.353844
vn -0.865701 0.000000 -0.500562
vn -0.865701 0.000000 -0.500562
vn -0.611958 -0.707320 -0.353844
vn -0.611958 -0.707320 -0.353844
vn -0.000000 -1.000000 -0.000000
vn 0.000001 -1.000000 0.000000
vn 0.611958 -0.707320 0.353844
vn -0.000000 -1.000000 -0.000000
vn 0.000001 -1.000000 0.000000
vn 0.611958 -0.707320 0.353844
vn -0.922567 -0.385835 -0.000598
vn -0.000000 -1.000000 0.000000
vn 0.012370 -0.818390 -0.574531
vn 0.012370 -0.818390 -0.574531
vn 0.067039 0.754113 -0.653314
vn -0.164266 0.979195 -0.119142
vn -0.460766 -0.385835 -0.799266
vn -0.456478 0.405755 -0.791827
vn 0.211560 0.315331 0.925099
vn 0.714049 0.488921 0.501089
vn -0.001569 -0.999293 0.037572
vn -0.001569 -0.999293 0.037572
vn -0.589902 -0.309880 0.745647
vn -0.422977 -0.840166 0.339429
vn -0.422977 -0.840166 0.339429
vn -0.000000 -1.000000 0.000000
vn 0.022371 -0.999652 -0.013991
vn 0.022371 -0.999652 -0.013991
vn 0.048695 0.998435 -0.027505
vn 0.048695 0.998435 -0.027505
vn -0.000000 -1.000000 0.000000
vn 0.538757 -0.716654 0.442886
vn 0.538757 -0.716654 0.442886
vn 0.924431 0.333501 0.184947
vn -0.003544 -0.735195 -0.677846
vn 0.383486 0.326179 -0.864029
vn 0.922567 -0.385836 0.000599
f 3/3/3 2/2/2 1/1/1
f 1/1/1 4/4/4 3/3/3
f 4/4/4 1/1/1 5/5/5
f 5/5/5 6/6/6 4/4/4
f 9/9/9 8/8/8 7/7/7
f 7/7/7 10/10/10 9/9/9
f 10/10/10 7/7/7 11/11/11
f 11/11/11 12/12/12 10/10/10
f 12/12/12 11/11/11 13/13/13
f 13/13/13 14/14/14 12/12/12
f 14/14/14 13/13/13 15/15/15
f 15/15/15 16/16/16 14/14/14
f 19/19/19 18/18/18 17/17/17
f 17/17/17 20/20/20 19/19/19
f 20/20/20 17/17/17 2/2/2
f 2/2/2 3/3/3 20/20/20
f 23/23/23 22/22/22 21/21/21
f 21/21/21 24/24/24 23/23/23
f 26/26/26 25/25/25 22/22/22
f 22/22/22 23/23/23 26/26/26
f 29/29/29 28/28/28 27/27/27
f 27/27/27 30/30/30 29/29/29
f 32/32/32 31/31/31 28/28/28
f 28/28/28 29/29/29 32/32/32
f 34/34/34 33/33/33 31/31/31
f 31/31/31 32/32/32 34/34/34
f 36/36/36 35/35/35 33/33/33
f 33/33/33 34/34/34 36/36/36
f 38/38/38 37/37/37 35/35/35
f 35/35/35 36/36/36 38/38/38
f 40/40/40 39/39/39 37/37/37
f 37/37/37 38/38/38 40/40/40
f 42/42/42 41/41/41 39/39/39
f 39/39/39 461/461/461 42/42/42
f 45/45/45 44/44/44 43/43/43
f 43/43/43 46/46/46 45/45/45
f 48/48/48 47/47/47 44/44/44
f 44/44/44 45/45/45 48/48/48
f 50/50/50 49/49/49 47/47/47
f 47/47/47 48/48/48 50/50/50
f 52/52/52 51/51/51 49/49/49
f 49/49/49 455/455/455 52/52/52
f 54/54/54 53/53/53 51/51/51
f 51/51/51 52/52/52 54/54/54
f 56/56/56 55/55/55 53/53/53
f 53/53/53 54/54/54 56/56/56
f 58/58/58 57/57/57 55/55/55
f 55/55/55 56/56/56 58/58/58
f 60/60/60 59/59/59 57/57/57
f 57/57/57 58/58/58 60/60/60
f 59/59/59 60/60/60 61/61/61
f 62/62/62 59/59/59 61/61/61
f 63/63/63 62/62/62 61/61/61
f 66/66/66 65/65/65 64/64/64
f 64/64/64 67/67/67 66/66/66
f 69/69/69 68/68/68 65/65/65
f 65/65/65 66/66/66 69/69/69
f 71/71/71 70/70/70 68/68/68
f 68/68/68 69/69/69 71/71/71
f 73/73/73 72/72/72 70/70/70
f 70/70/70 71/71/71 73/73/73
f 75/75/75 74/74/74 72/72/72
f 72/72/72 73/73/73 75/75/75
f 24/24/24 21/21/21 74/74/74
f 74/74/74 75/75/75 24/24/24
f 78/78/78 77/77/77 481/481/481
f 481/481/481 79/79/79 78/78/78
f 81/81/81 80/80/80 77/77/77
f 77/77/77 78/78/78 81/81/81
f 84/84/84 83/83/83 82/82/82
f 82/82/82 85/85/85 84/84/84
f 87/87/87 86/86/86 83/83/83
f 83/83/83 84/84/84 87/87/87
f 90/90/90 89/89/89 88/88/88
f 88/88/88 91/91/91 90/90/90
f 93/93/93 92/92/92 89/89/89
f 89/89/89 90/90/90 93/93/93
f 95/95/95 94/94/94 92/92/92
f 92/92/92 93/93/93 95/95/95
f 97/97/97 96/96/96 94/94/94
f 94/94/94 95/95/95 97/97/97
f 99/99/99 98/98/98 96/96/96
f 96/96/96 462/462/462 99/99/99
f 102/102/102 101/101/101 100/100/100
f 100/100/100 103/103/103 102/102/102
f 105/105/105 104/104/104 101/101/101
f 101/101/101 102/102/102 105/105/105
f 107/107/107 106/106/106 104/104/104
f 104/104/104 105/105/105 107/107/107
f 109/109/109 108/108/108 106/106/106
f 106/106/106 107/107/107 109/109/109
f 111/111/111 110/110/110 108/108/108
f 108/108/108 109/109/109 111/111/111
f 113/113/113 112/112/112 110/110/110
f 110/110/110 111/111/111 113/113/113
f 116/116/116 115/115/115 114/114/114
f 114/114/114 117/117/117 116/116/116
f 119/119/119 118/118/118 115/115/115
f 115/115/115 116/116/116 119/119/119
f 121/121/121 120/120/120 118/118/118
f 118/118/118 119/119/119 121/121/121
f 124/124/124 123/123/123 122/122/122
f 122/122/122 125/125/125 124/124/124
f 127/127/127 126/126/126 123/123/123
f 123/123/123 124/124/124 127/127/127
f 129/129/129 128/128/128 126/126/126
f 126/126/126 127/127/127 129/129/129
f 132/132/132 131/131/131 130/130/130
f 130/130/130 133/133/133 132/132/132
f 135/135/135 134/134/134 131/131/131
f 131/131/131 132/132/132 135/135/135
f 79/79/79 481/481/481 134/134/134
f 134/134/134 135/135/135 79/79/79
f 138/138/138 137/137/137 136/136/136
f 136/136/136 139/139/139 138/138/138
f 141/141/141 140/140/140 137/137/137
f 137/137/137 138/138/138 141/141/141
f 144/144/144 143/143/143 142/142/142
f 142/142/142 145/145/145 144/144/144
f 147/147/147 146/146/146 143/143/143
f 143/143/143 144/144/144 147/147/147
f 149/149/149 148/148/148 146/146/146
f 146/146/146 147/147/147 149/149/149
f 151/151/151 150/150/150 148/148/148
f 148/148/148 149/149/149 151/151/151
f 153/153/153 152/152/152 150/150/150
f 150/150/150 151/151/151 153/153/153
f 155/155/155 154/154/154 152/152/152
f 152/152/152 153/153/153 155/155/155
f 157/157/157 156/156/156 154/154/154
f 154/154/154 155/155/155 157/157/157
f 160/160/160 159/159/159 158/158/158
f 158/158/158 161/161/161 160/160/160
f 163/163/163 162/162/162 159/159/159
f 159/159/159 160/160/160 163/163/163
f 165/165/165 164/164/164 162/162/162
f 162/162/162 163/163/163 165/165/165
f 167/167/167 166/166/166 164/164/164
f 164/164/164 165/165/165 167/167/167
f 169/169/169 168/168/168 166/166/166
f 166/166/166 167/167/167 169/169/169
f 171/171/171 170/170/170 168/168/168
f 168/168/168 169/169/169 171/171/171
f 173/173/173 172/172/172 170/170/170
f 170/170/170 171/171/171 173/173/173
f 175/175/175 174/174/174 172/172/172
f 172/172/172 173/173/173 175/175/175
f 177/177/177 176/176/176 174/174/174
f 178/178/178 177/177/177 174/174/174
f 175/175/175 178/178/178 174/174/174
f 181/181/181 180/180/180 179/179/179
f 179/179/179 182/182/182 181/181/181
f 184/184/184 183/183/183 180/180/180
f 180/180/180 181/181/181 184/184/184
f 186/186/186 185/185/185 183/183/183
f 183/183/183 184/184/184 186/186/186
f 188/188/188 187/187/187 185/185/185
f 185/185/185 186/186/186 188/188/188
f 190/190/190 189/189/189 187/187/187
f 187/187/187 188/188/188 190/190/190
f 139/139/139 136/136/136 189/189/189
f 189/189/189 190/190/190 139/139/139
f 469/469/469 65/65/65 68/68/68
f 21/21/21 192/192/192 191/191/191
f 21/21/21 191/191/191 469/469/469
f 21/21/21 469/469/469 68/68/68
f 72/72/72 74/74/74 21/21/21
f 72/72/72 21/21/21 68/68/68
f 70/70/70 72/72/72 68/68/68
f 193/193/193 157/157/157 155/155/155
f 194/194/194 193/193/193 155/155/155
f 153/153/153 151/151/151 194/194/194
f 153/153/153 194/194/194 155/155/155
f 139/139/139 194/194/194 195/195/195
f 138/138/138 139/139/139 195/195/195
f 141/141/141 138/138/138 195/195/195
f 55/55/55 57/57/57 59/59/59
f 51/51/51 53/53/53 55/55/55
f 192/192/192 49/49/49 51/51/51
f 192/192/192 51/51/51 55/55/55
f 192/192/192 55/55/55 59/59/59
f 466/466/466 192/192/192 59/59/59
f 62/62/62 466/466/466 59/59/59
f 167/167/167 165/165/165 194/194/194
f 169/169/169 167/167/167 194/194/194
f 171/171/171 169/169/169 194/194/194
f 173/173/173 171/171/171 194/194/194
f 175/175/175 173/173/173 194/194/194
f 196/196/196 178/178/178 175/175/175
f 196/196/196 175/175/175 194/194/194
f 181/181/181 182/182/182 196/196/196
f 194/194/194 139/139/139 190/190/190
f 194/194/194 190/190/190 188/188/188
f 194/194/194 188/188/188 186/186/186
f 194/194/194 186/186/186 184/184/184
f 194/194/194 184/184/184 181/181/181
f 194/194/194 181/181/181 196/196/196
f 458/458/458 44/44/44 47/47/47
f 197/197/197 458/458/458 47/47/47
f 192/192/192 197/197/197 47/47/47
f 49/49/49 192/192/192 47/47/47
f 35/35/35 192/192/192 198/198/198
f 31/31/31 33/33/33 35/35/35
f 477/477/477 28/28/28 31/31/31
f 477/477/477 31/31/31 35/35/35
f 199/199/199 477/477/477 35/35/35
f 199/199/199 35/35/35 198/198/198
f 202/202/202 201/201/201 200/200/200
f 204/204/204 203/203/203 202/202/202
f 204/204/204 202/202/202 200/200/200
f 205/205/205 204/204/204 200/200/200
f 208/208/208 207/207/207 467/467/467
f 209/209/209 208/208/208 467/467/467
f 210/210/210 209/209/209 467/467/467
f 211/211/211 210/210/210 467/467/467
f 144/144/144 145/145/145 212/212/212
f 194/194/194 151/151/151 149/149/149
f 194/194/194 149/149/149 147/147/147
f 194/194/194 147/147/147 144/144/144
f 474/474/474 194/194/194 144/144/144
f 474/474/474 144/144/144 212/212/212
f 472/472/472 192/192/192 21/21/21
f 25/25/25 472/472/472 21/21/21
f 22/22/22 25/25/25 21/21/21
f 464/464/464 213/213/213 120/120/120
f 120/120/120 463/463/463 464/464/464
f 217/217/217 216/216/216 479/479/479
f 480/480/480 218/218/218 217/217/217
f 480/480/480 217/217/217 479/479/479
f 220/220/220 480/480/480 479/479/479
f 223/223/223 222/222/222 478/478/478
f 225/225/225 224/224/224 223/223/223
f 225/225/225 223/223/223 478/478/478
f 226/226/226 225/225/225 478/478/478
f 224/224/224 228/228/228 227/227/227
f 227/227/227 223/223/223 224/224/224
f 160/160/160 161/161/161 193/193/193
f 194/194/194 165/165/165 163/163/163
f 194/194/194 163/163/163 160/160/160
f 194/194/194 160/160/160 193/193/193
f 192/192/192 35/35/35 37/37/37
f 197/197/197 192/192/192 37/37/37
f 41/41/41 197/197/197 37/37/37
f 39/39/39 41/41/41 37/37/37
f 460/460/460 230/230/230 229/229/229
f 233/233/233 232/232/232 460/460/460
f 233/233/233 460/460/460 229/229/229
f 234/234/234 233/233/233 229/229/229
f 237/237/237 236/236/236 459/459/459
f 239/239/239 238/238/238 237/237/237
f 239/239/239 237/237/237 459/459/459
f 240/240/240 239/239/239 459/459/459
f 243/243/243 242/242/242 241/241/241
f 241/241/241 244/244/244 243/243/243
f 246/246/246 245/245/245 242/242/242
f 242/242/242 243/243/243 246/246/246
f 249/249/249 248/248/248 247/247/247
f 247/247/247 250/250/250 249/249/249
f 252/252/252 251/251/251 248/248/248
f 248/248/248 249/249/249 252/252/252
f 254/254/254 253/253/253 251/251/251
f 251/251/251 252/252/252 254/254/254
f 257/257/257 256/256/256 255/255/255
f 255/255/255 258/258/258 257/257/257
f 260/260/260 259/259/259 256/256/256
f 256/256/256 257/257/257 260/260/260
f 244/244/244 241/241/241 259/259/259
f 259/259/259 260/260/260 244/244/244
f 244/244/244 262/262/262 261/261/261
f 261/261/261 243/243/243 244/244/244
f 243/243/243 261/261/261 263/263/263
f 263/263/263 246/246/246 243/243/243
f 250/250/250 265/265/265 264/264/264
f 264/264/264 249/249/249 250/250/250
f 249/249/249 264/264/264 266/266/266
f 266/266/266 252/252/252 249/249/249
f 252/252/252 266/266/266 267/267/267
f 267/267/267 254/254/254 252/252/252
f 258/258/258 269/269/269 268/268/268
f 268/268/268 257/257/257 258/258/258
f 257/257/257 268/268/268 270/270/270
f 270/270/270 260/260/260 257/257/257
f 260/260/260 270/270/270 262/262/262
f 262/262/262 244/244/244 260/260/260
f 262/262/262 272/272/272 271/271/271
f 271/271/271 261/261/261 262/262/262
f 261/261/261 271/271/271 273/273/273
f 273/273/273 263/263/263 261/261/261
f 265/265/265 275/275/275 274/274/274
f 274/274/274 264/264/264 265/265/265
f 266/266/266 264/264/264 274/274/274
f 274/274/274 276/276/276 266/266/266
f 267/267/267 266/266/266 276/276/276
f 276/276/276 277/277/277 267/267/267
f 268/268/268 269/269/269 278/278/278
f 278/278/278 279/279/279 268/268/268
f 270/270/270 268/268/268 279/279/279
f 279/279/279 280/280/280 270/270/270
f 270/270/270 280/280/280 272/272/272
f 272/272/272 262/262/262 270/270/270
f 281/281/281 271/271/271 272/272/272
f 272/272/272 282/282/282 281/281/281
f 283/283/283 273/273/273 271/271/271
f 271/271/271 281/281/281 283/283/283
f 284/284/284 274/274/274 275/275/275
f 275/275/275 285/285/285 284/284/284
f 286/286/286 276/276/276 274/274/274
f 274/274/274 284/284/284 286/286/286
f 287/287/287 277/277/277 276/276/276
f 276/276/276 286/286/286 287/287/287
f 288/288/288 279/279/279 278/278/278
f 278/278/278 289/289/289 288/288/288
f 290/290/290 280/280/280 279/279/279
f 279/279/279 288/288/288 290/290/290
f 282/282/282 272/272/272 280/280/280
f 280/280/280 290/290/290 282/282/282
f 293/293/293 292/292/292 456/456/456
f 295/295/295 294/294/294 293/293/293
f 297/297/297 296/296/296 295/295/295
f 297/297/297 295/295/295 293/293/293
f 297/297/297 293/293/293 456/456/456
f 298/298/298 297/297/297 456/456/456
f 301/301/301 300/300/300 299/299/299
f 299/299/299 302/302/302 301/301/301
f 304/304/304 303/303/303 300/300/300
f 300/300/300 301/301/301 304/304/304
f 307/307/307 306/306/306 305/305/305
f 305/305/305 308/308/308 307/307/307
f 310/310/310 309/309/309 306/306/306
f 306/306/306 307/307/307 310/310/310
f 312/312/312 311/311/311 309/309/309
f 309/309/309 310/310/310 312/312/312
f 314/314/314 313/313/313 311/311/311
f 311/311/311 312/312/312 314/314/314
f 317/317/317 316/316/316 315/315/315
f 315/315/315 318/318/318 317/317/317
f 302/302/302 299/299/299 316/316/316
f 316/316/316 317/317/317 302/302/302
f 302/302/302 320/320/320 319/319/319
f 319/319/319 301/301/301 302/302/302
f 301/301/301 319/319/319 321/321/321
f 321/321/321 304/304/304 301/301/301
f 308/308/308 323/323/323 322/322/322
f 322/322/322 307/307/307 308/308/308
f 307/307/307 322/322/322 324/324/324
f 324/324/324 310/310/310 307/307/307
f 310/310/310 324/324/324 325/325/325
f 325/325/325 312/312/312 310/310/310
f 312/312/312 325/325/325 326/326/326
f 326/326/326 314/314/314 312/312/312
f 318/318/318 328/328/328 327/327/327
f 327/327/327 317/317/317 318/318/318
f 317/317/317 327/327/327 320/320/320
f 320/320/320 302/302/302 317/317/317
f 320/320/320 330/330/330 329/329/329
f 329/329/329 319/319/319 320/320/320
f 319/319/319 329/329/329 331/331/331
f 331/331/331 321/321/321 319/319/319
f 323/323/323 333/333/333 332/332/332
f 332/332/332 322/322/322 323/323/323
f 322/322/322 332/332/332 334/334/334
f 334/334/334 324/324/324 322/322/322
f 324/324/324 334/334/334 335/335/335
f 335/335/335 325/325/325 324/324/324
f 326/326/326 325/325/325 335/335/335
f 335/335/335 336/336/336 326/326/326
f 327/327/327 328/328/328 337/337/337
f 337/337/337 338/338/338 327/327/327
f 327/327/327 338/338/338 330/330/330
f 330/330/330 320/320/320 327/327/327
f 339/339/339 329/329/329 330/330/330
f 330/330/330 340/340/340 339/339/339
f 341/341/341 331/331/331 329/329/329
f 329/329/329 339/339/339 341/341/341
f 342/342/342 332/332/332 333/333/333
f 333/333/333 343/343/343 342/342/342
f 344/344/344 334/334/334 332/332/332
f 332/332/332 342/342/342 344/344/344
f 345/345/345 335/335/335 334/334/334
f 334/334/334 344/344/344 345/345/345
f 346/346/346 336/336/336 335/335/335
f 335/335/335 345/345/345 346/346/346
f 347/347/347 338/338/338 337/337/337
f 337/337/337 348/348/348 347/347/347
f 340/340/340 330/330/330 338/338/338
f 338/338/338 347/347/347 340/340/340
f 351/351/351 350/350/350 475/475/475
f 353/353/353 352/352/352 351/351/351
f 355/355/355 354/354/354 353/353/353
f 355/355/355 353/353/353 351/351/351
f 355/355/355 351/351/351 475/475/475
f 356/356/356 355/355/355 475/475/475
f 359/359/359 358/358/358 357/357/357
f 357/357/357 360/360/360 359/359/359
f 362/362/362 361/361/361 358/358/358
f 358/358/358 359/359/359 362/362/362
f 365/365/365 364/364/364 363/363/363
f 363/363/363 366/366/366 365/365/365
f 368/368/368 367/367/367 364/364/364
f 364/364/364 365/365/365 368/368/368
f 370/370/370 369/369/369 367/367/367
f 367/367/367 368/368/368 370/370/370
f 372/372/372 371/371/371 369/369/369
f 369/369/369 370/370/370 372/372/372
f 375/375/375 374/374/374 373/373/373
f 373/373/373 376/376/376 375/375/375
f 360/360/360 357/357/357 374/374/374
f 374/374/374 375/375/375 360/360/360
f 360/360/360 378/378/378 377/377/377
f 377/377/377 359/359/359 360/360/360
f 359/359/359 377/377/377 379/379/379
f 379/379/379 362/362/362 359/359/359
f 366/366/366 381/381/381 380/380/380
f 380/380/380 365/365/365 366/366/366
f 365/365/365 380/380/380 382/382/382
f 382/382/382 368/368/368 365/365/365
f 368/368/368 382/382/382 383/383/383
f 383/383/383 370/370/370 368/368/368
f 370/370/370 383/383/383 384/384/384
f 384/384/384 372/372/372 370/370/370
f 376/376/376 386/386/386 385/385/385
f 385/385/385 375/375/375 376/376/376
f 375/375/375 385/385/385 378/378/378
f 378/378/378 360/360/360 375/375/375
f 378/378/378 388/388/388 387/387/387
f 387/387/387 377/377/377 378/378/378
f 379/379/379 377/377/377 387/387/387
f 387/387/387 389/389/389 379/379/379
f 380/380/380 381/381/381 390/390/390
f 390/390/390 391/391/391 380/380/380
f 382/382/382 380/380/380 391/391/391
f 391/391/391 392/392/392 382/382/382
f 383/383/383 382/382/382 392/392/392
f 392/392/392 393/393/393 383/383/383
f 384/384/384 383/383/383 393/393/393
f 393/393/393 394/394/394 384/384/384
f 385/385/385 386/386/386 395/395/395
f 395/395/395 396/396/396 385/385/385
f 385/385/385 396/396/396 388/388/388
f 388/388/388 378/378/378 385/385/385
f 397/397/397 387/387/387 388/388/388
f 388/388/388 398/398/398 397/397/397
f 399/399/399 389/389/389 387/387/387
f 387/387/387 397/397/397 399/399/399
f 400/400/400 391/391/391 390/390/390
f 390/390/390 401/401/401 400/400/400
f 402/402/402 392/392/392 391/391/391
f 391/391/391 400/400/400 402/402/402
f 403/403/403 393/393/393 392/392/392
f 392/392/392 402/402/402 403/403/403
f 404/404/404 394/394/394 393/393/393
f 393/393/393 403/403/403 404/404/404
f 405/405/405 396/396/396 395/395/395
f 395/395/395 406/406/406 405/405/405
f 398/398/398 388/388/388 396/396/396
f 396/396/396 405/405/405 398/398/398
f 409/409/409 408/408/408 470/470/470
f 411/411/411 410/410/410 409/409/409
f 413/413/413 412/412/412 411/411/411
f 413/413/413 411/411/411 409/409/409
f 413/413/413 409/409/409 470/470/470
f 414/414/414 413/413/413 470/470/470
f 417/417/417 416/416/416 415/415/415
f 415/415/415 418/418/418 417/417/417
f 418/418/418 415/415/415 419/419/419
f 419/419/419 420/420/420 418/418/418
f 423/423/423 422/422/422 421/421/421
f 421/421/421 424/424/424 423/423/423
f 424/424/424 421/421/421 425/425/425
f 425/425/425 426/426/426 424/424/424
f 426/426/426 425/425/425 427/427/427
f 427/427/427 428/428/428 426/426/426
f 428/428/428 427/427/427 429/429/429
f 429/429/429 430/430/430 428/428/428
f 433/433/433 432/432/432 431/431/431
f 431/431/431 434/434/434 433/433/433
f 434/434/434 431/431/431 416/416/416
f 416/416/416 417/417/417 434/434/434
f 437/437/437 436/436/436 435/435/435
f 435/435/435 438/438/438 437/437/437
f 438/438/438 435/435/435 439/439/439
f 439/439/439 440/440/440 438/438/438
f 443/443/443 442/442/442 441/441/441
f 441/441/441 444/444/444 443/443/443
f 444/444/444 441/441/441 445/445/445
f 445/445/445 446/446/446 444/444/444
f 446/446/446 445/445/445 447/447/447
f 447/447/447 448/448/448 446/446/446
f 448/448/448 447/447/447 449/449/449
f 449/449/449 450/450/450 448/448/448
f 453/453/453 452/452/452 451/451/451
f 451/451/451 454/454/454 453/453/453
f 454/454/454 451/451/451 436/436/436
f 436/436/436 437/437/437 454/454/454
