mtllib G3_Object_Fireplace_02.mtl
o G3_Object_Fireplace_02_0
usemtl G3_Architecture_Wall_Stone_09_B
v -0.200566 1.482988 0.776338
v 0.000000 1.513079 0.776338
v 0.000000 1.238683 0.959513
v -0.138242 1.217943 0.959513
v -0.387461 1.394768 0.776338
v -0.267070 1.157135 0.959513
v -0.547959 1.254430 0.776338
v -0.377695 1.060403 0.959513
v -0.671104 1.071538 0.776338
v -0.462578 0.934341 0.959513
v -0.748516 0.858556 0.776338
v -0.515938 0.787537 0.959513
v -0.775332 0.632239 0.776742
v -0.534395 0.631888 0.959846
v 0.748516 0.858556 0.776338
v 0.775332 0.632239 0.776742
v 0.534395 0.631888 0.959846
v 0.515938 0.787537 0.959513
v 0.671104 1.071538 0.776338
v 0.462578 0.934341 0.959513
v 0.547959 1.254430 0.776338
v 0.377695 1.060404 0.959513
v 0.387461 1.394768 0.776338
v 0.267070 1.157135 0.959513
v 0.200566 1.482988 0.776338
v 0.138242 1.217943 0.959513
v -0.245771 1.675257 0.549063
v 0.000000 1.712130 0.549063
v -0.474795 1.567152 0.549063
v -0.671465 1.395181 0.549063
v -0.822373 1.171064 0.549063
v -0.917236 0.910074 0.549063
v -0.950332 0.632350 0.549485
v 0.917236 0.910074 0.549063
v 0.950332 0.632350 0.549485
v 0.822373 1.171064 0.549063
v 0.671465 1.395181 0.549063
v 0.474795 1.567152 0.549063
v 0.245771 1.675257 0.549063
v -0.274199 1.796160 0.284250
v 0.000000 1.837298 0.284250
v -0.529717 1.675551 0.284250
v -0.749131 1.483688 0.284250
v -0.917500 1.233648 0.284250
v -1.023340 0.942470 0.284250
v -1.060449 0.633566 0.284521
v 1.023340 0.942470 0.284250
v 1.060449 0.633566 0.284521
v 0.917500 1.233648 0.284250
v 0.749131 1.483688 0.284250
v 0.529717 1.675551 0.284250
v 0.274199 1.796160 0.284250
v -0.284189 1.838645 0.104607
v 0.000000 1.881281 0.104607
v -0.549014 1.713641 0.104607
v -0.776426 1.514789 0.104607
v -0.950918 1.255639 0.104607
v -1.060615 0.953854 0.104607
v -1.099766 0.636522 0.106443
v 1.060615 0.953854 0.104607
v 1.099648 0.636523 0.106443
v 0.950918 1.255640 0.104607
v 0.776426 1.514789 0.104607
v 0.549014 1.713641 0.104607
v 0.284189 1.838645 0.104607
v -0.775332 0.632239 0.776742
v -0.534395 0.631888 0.959846
v -0.267197 0.631888 0.959846
v 0.267197 0.631888 0.959846
v 0.534395 0.631888 0.959846
v 0.775332 0.632239 0.776742
v 0.000000 0.631888 0.959846
v 0.950332 0.632350 0.549485
v 1.060449 0.633566 0.284521
v 1.099648 0.636523 0.106443
v 0.000000 0.638053 0.105562
v -1.099766 0.636522 0.106443
v -1.060449 0.633566 0.284521
v -0.950332 0.632350 0.549485
v -0.284189 1.838645 0.104607
v -0.549014 1.713641 0.104607
v -0.776426 1.514789 0.104607
v -0.776426 1.514789 0.104607
v -0.950918 1.255639 0.104607
v -1.060615 0.953854 0.104607
v -0.284189 1.838645 0.104607
v -0.776426 1.514789 0.104607
v -1.060615 0.953854 0.104607
v -1.060615 0.953854 0.104607
v -1.099766 0.636522 0.106443
v 0.000000 0.638053 0.105562
v 0.000000 0.638053 0.105562
v 1.099648 0.636523 0.106443
v 1.060615 0.953854 0.104607
v 1.060615 0.953854 0.104607
v 0.950918 1.255640 0.104607
v 0.776426 1.514789 0.104607
v 0.000000 0.638053 0.105562
v 1.060615 0.953854 0.104607
v 0.776426 1.514789 0.104607
v -1.060615 0.953854 0.104607
v 0.000000 0.638053 0.105562
v 0.776426 1.514789 0.104607
v -0.284189 1.838645 0.104607
v -1.060615 0.953854 0.104607
v 0.776426 1.514789 0.104607
v 0.776426 1.514789 0.104607
v 0.549014 1.713641 0.104607
v 0.284189 1.838645 0.104607
v -0.284189 1.838645 0.104607
v 0.776426 1.514789 0.104607
v 0.284189 1.838645 0.104607
v -0.284189 1.838645 0.104607
v 0.284189 1.838645 0.104607
v 0.000000 1.881281 0.104607
v 0.000000 0.629998 1.063940
v 0.000000 0.631888 0.959846
v -0.267197 0.631888 0.959846
v -0.307129 0.629998 1.063940
v 0.307129 0.629998 1.063940
v 0.614268 0.629998 1.063940
v 0.534395 0.631888 0.959846
v 0.267197 0.631888 0.959846
v -0.534395 0.631888 0.959846
v -0.614268 0.629998 1.063940
v 0.515938 0.787537 0.959513
v 0.534395 0.631888 0.959846
v 0.614268 0.629998 1.063940
v 0.593340 0.811171 1.063940
v 0.462578 0.934341 0.959513
v 0.531973 0.979998 1.063940
v 0.377695 1.060404 0.959513
v 0.434355 1.124973 1.063940
v 0.267070 1.157135 0.959513
v 0.307129 1.236216 1.063940
v 0.138242 1.217943 0.959513
v 0.158984 1.306146 1.063940
v 0.000000 1.238683 0.959513
v 0.000000 1.329998 1.063940
v -0.138242 1.217943 0.959513
v -0.158984 1.306146 1.063940
v -0.267070 1.157135 0.959513
v -0.307129 1.236215 1.063940
v -0.377695 1.060403 0.959513
v -0.434355 1.124972 1.063940
v -0.462578 0.934341 0.959513
v -0.531973 0.979998 1.063940
v -0.515938 0.787537 0.959513
v -0.593340 0.811171 1.063940
v -0.534395 0.631888 0.959846
v -0.614268 0.629998 1.063940
v 0.000000 1.329998 1.063940
v 0.000000 1.619947 0.868704
v -0.224834 1.586216 0.868704
v -0.158984 1.306146 1.063940
v -0.434355 1.487319 0.868704
v -0.307129 1.236215 1.063940
v -0.614268 1.329998 0.868704
v -0.434355 1.124972 1.063940
v -0.752324 1.124972 0.868704
v -0.531973 0.979998 1.063940
v -0.839102 0.886215 0.868704
v -0.593340 0.811171 1.063940
v -0.868701 0.629998 0.868704
v -0.614268 0.629998 1.063940
v 0.614268 0.629998 1.063940
v 0.868701 0.629998 0.868704
v 0.839102 0.886216 0.868704
v 0.593340 0.811171 1.063940
v 0.752324 1.124973 0.868704
v 0.531973 0.979998 1.063940
v 0.614268 1.329998 0.868704
v 0.434355 1.124973 1.063940
v 0.434355 1.487319 0.868704
v 0.307129 1.236216 1.063940
v 0.224834 1.586216 0.868704
v 0.158984 1.306146 1.063940
v 0.000000 1.619947 0.868704
v 0.000000 1.329998 1.063940
v 0.000000 1.842433 0.614268
v -0.275371 1.801120 0.614268
v -0.531973 1.679998 0.614268
v -0.752324 1.487319 0.614268
v -0.921396 1.236215 0.614268
v -1.027686 0.943799 0.614268
v -1.063945 0.629998 0.614268
v 1.063945 0.629998 0.614268
v 1.027686 0.943799 0.614268
v 0.921396 1.236216 0.614268
v 0.752324 1.487319 0.614268
v 0.531973 1.679998 0.614268
v 0.275371 1.801121 0.614268
v 0.000000 1.842433 0.614268
v 0.000000 1.982294 0.317969
v -0.307129 1.936216 0.317969
v -0.593340 1.801120 0.317969
v -0.839102 1.586215 0.317969
v -1.027686 1.306146 0.317969
v -1.146240 0.979998 0.317969
v -1.186670 0.629998 0.317969
v 1.186670 0.629998 0.317969
v 1.146240 0.979998 0.317969
v 1.027686 1.306146 0.317969
v 0.839102 1.586216 0.317969
v 0.593340 1.801121 0.317969
v 0.307129 1.936216 0.317969
v 0.000000 1.982294 0.317969
v 0.000000 2.029998 -0.000000
v -0.317969 1.982294 -0.000000
v -0.614268 1.842433 -0.000000
v -0.868701 1.619947 -0.000000
v -1.063945 1.329998 -0.000000
v -1.186670 0.992344 -0.000000
v -1.229443 0.634025 -0.000000
v 1.219941 0.634025 -0.000000
v 1.186670 0.992345 -0.000000
v 1.063945 1.329998 -0.000000
v 0.868701 1.619948 -0.000000
v 0.614268 1.842433 -0.000000
v 0.317969 1.982294 -0.000000
v 0.000000 2.029998 -0.000000
v -0.377695 1.060403 0.959513
v 0.377695 1.060404 0.959513
v 0.534395 0.631888 0.959846
vt 1.426797 0.686303
vt 1.519374 0.694254
vt 1.516446 0.612028
vt 1.462029 0.606946
vt 1.345076 0.661103
vt 1.412163 0.591326
vt 1.281497 0.621704
vt 1.370793 0.566566
vt 1.237669 0.572122
vt 1.340310 0.534783
vt 1.212387 0.516539
vt 1.321802 0.498496
vt 1.204121 0.459535
vt 1.315571 0.460816
vt 1.812951 0.515913
vt 1.820590 0.461067
vt 1.711963 0.461791
vt 1.706046 0.498532
vt 1.789515 0.569577
vt 1.688401 0.533999
vt 1.748691 0.618038
vt 1.659189 0.565312
vt 1.688862 0.657516
vt 1.619207 0.590083
vt 1.610534 0.684076
vt 1.570442 0.606179
vt 1.380847 0.760321
vt 1.524866 0.771576
vt 1.263245 0.724204
vt 1.181764 0.669794
vt 1.131022 0.603606
vt 1.103671 0.531129
vt 1.094990 0.457851
vt 1.917863 0.529571
vt 1.925684 0.459937
vt 1.893209 0.598687
vt 1.847467 0.662735
vt 1.773580 0.717058
vt 1.664617 0.755683
vt 1.304535 0.832085
vt 1.537114 0.848635
vt 1.147272 0.781041
vt 1.059497 0.710373
vt 1.012145 0.628873
vt 0.988553 0.542103
vt 0.981275 0.456007
vt 2.027463 0.539519
vt 2.033868 0.458650
vt 2.006788 0.621238
vt 1.965701 0.699119
vt 1.890378 0.768813
vt 1.754390 0.823236
vt 1.214602 0.875522
vt 1.555695 0.898629
vt 1.042251 0.811279
vt 0.965508 0.730285
vt 0.928252 0.640659
vt 0.910550 0.546894
vt 0.905769 0.455504
vt 2.100801 0.543733
vt 2.104892 0.458417
vt 2.085531 0.631418
vt 2.053977 0.716350
vt 1.990970 0.795207
vt 1.853867 0.862243
vt 0.112365 0.377981
vt 0.232835 0.286429
vt 0.366433 0.286429
vt 0.633629 0.286429
vt 0.767228 0.286429
vt 0.887699 0.377981
vt 0.500031 0.286429
vt 0.975200 0.491609
vt 1.030258 0.624091
vt 1.049853 0.713130
vt 0.500032 0.713571
vt -0.049853 0.713130
vt -0.030195 0.624092
vt 0.024863 0.491609
vt 1.214602 0.875522
vt 1.042251 0.811279
vt 0.965508 0.730285
vt 0.965508 0.730285
vt 0.928252 0.640659
vt 0.910550 0.546894
vt 1.214602 0.875522
vt 0.965508 0.730285
vt 0.910550 0.546894
vt 0.910550 0.546894
vt 0.905769 0.455504
vt 1.555547 0.369959
vt 1.555547 0.369959
vt 2.104892 0.458417
vt 2.100801 0.543733
vt 2.100801 0.543733
vt 2.085531 0.631418
vt 2.053977 0.716350
vt 1.555547 0.369959
vt 2.100801 0.543733
vt 2.053977 0.716350
vt 0.910550 0.546894
vt 1.555547 0.369959
vt 2.053977 0.716350
vt 1.214602 0.875522
vt 0.910550 0.546894
vt 2.053977 0.716350
vt 2.053977 0.716350
vt 1.990970 0.795207
vt 1.853867 0.862243
vt 1.214602 0.875522
vt 2.053977 0.716350
vt 1.853867 0.862243
vt 1.214602 0.875522
vt 1.853867 0.862243
vt 1.555695 0.898629
vt 0.310000 0.740031
vt 0.310000 0.802468
vt 0.201363 0.802468
vt 0.185125 0.740031
vt 0.434875 0.740031
vt 0.559750 0.740031
vt 0.527275 0.802468
vt 0.418637 0.802468
vt 0.092725 0.802468
vt 0.060250 0.740031
vt 1.312420 0.802468
vt 1.394655 0.802269
vt 1.392637 0.740031
vt 1.309438 0.740031
vt 1.229946 0.802468
vt 1.227304 0.740031
vt 1.150750 0.802468
vt 1.148672 0.740031
vt 1.075765 0.802468
vt 1.074359 0.740031
vt 1.004379 0.802468
vt 1.003675 0.740031
vt 0.935000 0.802468
vt 0.935000 0.740031
vt 0.865621 0.802468
vt 0.866325 0.740031
vt 0.794235 0.802468
vt 0.795640 0.740031
vt 0.719250 0.802468
vt 0.721328 0.740031
vt 0.640054 0.802468
vt 0.642696 0.740031
vt 0.557579 0.802468
vt 0.560562 0.740031
vt 0.475345 0.802269
vt 0.477363 0.740031
vt 0.009998 2.988087
vt 0.009998 2.847501
vt 0.176665 2.847501
vt 0.176665 2.988087
vt 0.343331 2.847501
vt 0.343331 2.988087
vt 0.509998 2.847501
vt 0.509998 2.988087
vt 0.676665 2.847501
vt 0.676665 2.988087
vt 0.843331 2.847501
vt 0.843331 2.988087
vt 1.009998 2.847501
vt 1.009998 2.988087
vt 3.009998 2.988089
vt 3.009998 2.847503
vt 3.176665 2.847503
vt 3.176665 2.988089
vt 3.343331 2.847503
vt 3.343331 2.988089
vt 3.509998 2.847504
vt 3.509997 2.988090
vt 3.676664 2.847503
vt 3.676665 2.988089
vt 3.843331 2.847504
vt 3.843331 2.988090
vt 4.009998 2.847504
vt 4.009998 2.988090
vt 0.009998 2.706916
vt 0.176665 2.706917
vt 0.343332 2.706917
vt 0.509998 2.706917
vt 0.676665 2.706917
vt 0.843331 2.706917
vt 1.009998 2.706917
vt 3.009998 2.706918
vt 3.176665 2.706918
vt 3.343331 2.706918
vt 3.509998 2.706918
vt 3.676664 2.706919
vt 3.843331 2.706919
vt 4.009998 2.706919
vt 0.009998 2.566330
vt 0.176665 2.566330
vt 0.343332 2.566330
vt 0.509998 2.566330
vt 0.676665 2.566331
vt 0.843332 2.566331
vt 1.009998 2.566331
vt 3.009998 2.566332
vt 3.176665 2.566332
vt 3.343331 2.566333
vt 3.509998 2.566333
vt 3.676665 2.566332
vt 3.843331 2.566333
vt 4.009998 2.566332
vt 0.009999 2.425746
vt 0.176665 2.425746
vt 0.343332 2.425746
vt 0.509998 2.425746
vt 0.676665 2.425746
vt 0.843332 2.425746
vt 1.009998 2.425746
vt 3.009998 2.425748
vt 3.176665 2.425748
vt 3.343331 2.425748
vt 3.509998 2.425748
vt 3.676665 2.425748
vt 3.843331 2.425748
vt 4.009998 2.425748
vt 0.719250 0.802468
vt 1.150750 0.802468
vt 0.767228 0.286429
vn 0.195235 -0.640595 -0.742645
vn -0.000000 -0.666330 -0.745657
vn 0.000000 -0.555213 -0.831708
vn 0.165509 -0.534068 -0.829083
vn 0.372433 -0.567156 -0.734593
vn 0.316180 -0.473500 -0.822088
vn 0.518039 -0.455487 -0.723994
vn 0.440533 -0.380885 -0.812931
vn 0.624466 -0.317017 -0.713823
vn 0.531782 -0.265445 -0.804206
vn 0.688223 -0.163915 -0.706740
vn 0.586598 -0.137707 -0.798085
vn 0.541348 0.647813 -0.535986
vn 0.205826 0.942970 -0.261618
vn -0.688285 -0.163896 -0.706684
vn -0.541534 0.647653 -0.535992
vn -0.205777 0.942974 -0.261639
vn -0.586516 -0.137769 -0.798135
vn -0.624466 -0.317017 -0.713823
vn -0.531782 -0.265445 -0.804206
vn -0.518039 -0.455487 -0.723994
vn -0.440533 -0.380885 -0.812931
vn -0.372433 -0.567156 -0.734593
vn -0.316180 -0.473500 -0.822088
vn -0.195235 -0.640595 -0.742645
vn -0.165509 -0.534068 -0.829083
vn 0.244851 -0.805927 -0.539008
vn 0.000000 -0.840086 -0.542453
vn 0.464524 -0.709532 -0.529888
vn 0.641550 -0.565693 -0.518078
vn 0.768179 -0.391026 -0.506951
vn 0.842729 -0.201143 -0.499348
vn 0.663140 0.645892 -0.378244
vn -0.842785 -0.201021 -0.499304
vn -0.663244 0.645797 -0.378224
vn -0.768179 -0.391026 -0.506951
vn -0.641550 -0.565693 -0.518078
vn -0.464524 -0.709532 -0.529888
vn -0.244851 -0.805927 -0.539008
vn 0.274258 -0.903780 -0.328579
vn 0.000000 -0.943522 -0.331310
vn 0.518298 -0.792502 -0.321416
vn 0.712267 -0.628615 -0.312279
vn 0.848926 -0.432459 -0.303815
vn 0.928068 -0.222487 -0.298646
vn 0.728219 0.648761 -0.220922
vn -0.928413 -0.221739 -0.298129
vn -0.729023 0.648125 -0.220134
vn -0.848926 -0.432460 -0.303815
vn -0.712267 -0.628615 -0.312279
vn -0.518298 -0.792502 -0.321416
vn -0.274258 -0.903780 -0.328579
vn 0.281262 -0.930252 -0.235634
vn 0.000000 -0.971312 -0.237808
vn 0.531361 -0.815338 -0.229956
vn 0.729850 -0.646293 -0.222765
vn 0.869405 -0.444311 -0.216153
vn 0.949920 -0.229864 -0.211697
vn 0.781748 0.602554 -0.160620
vn -0.950023 -0.228470 -0.212737
vn -0.782124 0.601658 -0.162142
vn -0.869405 -0.444312 -0.216154
vn -0.729850 -0.646294 -0.222765
vn -0.531361 -0.815338 -0.229956
vn -0.281261 -0.930252 -0.235635
vn 0.541348 0.647813 -0.535986
vn 0.205826 0.942970 -0.261618
vn -0.000021 0.999947 0.010312
vn -0.000000 0.999950 0.010036
vn -0.205777 0.942974 -0.261639
vn -0.541534 0.647653 -0.535992
vn 0.000036 0.999948 0.010241
vn -0.663244 0.645797 -0.378224
vn -0.729023 0.648125 -0.220134
vn -0.782124 0.601658 -0.162142
vn -0.000000 0.999707 0.024199
vn 0.781748 0.602554 -0.160620
vn 0.728219 0.648761 -0.220922
vn 0.663140 0.645892 -0.378244
vn -0.000000 0.000000 1.000000
vn -0.000000 0.000000 1.000000
vn -0.000000 0.000000 1.000000
vn 0.000000 -0.000000 1.000000
vn 0.000000 -0.000000 1.000000
vn 0.000000 -0.000000 1.000000
vn -0.000000 0.000000 1.000000
vn -0.000000 0.000000 1.000000
vn -0.000000 0.000000 1.000000
vn 0.000794 0.005692 0.999983
vn 0.000794 0.005692 0.999983
vn 0.000794 0.005692 0.999983
vn -0.000794 0.005692 0.999983
vn -0.000794 0.005692 0.999983
vn -0.000794 0.005692 0.999983
vn 0.000000 -0.000000 1.000000
vn 0.000000 -0.000000 1.000000
vn 0.000000 -0.000000 1.000000
vn 0.000783 0.000397 1.000000
vn 0.000783 0.000397 1.000000
vn 0.000783 0.000397 1.000000
vn -0.000456 0.001494 0.999999
vn -0.000456 0.001494 0.999999
vn -0.000456 0.001494 0.999999
vn 0.000000 -0.000000 1.000000
vn 0.000000 -0.000000 1.000000
vn 0.000000 -0.000000 1.000000
vn -0.000000 -0.000000 1.000000
vn -0.000000 -0.000000 1.000000
vn -0.000000 -0.000000 1.000000
vn 0.000000 0.000000 1.000000
vn 0.000000 0.000000 1.000000
vn 0.000000 0.000000 1.000000
vn 0.000000 -0.000000 1.000000
vn 0.000000 -0.000000 1.000000
vn 0.000000 -0.000000 1.000000
vn 0.002477 0.999915 0.012794
vn 0.000036 0.999948 0.010241
vn -0.000021 0.999947 0.010312
vn 0.005078 0.999973 -0.005272
vn 0.009084 0.999753 0.020281
vn 0.170117 0.939750 0.296531
vn -0.205777 0.942974 -0.261639
vn -0.000000 0.999950 0.010036
vn 0.205826 0.942970 -0.261618
vn -0.210203 0.945781 0.247616
vn -0.770620 -0.179675 0.611442
vn -0.790765 -0.092468 0.605096
vn -0.790442 -0.091934 0.605598
vn -0.769332 -0.183851 0.611823
vn -0.701413 -0.351767 0.619903
vn -0.697257 -0.359138 0.620364
vn -0.585191 -0.508305 0.631805
vn -0.577887 -0.515784 0.632466
vn -0.423234 -0.636727 0.644555
vn -0.414866 -0.641673 0.645090
vn -0.222882 -0.722475 0.654487
vn -0.217166 -0.724043 0.654676
vn 0.000000 -0.752792 0.658258
vn 0.000000 -0.752792 0.658258
vn 0.222883 -0.722475 0.654487
vn 0.217167 -0.724043 0.654676
vn 0.423235 -0.636727 0.644555
vn 0.414866 -0.641673 0.645091
vn 0.585191 -0.508305 0.631805
vn 0.577887 -0.515784 0.632466
vn 0.701413 -0.351766 0.619903
vn 0.697257 -0.359138 0.620364
vn 0.770345 -0.179984 0.611698
vn 0.769432 -0.184160 0.611604
vn 0.790444 -0.091756 0.605624
vn 0.790836 -0.091364 0.605170
vn -0.000000 0.558531 0.829484
vn 0.000000 0.668015 0.744148
vn -0.195720 0.642208 0.741122
vn -0.166483 0.537241 0.826834
vn -0.373349 0.568568 0.733035
vn -0.318012 0.476272 0.819777
vn -0.519292 0.456603 0.722391
vn -0.443034 0.383071 0.810542
vn -0.625953 0.317781 0.712179
vn -0.534743 0.266940 0.801744
vn -0.690346 0.162660 0.704957
vn -0.590239 0.136740 0.795563
vn -0.445589 0.764894 0.465175
vn -0.210203 0.945781 0.247616
vn 0.170117 0.939750 0.296531
vn 0.394404 0.830797 0.392711
vn 0.690346 0.162660 0.704957
vn 0.590238 0.136740 0.795563
vn 0.625953 0.317781 0.712179
vn 0.534743 0.266940 0.801744
vn 0.519292 0.456603 0.722391
vn 0.443033 0.383072 0.810542
vn 0.373348 0.568569 0.733035
vn 0.318012 0.476272 0.819777
vn 0.195720 0.642209 0.741122
vn 0.166483 0.537241 0.826834
vn 0.000000 0.668015 0.744148
vn -0.000000 0.558531 0.829484
vn -0.000000 0.840435 0.541912
vn -0.244951 0.806258 0.538467
vn -0.464708 0.709815 0.529348
vn -0.641794 0.565910 0.517539
vn -0.768460 0.391170 0.506415
vn -0.843575 0.199274 0.498669
vn -0.535289 0.787279 0.306034
vn 0.540479 0.789044 0.292047
vn 0.843576 0.199274 0.498669
vn 0.768460 0.391170 0.506415
vn 0.641793 0.565910 0.517539
vn 0.464707 0.709815 0.529348
vn 0.244951 0.806258 0.538467
vn -0.000000 0.840435 0.541912
vn 0.000000 0.957944 0.286954
vn -0.278109 0.917416 0.284612
vn -0.525324 0.804050 0.278457
vn -0.721488 0.637368 0.270585
vn -0.859444 0.438226 0.263274
vn -0.939877 0.222917 0.258726
vn -0.606840 0.778923 0.158193
vn 0.602038 0.789432 0.119779
vn 0.940124 0.222433 0.258244
vn 0.859445 0.438226 0.263274
vn 0.721488 0.637369 0.270585
vn 0.525324 0.804050 0.278457
vn 0.278108 0.917416 0.284612
vn 0.000000 0.957944 0.286954
vn -0.000000 0.988932 0.148367
vn -0.286742 0.946669 0.146957
vn -0.541030 0.828707 0.143286
vn -0.741991 0.655914 0.138657
vn -0.882681 0.450339 0.134420
vn -0.964221 0.230154 0.131553
vn -0.624037 0.777898 0.073835
vn 0.638529 0.767224 0.060406
vn 0.966558 0.223484 0.125781
vn 0.882681 0.450340 0.134420
vn 0.741991 0.655915 0.138657
vn 0.541030 0.828707 0.143286
vn 0.286742 0.946669 0.146958
vn -0.000000 0.988932 0.148367
vn 0.585191 -0.508305 0.631805
vn -0.585191 -0.508305 0.631805
vn -0.205777 0.942974 -0.261639
f 3/3/3 2/2/2 1/1/1
f 1/1/1 4/4/4 3/3/3
f 4/4/4 1/1/1 5/5/5
f 5/5/5 6/6/6 4/4/4
f 6/6/6 5/5/5 7/7/7
f 7/7/7 8/8/8 6/6/6
f 8/8/8 7/7/7 9/9/9
f 9/9/9 10/10/10 8/8/8
f 10/10/10 9/9/9 11/11/11
f 11/11/11 12/12/12 10/10/10
f 12/12/12 11/11/11 13/13/13
f 13/13/13 14/14/14 12/12/12
f 17/17/17 16/16/16 15/15/15
f 15/15/15 18/18/18 17/17/17
f 18/18/18 15/15/15 19/19/19
f 19/19/19 20/20/20 18/18/18
f 20/20/20 19/19/19 21/21/21
f 21/21/21 22/22/22 20/20/20
f 22/22/22 21/21/21 23/23/23
f 23/23/23 24/24/24 22/22/22
f 24/24/24 23/23/23 25/25/25
f 25/25/25 26/26/26 24/24/24
f 26/26/26 25/25/25 2/2/2
f 2/2/2 3/3/3 26/26/26
f 2/2/2 28/28/28 27/27/27
f 27/27/27 1/1/1 2/2/2
f 1/1/1 27/27/27 29/29/29
f 29/29/29 5/5/5 1/1/1
f 5/5/5 29/29/29 30/30/30
f 30/30/30 7/7/7 5/5/5
f 7/7/7 30/30/30 31/31/31
f 31/31/31 9/9/9 7/7/7
f 9/9/9 31/31/31 32/32/32
f 32/32/32 11/11/11 9/9/9
f 11/11/11 32/32/32 33/33/33
f 33/33/33 13/13/13 11/11/11
f 16/16/16 35/35/35 34/34/34
f 34/34/34 15/15/15 16/16/16
f 15/15/15 34/34/34 36/36/36
f 36/36/36 19/19/19 15/15/15
f 19/19/19 36/36/36 37/37/37
f 37/37/37 21/21/21 19/19/19
f 21/21/21 37/37/37 38/38/38
f 38/38/38 23/23/23 21/21/21
f 23/23/23 38/38/38 39/39/39
f 39/39/39 25/25/25 23/23/23
f 25/25/25 39/39/39 28/28/28
f 28/28/28 2/2/2 25/25/25
f 28/28/28 41/41/41 40/40/40
f 40/40/40 27/27/27 28/28/28
f 27/27/27 40/40/40 42/42/42
f 42/42/42 29/29/29 27/27/27
f 29/29/29 42/42/42 43/43/43
f 43/43/43 30/30/30 29/29/29
f 30/30/30 43/43/43 44/44/44
f 44/44/44 31/31/31 30/30/30
f 31/31/31 44/44/44 45/45/45
f 45/45/45 32/32/32 31/31/31
f 32/32/32 45/45/45 46/46/46
f 46/46/46 33/33/33 32/32/32
f 35/35/35 48/48/48 47/47/47
f 47/47/47 34/34/34 35/35/35
f 34/34/34 47/47/47 49/49/49
f 49/49/49 36/36/36 34/34/34
f 36/36/36 49/49/49 50/50/50
f 50/50/50 37/37/37 36/36/36
f 37/37/37 50/50/50 51/51/51
f 51/51/51 38/38/38 37/37/37
f 38/38/38 51/51/51 52/52/52
f 52/52/52 39/39/39 38/38/38
f 39/39/39 52/52/52 41/41/41
f 41/41/41 28/28/28 39/39/39
f 41/41/41 54/54/54 53/53/53
f 53/53/53 40/40/40 41/41/41
f 40/40/40 53/53/53 55/55/55
f 55/55/55 42/42/42 40/40/40
f 42/42/42 55/55/55 56/56/56
f 56/56/56 43/43/43 42/42/42
f 43/43/43 56/56/56 57/57/57
f 57/57/57 44/44/44 43/43/43
f 44/44/44 57/57/57 58/58/58
f 58/58/58 45/45/45 44/44/44
f 45/45/45 58/58/58 59/59/59
f 59/59/59 46/46/46 45/45/45
f 48/48/48 61/61/61 60/60/60
f 60/60/60 47/47/47 48/48/48
f 47/47/47 60/60/60 62/62/62
f 62/62/62 49/49/49 47/47/47
f 49/49/49 62/62/62 63/63/63
f 63/63/63 50/50/50 49/49/49
f 50/50/50 63/63/63 64/64/64
f 64/64/64 51/51/51 50/50/50
f 51/51/51 64/64/64 65/65/65
f 65/65/65 52/52/52 51/51/51
f 52/52/52 65/65/65 54/54/54
f 54/54/54 41/41/41 52/52/52
f 68/68/68 67/67/67 66/66/66
f 71/71/71 224/224/224 69/69/69
f 71/71/71 69/69/69 72/72/72
f 74/74/74 73/73/73 71/71/71
f 76/76/76 75/75/75 74/74/74
f 78/78/78 77/77/77 76/76/76
f 78/78/78 76/76/76 74/74/74
f 78/78/78 74/74/74 71/71/71
f 78/78/78 71/71/71 72/72/72
f 78/78/78 72/72/72 68/68/68
f 78/78/78 68/68/68 66/66/66
f 79/79/79 78/78/78 66/66/66
f 82/82/82 81/81/81 80/80/80
f 85/85/85 84/84/84 83/83/83
f 88/88/88 87/87/87 86/86/86
f 91/91/91 90/90/90 89/89/89
f 94/94/94 93/93/93 92/92/92
f 97/97/97 96/96/96 95/95/95
f 100/100/100 99/99/99 98/98/98
f 103/103/103 102/102/102 101/101/101
f 106/106/106 105/105/105 104/104/104
f 109/109/109 108/108/108 107/107/107
f 112/112/112 111/111/111 110/110/110
f 115/115/115 114/114/114 113/113/113
f 118/118/118 117/117/117 116/116/116
f 116/116/116 119/119/119 118/118/118
f 122/122/122 121/121/121 120/120/120
f 120/120/120 123/123/123 122/122/122
f 123/123/123 120/120/120 116/116/116
f 116/116/116 117/117/117 123/123/123
f 119/119/119 125/125/125 124/124/124
f 124/124/124 118/118/118 119/119/119
f 128/128/128 127/127/127 126/126/126
f 126/126/126 129/129/129 128/128/128
f 129/129/129 126/126/126 130/130/130
f 130/130/130 131/131/131 129/129/129
f 131/131/131 130/130/130 223/223/223
f 223/223/223 133/133/133 131/131/131
f 133/133/133 223/223/223 134/134/134
f 134/134/134 135/135/135 133/133/133
f 135/135/135 134/134/134 136/136/136
f 136/136/136 137/137/137 135/135/135
f 137/137/137 136/136/136 138/138/138
f 138/138/138 139/139/139 137/137/137
f 139/139/139 138/138/138 140/140/140
f 140/140/140 141/141/141 139/139/139
f 141/141/141 140/140/140 142/142/142
f 142/142/142 143/143/143 141/141/141
f 143/143/143 142/142/142 222/222/222
f 222/222/222 145/145/145 143/143/143
f 145/145/145 222/222/222 146/146/146
f 146/146/146 147/147/147 145/145/145
f 147/147/147 146/146/146 148/148/148
f 148/148/148 149/149/149 147/147/147
f 149/149/149 148/148/148 150/150/150
f 150/150/150 151/151/151 149/149/149
f 154/154/154 153/153/153 152/152/152
f 152/152/152 155/155/155 154/154/154
f 156/156/156 154/154/154 155/155/155
f 155/155/155 157/157/157 156/156/156
f 158/158/158 156/156/156 157/157/157
f 157/157/157 159/159/159 158/158/158
f 160/160/160 158/158/158 159/159/159
f 159/159/159 161/161/161 160/160/160
f 162/162/162 160/160/160 161/161/161
f 161/161/161 163/163/163 162/162/162
f 164/164/164 162/162/162 163/163/163
f 163/163/163 165/165/165 164/164/164
f 168/168/168 167/167/167 166/166/166
f 166/166/166 169/169/169 168/168/168
f 170/170/170 168/168/168 169/169/169
f 169/169/169 171/171/171 170/170/170
f 172/172/172 170/170/170 171/171/171
f 171/171/171 173/173/173 172/172/172
f 174/174/174 172/172/172 173/173/173
f 173/173/173 175/175/175 174/174/174
f 176/176/176 174/174/174 175/175/175
f 175/175/175 177/177/177 176/176/176
f 178/178/178 176/176/176 177/177/177
f 177/177/177 179/179/179 178/178/178
f 181/181/181 180/180/180 153/153/153
f 153/153/153 154/154/154 181/181/181
f 182/182/182 181/181/181 154/154/154
f 154/154/154 156/156/156 182/182/182
f 183/183/183 182/182/182 156/156/156
f 156/156/156 158/158/158 183/183/183
f 184/184/184 183/183/183 158/158/158
f 158/158/158 160/160/160 184/184/184
f 185/185/185 184/184/184 160/160/160
f 160/160/160 162/162/162 185/185/185
f 186/186/186 185/185/185 162/162/162
f 162/162/162 164/164/164 186/186/186
f 188/188/188 187/187/187 167/167/167
f 167/167/167 168/168/168 188/188/188
f 189/189/189 188/188/188 168/168/168
f 168/168/168 170/170/170 189/189/189
f 190/190/190 189/189/189 170/170/170
f 170/170/170 172/172/172 190/190/190
f 191/191/191 190/190/190 172/172/172
f 172/172/172 174/174/174 191/191/191
f 192/192/192 191/191/191 174/174/174
f 174/174/174 176/176/176 192/192/192
f 193/193/193 192/192/192 176/176/176
f 176/176/176 178/178/178 193/193/193
f 195/195/195 194/194/194 180/180/180
f 180/180/180 181/181/181 195/195/195
f 196/196/196 195/195/195 181/181/181
f 181/181/181 182/182/182 196/196/196
f 197/197/197 196/196/196 182/182/182
f 182/182/182 183/183/183 197/197/197
f 198/198/198 197/197/197 183/183/183
f 183/183/183 184/184/184 198/198/198
f 199/199/199 198/198/198 184/184/184
f 184/184/184 185/185/185 199/199/199
f 200/200/200 199/199/199 185/185/185
f 185/185/185 186/186/186 200/200/200
f 202/202/202 201/201/201 187/187/187
f 187/187/187 188/188/188 202/202/202
f 203/203/203 202/202/202 188/188/188
f 188/188/188 189/189/189 203/203/203
f 204/204/204 203/203/203 189/189/189
f 189/189/189 190/190/190 204/204/204
f 205/205/205 204/204/204 190/190/190
f 190/190/190 191/191/191 205/205/205
f 206/206/206 205/205/205 191/191/191
f 191/191/191 192/192/192 206/206/206
f 207/207/207 206/206/206 192/192/192
f 192/192/192 193/193/193 207/207/207
f 209/209/209 208/208/208 194/194/194
f 194/194/194 195/195/195 209/209/209
f 210/210/210 209/209/209 195/195/195
f 195/195/195 196/196/196 210/210/210
f 211/211/211 210/210/210 196/196/196
f 196/196/196 197/197/197 211/211/211
f 212/212/212 211/211/211 197/197/197
f 197/197/197 198/198/198 212/212/212
f 213/213/213 212/212/212 198/198/198
f 198/198/198 199/199/199 213/213/213
f 214/214/214 213/213/213 199/199/199
f 199/199/199 200/200/200 214/214/214
f 216/216/216 215/215/215 201/201/201
f 201/201/201 202/202/202 216/216/216
f 217/217/217 216/216/216 202/202/202
f 202/202/202 203/203/203 217/217/217
f 218/218/218 217/217/217 203/203/203
f 203/203/203 204/204/204 218/218/218
f 219/219/219 218/218/218 204/204/204
f 204/204/204 205/205/205 219/219/219
f 220/220/220 219/219/219 205/205/205
f 205/205/205 206/206/206 220/220/220
f 221/221/221 220/220/220 206/206/206
f 206/206/206 207/207/207 221/221/221
o G3_Object_Fireplace_02_1
usemtl G3_Architecture_Wall_Stone_10_A
v 1.219941 0.634025 -0.000000
v 1.570264 0.655977 0.223552
v 1.479404 0.631099 0.001050
v -1.186670 0.629998 0.317969
v -1.584756 0.644779 0.218062
v -1.432695 0.620986 0.391086
v 0.753486 0.609048 1.306134
v 0.384619 0.614851 1.395317
v 0.872822 0.603843 1.513729
v -1.065596 0.609141 1.066648
v -1.305088 0.619493 0.754541
v -1.511777 0.603843 0.874777
v -1.234365 0.603843 1.236313
v -0.384619 0.634417 1.395317
v -0.307129 0.629998 1.063940
v -0.569053 0.649281 1.350726
v 0.000000 0.614836 1.425736
v 0.000000 0.629998 1.063940
v -0.192305 0.637666 1.410526
v 0.614268 0.629998 1.063940
v -0.985156 0.575000 1.477394
v -0.892715 0.575000 1.548329
v -0.872822 0.603843 1.513729
v -1.262490 0.575000 1.264591
v -0.451035 0.603843 1.679354
v -0.462100 0.575000 1.726694
v 0.000000 0.603843 1.735846
v 0.000000 0.575000 1.787531
v 0.231055 0.575000 1.757112
v 0.462100 0.575000 1.726694
v 0.451035 0.603843 1.679354
v 0.892715 0.575000 1.548328
v 1.701797 0.604131 0.001951
v 1.643584 0.603843 0.453757
v 1.678730 0.575000 0.464204
v 1.738857 0.575000 0.002100
v 1.511777 0.603843 0.874777
v 1.546230 0.575000 0.894816
v 1.234365 0.603843 1.236312
v 1.262490 0.575000 1.264590
v 1.420137 0.575000 1.059146
v 1.077607 0.575000 1.406459
v -1.643584 0.603843 0.453757
v -1.702471 0.604131 0.001951
v -1.738857 0.575000 0.002100
v -1.678730 0.575000 0.464204
v -1.546230 0.575000 0.894816
v -1.357070 0.575000 1.141335
v -0.684971 0.626189 1.508774
v -0.753486 0.610084 1.306135
v -0.181348 0.615303 1.616530
v -0.614268 0.629998 1.063940
v 0.307129 0.629998 1.063940
v 0.194043 0.632812 1.215826
v 0.128057 0.633486 1.607383
v 0.868701 0.629998 0.868704
v 0.852979 0.654748 1.053826
v 1.041562 0.638065 1.277363
v 1.065596 0.644065 1.066647
v 1.408633 0.631210 0.895471
v 1.305088 0.611939 0.754541
v 1.063945 0.629998 0.614268
v 1.117422 0.649636 0.723894
v 1.186670 0.629998 0.317969
v 1.271602 0.656792 0.482129
v 1.489482 0.639495 0.680278
v 1.432695 0.629085 0.391086
v -0.868701 0.629998 0.868704
v -1.063945 0.629998 0.614268
v -1.092461 0.652095 0.818158
v -0.968437 0.638388 1.312009
v -1.212871 0.647030 0.569143
v -1.470322 0.640619 0.711572
v -1.484150 0.631099 0.001050
v -1.229443 0.634025 -0.000000
vt -1.974225 0.258859
vt -1.893153 0.076174
vt -1.974225 0.134168
vt -0.166986 0.258859
vt -0.088462 0.070363
vt -0.165443 0.133709
vt -1.329329 0.133239
vt -1.166017 0.133387
vt -1.333146 0.026298
vt -0.494309 0.133329
vt -0.328173 0.133610
vt -0.325164 0.025130
vt -0.490822 0.026324
vt -0.823858 0.133417
vt -0.827562 0.258859
vt -0.742202 0.133308
vt -1.002614 0.133327
vt -1.002786 0.258859
vt -0.913236 0.133372
vt -1.322474 0.258859
vt -0.614863 0.003859
vt -0.656224 0.003859
vt -0.656505 0.026300
vt -0.490780 0.003859
vt -0.821744 0.025454
vt -0.821668 0.003859
vt -1.002322 0.025460
vt -1.002492 0.003859
vt -1.085214 0.003859
vt -1.167937 0.003859
vt -1.167899 0.025423
vt -1.333381 0.003859
vt -1.974225 0.026514
vt -1.809243 0.026183
vt -1.808813 0.003859
vt -1.974225 0.003859
vt -1.657223 0.026022
vt -1.657171 0.003859
vt -1.491602 0.025979
vt -1.491727 0.003859
vt -1.583647 0.003859
vt -1.409005 0.003859
vt -0.165009 0.026204
vt 0.000000 0.026659
vt 0.000000 0.003859
vt -0.165412 0.003859
vt -0.325335 0.003859
vt -0.435633 0.003859
vt -0.716886 0.059069
vt -0.660545 0.133200
vt -0.921631 0.061132
vt -0.667718 0.258859
vt -1.162630 0.258859
vt -1.102074 0.205696
vt -1.056838 0.066641
vt -1.482286 0.258859
vt -1.414094 0.196665
vt -1.424425 0.064321
vt -1.488343 0.133423
vt -1.630875 0.057392
vt -1.654517 0.133511
vt -1.649197 0.258859
vt -1.615684 0.209407
vt -1.807826 0.258859
vt -1.742269 0.189575
vt -1.711750 0.062675
vt -1.809026 0.133672
vt -0.500807 0.258859
vt -0.333897 0.258859
vt -0.399794 0.192318
vt -0.590959 0.072175
vt -0.282288 0.201490
vt -0.281546 0.066521
vt 0.000000 0.134262
vt 0.000000 0.258859
vn 0.638529 0.767224 0.060406
vn 0.169458 0.984874 0.036149
vn 0.052661 0.989827 -0.132176
vn -0.606840 0.778923 0.158193
vn -0.179054 0.983171 0.036263
vn -0.043036 0.998402 0.036637
vn -0.033214 0.996419 0.077760
vn 0.048159 0.998386 0.030086
vn 0.162207 0.933422 0.320020
vn -0.086614 0.996102 0.016687
vn -0.011230 0.992845 0.118882
vn -0.332677 0.920449 0.205183
vn -0.268206 0.933396 0.238407
vn 0.016231 0.998050 0.060270
vn 0.005078 0.999973 -0.005272
vn -0.051053 0.997996 0.037390
vn -0.009680 0.999464 0.031263
vn 0.002477 0.999915 0.012794
vn 0.036127 0.997864 0.054434
vn 0.170117 0.939750 0.296531
vn -0.408458 0.701786 0.583660
vn -0.365413 0.677563 0.638264
vn -0.183114 0.924228 0.335070
vn -0.430491 0.787385 0.441251
vn -0.078464 0.940665 0.330139
vn -0.181838 0.706432 0.684024
vn -0.015950 0.948764 0.315584
vn 0.000000 0.714582 0.699551
vn 0.065281 0.786438 0.614210
vn 0.139253 0.800843 0.582460
vn 0.091177 0.949767 0.299383
vn 0.390964 0.723812 0.568545
vn 0.445852 0.895107 -0.000879
vn 0.420279 0.901745 0.101101
vn 0.730335 0.664088 0.159990
vn 0.746029 0.658799 0.097079
vn 0.374179 0.909149 0.182864
vn 0.654821 0.675627 0.338730
vn 0.305116 0.906343 0.292313
vn 0.438104 0.810012 0.389803
vn 0.580220 0.709701 0.399586
vn 0.366786 0.748987 0.551802
vn -0.402109 0.910817 0.093383
vn -0.441613 0.897144 0.010493
vn -0.748609 0.655774 0.097696
vn -0.730349 0.664058 0.160056
vn -0.654821 0.675627 0.338730
vn -0.578600 0.705605 0.409076
vn -0.093023 0.986848 0.132203
vn -0.023855 0.998063 0.057455
vn 0.011748 0.995495 0.094084
vn -0.210203 0.945781 0.247616
vn 0.009084 0.999753 0.020281
vn 0.008665 0.999872 0.013446
vn -0.035123 0.994532 0.098346
vn 0.394404 0.830797 0.392711
vn -0.063543 0.997955 0.006920
vn 0.104969 0.981220 0.161829
vn 0.079025 0.995551 0.051320
vn 0.205045 0.978693 -0.010766
vn 0.088063 0.994215 -0.061493
vn 0.540479 0.789044 0.292047
vn 0.062517 0.987022 -0.147919
vn 0.602038 0.789432 0.119779
vn -0.016824 0.999439 -0.028943
vn 0.155462 0.982265 0.104817
vn 0.049226 0.998772 0.005656
vn -0.445589 0.764894 0.465175
vn -0.535289 0.787279 0.306034
vn -0.046969 0.998098 0.039938
vn -0.064363 0.991841 0.110040
vn 0.039383 0.998863 0.026874
vn -0.131720 0.985567 0.106338
vn -0.051943 0.994871 -0.086796
vn -0.624037 0.777898 0.073835
f 227/227/227 226/226/226 225/225/225
f 230/230/230 229/229/229 228/228/228
f 233/233/233 232/232/232 231/231/231
f 236/236/236 235/235/235 234/234/234
f 234/234/234 237/237/237 236/236/236
f 240/240/240 239/239/239 238/238/238
f 243/243/243 242/242/242 241/241/241
f 232/232/232 244/244/244 231/231/231
f 247/247/247 246/246/246 245/245/245
f 248/248/248 237/237/237 247/247/247
f 248/248/248 247/247/247 245/245/245
f 246/246/246 247/247/247 249/249/249
f 249/249/249 250/250/250 246/246/246
f 250/250/250 249/249/249 251/251/251
f 251/251/251 252/252/252 250/250/250
f 253/253/253 252/252/252 251/251/251
f 254/254/254 253/253/253 251/251/251
f 255/255/255 254/254/254 251/251/251
f 254/254/254 255/255/255 233/233/233
f 233/233/233 256/256/256 254/254/254
f 259/259/259 258/258/258 257/257/257
f 257/257/257 260/260/260 259/259/259
f 261/261/261 258/258/258 259/259/259
f 259/259/259 262/262/262 261/261/261
f 265/265/265 264/264/264 263/263/263
f 262/262/262 265/265/265 263/263/263
f 261/261/261 262/262/262 263/263/263
f 263/263/263 264/264/264 266/266/266
f 256/256/256 233/233/233 263/263/263
f 256/256/256 263/263/263 266/266/266
f 269/269/269 268/268/268 267/267/267
f 267/267/267 270/270/270 269/269/269
f 270/270/270 267/267/267 236/236/236
f 236/236/236 271/271/271 270/270/270
f 237/237/237 248/248/248 272/272/272
f 271/271/271 236/236/236 237/237/237
f 271/271/271 237/237/237 272/272/272
f 273/273/273 240/240/240 238/238/238
f 273/273/273 274/274/274 240/240/240
f 273/273/273 247/247/247 274/274/274
f 273/273/273 249/249/249 247/247/247
f 273/273/273 238/238/238 249/249/249
f 275/275/275 243/243/243 241/241/241
f 275/275/275 238/238/238 243/243/243
f 275/275/275 249/249/249 238/238/238
f 275/275/275 251/251/251 249/249/249
f 275/275/275 241/241/241 251/251/251
f 243/243/243 239/239/239 242/242/242
f 240/240/240 276/276/276 239/239/239
f 240/240/240 274/274/274 276/276/276
f 243/243/243 238/238/238 239/239/239
f 278/278/278 277/277/277 232/232/232
f 278/278/278 242/242/242 277/277/277
f 278/278/278 241/241/241 242/242/242
f 279/279/279 278/278/278 232/232/232
f 279/279/279 251/251/251 241/241/241
f 279/279/279 255/255/255 251/251/251
f 279/279/279 232/232/232 255/255/255
f 279/279/279 241/241/241 278/278/278
f 232/232/232 277/277/277 244/244/244
f 233/233/233 255/255/255 232/232/232
f 281/281/281 244/244/244 280/280/280
f 281/281/281 231/231/231 244/244/244
f 281/281/281 282/282/282 231/231/231
f 282/282/282 263/263/263 233/233/233
f 282/282/282 283/283/283 263/263/263
f 282/282/282 233/233/233 231/231/231
f 284/284/284 261/261/261 263/263/263
f 284/284/284 285/285/285 261/261/261
f 284/284/284 263/263/263 283/283/283
f 287/287/287 280/280/280 286/286/286
f 287/287/287 281/281/281 280/280/280
f 287/287/287 284/284/284 283/283/283
f 287/287/287 286/286/286 285/285/285
f 287/287/287 285/285/285 284/284/284
f 281/281/281 283/283/283 282/282/282
f 287/287/287 283/283/283 281/281/281
f 289/289/289 286/286/286 288/288/288
f 289/289/289 285/285/285 286/286/286
f 289/289/289 290/290/290 285/285/285
f 289/289/289 288/288/288 291/291/291
f 290/290/290 258/258/258 261/261/261
f 290/290/290 291/291/291 258/258/258
f 290/290/290 261/261/261 285/285/285
f 226/226/226 257/257/257 258/258/258
f 226/226/226 227/227/227 257/257/257
f 226/226/226 258/258/258 291/291/291
f 289/289/289 291/291/291 290/290/290
f 291/291/291 288/288/288 225/225/225
f 226/226/226 291/291/291 225/225/225
f 294/294/294 293/293/293 292/292/292
f 294/294/294 235/235/235 293/293/293
f 294/294/294 234/234/234 235/235/235
f 276/276/276 274/274/274 295/295/295
f 295/295/295 292/292/292 276/276/276
f 295/295/295 237/237/237 234/234/234
f 295/295/295 247/247/247 237/237/237
f 295/295/295 274/274/274 247/247/247
f 295/295/295 234/234/234 292/292/292
f 234/234/234 294/294/294 292/292/292
f 296/296/296 228/228/228 293/293/293
f 296/296/296 230/230/230 228/228/228
f 296/296/296 297/297/297 230/230/230
f 296/296/296 293/293/293 235/235/235
f 297/297/297 236/236/236 267/267/267
f 297/297/297 235/235/235 236/236/236
f 229/229/229 267/267/267 268/268/268
f 229/229/229 230/230/230 267/267/267
f 229/229/229 268/268/268 298/298/298
f 296/296/296 235/235/235 297/297/297
f 230/230/230 297/297/297 267/267/267
f 229/229/229 299/299/299 228/228/228
f 229/229/229 298/298/298 299/299/299
o G3_Object_Fireplace_02_2
usemtl G3_Architecture_WallHouse_01_D
v -1.678730 0.575000 0.464204
v -1.738857 0.575000 0.002100
v -1.795811 0.485000 -0.000000
v -1.733711 0.485000 0.477239
v -1.546230 0.575000 0.894816
v -1.596875 0.485000 0.921954
v -0.892715 0.575000 1.548329
v -0.985156 0.575000 1.477394
v -1.006807 0.485000 1.531763
v -0.921953 0.485000 1.596873
v -0.462100 0.575000 1.726694
v -0.477236 0.485000 1.781079
v 0.000000 0.575000 1.787531
v 0.000000 0.485000 1.843909
v 1.546230 0.575000 0.894816
v 1.420137 0.575000 1.059146
v 1.482930 0.485000 1.070452
v 1.596875 0.485000 0.921954
v 1.678730 0.575000 0.464204
v 1.733711 0.485000 0.477239
v 1.738857 0.575000 0.002100
v 1.795811 0.485000 -0.000000
v -0.535293 0.402431 1.757030
v -0.771055 0.229740 1.659377
v -0.729863 0.124874 1.676440
v -0.537764 0.249749 1.756008
v 0.000000 0.406403 1.843909
v 0.067529 0.404622 1.835020
v -0.143086 0.408494 1.825071
v -0.477275 0.416720 1.781064
v -0.477236 0.215537 1.781079
v -0.477275 0.282591 1.807601
v -0.273242 0.428041 1.807936
v -0.237939 0.204572 1.812583
v -0.212568 0.272539 1.863613
v -0.262676 0.279054 1.833879
v 0.000000 0.202069 1.843909
v -0.015400 0.270174 1.865527
v 0.000000 0.000000 1.843909
v 0.076641 0.226000 1.833818
v -0.015400 0.338288 1.865527
v 0.053369 0.316880 1.865875
v -0.475098 0.349655 1.800862
v -0.271094 0.353548 1.821394
v -0.180947 0.340517 1.867776
v 0.101289 0.364430 1.830574
v 0.114209 0.258807 1.828872
v 0.113730 0.311619 1.853602
v 0.477236 0.000000 1.781079
v 0.477236 0.053882 1.781079
v 0.212188 0.060220 1.815974
v 0.225713 0.193367 1.814193
v 0.921953 0.000000 1.596871
v 0.623545 0.069725 1.720476
v 0.478447 0.116748 1.823875
v 0.312412 0.130057 1.841808
v 0.698604 0.212148 1.689387
v 0.477236 0.242500 1.781079
v 0.613291 0.167228 1.753098
v 0.478447 0.179624 1.823875
v 0.524951 0.259232 1.761316
v 0.921953 0.134720 1.596871
v 0.734814 0.142842 1.674387
v 0.937354 0.314342 1.622939
v 0.780449 0.303205 1.697352
v 0.760615 0.251915 1.663702
v 0.921953 0.269439 1.596871
v 1.118838 0.260758 1.445800
v 1.221104 0.275778 1.367324
v 1.184707 0.313197 1.420710
v 0.921953 0.404163 1.596871
v 0.949268 0.359253 1.631790
v 1.131406 0.337761 1.483013
v 1.131387 0.414763 1.436173
v 1.220752 0.365635 1.367599
v 0.631152 0.304828 1.717327
v 0.626582 0.389171 1.719219
v 0.785488 0.354495 1.697095
v -1.733711 0.000000 0.477239
v -1.667061 0.077289 0.693853
v -1.733711 0.053882 0.477239
v -1.689424 0.425166 0.621165
v -1.667275 0.395246 0.693135
v -1.733711 0.404163 0.477239
v -1.596875 0.000000 0.921954
v -1.596875 0.134715 0.921954
v -1.648721 0.152166 0.753452
v -1.630420 0.317329 0.935465
v -1.685518 0.332852 0.735110
v -1.653691 0.270458 0.737285
v -1.596875 0.269431 0.921954
v -1.303838 0.323325 1.303840
v -1.303838 0.404163 1.303840
v -1.344775 0.395051 1.250492
v -1.596875 0.413140 0.921954
v -1.449814 0.432530 1.113599
v -1.628672 0.365235 0.935352
v -1.437402 0.353175 1.150044
v -1.349697 0.329705 1.282100
v -1.327119 0.264359 1.273505
v -1.601201 0.202073 0.924790
v -1.495830 0.210617 1.116615
v -1.442285 0.252743 1.123420
v -1.419512 0.323897 1.198982
v -1.679902 0.263929 0.668079
v -1.674639 0.228238 0.669214
v -1.698340 0.257400 0.592180
v -1.541641 0.311300 1.058975
v -1.783438 0.344251 0.095115
v -1.795811 0.000000 -0.000000
v -1.783672 0.304638 0.093271
v -1.733711 0.242500 0.477239
v -1.764658 0.296382 0.483533
v -1.799863 0.291132 0.292017
v -1.787725 0.315445 0.180222
v -1.770723 0.225651 0.192827
v -1.774395 0.350272 0.488970
v -1.723447 0.379651 0.605935
v -1.709678 0.290933 0.555352
v -1.303838 0.269435 1.303840
v -1.519580 0.126371 1.022688
v -1.318799 0.215542 1.318134
v -1.205186 0.202654 1.422770
v -1.204766 0.297586 1.379867
v -1.237793 0.288202 1.354524
v -1.640850 0.226248 0.779045
v -1.676602 0.190202 0.732952
v -1.303838 0.107764 1.303840
v -1.327646 0.161649 1.325270
v -1.503477 0.168491 1.069786
v -1.159385 0.107722 1.414688
v -1.105684 0.271847 1.455894
v -1.450352 0.485000 1.112898
v -1.357070 0.575000 1.141335
v -1.262490 0.575000 1.264591
v -1.094834 0.545547 1.441805
v -1.304619 0.542899 1.276750
v -1.317607 0.444581 1.316309
v -1.421504 0.457568 1.191130
v -1.154902 0.450501 1.449840
v -1.171797 0.409059 1.405157
v -1.039766 0.413956 1.506475
v 1.077607 0.575000 1.406459
v 0.892715 0.575000 1.548328
v 1.006826 0.485000 1.531747
v 1.303838 0.404163 1.303840
v 1.454414 0.423645 1.107609
v 1.262490 0.575000 1.264590
v 1.223965 0.565141 1.334166
v 1.399521 0.545762 1.147465
v 1.454287 0.456820 1.129259
v 1.026670 0.449882 1.516522
v 1.105498 0.484468 1.489053
v 1.275752 0.457086 1.347344
v 1.596875 0.377215 0.921954
v 1.276309 0.324346 1.324969
v 1.303838 0.291887 1.303840
v 1.347832 0.343840 1.281959
v 1.619834 0.354744 0.847323
v 1.615098 0.309858 0.925398
v 1.596875 0.242500 0.921954
v 1.596875 0.000000 0.921954
v 1.624072 0.230377 0.833549
v 1.535771 0.287847 1.059591
v 1.560332 0.357144 1.041735
v 1.446543 0.376583 1.144460
v 1.438008 0.329513 1.173489
v 1.404229 0.282444 1.173013
v 1.303838 0.000000 1.303840
v 1.147119 0.104624 1.424097
v 1.368428 0.105809 1.219668
v 1.335518 0.158098 1.321653
v 1.303838 0.113501 1.303840
v 1.320225 0.247291 1.311316
v 1.231494 0.227202 1.392021
v 1.135684 0.182691 1.437761
v 1.246250 0.139795 1.374177
v 0.937637 0.224530 1.621146
v 0.937637 0.179622 1.621146
v 1.064609 0.154609 1.526422
v 0.792041 0.191270 1.677162
v 1.691211 0.409527 0.615352
v 1.693115 0.258258 0.609160
v 1.733711 0.432599 0.477239
v 1.795811 0.404163 -0.000000
v 1.760186 0.423798 0.273779
v 1.736826 0.366664 0.549583
v 1.733711 0.202069 0.477239
v 1.754170 0.257498 0.513486
v 1.815166 0.255349 0.327546
v 1.762344 0.196707 0.257231
v 1.795449 0.234300 0.102776
v 1.795811 0.215541 -0.000000
v 1.818633 0.363261 0.130847
v 1.803145 0.364146 0.340327
v 1.633369 0.140333 0.803335
v 1.733711 0.000000 0.477239
v 1.652725 0.029914 0.740452
v 1.685010 0.180756 0.635518
v 1.795811 0.000000 -0.000000
v 1.782529 0.015697 0.102075
v 1.783330 0.169182 0.095959
v 1.785059 0.067350 0.488333
v 1.691113 0.086741 0.730442
v 1.785059 0.134709 0.488333
v 1.783438 0.151338 0.296477
v 1.774551 0.047048 0.251567
v 1.806611 0.099592 0.154949
v -1.751572 0.043148 0.340020
v -1.761836 0.162508 0.261118
v -1.754600 0.213956 0.316685
v -1.696445 0.127600 0.695784
v -1.760576 0.116748 0.487380
v -1.698975 0.177919 0.687571
v -1.760576 0.179624 0.487380
v -1.774482 0.137526 0.344902
v -1.484590 0.095440 1.068286
v -1.477500 0.000000 1.077521
v -1.006826 0.000000 1.531748
v -0.921953 0.000000 1.596873
v -0.921953 0.053878 1.596873
v -0.921953 0.107764 1.596873
v -0.921953 0.254453 1.596873
v -1.077793 0.076842 1.477759
v -1.303838 0.000000 1.303840
v -1.084268 0.019895 1.488292
v -0.981572 0.067497 1.580367
v -1.330059 0.081311 1.330059
v -1.326338 0.035918 1.335968
v -1.466396 0.046582 1.148250
v -0.477236 0.000000 1.781079
v -0.682041 0.022237 1.696246
v -0.048438 0.022093 1.837532
v -0.036250 0.169524 1.839136
v -0.266680 0.160990 1.846085
v -0.483564 0.143688 1.816456
v -0.269043 0.043324 1.860549
v -0.093545 0.106367 1.861307
v -0.480684 0.071838 1.797233
v -0.647256 0.081555 1.746334
v -0.921953 0.408147 1.596873
v -0.770391 0.361739 1.659652
v -1.249805 0.353380 1.345308
v -1.096963 0.319219 1.487607
v -1.199717 0.353323 1.416798
v -0.935625 0.356913 1.625088
v -0.938330 0.305680 1.638900
v -1.072549 0.366591 1.500742
v 0.477236 0.431106 1.781079
v 0.489316 0.368234 1.810944
v 0.641270 0.430308 1.713135
v 0.231055 0.575000 1.757112
v 0.124414 0.462071 1.876534
v 0.476768 0.453325 1.772505
v 0.462100 0.575000 1.726694
v 0.790752 0.534020 1.666069
v 0.476143 0.525705 1.777819
v 0.935264 0.487929 1.598119
v 0.823555 0.458967 1.643466
v 0.489316 0.305362 1.810944
v 0.274512 0.251220 1.839672
v 0.263701 0.351927 1.841094
vt 1.148107 0.790813
vt 0.976450 0.790813
vt 0.976453 0.760813
vt 1.148109 0.760813
vt 1.313104 0.790813
vt 1.313106 0.760813
vt 1.654825 0.790813
vt 1.611958 0.790813
vt 1.616727 0.760813
vt 1.654827 0.760813
vt 1.827180 0.790813
vt 1.827181 0.760813
vt 2.000000 0.790813
vt 2.000000 0.760813
vt 2.686896 0.790813
vt 2.611236 0.790813
vt 2.620692 0.760813
vt 2.686894 0.760813
vt 2.851893 0.790813
vt 2.851891 0.760813
vt 3.023549 0.790813
vt 3.023547 0.760813
vt 1.804680 0.733290
vt 1.713311 0.675726
vt 1.729275 0.640771
vt 1.803724 0.682396
vt 2.000000 0.734614
vt 2.024452 0.734020
vt 1.948184 0.735311
vt 1.827167 0.738053
vt 1.827181 0.670992
vt 1.827176 0.693343
vt 1.901054 0.741827
vt 1.913836 0.667337
vt 1.925285 0.689993
vt 1.909576 0.692165
vt 2.000000 0.666503
vt 2.000000 0.689204
vt 2.000000 0.599146
vt 2.027753 0.674480
vt 2.000000 0.711909
vt 2.019563 0.704773
vt 1.827171 0.715698
vt 1.905315 0.716996
vt 1.936734 0.712652
vt 2.036679 0.720623
vt 2.041358 0.685416
vt 2.039019 0.703019
vt 2.172819 0.599146
vt 2.172819 0.617107
vt 2.076836 0.619220
vt 2.081735 0.663602
vt 2.345173 0.599146
vt 2.229522 0.622388
vt 2.172819 0.638063
vt 2.112439 0.642499
vt 2.258611 0.669862
vt 2.172819 0.679980
vt 2.222477 0.654889
vt 2.172819 0.659021
vt 2.191310 0.685557
vt 2.345173 0.644053
vt 2.272645 0.646760
vt 2.345173 0.703927
vt 2.285732 0.700215
vt 2.282643 0.683118
vt 2.345173 0.688959
vt 2.433575 0.686066
vt 2.479496 0.691072
vt 2.456455 0.703545
vt 2.345173 0.733867
vt 2.345173 0.718897
vt 2.436391 0.711733
vt 2.439208 0.737401
vt 2.479335 0.721025
vt 2.232470 0.700756
vt 2.230699 0.728870
vt 2.288821 0.717312
vt 1.148109 0.599146
vt 1.228477 0.624909
vt 1.148109 0.617107
vt 1.201509 0.740868
vt 1.228210 0.730895
vt 1.148109 0.733867
vt 1.313106 0.599146
vt 1.313106 0.644052
vt 1.250589 0.649868
vt 1.313106 0.704923
vt 1.236400 0.710097
vt 1.244591 0.689299
vt 1.313106 0.688957
vt 1.483356 0.706922
vt 1.483356 0.733867
vt 1.459572 0.730830
vt 1.313106 0.736860
vt 1.398543 0.743323
vt 1.313106 0.720891
vt 1.410748 0.716872
vt 1.464702 0.709048
vt 1.469832 0.687266
vt 1.313106 0.666504
vt 1.387952 0.669352
vt 1.402922 0.683394
vt 1.431247 0.707112
vt 1.217673 0.687123
vt 1.219336 0.675226
vt 1.190755 0.684947
vt 1.361923 0.702913
vt 1.010664 0.713897
vt 0.976453 0.599146
vt 1.010001 0.700693
vt 1.148109 0.679980
vt 1.148109 0.697941
vt 1.075884 0.696191
vt 1.039776 0.704295
vt 1.045810 0.674364
vt 1.148109 0.715904
vt 1.193308 0.725697
vt 1.177091 0.696124
vt 1.483356 0.688958
vt 1.358014 0.641270
vt 1.483356 0.670994
vt 1.538032 0.666698
vt 1.527844 0.698342
vt 1.513014 0.695214
vt 1.260085 0.674563
vt 1.234962 0.662547
vt 1.483356 0.635068
vt 1.483356 0.653030
vt 1.372982 0.655310
vt 1.548219 0.635054
vt 1.572332 0.689762
vt 1.398231 0.760813
vt 1.426605 0.790813
vt 1.483354 0.790813
vt 1.582313 0.778922
vt 1.483355 0.775813
vt 1.483356 0.747340
vt 1.425456 0.751669
vt 1.557758 0.749314
vt 1.542643 0.735500
vt 1.601930 0.737132
vt 2.430910 0.790813
vt 2.345174 0.790813
vt 2.383281 0.760813
vt 2.516644 0.733867
vt 2.604126 0.740361
vt 2.516646 0.790813
vt 2.493490 0.780406
vt 2.583408 0.778487
vt 2.603022 0.751420
vt 2.392190 0.749107
vt 2.422460 0.756725
vt 2.503984 0.744387
vt 2.686894 0.724885
vt 2.504280 0.707262
vt 2.516644 0.696442
vt 2.532213 0.713760
vt 2.714583 0.717395
vt 2.686894 0.702432
vt 2.686894 0.679980
vt 2.686894 0.599146
vt 2.719694 0.675939
vt 2.631557 0.695095
vt 2.642657 0.718195
vt 2.594408 0.724674
vt 2.584688 0.708984
vt 2.574968 0.693294
vt 2.516644 0.599146
vt 2.446274 0.634021
vt 2.554169 0.634416
vt 2.516644 0.651846
vt 2.516644 0.636980
vt 2.516644 0.681577
vt 2.477800 0.674880
vt 2.439924 0.660043
vt 2.484562 0.645745
vt 2.345173 0.673990
vt 2.345173 0.659020
vt 2.402504 0.650683
vt 2.291034 0.662903
vt 2.800649 0.735655
vt 2.802945 0.685233
vt 2.851891 0.743346
vt 3.023547 0.733867
vt 2.925072 0.740412
vt 2.823918 0.721368
vt 2.851891 0.666503
vt 2.838671 0.684979
vt 2.908495 0.681477
vt 2.931024 0.664715
vt 2.985869 0.677247
vt 3.023547 0.670993
vt 2.978139 0.720233
vt 2.902919 0.720529
vt 2.730903 0.645924
vt 2.851891 0.599146
vt 2.754234 0.609118
vt 2.793167 0.659398
vt 3.023547 0.599146
vt 2.986831 0.604379
vt 2.989031 0.655540
vt 2.851891 0.621596
vt 2.762843 0.628060
vt 2.851891 0.644050
vt 2.917955 0.649592
vt 2.932661 0.614829
vt 2.967429 0.632344
vt 1.098754 0.613529
vt 1.070373 0.653316
vt 1.090360 0.670465
vt 1.225430 0.641680
vt 1.148109 0.638063
vt 1.222383 0.658453
vt 1.148109 0.659021
vt 1.099954 0.644989
vt 1.378343 0.630960
vt 1.382460 0.599146
vt 1.616718 0.599146
vt 1.654827 0.599146
vt 1.654827 0.617106
vt 1.654827 0.635068
vt 1.654827 0.683964
vt 1.586088 0.624760
vt 1.483356 0.599146
vt 1.586743 0.605778
vt 1.632348 0.621645
vt 1.483356 0.623093
vt 1.483356 0.611119
vt 1.400958 0.614674
vt 1.827181 0.599146
vt 1.747806 0.606559
vt 1.982459 0.606511
vt 1.986872 0.655654
vt 1.903206 0.652810
vt 1.827181 0.647042
vt 1.904604 0.613588
vt 1.967276 0.634602
vt 1.827181 0.623093
vt 1.766005 0.626332
vt 1.654827 0.735196
vt 1.713567 0.719726
vt 1.507621 0.716940
vt 1.582198 0.705553
vt 1.535244 0.716921
vt 1.654827 0.718118
vt 1.654827 0.701040
vt 1.592065 0.721344
vt 2.172819 0.742848
vt 2.172819 0.721891
vt 2.236391 0.742583
vt 2.086410 0.790813
vt 2.045996 0.753170
vt 2.176694 0.746549
vt 2.172819 0.790813
vt 2.289598 0.777153
vt 2.175179 0.774381
vt 2.348791 0.761790
vt 2.304307 0.752135
vt 2.172819 0.700934
vt 2.097177 0.682886
vt 2.093263 0.716456
vn -0.730349 0.664058 0.160056
vn -0.748609 0.655774 0.097696
vn -0.955501 0.267503 0.124337
vn -0.940098 0.272759 0.204494
vn -0.654821 0.675627 0.338730
vn -0.854905 0.272113 0.441692
vn -0.365413 0.677563 0.638264
vn -0.408458 0.701786 0.583660
vn -0.542998 0.268740 0.795570
vn -0.481534 0.271304 0.833378
vn -0.181838 0.706432 0.684024
vn -0.249321 0.270500 0.929876
vn 0.000000 0.714582 0.699551
vn -0.070490 0.286904 0.955362
vn 0.654821 0.675627 0.338730
vn 0.580220 0.709701 0.399586
vn 0.793914 0.273936 0.542826
vn 0.854905 0.272114 0.441692
vn 0.730335 0.664088 0.159990
vn 0.940099 0.272759 0.204493
vn 0.746029 0.658799 0.097079
vn 0.955501 0.267503 0.124337
vn -0.422374 0.034493 0.905765
vn -0.342126 -0.039723 0.938814
vn -0.438672 0.024979 0.898300
vn -0.452536 -0.038363 0.890921
vn 0.028831 0.174158 0.984296
vn -0.044067 -0.073952 0.996288
vn -0.145706 0.282663 0.948089
vn -0.270089 0.121895 0.955088
vn -0.337400 0.062827 0.939262
vn -0.382620 -0.096011 0.918904
vn -0.126826 0.081284 0.988589
vn -0.120008 0.068594 0.990400
vn -0.298822 -0.207766 0.931418
vn -0.314567 -0.110209 0.942816
vn 0.047156 -0.147296 0.987968
vn 0.058365 -0.176876 0.982501
vn 0.000000 -0.000000 1.000000
vn 0.185596 -0.113007 0.976106
vn 0.029505 0.161012 0.986511
vn 0.183260 0.030832 0.982581
vn -0.341459 0.149455 0.927938
vn -0.201542 0.211603 0.956350
vn -0.201868 0.289360 0.935692
vn 0.145548 0.106897 0.983559
vn 0.109860 -0.249851 0.962032
vn 0.078300 -0.009515 0.996884
vn 0.258819 0.000000 0.965926
vn 0.256461 -0.276368 0.926201
vn 0.072968 -0.048301 0.996164
vn -0.000498 -0.094816 0.995495
vn 0.500000 0.000000 0.866025
vn 0.444651 -0.095572 0.890590
vn 0.264291 -0.284282 0.921593
vn -0.017812 -0.051810 0.998498
vn 0.359915 0.034975 0.932329
vn 0.335495 0.022173 0.941781
vn 0.529690 0.085046 0.843917
vn 0.252894 0.299523 0.919962
vn 0.471649 -0.113542 0.874446
vn 0.441118 -0.292316 0.848509
vn 0.319791 -0.094693 0.942745
vn 0.461907 -0.412180 0.785334
vn 0.278438 -0.322757 0.904600
vn 0.286842 -0.119816 0.950456
vn 0.500102 -0.037086 0.865172
vn 0.606701 -0.144376 0.781709
vn 0.630814 0.192210 0.751751
vn 0.722383 -0.100604 0.684136
vn 0.480380 0.332332 0.811659
vn 0.507131 0.244859 0.826355
vn 0.678074 0.023355 0.734623
vn 0.634423 -0.019016 0.772752
vn 0.657766 0.044950 0.751880
vn 0.305360 -0.043255 0.951254
vn 0.414651 -0.013488 0.909881
vn 0.288296 0.317776 0.903274
vn -0.977199 -0.000001 0.212326
vn -0.911353 -0.182854 0.368782
vn -0.951314 -0.215195 0.220664
vn -0.922571 0.214091 0.320980
vn -0.954749 0.113031 0.275095
vn -0.936748 0.316176 0.150121
vn -0.888605 -0.000000 0.458674
vn -0.889570 -0.037898 0.455225
vn -0.872460 -0.102771 0.477757
vn -0.866798 -0.285000 0.409191
vn -0.991881 0.022947 0.125086
vn -0.923142 -0.242452 0.298372
vn -0.874779 -0.279415 0.395839
vn -0.602129 0.004868 0.798384
vn -0.693482 -0.220101 0.686031
vn -0.759521 0.142010 0.634793
vn -0.851444 0.286045 0.439570
vn -0.831597 -0.048667 0.553243
vn -0.843684 0.341144 0.414510
vn -0.794410 0.163634 0.584925
vn -0.600772 0.068604 0.796471
vn -0.743574 0.105778 0.660234
vn -0.913283 -0.020445 0.406813
vn -0.807883 0.128776 0.575101
vn -0.759040 0.248797 0.601630
vn -0.833106 0.007549 0.553061
vn -0.964816 -0.091021 0.246670
vn -0.903109 0.243905 0.353419
vn -0.949512 0.111450 0.293268
vn -0.751626 -0.157837 0.640426
vn -0.995624 0.029593 0.088637
vn -0.991640 -0.000000 0.129039
vn -0.997238 -0.022493 0.070779
vn -0.968134 -0.021769 0.249485
vn -0.863292 -0.343376 0.369891
vn -0.994354 -0.094606 0.048057
vn -0.995293 0.095951 -0.013587
vn -0.990881 -0.117787 0.065430
vn -0.946660 0.196103 0.255693
vn -0.907100 0.150916 0.392930
vn -0.918057 -0.217960 0.331157
vn -0.718841 0.190080 0.668683
vn -0.807846 -0.122455 0.576532
vn -0.687602 0.291450 0.665027
vn -0.483950 0.008987 0.875049
vn -0.591626 -0.104179 0.799453
vn -0.667843 0.126753 0.733429
vn -0.942453 0.042394 0.331640
vn -0.850581 0.162615 0.500068
vn -0.708920 0.222011 0.669436
vn -0.703130 -0.187708 0.685838
vn -0.785880 -0.351055 0.509071
vn -0.505181 0.115532 0.855245
vn -0.576863 -0.152541 0.802472
vn -0.794370 0.319428 0.516664
vn -0.578600 0.705605 0.409076
vn -0.430491 0.787385 0.441251
vn -0.458231 0.607992 0.648359
vn -0.596032 0.583884 0.551204
vn -0.703361 -0.044899 0.709413
vn -0.846704 -0.013893 0.531882
vn -0.588842 -0.058516 0.806127
vn -0.626468 -0.092779 0.773906
vn -0.577425 0.118340 0.807822
vn 0.366786 0.748987 0.551802
vn 0.390964 0.723812 0.568545
vn 0.565466 0.318438 0.760819
vn 0.681825 -0.024811 0.731095
vn 0.811507 0.097116 0.576216
vn 0.438104 0.810012 0.389803
vn 0.459450 0.732438 0.502435
vn 0.657782 0.578323 0.482561
vn 0.840988 -0.008719 0.540984
vn 0.550485 -0.102468 0.828533
vn 0.499241 0.169627 0.849697
vn 0.683977 0.043357 0.728214
vn 0.914977 0.172268 0.364884
vn 0.582394 -0.007015 0.812877
vn 0.652113 0.088992 0.752881
vn 0.706293 -0.023380 0.707534
vn 0.968816 0.040065 0.244523
vn 0.951524 -0.007991 0.307470
vn 0.884023 -0.161491 0.438661
vn 0.888605 0.000000 0.458674
vn 0.962049 -0.022400 0.271954
vn 0.674958 -0.469089 0.569550
vn 0.815398 0.284674 0.504070
vn 0.702328 0.324241 0.633722
vn 0.724978 -0.109306 0.680043
vn 0.759066 -0.229520 0.609213
vn 0.707107 0.000000 0.707107
vn 0.604381 -0.083965 0.792259
vn 0.827670 -0.072302 0.556539
vn 0.734919 -0.211593 0.644300
vn 0.654220 -0.341197 0.674967
vn 0.697611 0.285233 0.657252
vn 0.527384 0.195508 0.826827
vn 0.605228 0.012912 0.795948
vn 0.523570 -0.332512 0.784417
vn 0.471810 0.283677 0.834819
vn 0.440979 -0.267017 0.856878
vn 0.639395 -0.176187 0.748420
vn 0.271857 -0.053444 0.960853
vn 0.935923 0.043792 0.349472
vn 0.924171 -0.049237 0.378793
vn 0.949592 0.199938 0.241454
vn 0.995551 0.094221 0.000720
vn 0.938754 0.329490 0.100880
vn 0.892156 0.166254 0.420020
vn 0.954793 0.049254 0.293162
vn 0.872114 -0.264454 0.411682
vn 0.933704 -0.330523 0.137660
vn 0.989558 -0.130712 0.060737
vn 0.944063 -0.328087 0.033222
vn 0.996139 -0.079565 0.037093
vn 0.966986 0.254503 -0.012920
vn 0.925016 0.346593 0.155622
vn 0.936616 0.027949 0.349240
vn 0.802740 -0.568164 0.181104
vn 0.912571 -0.157340 0.377436
vn 0.908042 0.236757 0.345552
vn 0.991639 -0.000000 0.129039
vn 0.995174 -0.060724 0.077084
vn 0.996426 0.062523 0.056792
vn 0.930206 -0.316979 0.185045
vn 0.864729 -0.075517 0.496528
vn 0.930771 0.309788 0.194157
vn 0.968139 0.242364 0.062988
vn 0.961083 -0.254014 0.108613
vn 0.998791 -0.015541 -0.046644
vn -0.992163 -0.091215 0.085398
vn -0.998353 0.012201 0.056062
vn -0.991563 0.110379 0.067970
vn -0.841264 -0.255407 0.476489
vn -0.957171 -0.203890 0.205554
vn -0.909606 0.225233 0.349125
vn -0.963330 0.205407 0.172635
vn -0.998672 -0.019565 -0.047661
vn -0.835345 0.055703 0.546897
vn -0.872080 -0.162417 0.461625
vn -0.512145 -0.344656 0.786714
vn -0.500000 0.000000 0.866026
vn -0.399062 -0.058003 0.915088
vn -0.453277 0.052442 0.889826
vn -0.523838 -0.349099 0.776996
vn -0.606202 0.150296 0.780980
vn -0.483378 -0.728066 0.486071
vn -0.593984 -0.215152 0.775173
vn -0.529510 0.073593 0.845106
vn -0.622061 0.447580 0.642426
vn -0.624883 -0.351724 0.697002
vn -0.874196 -0.047556 0.483238
vn -0.332402 -0.270106 0.903632
vn -0.441775 -0.106413 0.890792
vn -0.045229 -0.078255 0.995907
vn -0.061430 0.059573 0.996332
vn -0.051578 0.394047 0.917642
vn -0.324251 0.149141 0.934140
vn -0.086692 -0.415388 0.905504
vn 0.133802 0.070518 0.988496
vn -0.322086 -0.255758 0.911509
vn -0.482302 -0.100769 0.870190
vn -0.450101 0.257665 0.854996
vn -0.316997 0.041668 0.947511
vn -0.677554 0.029363 0.734887
vn -0.618004 -0.173636 0.766761
vn -0.701419 0.078730 0.708388
vn -0.414888 0.372401 0.830172
vn -0.477769 -0.186537 0.858452
vn -0.615777 0.239128 0.750757
vn 0.205339 0.410936 0.888238
vn 0.343273 0.171153 0.923510
vn 0.383836 0.058204 0.921565
vn 0.065281 0.786438 0.614210
vn 0.001805 0.125154 0.992136
vn 0.281082 0.109721 0.953391
vn 0.139253 0.800843 0.582460
vn 0.353247 0.435024 0.828233
vn 0.252053 0.376425 0.891501
vn 0.563196 0.242871 0.789826
vn 0.379386 -0.091360 0.920717
vn 0.486466 -0.163351 0.858293
vn 0.116249 -0.289782 0.950007
vn 0.055406 0.315265 0.947385
f 302/302/302 301/301/301 300/300/300
f 300/300/300 303/303/303 302/302/302
f 303/303/303 300/300/300 304/304/304
f 304/304/304 305/305/305 303/303/303
f 308/308/308 307/307/307 306/306/306
f 306/306/306 309/309/309 308/308/308
f 309/309/309 306/306/306 310/310/310
f 310/310/310 311/311/311 309/309/309
f 311/311/311 310/310/310 312/312/312
f 312/312/312 313/313/313 311/311/311
f 316/316/316 315/315/315 314/314/314
f 314/314/314 317/317/317 316/316/316
f 317/317/317 314/314/314 318/318/318
f 318/318/318 319/319/319 317/317/317
f 319/319/319 318/318/318 320/320/320
f 320/320/320 321/321/321 319/319/319
f 322/322/322 309/309/309 311/311/311
f 325/325/325 324/324/324 323/323/323
f 323/323/323 322/322/322 325/325/325
f 327/327/327 326/326/326 313/313/313
f 326/326/326 328/328/328 313/313/313
f 329/329/329 322/322/322 311/311/311
f 325/325/325 331/331/331 330/330/330
f 332/332/332 329/329/329 311/311/311
f 328/328/328 332/332/332 311/311/311
f 313/313/313 328/328/328 311/311/311
f 335/335/335 334/334/334 333/333/333
f 330/330/330 331/331/331 335/335/335
f 335/335/335 333/333/333 330/330/330
f 334/334/334 337/337/337 336/336/336
f 336/336/336 333/333/333 334/334/334
f 339/339/339 338/338/338 336/336/336
f 341/341/341 340/340/340 326/326/326
f 326/326/326 327/327/327 341/341/341
f 335/335/335 331/331/331 342/342/342
f 342/342/342 343/343/343 335/335/335
f 329/329/329 332/332/332 343/343/343
f 343/343/343 342/342/342 329/329/329
f 335/335/335 343/343/343 344/344/344
f 344/344/344 334/334/334 335/335/335
f 343/343/343 332/332/332 328/328/328
f 328/328/328 344/344/344 343/343/343
f 337/337/337 334/334/334 344/344/344
f 344/344/344 340/340/340 337/337/337
f 344/344/344 328/328/328 326/326/326
f 326/326/326 340/340/340 344/344/344
f 322/322/322 329/329/329 342/342/342
f 325/325/325 322/322/322 342/342/342
f 342/342/342 331/331/331 325/325/325
f 341/341/341 337/337/337 340/340/340
f 339/339/339 336/336/336 337/337/337
f 337/337/337 341/341/341 339/339/339
f 327/327/327 345/345/345 341/341/341
f 341/341/341 346/346/346 339/339/339
f 341/341/341 347/347/347 346/346/346
f 350/350/350 349/349/349 348/348/348
f 351/351/351 339/339/339 346/346/346
f 350/350/350 348/348/348 338/338/338
f 350/350/350 338/338/338 339/339/339
f 353/353/353 352/352/352 348/348/348
f 353/353/353 348/348/348 349/349/349
f 350/350/350 339/339/339 351/351/351
f 355/355/355 354/354/354 349/349/349
f 355/355/355 350/350/350 351/351/351
f 355/355/355 349/349/349 350/350/350
f 358/358/358 357/357/357 356/356/356
f 358/358/358 359/359/359 357/357/357
f 358/358/358 356/356/356 353/353/353
f 355/355/355 351/351/351 359/359/359
f 358/358/358 354/354/354 359/359/359
f 355/355/355 359/359/359 354/354/354
f 358/358/358 353/353/353 354/354/354
f 353/353/353 349/349/349 354/354/354
f 351/351/351 357/357/357 359/359/359
f 360/360/360 356/356/356 357/357/357
f 362/362/362 361/361/361 352/352/352
f 365/365/365 364/364/364 363/363/363
f 363/363/363 366/366/366 365/365/365
f 369/369/369 368/368/368 367/367/367
f 372/372/372 371/371/371 370/370/370
f 370/370/370 373/373/373 372/372/372
f 369/369/369 372/372/372 373/373/373
f 373/373/373 374/374/374 369/369/369
f 365/365/365 356/356/356 360/360/360
f 375/375/375 365/365/365 360/360/360
f 375/375/375 364/364/364 365/365/365
f 377/377/377 376/376/376 370/370/370
f 375/375/375 360/360/360 376/376/376
f 369/369/369 367/367/367 372/372/372
f 377/377/377 371/371/371 363/363/363
f 372/372/372 367/367/367 363/363/363
f 372/372/372 363/363/363 371/371/371
f 369/369/369 374/374/374 368/368/368
f 377/377/377 375/375/375 376/376/376
f 377/377/377 370/370/370 371/371/371
f 364/364/364 377/377/377 363/363/363
f 375/375/375 377/377/377 364/364/364
f 367/367/367 366/366/366 363/363/363
f 380/380/380 379/379/379 378/378/378
f 381/381/381 303/303/303 305/305/305
f 305/305/305 382/382/382 381/381/381
f 381/381/381 383/383/383 303/303/303
f 386/386/386 385/385/385 384/384/384
f 389/389/389 388/388/388 387/387/387
f 387/387/387 390/390/390 389/389/389
f 393/393/393 392/392/392 391/391/391
f 395/395/395 393/393/393 394/394/394
f 394/394/394 305/305/305 395/395/395
f 397/397/397 396/396/396 394/394/394
f 394/394/394 393/393/393 397/397/397
f 399/399/399 398/398/398 391/391/391
f 401/401/401 400/400/400 390/390/390
f 390/390/390 402/402/402 401/401/401
f 403/403/403 397/397/397 393/393/393
f 402/402/402 403/403/403 399/399/399
f 382/382/382 305/305/305 394/394/394
f 405/405/405 404/404/404 389/389/389
f 404/404/404 406/406/406 382/382/382
f 382/382/382 388/388/388 404/404/404
f 388/388/388 389/389/389 404/404/404
f 388/388/388 396/396/396 387/387/387
f 388/388/388 382/382/382 394/394/394
f 394/394/394 396/396/396 388/388/388
f 398/398/398 393/393/393 391/391/391
f 403/403/403 393/393/393 398/398/398
f 402/402/402 390/390/390 407/407/407
f 407/407/407 390/390/390 387/387/387
f 407/407/407 387/387/387 396/396/396
f 396/396/396 397/397/397 407/407/407
f 403/403/403 402/402/402 397/397/397
f 403/403/403 398/398/398 399/399/399
f 402/402/402 407/407/407 397/397/397
f 405/405/405 406/406/406 404/404/404
f 408/408/408 303/303/303 383/383/383
f 408/408/408 302/302/302 303/303/303
f 408/408/408 409/409/409 302/302/302
f 410/410/410 409/409/409 408/408/408
f 413/413/413 412/412/412 411/411/411
f 414/414/414 408/408/408 383/383/383
f 414/414/414 410/410/410 408/408/408
f 414/414/414 415/415/415 410/410/410
f 414/414/414 413/413/413 415/415/415
f 417/417/417 416/416/416 383/383/383
f 417/417/417 382/382/382 406/406/406
f 417/417/417 381/381/381 382/382/382
f 417/417/417 383/383/383 381/381/381
f 418/418/418 406/406/406 411/411/411
f 418/418/418 417/417/417 406/406/406
f 417/417/417 418/418/418 416/416/416
f 418/418/418 411/411/411 412/412/412
f 414/414/414 383/383/383 416/416/416
f 413/413/413 411/411/411 415/415/415
f 413/413/413 416/416/416 412/412/412
f 418/418/418 412/412/412 416/416/416
f 413/413/413 414/414/414 416/416/416
f 399/399/399 391/391/391 419/419/419
f 420/420/420 384/384/384 385/385/385
f 423/423/423 422/422/422 421/421/421
f 424/424/424 423/423/423 421/421/421
f 419/419/419 424/424/424 421/421/421
f 386/386/386 400/400/400 385/385/385
f 400/400/400 425/425/425 390/390/390
f 425/425/425 426/426/426 405/405/405
f 429/429/429 428/428/428 427/427/427
f 427/427/427 420/420/420 429/429/429
f 422/422/422 431/431/431 430/430/430
f 422/422/422 423/423/423 431/431/431
f 422/422/422 428/428/428 421/421/421
f 422/422/422 430/430/430 428/428/428
f 430/430/430 427/427/427 428/428/428
f 399/399/399 419/419/419 421/421/421
f 401/401/401 399/399/399 421/421/421
f 401/401/401 421/421/421 428/428/428
f 428/428/428 429/429/429 401/401/401
f 401/401/401 429/429/429 400/400/400
f 420/420/420 385/385/385 400/400/400
f 400/400/400 429/429/429 420/420/420
f 401/401/401 402/402/402 399/399/399
f 395/395/395 305/305/305 432/432/432
f 393/393/393 395/395/395 392/392/392
f 432/432/432 305/305/305 304/304/304
f 304/304/304 433/433/433 432/432/432
f 435/435/435 434/434/434 307/307/307
f 435/435/435 307/307/307 308/308/308
f 436/436/436 434/434/434 435/435/435
f 438/438/438 437/437/437 392/392/392
f 438/438/438 436/436/436 437/437/437
f 438/438/438 433/433/433 436/436/436
f 438/438/438 432/432/432 433/433/433
f 438/438/438 395/395/395 432/432/432
f 438/438/438 392/392/392 395/395/395
f 433/433/433 434/434/434 436/436/436
f 439/439/439 435/435/435 308/308/308
f 439/439/439 436/436/436 435/435/435
f 439/439/439 437/437/437 436/436/436
f 439/439/439 392/392/392 437/437/437
f 439/439/439 440/440/440 392/392/392
f 439/439/439 308/308/308 441/441/441
f 444/444/444 443/443/443 442/442/442
f 445/445/445 374/374/374 373/373/373
f 446/446/446 316/316/316 317/317/317
f 449/449/449 448/448/448 447/447/447
f 449/449/449 315/315/315 316/316/316
f 449/449/449 447/447/447 315/315/315
f 450/450/450 316/316/316 446/446/446
f 450/450/450 449/449/449 316/316/316
f 452/452/452 451/451/451 444/444/444
f 448/448/448 452/452/452 442/442/442
f 453/453/453 445/445/445 373/373/373
f 453/453/453 450/450/450 445/445/445
f 448/448/448 449/449/449 453/453/453
f 450/450/450 446/446/446 445/445/445
f 453/453/453 449/449/449 450/450/450
f 448/448/448 442/442/442 447/447/447
f 452/452/452 444/444/444 442/442/442
f 373/373/373 451/451/451 452/452/452
f 448/448/448 453/453/453 452/452/452
f 453/453/453 373/373/373 452/452/452
f 446/446/446 317/317/317 454/454/454
f 455/455/455 368/368/368 374/374/374
f 455/455/455 456/456/456 368/368/368
f 455/455/455 374/374/374 445/445/445
f 455/455/455 457/457/457 456/456/456
f 458/458/458 317/317/317 319/319/319
f 458/458/458 454/454/454 317/317/317
f 458/458/458 459/459/459 454/454/454
f 462/462/462 461/461/461 460/460/460
f 463/463/463 459/459/459 460/460/460
f 464/464/464 454/454/454 459/459/459
f 464/464/464 446/446/446 454/454/454
f 464/464/464 465/465/465 446/446/446
f 464/464/464 466/466/466 465/465/465
f 464/464/464 463/463/463 466/466/466
f 463/463/463 460/460/460 467/467/467
f 457/457/457 467/467/467 456/456/456
f 457/457/457 466/466/466 467/467/467
f 457/457/457 465/465/465 466/466/466
f 457/457/457 445/445/445 465/465/465
f 455/455/455 445/445/445 457/457/457
f 445/445/445 446/446/446 465/465/465
f 463/463/463 467/467/467 466/466/466
f 458/458/458 462/462/462 459/459/459
f 462/462/462 460/460/460 459/459/459
f 463/463/463 464/464/464 459/459/459
f 469/469/469 468/468/468 352/352/352
f 362/362/362 353/353/353 356/356/356
f 362/362/362 352/352/352 353/353/353
f 470/470/470 461/461/461 468/468/468
f 470/470/470 460/460/460 461/461/461
f 470/470/470 467/467/467 460/460/460
f 470/470/470 471/471/471 467/467/467
f 470/470/470 468/468/468 472/472/472
f 472/472/472 468/468/468 469/469/469
f 469/469/469 352/352/352 361/361/361
f 470/470/470 472/472/472 471/471/471
f 473/473/473 456/456/456 467/467/467
f 474/474/474 367/367/367 368/368/368
f 474/474/474 475/475/475 367/367/367
f 474/474/474 476/476/476 475/475/475
f 474/474/474 473/473/473 471/471/471
f 474/474/474 368/368/368 473/473/473
f 476/476/476 472/472/472 469/469/469
f 476/476/476 471/471/471 472/472/472
f 476/476/476 469/469/469 475/475/475
f 476/476/476 474/474/474 471/471/471
f 368/368/368 456/456/456 473/473/473
f 475/475/475 477/477/477 367/367/367
f 479/479/479 478/478/478 477/477/477
f 479/479/479 361/361/361 478/478/478
f 479/479/479 469/469/469 361/361/361
f 479/479/479 475/475/475 469/469/469
f 475/475/475 479/479/479 477/477/477
f 480/480/480 478/478/478 361/361/361
f 480/480/480 477/477/477 478/478/478
f 480/480/480 365/365/365 477/477/477
f 480/480/480 356/356/356 365/365/365
f 480/480/480 362/362/362 356/356/356
f 480/480/480 361/361/361 362/362/362
f 365/365/365 366/366/366 477/477/477
f 477/477/477 366/366/366 367/367/367
f 471/471/471 473/473/473 467/467/467
f 481/481/481 458/458/458 319/319/319
f 482/482/482 458/458/458 481/481/481
f 481/481/481 319/319/319 483/483/483
f 485/485/485 321/321/321 484/484/484
f 485/485/485 319/319/319 321/321/321
f 485/485/485 483/483/483 319/319/319
f 486/486/486 481/481/481 483/483/483
f 486/486/486 482/482/482 481/481/481
f 488/488/488 487/487/487 482/482/482
f 488/488/488 489/489/489 487/487/487
f 488/488/488 482/482/482 486/486/486
f 489/489/489 491/491/491 490/490/490
f 493/493/493 484/484/484 492/492/492
f 493/493/493 485/485/485 484/484/484
f 493/493/493 491/491/491 489/489/489
f 489/489/489 494/494/494 493/493/493
f 493/493/493 492/492/492 491/491/491
f 491/491/491 492/492/492 490/490/490
f 493/493/493 494/494/494 485/485/485
f 494/494/494 483/483/483 485/485/485
f 489/489/489 486/486/486 494/494/494
f 488/488/488 486/486/486 489/489/489
f 489/489/489 490/490/490 487/487/487
f 494/494/494 486/486/486 483/483/483
f 495/495/495 461/461/461 462/462/462
f 497/497/497 496/496/496 461/461/461
f 497/497/497 461/461/461 495/495/495
f 498/498/498 458/458/458 482/482/482
f 500/500/500 499/499/499 496/496/496
f 500/500/500 501/501/501 499/499/499
f 501/501/501 492/492/492 499/499/499
f 501/501/501 490/490/490 492/492/492
f 462/462/462 458/458/458 498/498/498
f 498/498/498 495/495/495 462/462/462
f 498/498/498 482/482/482 487/487/487
f 503/503/503 502/502/502 496/496/496
f 503/503/503 504/504/504 502/502/502
f 503/503/503 498/498/498 504/504/504
f 503/503/503 495/495/495 498/498/498
f 503/503/503 497/497/497 495/495/495
f 503/503/503 496/496/496 497/497/497
f 505/505/505 490/490/490 501/501/501
f 505/505/505 487/487/487 490/490/490
f 505/505/505 504/504/504 487/487/487
f 505/505/505 502/502/502 504/504/504
f 505/505/505 506/506/506 502/502/502
f 506/506/506 500/500/500 496/496/496
f 506/506/506 507/507/507 500/500/500
f 507/507/507 501/501/501 500/500/500
f 507/507/507 505/505/505 501/501/501
f 506/506/506 496/496/496 502/502/502
f 506/506/506 505/505/505 507/507/507
f 498/498/498 487/487/487 504/504/504
f 425/425/425 405/405/405 389/389/389
f 379/379/379 384/384/384 378/378/378
f 379/379/379 386/386/386 384/384/384
f 508/508/508 378/378/378 409/409/409
f 509/509/509 409/409/409 415/415/415
f 508/508/508 380/380/380 378/378/378
f 510/510/510 415/415/415 411/411/411
f 380/380/380 512/512/512 511/511/511
f 511/511/511 379/379/379 380/380/380
f 425/425/425 389/389/389 390/390/390
f 400/400/400 386/386/386 425/425/425
f 509/509/509 415/415/415 510/510/510
f 409/409/409 410/410/410 415/415/415
f 509/509/509 508/508/508 409/409/409
f 511/511/511 426/426/426 386/386/386
f 386/386/386 379/379/379 511/511/511
f 511/511/511 513/513/513 426/426/426
f 513/513/513 405/405/405 426/426/426
f 425/425/425 386/386/386 426/426/426
f 511/511/511 512/512/512 514/514/514
f 514/514/514 513/513/513 511/511/511
f 514/514/514 406/406/406 513/513/513
f 508/508/508 512/512/512 380/380/380
f 515/515/515 514/514/514 512/512/512
f 515/515/515 510/510/510 514/514/514
f 515/515/515 509/509/509 510/510/510
f 515/515/515 508/508/508 509/509/509
f 510/510/510 411/411/411 514/514/514
f 508/508/508 515/515/515 512/512/512
f 406/406/406 405/405/405 513/513/513
f 514/514/514 411/411/411 406/406/406
f 516/516/516 420/420/420 427/427/427
f 516/516/516 384/384/384 420/420/420
f 516/516/516 517/517/517 384/384/384
f 520/520/520 519/519/519 518/518/518
f 430/430/430 431/431/431 521/521/521
f 431/431/431 522/522/522 521/521/521
f 441/441/441 308/308/308 309/309/309
f 523/523/523 430/430/430 521/521/521
f 525/525/525 518/518/518 524/524/524
f 525/525/525 526/526/526 518/518/518
f 528/528/528 527/527/527 523/523/523
f 523/523/523 525/525/525 528/528/528
f 526/526/526 521/521/521 520/520/520
f 526/526/526 523/523/523 521/521/521
f 517/517/517 528/528/528 524/524/524
f 529/529/529 527/527/527 528/528/528
f 529/529/529 516/516/516 527/527/527
f 529/529/529 517/517/517 516/516/516
f 516/516/516 427/427/427 527/527/527
f 517/517/517 529/529/529 528/528/528
f 527/527/527 430/430/430 523/523/523
f 525/525/525 524/524/524 528/528/528
f 526/526/526 520/520/520 518/518/518
f 525/525/525 523/523/523 526/526/526
f 527/527/527 427/427/427 430/430/430
f 324/324/324 325/325/325 330/330/330
f 531/531/531 530/530/530 519/519/519
f 531/531/531 520/520/520 324/324/324
f 532/532/532 338/338/338 530/530/530
f 533/533/533 336/336/336 338/338/338
f 533/533/533 333/333/333 336/336/336
f 533/533/533 338/338/338 532/532/532
f 534/534/534 330/330/330 333/333/333
f 534/534/534 535/535/535 330/330/330
f 534/534/534 536/536/536 535/535/535
f 536/536/536 532/532/532 530/530/530
f 536/536/536 537/537/537 532/532/532
f 537/537/537 533/533/533 532/532/532
f 537/537/537 333/333/333 533/533/533
f 531/531/531 538/538/538 530/530/530
f 539/539/539 535/535/535 538/538/538
f 539/539/539 324/324/324 535/535/535
f 539/539/539 531/531/531 324/324/324
f 324/324/324 330/330/330 535/535/535
f 531/531/531 539/539/539 538/538/538
f 536/536/536 530/530/530 538/538/538
f 536/536/536 534/534/534 537/537/537
f 534/534/534 333/333/333 537/537/537
f 536/536/536 538/538/538 535/535/535
f 541/541/541 540/540/540 309/309/309
f 541/541/541 309/309/309 322/322/322
f 323/323/323 541/541/541 322/322/322
f 542/542/542 391/391/391 392/392/392
f 424/424/424 419/419/419 391/391/391
f 391/391/391 542/542/542 424/424/424
f 439/439/439 441/441/441 440/440/440
f 542/542/542 392/392/392 440/440/440
f 544/544/544 543/543/543 431/431/431
f 431/431/431 423/423/423 544/544/544
f 542/542/542 544/544/544 424/424/424
f 544/544/544 423/423/423 424/424/424
f 542/542/542 440/440/440 544/544/544
f 441/441/441 309/309/309 540/540/540
f 541/541/541 545/545/545 540/540/540
f 521/521/521 522/522/522 323/323/323
f 323/323/323 324/324/324 521/521/521
f 520/520/520 521/521/521 324/324/324
f 531/531/531 519/519/519 520/520/520
f 543/543/543 546/546/546 522/522/522
f 522/522/522 431/431/431 543/543/543
f 544/544/544 547/547/547 543/543/543
f 440/440/440 441/441/441 547/547/547
f 547/547/547 544/544/544 440/440/440
f 547/547/547 545/545/545 546/546/546
f 546/546/546 543/543/543 547/547/547
f 441/441/441 540/540/540 545/545/545
f 545/545/545 547/547/547 441/441/441
f 541/541/541 323/323/323 546/546/546
f 546/546/546 545/545/545 541/541/541
f 323/323/323 522/522/522 546/546/546
f 451/451/451 373/373/373 370/370/370
f 550/550/550 549/549/549 548/548/548
f 313/313/313 312/312/312 551/551/551
f 552/552/552 327/327/327 313/313/313
f 552/552/552 345/345/345 327/327/327
f 552/552/552 553/553/553 345/345/345
f 555/555/555 554/554/554 443/443/443
f 556/556/556 551/551/551 554/554/554
f 557/557/557 443/443/443 444/444/444
f 370/370/370 557/557/557 451/451/451
f 557/557/557 555/555/555 443/443/443
f 553/553/553 552/552/552 556/556/556
f 556/556/556 552/552/552 551/551/551
f 552/552/552 313/313/313 551/551/551
f 550/550/550 553/553/553 558/558/558
f 556/556/556 555/555/555 558/558/558
f 558/558/558 553/553/553 556/556/556
f 550/550/550 548/548/548 553/553/553
f 558/558/558 555/555/555 557/557/557
f 370/370/370 558/558/558 557/557/557
f 376/376/376 550/550/550 558/558/558
f 558/558/558 370/370/370 376/376/376
f 557/557/557 444/444/444 451/451/451
f 553/553/553 548/548/548 345/345/345
f 549/549/549 376/376/376 360/360/360
f 360/360/360 559/559/559 549/549/549
f 360/360/360 357/357/357 559/559/559
f 550/550/550 376/376/376 549/549/549
f 341/341/341 345/345/345 347/347/347
f 560/560/560 559/559/559 357/357/357
f 561/561/561 549/549/549 559/559/559
f 561/561/561 548/548/548 549/549/549
f 561/561/561 345/345/345 548/548/548
f 561/561/561 347/347/347 345/345/345
f 561/561/561 560/560/560 347/347/347
f 560/560/560 357/357/357 351/351/351
f 560/560/560 351/351/351 346/346/346
f 560/560/560 561/561/561 559/559/559
f 560/560/560 346/346/346 347/347/347
f 555/555/555 556/556/556 554/554/554
o G3_Object_Fireplace_02_3
usemtl G3_Architecture_Wood_Burned_02_A
v 0.087871 0.752704 0.177761
v 0.238721 0.828151 0.299097
v -0.079014 0.864422 0.935563
v -0.286963 0.852080 0.881504
v 0.061152 0.881878 0.152834
v -0.252383 0.985062 0.882742
v -0.103232 0.971845 0.851279
v 0.141719 0.954807 0.303591
v 0.141719 0.954807 0.303591
v -0.103232 0.971845 0.851279
v -0.079014 0.864422 0.935563
v 0.238721 0.828151 0.299097
v 0.061152 0.881878 0.152834
v 0.141719 0.954807 0.303591
v 0.238721 0.828151 0.299097
v 0.087871 0.752704 0.177761
v -0.252383 0.985062 0.882742
v 0.061152 0.881878 0.152834
v 0.087871 0.752704 0.177761
v -0.286963 0.852080 0.881504
v -0.103232 0.971845 0.851279
v -0.252383 0.985062 0.882742
v -0.286963 0.852080 0.881504
v -0.079014 0.864422 0.935563
v -0.125771 0.639655 0.424590
v -0.039219 0.659706 0.236765
v 0.657188 0.639655 0.384973
v 0.658135 0.679197 0.596521
v -0.125771 0.773896 0.424590
v 0.667666 0.800048 0.531826
v 0.596924 0.763491 0.401169
v 0.006934 0.800048 0.297136
v 0.006934 0.800048 0.297136
v 0.596924 0.763491 0.401169
v 0.657188 0.639655 0.384973
v -0.039219 0.659706 0.236765
v -0.125771 0.773896 0.424590
v 0.006934 0.800048 0.297136
v -0.039219 0.659706 0.236765
v -0.125771 0.639655 0.424590
v 0.667666 0.800048 0.531826
v -0.125771 0.773896 0.424590
v -0.125771 0.639655 0.424590
v 0.658135 0.679197 0.596521
v 0.596924 0.763491 0.401169
v 0.667666 0.800048 0.531826
v 0.658135 0.679197 0.596521
v 0.657188 0.639655 0.384973
v -0.363857 0.632926 0.845487
v -0.333145 0.661809 0.642036
v 0.370596 0.765625 0.605586
v 0.418857 0.811107 0.810330
v -0.387080 0.765128 0.847520
v 0.390439 0.929801 0.747200
v 0.296016 0.877762 0.638628
v -0.298066 0.809732 0.690603
v -0.298066 0.809732 0.690603
v 0.296016 0.877762 0.638628
v 0.370596 0.765625 0.605586
v -0.333145 0.661809 0.642036
v -0.387080 0.765128 0.847520
v -0.298066 0.809732 0.690603
v -0.333145 0.661809 0.642036
v -0.363857 0.632926 0.845487
v 0.390439 0.929801 0.747200
v -0.387080 0.765128 0.847520
v -0.363857 0.632926 0.845487
v 0.418857 0.811107 0.810330
v 0.296016 0.877762 0.638628
v 0.390439 0.929801 0.747200
v 0.418857 0.811107 0.810330
v 0.370596 0.765625 0.605586
v 0.575459 0.639655 0.698191
v 0.457607 0.659706 0.868135
v -0.202490 0.639655 0.601250
v -0.166680 0.679197 0.392749
v 0.575459 0.773896 0.698191
v -0.187305 0.800048 0.454810
v -0.140322 0.763491 0.595764
v 0.422637 0.800048 0.800667
v 0.422637 0.800048 0.800667
v -0.140322 0.763491 0.595764
v -0.202490 0.639655 0.601250
v 0.457607 0.659706 0.868135
v 0.575459 0.773896 0.698191
v 0.422637 0.800048 0.800667
v 0.457607 0.659706 0.868135
v 0.575459 0.639655 0.698191
v -0.187305 0.800048 0.454810
v 0.575459 0.773896 0.698191
v 0.575459 0.639655 0.698191
v -0.166680 0.679197 0.392749
v -0.140322 0.763491 0.595764
v -0.187305 0.800048 0.454810
v -0.166680 0.679197 0.392749
v -0.202490 0.639655 0.601250
v -0.495068 0.639655 0.847285
v -0.628721 0.659706 0.689470
v -0.200078 0.639655 0.120940
v -0.007949 0.679197 0.209487
v -0.495068 0.773896 0.847285
v -0.062559 0.800048 0.173511
v -0.210869 0.763491 0.182405
v -0.554502 0.800048 0.673154
v -0.554502 0.800048 0.673154
v -0.210869 0.763491 0.182405
v -0.200078 0.639655 0.120940
v -0.628721 0.659706 0.689470
v -0.495068 0.773896 0.847285
v -0.554502 0.800048 0.673154
v -0.628721 0.659706 0.689470
v -0.495068 0.639655 0.847285
v -0.062559 0.800048 0.173511
v -0.495068 0.773896 0.847285
v -0.495068 0.639655 0.847285
v -0.007949 0.679197 0.209487
v -0.210869 0.763491 0.182405
v -0.062559 0.800048 0.173511
v -0.007949 0.679197 0.209487
v -0.200078 0.639655 0.120940
vt -0.241336 0.010000
vt -0.011792 0.061303
vt -0.010000 0.871095
vt -0.244996 0.922748
vt -0.270249 0.010000
vt -0.272825 0.920601
vt -0.409029 0.820582
vt -0.434482 0.139683
vt -0.799441 0.761972
vt -0.783346 0.079520
vt -0.645003 0.010000
vt -0.637560 0.819581
vt -0.979977 0.220939
vt -0.990000 0.049671
vt -0.824694 0.010000
vt -0.828322 0.238579
vt -0.464003 0.010000
vt -0.459736 0.920346
vt -0.612307 0.926049
vt -0.601434 0.013031
vt -0.958318 0.448407
vt -0.973821 0.310528
vt -0.824694 0.263832
vt -0.825817 0.504824
vt -0.241336 0.010000
vt -0.011792 0.061303
vt -0.010000 0.871095
vt -0.244996 0.922748
vt -0.270249 0.010000
vt -0.272825 0.920601
vt -0.409029 0.820582
vt -0.434482 0.139683
vt -0.799441 0.761972
vt -0.783346 0.079520
vt -0.645003 0.010000
vt -0.637560 0.819581
vt -0.979977 0.220939
vt -0.990000 0.049671
vt -0.824694 0.010000
vt -0.828322 0.238579
vt -0.464003 0.010000
vt -0.459736 0.920346
vt -0.612307 0.926049
vt -0.601434 0.013031
vt -0.958318 0.448407
vt -0.973821 0.310528
vt -0.824694 0.263832
vt -0.825817 0.504824
vt -0.241336 0.010000
vt -0.011792 0.061303
vt -0.010000 0.871095
vt -0.244996 0.922748
vt -0.270249 0.010000
vt -0.272825 0.920601
vt -0.409029 0.820582
vt -0.434482 0.139683
vt -0.799441 0.761972
vt -0.783346 0.079520
vt -0.645003 0.010000
vt -0.637560 0.819581
vt -0.979977 0.220939
vt -0.990000 0.049671
vt -0.824694 0.010000
vt -0.828322 0.238579
vt -0.464003 0.010000
vt -0.459736 0.920346
vt -0.612307 0.926049
vt -0.601434 0.013031
vt -0.958318 0.448407
vt -0.973821 0.310528
vt -0.824694 0.263832
vt -0.825817 0.504824
vt -0.241336 0.010000
vt -0.011792 0.061303
vt -0.010000 0.871095
vt -0.244996 0.922748
vt -0.270249 0.010000
vt -0.272825 0.920601
vt -0.409029 0.820582
vt -0.434482 0.139683
vt -0.799441 0.761972
vt -0.783346 0.079520
vt -0.645003 0.010000
vt -0.637560 0.819581
vt -0.979977 0.220939
vt -0.990000 0.049671
vt -0.824694 0.010000
vt -0.828322 0.238579
vt -0.464003 0.010000
vt -0.459736 0.920346
vt -0.612307 0.926049
vt -0.601434 0.013031
vt -0.958318 0.448407
vt -0.973821 0.310528
vt -0.824694 0.263832
vt -0.825817 0.504824
vt -0.241336 0.010000
vt -0.011792 0.061303
vt -0.010000 0.871095
vt -0.244996 0.922748
vt -0.270249 0.010000
vt -0.272825 0.920601
vt -0.409029 0.820582
vt -0.434482 0.139683
vt -0.799441 0.761972
vt -0.783346 0.079520
vt -0.645003 0.010000
vt -0.637560 0.819581
vt -0.979977 0.220939
vt -0.990000 0.049671
vt -0.824694 0.010000
vt -0.828322 0.238579
vt -0.464003 0.010000
vt -0.459736 0.920346
vt -0.612307 0.926049
vt -0.601434 0.013031
vt -0.958318 0.448407
vt -0.973821 0.310528
vt -0.824694 0.263832
vt -0.825817 0.504824
vn 0.247443 -0.949195 0.194425
vn 0.301883 -0.931312 0.203778
vn 0.061318 -0.985409 0.158776
vn 0.019658 -0.988482 0.150055
vn -0.326360 0.924718 -0.195924
vn 0.064110 0.991566 -0.112635
vn 0.019283 0.992187 -0.123265
vn -0.409332 0.887726 -0.210688
vn 0.758397 0.553582 0.344067
vn 0.816169 0.459181 0.350744
vn 0.804337 0.480404 0.349647
vn 0.751575 0.563405 0.343089
vn 0.658471 0.204239 -0.724363
vn 0.634326 0.506516 -0.584014
vn 0.658667 0.308271 -0.686387
vn 0.632309 -0.018689 -0.774491
vn -0.862595 0.175944 -0.474314
vn -0.901162 -0.254124 -0.351180
vn -0.906276 -0.204137 -0.370123
vn -0.846544 0.224617 -0.482609
vn -0.089989 0.371285 0.924148
vn 0.200806 -0.061315 0.977710
vn -0.002679 0.248561 0.968612
vn -0.238778 0.565538 0.789400
vn -0.002573 -0.998703 -0.050855
vn -0.005498 -0.994064 -0.108655
vn 0.007167 -0.989893 0.141635
vn 0.009295 -0.982941 0.183685
vn 0.018536 0.991132 0.131584
vn 0.005041 0.962291 -0.271975
vn 0.006652 0.973782 -0.227385
vn 0.021234 0.974789 0.222117
vn 0.203495 0.317884 -0.926034
vn 0.182477 0.214310 -0.959569
vn 0.187287 0.237291 -0.953214
vn 0.205623 0.328875 -0.921716
vn -0.837987 0.199999 -0.507719
vn -0.657967 0.469610 -0.588682
vn -0.788127 0.293013 -0.541294
vn -0.908221 0.000000 -0.418490
vn -0.205605 0.429021 0.879584
vn -0.133934 0.000000 0.990990
vn -0.144191 0.052634 0.988149
vn -0.211370 0.474203 0.854666
vn 0.955902 0.203580 -0.211679
vn 0.874753 -0.280499 -0.395130
vn 0.959620 0.059859 -0.274859
vn 0.891213 0.445128 -0.087182
vn 0.157287 -0.985504 -0.063586
vn 0.138895 -0.983179 -0.118607
vn 0.214341 -0.969358 0.120014
vn 0.225934 -0.960880 0.160199
vn -0.120115 0.983212 0.137358
vn -0.231348 0.940333 -0.249503
vn -0.220380 0.953269 -0.206664
vn -0.091527 0.970308 0.223885
vn -0.098704 0.319931 -0.942285
vn -0.109367 0.213325 -0.970841
vn -0.107139 0.236971 -0.965591
vn -0.097475 0.331250 -0.938495
vn -0.961614 0.038346 -0.271714
vn -0.857792 0.332205 -0.392215
vn -0.938888 0.137461 -0.315585
vn -0.970951 -0.167934 -0.170446
vn -0.044408 0.413866 0.909254
vn 0.126508 0.006978 0.991941
vn 0.106922 0.056973 0.992634
vn -0.064091 0.456624 0.887348
vn 0.819636 0.357573 -0.447593
vn 0.779203 -0.138561 -0.611265
vn 0.831847 0.214766 -0.511767
vn 0.748226 0.588143 -0.306996
vn -0.006297 -0.998703 0.050529
vn -0.013453 -0.994064 0.107959
vn 0.017537 -0.989893 -0.140728
vn 0.022743 -0.982941 -0.182509
vn 0.004596 0.991132 -0.132804
vn -0.052192 0.962291 0.266967
vn -0.046036 0.973782 0.222775
vn 0.017659 0.974789 -0.222430
vn -0.361207 0.317884 0.876630
vn -0.346332 0.214310 0.913305
vn -0.349966 0.237290 0.906210
vn -0.362553 0.328875 0.872007
vn 0.737092 0.199998 0.645520
vn 0.545747 0.469609 0.693994
vn 0.682159 0.293013 0.669927
vn 0.821753 0.000000 0.569843
vn 0.355219 0.429021 -0.830518
vn 0.303983 0.000000 -0.952677
vn 0.313590 0.052634 -0.948099
vn 0.356570 0.474203 -0.804978
vn -0.978137 0.203580 0.042472
vn -0.930077 -0.280500 0.237228
vn -0.992769 0.059859 0.104047
vn -0.892812 0.445128 -0.068900
vn -0.047177 -0.998703 -0.019160
vn -0.100799 -0.994064 -0.040937
vn 0.131394 -0.989893 0.053362
vn 0.170403 -0.982941 0.069205
vn 0.127089 0.991132 0.038811
vn -0.244362 0.962291 -0.119510
vn -0.203270 0.973782 -0.102126
vn 0.210280 0.974789 0.074626
vn -0.753272 0.317884 -0.575788
vn -0.792547 0.214310 -0.570912
vn -0.784754 0.237291 -0.572585
vn -0.748459 0.328875 -0.575891
vn -0.814298 0.199999 0.544903
vn -0.811596 0.469609 0.347532
vn -0.823656 0.293013 0.485525
vn -0.763112 0.000000 0.646266
vn 0.710281 0.429021 0.558069
vn 0.841539 -0.000000 0.540196
vn 0.834630 0.052634 0.548291
vn 0.685262 0.474203 0.552764
vn 0.212135 0.203580 -0.955800
vn 0.011577 -0.280500 -0.959784
vn 0.156446 0.059859 -0.985871
vn 0.297629 0.445128 -0.844558
f 564/564/564 563/563/563 562/562/562
f 562/562/562 565/565/565 564/564/564
f 568/568/568 567/567/567 566/566/566
f 566/566/566 569/569/569 568/568/568
f 572/572/572 571/571/571 570/570/570
f 570/570/570 573/573/573 572/572/572
f 576/576/576 575/575/575 574/574/574
f 574/574/574 577/577/577 576/576/576
f 580/580/580 579/579/579 578/578/578
f 578/578/578 581/581/581 580/580/580
f 584/584/584 583/583/583 582/582/582
f 582/582/582 585/585/585 584/584/584
f 588/588/588 587/587/587 586/586/586
f 586/586/586 589/589/589 588/588/588
f 592/592/592 591/591/591 590/590/590
f 590/590/590 593/593/593 592/592/592
f 596/596/596 595/595/595 594/594/594
f 594/594/594 597/597/597 596/596/596
f 600/600/600 599/599/599 598/598/598
f 598/598/598 601/601/601 600/600/600
f 604/604/604 603/603/603 602/602/602
f 602/602/602 605/605/605 604/604/604
f 608/608/608 607/607/607 606/606/606
f 606/606/606 609/609/609 608/608/608
f 612/612/612 611/611/611 610/610/610
f 610/610/610 613/613/613 612/612/612
f 616/616/616 615/615/615 614/614/614
f 614/614/614 617/617/617 616/616/616
f 620/620/620 619/619/619 618/618/618
f 618/618/618 621/621/621 620/620/620
f 624/624/624 623/623/623 622/622/622
f 622/622/622 625/625/625 624/624/624
f 628/628/628 627/627/627 626/626/626
f 626/626/626 629/629/629 628/628/628
f 632/632/632 631/631/631 630/630/630
f 630/630/630 633/633/633 632/632/632
f 636/636/636 635/635/635 634/634/634
f 634/634/634 637/637/637 636/636/636
f 640/640/640 639/639/639 638/638/638
f 638/638/638 641/641/641 640/640/640
f 644/644/644 643/643/643 642/642/642
f 642/642/642 645/645/645 644/644/644
f 648/648/648 647/647/647 646/646/646
f 646/646/646 649/649/649 648/648/648
f 652/652/652 651/651/651 650/650/650
f 650/650/650 653/653/653 652/652/652
f 656/656/656 655/655/655 654/654/654
f 654/654/654 657/657/657 656/656/656
f 660/660/660 659/659/659 658/658/658
f 658/658/658 661/661/661 660/660/660
f 664/664/664 663/663/663 662/662/662
f 662/662/662 665/665/665 664/664/664
f 668/668/668 667/667/667 666/666/666
f 666/666/666 669/669/669 668/668/668
f 672/672/672 671/671/671 670/670/670
f 670/670/670 673/673/673 672/672/672
f 676/676/676 675/675/675 674/674/674
f 674/674/674 677/677/677 676/676/676
f 680/680/680 679/679/679 678/678/678
f 678/678/678 681/681/681 680/680/680
